<svg xmlns="http://www.w3.org/2000/svg" width="2306.632" height="1911.135" viewBox="0 0 2306.632 1911.135">
  <g id="Group_29" data-name="Group 29" transform="translate(824.822 -1637.365)">
    <path id="Path_422" data-name="Path 422" d="M467.316,309.584c-5.263-5.273-36.883-39.725-49.872-55.125-10.136-12.038-14.609-15.63-21.444-16.991V154.586a43.136,43.136,0,0,0-6.814-23.275,6.7,6.7,0,0,0,3.042-.62,6.909,6.909,0,0,0,3.222-9.216l-5.484,2.642a7.044,7.044,0,0,0,.7-2.522,6.9,6.9,0,0,0-6.384-7.385l-.73,10.006a43.143,43.143,0,0,0-30.86-12.938H336.1c-.2,0-.4.05-.6.05A33.94,33.94,0,1,0,302.422,170.6c-.27,2.792-.51,5.594-.73,8.325a29.052,29.052,0,0,0,8.2,22.494v32.721h-4.333c-12.058,0-18.582,4.913-31.57,20.323s-44.6,49.852-49.862,55.125-11.2,10.437-3.8,18.592c10.257,11.3,32.411,29.889,45.309,40.766,10.8,9.106,16.651,14.019,21.894,14.249-1.081,5.894-2.071,12.458-2.892,20.013-5.023,46.439-12.308,131.863-12.308,131.863a57.64,57.64,0,0,0,9.686,3.672c.06-1.811.12-3.532.18-5.313-.06,1.731-.11,3.552-.17,5.313-.06,1.861-.12,3.693-.17,5.584-.05,1.591-.1,3.192-.15,4.813-.07,2.512-.15,4.9-.22,7.475-2.231,82.052-.991,158.971-1.821,169.117-1.581,19.492-10.4,37.714-14.679,48.781a52.843,52.843,0,0,0-1.941,5.594c-2.5,9.606-20.843,11.667-20.843,11.667s15.8,1.571,27.1,1.471c-11.3.1-27.1-1.471-27.1-1.471s18.342-2.061,20.843-11.667a52.843,52.843,0,0,1,1.941-5.594l-.02-.01c-1.131,3.042-11.667,4.283-19.072,5.6s-10.287,13.148-3.692,13.148h38.885c3.7,0,11.908-14.729,15.61-22.4s7.595-11.377,7.595-11.377v33.781h6.174s1.851-16.32,3.963-32.19c2.111-15.85,7.9-20.173-2.321-38.154v-.01c-2.011-5.143-3.592-11.267-2.332-22.254,1.881-16.31,13.048-83.433,14.3-99.113s-.39-33.621,1.661-55.3l.06-.55c5.834.34,12.168.55,19.092.55,6.714,0,12.888-.19,18.572-.51l.05.51c2.051,21.674.41,39.615,1.661,55.3s12.418,82.8,14.3,99.113c1.271,10.987-.32,17.111-2.321,22.254h0v.01c-10.226,17.981-4.443,22.314-2.332,38.154,2.121,15.87,3.972,32.19,3.972,32.19h6.164V759.469s3.892,3.7,7.595,11.377,11.908,22.4,15.62,22.4h38.875c6.594,0,3.732-11.817-3.682-13.148s-17.951-2.562-19.072-5.6l-.02.01A54.925,54.925,0,0,1,426.2,780.1c2.512,9.606,20.843,11.667,20.843,11.667s-15.79,1.571-27.087,1.471c11.3.1,27.087-1.471,27.087-1.471S428.712,789.708,426.2,780.1a54.925,54.925,0,0,0-1.931-5.594h0c-4.293-11.067-13.108-29.289-14.689-48.781-.82-10.146.41-87.065-1.821-169.117-.06-2.512-.14-4.853-.21-7.315-.05-1.611-.1-3.212-.14-4.8-.06-1.891-.12-3.732-.18-5.594-.06-1.811-.11-3.682-.17-5.453.06,1.821.12,3.592.18,5.453a60.014,60.014,0,0,0,10.206-3.832S410.17,449.643,405.137,403.2c-.681-6.344-1.5-12.038-2.411-17.251-.1-.57-.2-1.1-.31-1.661-.07-.41-.15-.8-.23-1.211-.23-1.231-.45-2.5-.7-3.672.25,1.181.48,2.432.71,3.672,5.714.911,11.627-4.033,23.605-14.139,12.908-10.877,35.062-29.469,45.319-40.766C478.513,320.021,472.59,314.858,467.316,309.584ZM284.711,361.567l-33.891-38.985,42.036-39.915c-.04.27-.09.55-.13.821a116.4,116.4,0,0,0,.57,36.983c.24,1.281.49,2.462.741,3.5.1.42.2.76.29,1.141.2.72.38,1.381.57,1.941.08.26.16.53.25.75a6.473,6.473,0,0,0,1.391,2.572,13.839,13.839,0,0,0,2.151,2.071c.45.35.941.71,1.471,1.061a31.229,31.229,0,0,0,3.8,2.081c.39.18.831.36,1.251.53h-.05c-1.251,2.211-3,4.813-4.973,8.345h0c-2.452,1.161-4.663,2.5-5.714,3.963C291.685,352.352,284.711,361.567,284.711,361.567Zm107.428-85.494.03.5h0l-.01-.22-.05-.71Zm27.888,498.7c-20.323-.69-27.687-30.419-30.909-38.855-3.442-9-11.908-13.128-11.908-13.128h0s8.465,4.133,11.908,13.128C392.339,744.35,399.7,774.078,420.026,774.769ZM407.809,362.988s-8.045-10.637-10.837-14.559c-1.491-2.081-5.333-3.9-8.9-5.3l-.981-1.151c-.59-.82-1.171-1.581-1.731-2.281-.16-.19-.31-.38-.46-.56q-.705-.84-1.381-1.591c-.14-.16-.29-.33-.44-.491-.55-.59-1.081-1.151-1.581-1.661h-.01l.34-.16a34.849,34.849,0,0,0,3.462-1.991,29.136,29.136,0,0,0,4.273-3.452c3.842-3.712,4.773-22.274,3.222-44.228-.12-1.721-.24-3.472-.36-5.223l-.08-1.181-.18-2.582,48.451,46.009Z" transform="translate(-595.375 1603.359)" fill="none" stroke="#13b6d1" stroke-miterlimit="10" stroke-width="17"/>
    <path id="Path_423" data-name="Path 423" d="M585.41,309.584c-5.273-5.273-36.893-39.725-49.872-55.125-10.147-12.038-14.619-15.63-21.444-16.991V154.586a43.057,43.057,0,0,0-6.824-23.275,6.669,6.669,0,0,0,3.042-.62,6.891,6.891,0,0,0,3.222-9.216l-5.484,2.642a6.662,6.662,0,0,0,.7-2.522,6.889,6.889,0,0,0-6.384-7.385l-.73,10.006a43.137,43.137,0,0,0-30.85-12.938h-16.6c-.2,0-.4.05-.6.05a33.723,33.723,0,0,0-16.771-4.573,33.974,33.974,0,0,0-16.3,63.84c-.27,2.792-.52,5.594-.731,8.325a29.016,29.016,0,0,0,8.2,22.494v32.721h-4.332c-12.058,0-18.592,4.913-31.57,20.323s-44.6,49.852-49.872,55.125-11.187,10.437-3.792,18.592c10.247,11.3,32.411,29.889,45.309,40.766,10.787,9.106,16.651,14.019,21.884,14.249-1.081,5.894-2.061,12.458-2.882,20.013-5.033,46.439-12.308,131.863-12.308,131.863a57.16,57.16,0,0,0,9.686,3.672c.05-1.811.11-3.532.17-5.313-.06,1.731-.11,3.552-.17,5.313-.05,1.861-.11,3.693-.17,5.584-.05,1.591-.09,3.192-.14,4.813-.07,2.512-.15,4.9-.22,7.475-2.231,82.052-1,158.971-1.821,169.117-1.581,19.492-10.4,37.714-14.689,48.781a54.881,54.881,0,0,0-1.931,5.594c-2.512,9.606-20.844,11.667-20.844,11.667s15.8,1.571,27.087,1.471c-11.3.1-27.087-1.471-27.087-1.471s18.332-2.061,20.844-11.667a54.881,54.881,0,0,1,1.931-5.594l-.02-.01c-1.121,3.042-11.667,4.283-19.072,5.6S353.7,793.251,360.3,793.251h38.885c3.7,0,11.908-14.729,15.61-22.4s7.595-11.377,7.595-11.377v33.781h6.164s1.851-16.32,3.973-32.19c2.111-15.85,7.9-20.173-2.332-38.154v-.01c-2-5.143-3.592-11.267-2.322-22.254,1.881-16.31,13.038-83.433,14.3-99.113s-.39-33.621,1.661-55.3l.05-.55c5.834.34,12.168.55,19.1.55,6.714,0,12.888-.19,18.572-.51l.05.51c2.052,21.674.41,39.615,1.661,55.3s12.418,82.8,14.3,99.113c1.271,10.987-.32,17.111-2.332,22.254h0v.01c-10.216,17.981-4.433,22.314-2.321,38.154,2.121,15.87,3.972,32.19,3.972,32.19h6.164V759.469s3.893,3.7,7.595,11.377,11.908,22.4,15.61,22.4h38.885c6.594,0,3.722-11.817-3.682-13.148s-17.951-2.562-19.082-5.6l-.01.01a54.974,54.974,0,0,1,1.931,5.594c2.512,9.606,20.843,11.667,20.843,11.667s-15.8,1.571-27.1,1.471c11.3.1,27.1-1.471,27.1-1.471s-18.331-2.061-20.843-11.667a54.974,54.974,0,0,0-1.931-5.594h0c-4.293-11.067-13.108-29.289-14.69-48.781-.82-10.146.41-87.065-1.821-169.117-.07-2.512-.14-4.853-.22-7.315-.04-1.611-.09-3.212-.14-4.8-.06-1.891-.12-3.732-.17-5.594-.06-1.811-.12-3.682-.17-5.453.06,1.821.12,3.592.18,5.453a60.494,60.494,0,0,0,10.207-3.832S528.253,449.643,523.23,403.2c-.69-6.344-1.511-12.038-2.411-17.251-.1-.57-.21-1.1-.31-1.661-.08-.41-.16-.8-.23-1.211-.23-1.231-.46-2.5-.7-3.672.24,1.181.47,2.432.71,3.672,5.714.911,11.628-4.033,23.605-14.139,12.9-10.877,35.052-29.469,45.309-40.766C596.6,320.021,590.673,314.858,585.41,309.584ZM402.8,361.567l-33.891-38.985,42.037-39.915c-.04.27-.09.55-.13.821a116.441,116.441,0,0,0,.56,36.983c.24,1.281.49,2.462.74,3.5.1.42.2.76.3,1.141.19.72.381,1.381.56,1.941.09.26.17.53.25.75a10.126,10.126,0,0,0,.68,1.581,9.29,9.29,0,0,0,.71.991,13.967,13.967,0,0,0,2.161,2.071c.44.35.931.71,1.471,1.061a29.8,29.8,0,0,0,3.8,2.081c.39.18.83.36,1.241.53h-.05c-1.241,2.211-2.992,4.813-4.963,8.345h0c-2.462,1.161-4.673,2.5-5.714,3.963C409.768,352.352,402.8,361.567,402.8,361.567Zm107.418-85.494.04.5h0l-.02-.22-.05-.71Zm27.9,498.7c-20.323-.69-27.7-30.419-30.919-38.855-3.442-9-11.908-13.128-11.908-13.128h0s8.465,4.133,11.908,13.128C510.422,744.35,517.8,774.078,538.12,774.769ZM525.9,362.988s-8.045-10.637-10.847-14.559c-1.491-2.081-5.334-3.9-8.886-5.3l-.981-1.151q-.886-1.231-1.741-2.281c-.15-.19-.3-.38-.46-.56-.461-.56-.921-1.091-1.371-1.591-.15-.16-.3-.33-.45-.491-.54-.59-1.081-1.151-1.581-1.661h-.01l.34-.16a33.934,33.934,0,0,0,3.472-1.991,29.107,29.107,0,0,0,4.273-3.452c3.842-3.712,4.763-22.274,3.222-44.228-.12-1.721-.24-3.472-.371-5.223l-.08-1.181-.17-2.582,48.451,46.009Z" transform="translate(468.21 1603.359)" fill="none" stroke="#13b6d1" stroke-miterlimit="10" stroke-width="17"/>
    <path id="Path_424" data-name="Path 424" d="M465.217,353.908c-2-3.212-34.942-47.79-45.789-64.261s-18.872-27.307-23.655-29.439c-2.672-2.912-28.058-10.4-42.377-14.439h0c-4.953-13.619-10.457-14-10.457-14l-.37-5.614,6.224-1.121a28.86,28.86,0,0,0,23.315-33.5l-5.644-31.5a34.651,34.651,0,0,0-3.612-10.026l.15-.1c17.071-12.438,11.447-32.581,8.546-28.918-3.963,4.993-14.96,9.156-14.96,9.156,5.5-12.658,4.843-23.545,3-28.148s-8.265.9-23,9.416c-18.382,10.627-38.234,17.8-48.271,23.095A11.734,11.734,0,0,0,284.3,138l-5.734-7.825a7.014,7.014,0,0,0,.45,11.667l-6.184.69a7.06,7.06,0,0,0,7.795,6.234,6.724,6.724,0,0,0,1.2-.38,68.552,68.552,0,0,0,1.831,10.317c1.081,4.773,3.192,15.63,4.073,20.213l.39,2.241a9.935,9.935,0,0,0-4.813,2.892c-7.335,7.755-.11,20.533,6.244,23.355a14.425,14.425,0,0,0,3.522.981,15.23,15.23,0,0,0,12.1,11.037l.35,4.313h0l.831,10.006h0l-.42-5c-5.433-.48-11.467,15-12.148,16.791-12.768,4.963-30.879,12.058-36,14.249h0l-.03.01c-.65.29-1.161.51-1.341.61a3.351,3.351,0,0,0-.28.26c-8.746,4.583-20.563,22.384-35.462,47.33-10.577,17.721-40.636,59.828-44.5,67.863s-5.143,16.731,2.572,22.2c5.323,3.763,37.944,21.684,57.737,32.461h0l3.182,1.731h0c7.175,3.9,12.068,6.554,12.068,6.554l2.051-2.942c10.086,6.794,16.4,9.366,21.393,9.7C250.461,584.474,243.6,822.435,243.6,822.435c-9.276,5.954-19.072,9.236-35.653,10.077s-20.873.991-20.873.991-2.7,1.871.41,6.484c2.442,3.612,9.506,6.3,18.211,6.3h23.165a36.833,36.833,0,0,0,15.83-3.572l3.913-1.861.13,5.433h20.183V822.435L330.551,531.35l42.007,291.084V846.29h20.193l.12-5.433,3.922,1.861a36.823,36.823,0,0,0,15.82,3.572h23.165c8.715,0,15.78-2.692,18.222-6.3,3.112-4.613.41-6.484.41-6.484s-4.293-.14-20.873-.991-26.387-4.123-35.662-10.077c0,0,5.133-103.445,3.6-172.319-1.3-58.477-7.014-152.7-12.618-212.985h.01c4.363.04,10.416-6.684,15.66-11.167l1.7,1.821s3.742-3.592,9.276-8.926h0l2.572-2.481h0c15.54-14.99,41.506-40.106,47.14-46C472.611,362.633,467.228,357.12,465.217,353.908ZM265.97,418.359l-39.285-38.965,38.344-58.1.15.72c.33,1.561.65,3.142.981,4.723l.46,2.231.18.861c1.081,5.293,2.161,10.577,3.172,15.65.14.7.27,1.381.41,2.081.35,1.741.69,3.452,1.011,5.123.18.9.35,1.771.52,2.652.27,1.4.53,2.772.79,4.1.17.881.33,1.751.49,2.592.24,1.251.45,2.432.671,3.592.14.78.29,1.561.42,2.291.2,1.171.39,2.221.56,3.252.1.56.21,1.171.3,1.691.22,1.371.42,2.582.57,3.622l.04.26c.56,3.992,1.131,7.975,1.681,11.768,1.521,10.4,2.942,19.262,4,23.265-3.823,5.123-7.9,10.507-7.9,10.507Zm124.5-7.435-4.453-1.451c-.03-.31-.07-.681-.11-.991a9.845,9.845,0,0,0,.34-1.221c.05-.18.1-.42.15-.64.09-.41.18-.851.28-1.361l.19-1.011c.1-.54.2-1.131.31-1.761.07-.42.14-.831.22-1.281.12-.7.24-1.471.36-2.251.07-.47.14-.89.22-1.381q.285-1.891.6-4.022c.08-.54.16-1.141.24-1.7.13-.981.27-1.951.41-2.992.1-.731.2-1.481.3-2.232l.24-1.791h0c2.241-17.061,4.723-40.225,5.824-59.658l30.669,34.352Z" transform="translate(-989.426 1545.526)" fill="none" stroke="#13b6d1" stroke-miterlimit="10" stroke-width="17"/>
    <path id="Path_425" data-name="Path 425" d="M545.753,353.908c-2.011-3.212-34.942-47.79-45.789-64.261S481.082,262.34,476.3,260.209c-2.672-2.912-28.058-10.4-42.367-14.439h0c-4.953-13.619-10.466-14-10.466-14l-.371-5.614,6.224-1.121a28.86,28.86,0,0,0,23.314-33.5l-5.643-31.5a34.943,34.943,0,0,0-3.6-10.026l.14-.1c17.071-12.438,11.457-32.581,8.555-28.918-3.973,4.993-14.96,9.156-14.96,9.156,5.494-12.658,4.833-23.545,2.992-28.148s-8.266.9-22.995,9.416c-18.382,10.627-38.244,17.8-48.271,23.095A11.734,11.734,0,0,0,364.838,138l-5.744-7.825a7.064,7.064,0,0,0-1.521,9.866,6.913,6.913,0,0,0,1.981,1.8l-6.194.69a7.064,7.064,0,0,0,7.805,6.234,6.893,6.893,0,0,0,1.191-.38,69.8,69.8,0,0,0,1.831,10.317c1.091,4.773,3.192,15.63,4.073,20.213l.4,2.241a9.891,9.891,0,0,0-4.813,2.892c-7.345,7.755-.12,20.533,6.234,23.355a14.622,14.622,0,0,0,3.532.981A15.2,15.2,0,0,0,385.7,219.423l.36,4.313h0l.82,10.006h0l-.41-5c-5.443-.48-11.477,15-12.158,16.791-12.758,4.963-30.88,12.058-36,14.249h0l-.02.01c-.66.29-1.17.51-1.34.61a2.327,2.327,0,0,0-.29.26c-8.736,4.583-20.553,22.384-35.453,47.33-10.587,17.721-40.636,59.828-44.5,67.863s-5.153,16.731,2.572,22.2c5.313,3.763,37.944,21.684,57.726,32.461h0l3.182,1.731h0c7.175,3.9,12.078,6.554,12.078,6.554l2.042-2.942c10.086,6.794,16.41,9.366,21.4,9.7-24.726,138.918-31.58,376.878-31.58,376.878-9.276,5.954-19.072,9.236-35.663,10.077s-20.873.991-20.873.991-2.692,1.871.42,6.484c2.442,3.612,9.5,6.3,18.212,6.3h23.165a36.824,36.824,0,0,0,15.82-3.572l3.922-1.861.12,5.433h20.193V822.435L411.077,531.35l42.017,291.084V846.29h20.183l.13-5.433,3.913,1.861a36.832,36.832,0,0,0,15.83,3.572h23.165c8.705,0,15.77-2.692,18.211-6.3,3.112-4.613.41-6.484.41-6.484s-4.293-.14-20.873-.991-26.377-4.123-35.652-10.077c0,0,5.123-103.445,3.592-172.319-1.3-58.477-7.015-152.7-12.618-212.985h.02c4.363.04,10.416-6.684,15.65-11.167l1.711,1.821s3.732-3.592,9.266-8.926h0l2.572-2.481h0c15.539-14.99,41.506-40.106,47.15-46C553.137,362.633,547.754,357.12,545.753,353.908ZM346.5,418.359l-39.275-38.965,38.334-58.1.16.72c.32,1.561.65,3.142.971,4.723l.46,2.231.18.861c1.091,5.293,2.161,10.577,3.172,15.65.14.7.28,1.381.421,2.081.34,1.741.68,3.452,1.01,5.123.18.9.34,1.771.51,2.652.28,1.4.541,2.772.791,4.1.17.881.34,1.751.491,2.592.24,1.251.46,2.432.67,3.592.14.78.29,1.561.42,2.291.211,1.171.39,2.221.57,3.252.09.56.2,1.171.29,1.691.23,1.371.42,2.582.57,3.622l.04.26c.57,3.992,1.141,7.975,1.691,11.768,1.521,10.4,2.932,19.262,4,23.265-3.822,5.123-7.9,10.507-7.9,10.507ZM471,410.924l-4.443-1.451c-.04-.31-.08-.681-.11-.991.09-.26.21-.69.34-1.221.04-.18.09-.42.14-.64.09-.41.18-.851.28-1.361l.19-1.011c.1-.54.21-1.131.32-1.761.07-.42.14-.831.21-1.281.12-.7.24-1.471.37-2.251.07-.47.14-.89.21-1.381q.3-1.891.6-4.022c.08-.54.16-1.141.24-1.7.14-.981.28-1.951.42-2.992.1-.731.2-1.481.3-2.232l.24-1.791h-.01c2.241-17.061,4.723-40.225,5.834-59.658l30.659,34.352Z" transform="translate(-264.122 1545.526)" fill="none" stroke="#13b6d1" stroke-miterlimit="10" stroke-width="17"/>
    <path id="Path_426" data-name="Path 426" d="M664.467,353.908c-2.011-3.212-34.942-47.79-45.789-64.261s-18.872-27.307-23.655-29.439c-2.671-2.912-28.057-10.4-42.376-14.439h0c-4.953-13.619-10.457-14-10.457-14l-.37-5.614,6.224-1.121a28.86,28.86,0,0,0,23.315-33.5l-5.644-31.5a34.646,34.646,0,0,0-3.612-10.026l.15-.1c17.071-12.438,11.447-32.581,8.545-28.918-3.962,4.993-14.959,9.156-14.959,9.156,5.5-12.658,4.843-23.545,3-28.148s-8.265.9-23,9.416c-18.381,10.627-38.234,17.8-48.27,23.095A11.737,11.737,0,0,0,483.552,138l-5.734-7.825a7.014,7.014,0,0,0,.45,11.667l-6.184.69a7.06,7.06,0,0,0,7.795,6.234,6.72,6.72,0,0,0,1.2-.38A68.512,68.512,0,0,0,482.9,158.7c1.09,4.773,3.2,15.63,4.082,20.213l.39,2.241a9.935,9.935,0,0,0-4.813,2.892c-7.335,7.755-.11,20.533,6.244,23.355a14.422,14.422,0,0,0,3.522.981,15.23,15.23,0,0,0,12.1,11.037l.35,4.313h0l.83,10.006h0l-.42-5c-5.443-.48-11.467,15-12.147,16.791-12.768,4.963-30.88,12.058-36,14.249h0l-.03.01c-.65.29-1.161.51-1.341.61a3.321,3.321,0,0,0-.28.26c-8.745,4.583-20.563,22.384-35.463,47.33-10.577,17.721-40.636,59.828-44.5,67.863s-5.143,16.731,2.572,22.2c5.323,3.763,37.944,21.684,57.736,32.461h0l3.182,1.731h0c7.175,3.9,12.068,6.554,12.068,6.554l2.051-2.942c10.086,6.794,16.4,9.366,21.394,9.7-24.716,138.918-31.58,376.878-31.58,376.878-9.276,5.954-19.072,9.236-35.652,10.077s-20.873.991-20.873.991-2.7,1.871.41,6.484c2.442,3.612,9.506,6.3,18.212,6.3h23.164a36.833,36.833,0,0,0,15.83-3.572l3.912-1.861.13,5.433h20.183V822.435L529.8,531.35l42.007,291.084V846.29H592l.12-5.433,3.923,1.861a36.822,36.822,0,0,0,15.82,3.572h23.164c8.716,0,15.77-2.692,18.211-6.3,3.122-4.613.42-6.484.42-6.484s-4.293-.14-20.873-.991-26.387-4.123-35.663-10.077c0,0,5.133-103.445,3.6-172.319-1.3-58.477-7.014-152.7-12.618-212.985h.01c4.363.04,10.417-6.684,15.66-11.167l1.7,1.821s3.742-3.592,9.276-8.926h0l2.572-2.481h0c15.54-14.99,41.506-40.106,47.14-46C671.861,362.633,666.478,357.12,664.467,353.908ZM465.221,418.359l-39.285-38.965,38.344-58.1.15.72c.33,1.561.651,3.142.98,4.723l.461,2.231.18.861c1.081,5.293,2.161,10.577,3.172,15.65.14.7.27,1.381.41,2.081q.525,2.612,1.011,5.123c.18.9.35,1.771.52,2.652.27,1.4.53,2.772.791,4.1.17.881.33,1.751.49,2.592.24,1.251.451,2.432.671,3.592.14.78.28,1.561.42,2.291.2,1.171.39,2.221.56,3.252.1.56.21,1.171.3,1.691.22,1.371.42,2.582.57,3.622l.04.26c.56,3.992,1.131,7.975,1.681,11.768,1.521,10.4,2.942,19.262,4,23.265-3.822,5.123-7.9,10.507-7.9,10.507Zm124.5-7.435-4.453-1.451c-.03-.31-.07-.681-.11-.991a9.769,9.769,0,0,0,.34-1.221c.05-.18.1-.42.15-.64.09-.41.18-.851.28-1.361l.19-1.011c.1-.54.2-1.131.31-1.761.07-.42.14-.831.22-1.281.12-.7.24-1.471.36-2.251.07-.47.14-.89.22-1.381q.285-1.891.6-4.022c.08-.54.16-1.141.24-1.7.13-.981.27-1.951.41-2.992.1-.731.2-1.481.3-2.232l.24-1.791h0c2.242-17.061,4.723-40.225,5.824-59.658l30.669,34.352Z" transform="translate(805.086 1545.526)" fill="none" stroke="#13b6d1" stroke-miterlimit="10" stroke-width="17"/>
    <path id="Path_427" data-name="Path 427" d="M585.231,353.908c-2.011-3.212-34.942-47.79-45.789-64.261s-18.882-27.307-23.665-29.439c-2.672-2.912-28.058-10.4-42.367-14.439h0c-4.953-13.619-10.467-14-10.467-14l-.371-5.614,6.224-1.121a28.861,28.861,0,0,0,23.315-33.5l-5.644-31.5a34.934,34.934,0,0,0-3.6-10.026l.14-.1c17.071-12.438,11.457-32.581,8.555-28.918-3.972,4.993-14.959,9.156-14.959,9.156,5.494-12.658,4.833-23.545,2.992-28.148s-8.266.9-22.995,9.416c-18.382,10.627-38.244,17.8-48.271,23.095A11.739,11.739,0,0,0,404.316,138l-5.744-7.825a7.064,7.064,0,0,0-1.521,9.866,6.906,6.906,0,0,0,1.981,1.8l-6.184.69a7.048,7.048,0,0,0,7.795,6.234,6.885,6.885,0,0,0,1.191-.38,69.8,69.8,0,0,0,1.831,10.317c1.091,4.773,3.192,15.63,4.073,20.213l.4,2.241a9.891,9.891,0,0,0-4.813,2.892c-7.345,7.755-.12,20.533,6.234,23.355a14.619,14.619,0,0,0,3.532.981,15.2,15.2,0,0,0,12.087,11.037l.36,4.313h0l.821,10.006h0l-.41-5c-5.443-.48-11.477,15-12.158,16.791-12.758,4.963-30.88,12.058-36,14.249h0l-.02.01c-.66.29-1.171.51-1.341.61a2.351,2.351,0,0,0-.29.26c-8.735,4.583-20.553,22.384-35.453,47.33-10.587,17.721-40.635,59.828-44.5,67.863s-5.153,16.731,2.572,22.2c5.323,3.763,37.944,21.684,57.726,32.461h0l3.182,1.731h0c7.175,3.9,12.078,6.554,12.078,6.554l2.041-2.942c10.1,6.794,16.41,9.366,21.4,9.7-24.726,138.918-31.58,376.878-31.58,376.878-9.276,5.954-19.072,9.236-35.653,10.077s-20.873.991-20.873.991-2.7,1.871.41,6.484c2.442,3.612,9.5,6.3,18.212,6.3h23.164a36.824,36.824,0,0,0,15.82-3.572l3.922-1.861.12,5.433h20.193V822.435L450.566,531.35l42.007,291.084V846.29h20.183l.13-5.433,3.912,1.861a36.867,36.867,0,0,0,15.83,3.572h23.164c8.716,0,15.77-2.692,18.212-6.3,3.112-4.613.41-6.484.41-6.484s-4.293-.14-20.873-.991-26.377-4.123-35.652-10.077c0,0,5.123-103.445,3.592-172.319-1.3-58.477-7.015-152.7-12.618-212.985h.02c4.363.04,10.416-6.684,15.65-11.167l1.711,1.821s3.732-3.592,9.266-8.926h0l2.572-2.481h0c15.539-14.99,41.516-40.106,47.15-46C592.625,362.633,587.232,357.12,585.231,353.908ZM385.984,418.359,346.7,379.394l38.345-58.1.15.72c.32,1.561.651,3.142.971,4.723l.47,2.231.17.861c1.091,5.293,2.161,10.577,3.172,15.65.14.7.28,1.381.42,2.081q.51,2.612,1.011,5.123c.18.9.34,1.771.511,2.652.28,1.4.54,2.772.79,4.1.17.881.34,1.751.5,2.592.23,1.251.45,2.432.66,3.592.14.78.29,1.561.42,2.291.21,1.171.39,2.221.57,3.252.09.56.21,1.171.29,1.691.23,1.371.42,2.582.57,3.622l.04.26c.57,3.992,1.141,7.975,1.691,11.768,1.521,10.4,2.932,19.262,4,23.265-3.822,5.123-7.895,10.507-7.895,10.507Zm124.489-7.435-4.443-1.451c-.04-.31-.08-.681-.11-.991.09-.26.211-.69.34-1.221.04-.18.09-.42.14-.64.09-.41.18-.851.28-1.361l.19-1.011c.1-.54.21-1.131.32-1.761.07-.42.14-.831.21-1.281.12-.7.24-1.471.37-2.251.07-.47.14-.89.211-1.381q.3-1.891.6-4.022c.08-.54.16-1.141.24-1.7.14-.981.28-1.951.42-2.992.1-.731.2-1.481.3-2.232l.24-1.791h-.01c2.241-17.061,4.733-40.225,5.834-59.658l30.659,34.352Z" transform="translate(91.43 1545.526)" fill="none" stroke="#13b6d1" stroke-miterlimit="10" stroke-width="17"/>
    <rect id="Rectangle_4" data-name="Rectangle 4" width="173.264" height="1142.901" transform="translate(-739.122 2397.099)" fill="none" stroke="#00729c" stroke-miterlimit="10" stroke-width="17"/>
    <rect id="Rectangle_5" data-name="Rectangle 5" width="173.264" height="1142.901" transform="translate(-341.421 2397.099)" fill="none" stroke="#00729c" stroke-miterlimit="10" stroke-width="17"/>
    <rect id="Rectangle_6" data-name="Rectangle 6" width="173.264" height="1142.901" transform="translate(56.281 2397.099)" fill="none" stroke="#00729c" stroke-miterlimit="10" stroke-width="17"/>
    <rect id="Rectangle_7" data-name="Rectangle 7" width="173.264" height="1142.901" transform="translate(453.982 2397.099)" fill="none" stroke="#00729c" stroke-miterlimit="10" stroke-width="17"/>
    <rect id="Rectangle_8" data-name="Rectangle 8" width="173.264" height="1142.901" transform="translate(1253.189 2397.099)" fill="none" stroke="#00729c" stroke-miterlimit="10" stroke-width="17"/>
    <rect id="Rectangle_9" data-name="Rectangle 9" width="173.264" height="1142.901" transform="translate(855.488 2397.099)" fill="none" stroke="#00729c" stroke-miterlimit="10" stroke-width="17"/>
  </g>
</svg>
