<svg id="Layer_1" data-name="Layer 1" xmlns="http://www.w3.org/2000/svg" viewBox="0 0 841.89 595.28" style=""><defs><style>.cls-1{fill:#959494;opacity:0.52;}.cls-2{opacity:0.33;}.cls-3,.cls-4{fill:none;}.cls-3{stroke:#989899;stroke-miterlimit:10;}.cls-4{stroke:#06739c;stroke-linecap:round;stroke-linejoin:round;stroke-width:2px;}.cls-5,.cls-6{fill:#808184;}.cls-6{font-size:11.06px;font-family:NunitoSans-Regular, Nunito Sans;}.cls-7{letter-spacing:-0.02em;}.cls-8{letter-spacing:0em;}.cls-9{letter-spacing:0em;}.cls-10{letter-spacing:-0.09em;}</style></defs><title>Tshape</title><path class="cls-1 XxKbhtpp_0" d="M423.71,273.18A2.68,1.39 0,1,1 429.07,273.18A2.68,1.39 0,1,1 423.71,273.18"></path><path class="cls-1 XxKbhtpp_1" d="M377,241.3A2.68,1.39 0,1,1 382.36,241.3A2.68,1.39 0,1,1 377,241.3"></path><path class="cls-1 XxKbhtpp_2" d="M324.44,264.2A2.68,1.39 0,1,1 329.8,264.2A2.68,1.39 0,1,1 324.44,264.2"></path><path class="cls-1 XxKbhtpp_3" d="M265.9,234.8A2.68,1.39 0,1,1 271.26,234.8A2.68,1.39 0,1,1 265.9,234.8"></path><path class="cls-1 XxKbhtpp_4" d="M216.16,223.25A2.68,1.39 0,1,1 221.52,223.25A2.68,1.39 0,1,1 216.16,223.25"></path><path class="cls-1 XxKbhtpp_5" d="M180.44,283.16A2.68,1.39 0,1,1 185.8,283.16A2.68,1.39 0,1,1 180.44,283.16"></path><path class="cls-1 XxKbhtpp_6" d="M158.45,387.31A2.68,1.39 0,1,1 163.81,387.31A2.68,1.39 0,1,1 158.45,387.31"></path><path class="cls-1 XxKbhtpp_7" d="M192.26,312.31A2.68,1.39 0,1,1 197.62,312.31A2.68,1.39 0,1,1 192.26,312.31"></path><path class="cls-1 XxKbhtpp_8" d="M228.81,438.7A2.68,1.39 0,1,1 234.17000000000002,438.7A2.68,1.39 0,1,1 228.81,438.7"></path><path class="cls-1 XxKbhtpp_9" d="M144.44,412.6A2.68,1.39 0,1,1 149.8,412.6A2.68,1.39 0,1,1 144.44,412.6"></path><path class="cls-1 XxKbhtpp_10" d="M239.51999999999998,351.04A2.68,1.39 0,1,1 244.88,351.04A2.68,1.39 0,1,1 239.51999999999998,351.04"></path><path class="cls-1 XxKbhtpp_11" d="M218.09,340.32A2.68,1.39 0,1,1 223.45000000000002,340.32A2.68,1.39 0,1,1 218.09,340.32"></path><path class="cls-1 XxKbhtpp_12" d="M471.81,233.61A2.68,1.39 0,1,1 477.17,233.61A2.68,1.39 0,1,1 471.81,233.61"></path><path class="cls-1 XxKbhtpp_13" d="M466.86,332.1A2.68,1.39 0,1,1 472.22,332.1A2.68,1.39 0,1,1 466.86,332.1"></path><path class="cls-1 XxKbhtpp_14" d="M457.52,355.42A2.68,1.39 0,1,1 462.88,355.42A2.68,1.39 0,1,1 457.52,355.42"></path><path class="cls-1 XxKbhtpp_15" d="M468.71,374.4A2.68,1.39 0,1,1 474.07,374.4A2.68,1.39 0,1,1 468.71,374.4"></path><path class="cls-1 XxKbhtpp_16" d="M434.43,374.69A2.68,1.39 0,1,1 439.79,374.69A2.68,1.39 0,1,1 434.43,374.69"></path><path class="cls-1 XxKbhtpp_17" d="M391.77,424.87A2.68,1.39 0,1,1 397.13,424.87A2.68,1.39 0,1,1 391.77,424.87"></path><path class="cls-1 XxKbhtpp_18" d="M361.71999999999997,420.84A2.68,1.39 0,1,1 367.08,420.84A2.68,1.39 0,1,1 361.71999999999997,420.84"></path><path class="cls-1 XxKbhtpp_19" d="M358.15,439.8A2.68,1.39 0,1,1 363.51,439.8A2.68,1.39 0,1,1 358.15,439.8"></path><path class="cls-1 XxKbhtpp_20" d="M306.3,393.58A2.68,1.39 0,1,1 311.66,393.58A2.68,1.39 0,1,1 306.3,393.58"></path><path class="cls-1 XxKbhtpp_21" d="M260.37,444.74A2.68,1.39 0,1,1 265.73,444.74A2.68,1.39 0,1,1 260.37,444.74"></path><path class="cls-1 XxKbhtpp_22" d="M203.51999999999998,428.52A2.68,1.39 0,1,1 208.88,428.52A2.68,1.39 0,1,1 203.51999999999998,428.52"></path><path class="cls-1 XxKbhtpp_23" d="M424.2,334.29A2.68,1.39 0,1,1 429.56,334.29A2.68,1.39 0,1,1 424.2,334.29"></path><path class="cls-1 XxKbhtpp_24" d="M377.48,267.5A2.68,1.39 0,1,1 382.84000000000003,267.5A2.68,1.39 0,1,1 377.48,267.5"></path><path class="cls-1 XxKbhtpp_25" d="M374.98,259.26A2.68,1.39 0,1,1 380.34000000000003,259.26A2.68,1.39 0,1,1 374.98,259.26"></path><path class="cls-1 XxKbhtpp_26" d="M407.04,282.89A2.68,1.39 0,1,1 412.40000000000003,282.89A2.68,1.39 0,1,1 407.04,282.89"></path><g class="cls-2"><path class="cls-3 XxKbhtpp_27" d="M346.6,304.83L412.28,342.75L346.6,380.67L280.91,342.75L346.6,304.83Z"></path><path class="cls-3 XxKbhtpp_28" d="M423.71,273.18L407.95,272.85L350.14,306.23"></path><path class="cls-3 XxKbhtpp_29" d="M408.55,283.62l-49.06,28Z"></path><path class="cls-3 XxKbhtpp_30" d="M378.04,242.34L357.83,254L357.83,264.12L333.02,278.45L333.02,284.42"></path><path class="cls-3 XxKbhtpp_31" d="M375.94,259.44L329.54,286.42L329.54,298.13L343.31,306.08"></path><path class="cls-3 XxKbhtpp_32" d="M341,279.73L358.58,280.14L379.47,268.05"></path><path class="cls-3 XxKbhtpp_33" d="M369.72,317.53L437.6,278.34L437.6,271.33L449.08,264.06L449.64,248.27L472.42,234.47"></path><path class="cls-3 XxKbhtpp_34" d="M396.06,332.74L449.99,302.25L526.13,302.25"></path><path class="cls-3 XxKbhtpp_35" d="M414.51,321.91L451.99,322.06L467.77,330.52"></path><path class="cls-3 XxKbhtpp_36" d="M404.48,328.52L416.51,327.96L426.88,334.29"></path><path class="cls-3 XxKbhtpp_37" d="M379.72,323.3L475.79,268.6L485.96,247.99L499.97,239.47"></path><path class="cls-3 XxKbhtpp_38" d="M388.37,328.3L457.38,289.21L505.61,289.11L525.26,278.22"></path><path class="cls-3 XxKbhtpp_39" d="M408.14,345.79L435.39,362.31L446.75,362.5L458.84,356.17"></path><path class="cls-3 XxKbhtpp_40" d="M415.91,350.92L415.35,362.36L436.49,374.4"></path><path class="cls-3 XxKbhtpp_41" d="M380.28,361.87L395.07,370.42L470,413.68L506.3,413.42L513.16,418.37"></path><path class="cls-3 XxKbhtpp_42" d="M393.92,369.75L409.22,369.75L435.19,384.74L455.04,384.18L471.39,374.4"></path><path class="cls-3 XxKbhtpp_43" d="M332.62,311.19L305.37,295.27L305.93,276.35L325.75,263.93"></path><path class="cls-3 XxKbhtpp_44" d="M323.54,317.49L286.51,296.12L285.95,245.53L268.15,235.25"></path><path class="cls-3 XxKbhtpp_45" d="M314.89,322.49L264.92,293.64L265.48,249.87L221.1,224.25"></path><path class="cls-3 XxKbhtpp_46" d="M302.69,329.53L265.75,308.85L228.61,309.42L184.49,283.44"></path><path class="cls-3 XxKbhtpp_47" d="M358.19,374.63L368.4,380.65L411.15,405.86L411.67,430.74L349.01,469.21"></path><path class="cls-3 XxKbhtpp_48" d="M368.4,380.65L368.17,394.41L394.72,409.74L394.16,423.27"></path><path class="cls-3 XxKbhtpp_49" d="M339.9,377.46L339.34,406.97L364.4,420.84"></path><path class="cls-3 XxKbhtpp_50" d="M339.34,395.06L321.93,405.11L321.93,416.41L361.1,439.16"></path><path class="cls-3 XxKbhtpp_51" d="M329.81,371.63L321.19,376.61L321.19,386.53L308.98,393.58"></path><path class="cls-3 XxKbhtpp_52" d="M321.57,366.87L276.4,393.6L276.4,437.04L263.05,444.74"></path><path class="cls-3 XxKbhtpp_53" d="M312.91,361.87L226.18,412.27L226.74,417.94L207.03,428.54"></path><path class="cls-3 XxKbhtpp_54" d="M333.44,373.3L248.99,423.27L249.55,428.94L229.84,439.53"></path><path class="cls-3 XxKbhtpp_55" d="M303.97,356.71L272.34,375.62L182.84,375.22L161.13,387.31"></path><path class="cls-3 XxKbhtpp_56" d="M296.34,351.04L288.46,356.03L268.47,368.69L257.08,368.72L234.1,355.46L203.46,354.34"></path><path class="cls-3 XxKbhtpp_57" d="M290.84,348.57L268.36,361.56L260.92,361.56L243.56,352.19"></path><path class="cls-3 XxKbhtpp_58" d="M287.38,338.37L265.29,324.93L245.03,325.99L221.91,339.34"></path><path class="cls-3 XxKbhtpp_59" d="M265.87,325.95L257.36,321.04L208.49,321.04L194.91,313.19"></path><path class="cls-3 XxKbhtpp_60" d="M268.6,387.46L190.58,387.46L147.12,412.6"></path></g><path class="cls-4 XxKbhtpp_61" d="M271.87,229.41L295.69,244.31L296.03,268.46L272.16,254.95L271.87,229.41Z"></path><path class="cls-4 XxKbhtpp_62" d="M401.36,183.24L295.79,243.72L296.03,268.46L401.24,207.69L401.36,183.24Z"></path><path class="cls-4 XxKbhtpp_63" d="M378.67,169.76L401.24,183.47L295.4,244.12L272.25,229.28L378.67,169.76Z"></path><path class="cls-4 XxKbhtpp_64" d="M319.23,203.76L341.87,217.24L365.01,204.04L341.69,190.36L319.23,203.76Z"></path><path class="cls-4 XxKbhtpp_65" d="M319.41,343.54L319.23,203.76L341.51,217.22L341.93,356.88L319.41,343.54Z"></path><path class="cls-4 XxKbhtpp_66" d="M364.91,204.04L365.35,229.29L365.47,343.85L341.93,356.88L341.18,217.83L364.91,204.04Z"></path><path class="cls-4 XxKbhtpp_67" d="M319.41,229.65L341.51,243.96"></path><path class="cls-4 XxKbhtpp_68" d="M295.69,216.84L319.22,230.13L319.42,255.04"></path><path class="cls-4 XxKbhtpp_69" d="M319.41,343.54L341.67,330.86L365.47,343.85"></path><path class="cls-5 XxKbhtpp_70" d="M254.86,201.42l-2.59,1.52v-.75l6.07-3.56,0,.76-2.6,1.52-.16,6.88-.88.49Z"></path><path class="cls-5 XxKbhtpp_71" d="M259.4,198l4.71-2.76,0,.75-3.86,2.25-.06,2.69,3.64-2.09v.75l-3.65,2.09-.07,2.81,3.86-2.18,0,.76-4.71,2.65Z"></path><path class="cls-5 XxKbhtpp_72" d="M266.67,201.15a1.38,1.38,0,0,1-1.17-.72,3.65,3.65,0,0,1-.36-1.91,6.94,6.94,0,0,1,.46-2.38,7.5,7.5,0,0,1,1.24-2.09,6.77,6.77,0,0,1,1.85-1.56,4.49,4.49,0,0,1,1.4-.57,1.76,1.76,0,0,1,1.11.1l-.35.9a2.32,2.32,0,0,0-1-.09,3.49,3.49,0,0,0-1.13.45,5.14,5.14,0,0,0-1.92,1.95A6,6,0,0,0,266,198c0,1,.18,1.71.62,2s1.06.24,1.88-.22a5.51,5.51,0,0,0,1.14-.86,8.23,8.23,0,0,0,1.07-1.29l.32.52a7.35,7.35,0,0,1-1.14,1.39,7.55,7.55,0,0,1-1.42,1.05A3.52,3.52,0,0,1,266.67,201.15Z"></path><path class="cls-5 XxKbhtpp_73" d="M278.83,186.66l-.19,8.17-.85.48.08-3.74-4.46,2.55-.08,3.69-.86.48.19-8,.85-.5-.08,3.56,4.46-2.56.08-3.6Z"></path><path class="cls-5 XxKbhtpp_74" d="M286.63,182.11l-.18,8.35-.67.37-4.34-4.1-.15,6.61-.81.46.18-8.21.67-.39,4.34,4.08.15-6.7Z"></path><path class="cls-5 XxKbhtpp_75" d="M288.47,181l.87-.5-.19,8.41-.86.48Z"></path><path class="cls-5 XxKbhtpp_76" d="M292.34,186.75a1.46,1.46,0,0,1-1.16-.83,4.2,4.2,0,0,1-.37-2.07,7.94,7.94,0,0,1,.47-2.54,7.37,7.37,0,0,1,1.23-2.19,6.66,6.66,0,0,1,1.85-1.59,4,4,0,0,1,1.41-.55,1.6,1.6,0,0,1,1.1.16l-.34,1a2,2,0,0,0-1-.14,3.12,3.12,0,0,0-1.14.43,5,5,0,0,0-1.91,2,6.48,6.48,0,0,0-.73,3,2.72,2.72,0,0,0,.61,2.19c.44.36,1.06.31,1.88-.15a5.05,5.05,0,0,0,1.15-.87,9,9,0,0,0,1.07-1.34l.31.58a6.89,6.89,0,0,1-1.14,1.43,6.34,6.34,0,0,1-1.42,1.06A3.16,3.16,0,0,1,292.34,186.75Z"></path><path class="cls-5 XxKbhtpp_77" d="M302.88,179.08,299,181.27l-.88,2.67-.88.5,3.46-10.5.75-.43,3.09,6.87-.88.48Zm-.28-.67-1.55-3.52-1.73,5.37Z"></path><path class="cls-5 XxKbhtpp_78" d="M305.83,171l.87-.5-.17,7.93,3.73-2.08,0,.89-4.59,2.55Z"></path><path class="cls-5 XxKbhtpp_79" d="M319.38,168.28a1.73,1.73,0,0,1,.33,1.22,4.14,4.14,0,0,1-.68,2.2,5.09,5.09,0,0,1-1.84,1.65l-3.11,1.73.18-9,3-1.72A2.18,2.18,0,0,1,319,164c.41.17.61.63.6,1.39a3.7,3.7,0,0,1-.34,1.44,4.47,4.47,0,0,1-.89,1.28A1,1,0,0,1,319.38,168.28ZM315,169.6l2-1.14a3.71,3.71,0,0,0,1.27-1.13,2.66,2.66,0,0,0,.45-1.44c0-1-.53-1.22-1.66-.58l-2,1.16Zm3.38,1.82a2.6,2.6,0,0,0,.44-1.47c0-1.11-.53-1.35-1.67-.71L315,170.47l-.07,3.26,2.17-1.2A3.84,3.84,0,0,0,318.42,171.42Z"></path><path class="cls-5 XxKbhtpp_80" d="M327.06,167.89l-.95.52-1.21-2.25a.71.71,0,0,0-.52-.44,1.73,1.73,0,0,0-.85.28l-1.4.78-.07,3.88-.86.47.19-9.14,3.06-1.77c.81-.47,1.42-.6,1.84-.4s.62.74.6,1.61a4.31,4.31,0,0,1-.53,2,4.73,4.73,0,0,1-1.41,1.62.67.67,0,0,1,.49.07,1.27,1.27,0,0,1,.39.45Zm-2.77-3.2a3.55,3.55,0,0,0,1.3-1.17,3.12,3.12,0,0,0,.46-1.6c0-.59-.13-.95-.4-1.08s-.71,0-1.29.31l-2.14,1.23-.07,3.52Z"></path><path class="cls-5 XxKbhtpp_81" d="M328.63,157.81l4.72-2.71,0,.91-3.86,2.21-.06,3.24,3.64-2.06,0,.91-3.64,2.05-.07,3.39,3.86-2.14,0,.91-4.71,2.6Z"></path><path class="cls-5 XxKbhtpp_82" d="M339.37,158.67l-3.89,2.17-.87,2.88-.89.49,3.46-11.31.75-.43,3.09,7.72-.87.48Zm-.29-.75-1.54-4-1.74,5.79Z"></path><path class="cls-5 XxKbhtpp_83" d="M342.32,150l2.5-1.43c1.19-.68,2.1-.79,2.74-.32s.94,1.49.91,3.06a8.77,8.77,0,0,1-1.05,4.15,6.91,6.91,0,0,1-2.78,2.79l-2.51,1.38Zm2.28,7.32c1.93-1.07,2.92-2.9,3-5.51s-.89-3.35-2.82-2.25l-1.59.9-.14,7.74Z"></path><path class="cls-5 XxKbhtpp_84" d="M351.44,145.7l-2.59,1.47,0-1,6.06-3.47,0,1-2.6,1.48-.16,8.87-.88.49Z"></path><path class="cls-5 XxKbhtpp_85" d="M362.15,138.61,362,148.7l-.85.46.08-4.6L356.73,147l-.08,4.57-.86.47.19-9.94.85-.49-.08,4.4,4.46-2.49.08-4.46Z"></path><text class="cls-6" transform="translate(498.55 337.56) rotate(-90)">IN DE<tspan class="cls-7" x="28.46" y="0">P</tspan><tspan class="cls-8" x="35.38" y="0">TH P</tspan><tspan class="cls-9" x="60.36" y="0">R</tspan><tspan class="cls-8" x="67.89" y="0">OBLEM SO</tspan><tspan class="cls-10" x="123.61" y="0">L</tspan><tspan x="128.55" y="0">VING</tspan></text><style data-made-with="vivus-instant">.XxKbhtpp_0{stroke-dasharray:14 16;stroke-dashoffset:15;animation:XxKbhtpp_draw_0 7200ms linear 0ms infinite,XxKbhtpp_fade 7200ms linear 0ms infinite;}.XxKbhtpp_1{stroke-dasharray:14 16;stroke-dashoffset:15;animation:XxKbhtpp_draw_1 7200ms linear 0ms infinite,XxKbhtpp_fade 7200ms linear 0ms infinite;}.XxKbhtpp_2{stroke-dasharray:14 16;stroke-dashoffset:15;animation:XxKbhtpp_draw_2 7200ms linear 0ms infinite,XxKbhtpp_fade 7200ms linear 0ms infinite;}.XxKbhtpp_3{stroke-dasharray:14 16;stroke-dashoffset:15;animation:XxKbhtpp_draw_3 7200ms linear 0ms infinite,XxKbhtpp_fade 7200ms linear 0ms infinite;}.XxKbhtpp_4{stroke-dasharray:14 16;stroke-dashoffset:15;animation:XxKbhtpp_draw_4 7200ms linear 0ms infinite,XxKbhtpp_fade 7200ms linear 0ms infinite;}.XxKbhtpp_5{stroke-dasharray:14 16;stroke-dashoffset:15;animation:XxKbhtpp_draw_5 7200ms linear 0ms infinite,XxKbhtpp_fade 7200ms linear 0ms infinite;}.XxKbhtpp_6{stroke-dasharray:14 16;stroke-dashoffset:15;animation:XxKbhtpp_draw_6 7200ms linear 0ms infinite,XxKbhtpp_fade 7200ms linear 0ms infinite;}.XxKbhtpp_7{stroke-dasharray:14 16;stroke-dashoffset:15;animation:XxKbhtpp_draw_7 7200ms linear 0ms infinite,XxKbhtpp_fade 7200ms linear 0ms infinite;}.XxKbhtpp_8{stroke-dasharray:14 16;stroke-dashoffset:15;animation:XxKbhtpp_draw_8 7200ms linear 0ms infinite,XxKbhtpp_fade 7200ms linear 0ms infinite;}.XxKbhtpp_9{stroke-dasharray:14 16;stroke-dashoffset:15;animation:XxKbhtpp_draw_9 7200ms linear 0ms infinite,XxKbhtpp_fade 7200ms linear 0ms infinite;}.XxKbhtpp_10{stroke-dasharray:14 16;stroke-dashoffset:15;animation:XxKbhtpp_draw_10 7200ms linear 0ms infinite,XxKbhtpp_fade 7200ms linear 0ms infinite;}.XxKbhtpp_11{stroke-dasharray:14 16;stroke-dashoffset:15;animation:XxKbhtpp_draw_11 7200ms linear 0ms infinite,XxKbhtpp_fade 7200ms linear 0ms infinite;}.XxKbhtpp_12{stroke-dasharray:14 16;stroke-dashoffset:15;animation:XxKbhtpp_draw_12 7200ms linear 0ms infinite,XxKbhtpp_fade 7200ms linear 0ms infinite;}.XxKbhtpp_13{stroke-dasharray:14 16;stroke-dashoffset:15;animation:XxKbhtpp_draw_13 7200ms linear 0ms infinite,XxKbhtpp_fade 7200ms linear 0ms infinite;}.XxKbhtpp_14{stroke-dasharray:14 16;stroke-dashoffset:15;animation:XxKbhtpp_draw_14 7200ms linear 0ms infinite,XxKbhtpp_fade 7200ms linear 0ms infinite;}.XxKbhtpp_15{stroke-dasharray:14 16;stroke-dashoffset:15;animation:XxKbhtpp_draw_15 7200ms linear 0ms infinite,XxKbhtpp_fade 7200ms linear 0ms infinite;}.XxKbhtpp_16{stroke-dasharray:14 16;stroke-dashoffset:15;animation:XxKbhtpp_draw_16 7200ms linear 0ms infinite,XxKbhtpp_fade 7200ms linear 0ms infinite;}.XxKbhtpp_17{stroke-dasharray:14 16;stroke-dashoffset:15;animation:XxKbhtpp_draw_17 7200ms linear 0ms infinite,XxKbhtpp_fade 7200ms linear 0ms infinite;}.XxKbhtpp_18{stroke-dasharray:14 16;stroke-dashoffset:15;animation:XxKbhtpp_draw_18 7200ms linear 0ms infinite,XxKbhtpp_fade 7200ms linear 0ms infinite;}.XxKbhtpp_19{stroke-dasharray:14 16;stroke-dashoffset:15;animation:XxKbhtpp_draw_19 7200ms linear 0ms infinite,XxKbhtpp_fade 7200ms linear 0ms infinite;}.XxKbhtpp_20{stroke-dasharray:14 16;stroke-dashoffset:15;animation:XxKbhtpp_draw_20 7200ms linear 0ms infinite,XxKbhtpp_fade 7200ms linear 0ms infinite;}.XxKbhtpp_21{stroke-dasharray:14 16;stroke-dashoffset:15;animation:XxKbhtpp_draw_21 7200ms linear 0ms infinite,XxKbhtpp_fade 7200ms linear 0ms infinite;}.XxKbhtpp_22{stroke-dasharray:14 16;stroke-dashoffset:15;animation:XxKbhtpp_draw_22 7200ms linear 0ms infinite,XxKbhtpp_fade 7200ms linear 0ms infinite;}.XxKbhtpp_23{stroke-dasharray:14 16;stroke-dashoffset:15;animation:XxKbhtpp_draw_23 7200ms linear 0ms infinite,XxKbhtpp_fade 7200ms linear 0ms infinite;}.XxKbhtpp_24{stroke-dasharray:14 16;stroke-dashoffset:15;animation:XxKbhtpp_draw_24 7200ms linear 0ms infinite,XxKbhtpp_fade 7200ms linear 0ms infinite;}.XxKbhtpp_25{stroke-dasharray:14 16;stroke-dashoffset:15;animation:XxKbhtpp_draw_25 7200ms linear 0ms infinite,XxKbhtpp_fade 7200ms linear 0ms infinite;}.XxKbhtpp_26{stroke-dasharray:14 16;stroke-dashoffset:15;animation:XxKbhtpp_draw_26 7200ms linear 0ms infinite,XxKbhtpp_fade 7200ms linear 0ms infinite;}.XxKbhtpp_27{stroke-dasharray:304 306;stroke-dashoffset:305;animation:XxKbhtpp_draw_27 7200ms linear 0ms infinite,XxKbhtpp_fade 7200ms linear 0ms infinite;}.XxKbhtpp_28{stroke-dasharray:83 85;stroke-dashoffset:84;animation:XxKbhtpp_draw_28 7200ms linear 0ms infinite,XxKbhtpp_fade 7200ms linear 0ms infinite;}.XxKbhtpp_29{stroke-dasharray:113 115;stroke-dashoffset:114;animation:XxKbhtpp_draw_29 7200ms linear 0ms infinite,XxKbhtpp_fade 7200ms linear 0ms infinite;}.XxKbhtpp_30{stroke-dasharray:69 71;stroke-dashoffset:70;animation:XxKbhtpp_draw_30 7200ms linear 0ms infinite,XxKbhtpp_fade 7200ms linear 0ms infinite;}.XxKbhtpp_31{stroke-dasharray:82 84;stroke-dashoffset:83;animation:XxKbhtpp_draw_31 7200ms linear 0ms infinite,XxKbhtpp_fade 7200ms linear 0ms infinite;}.XxKbhtpp_32{stroke-dasharray:42 44;stroke-dashoffset:43;animation:XxKbhtpp_draw_32 7200ms linear 0ms infinite,XxKbhtpp_fade 7200ms linear 0ms infinite;}.XxKbhtpp_33{stroke-dasharray:142 144;stroke-dashoffset:143;animation:XxKbhtpp_draw_33 7200ms linear 0ms infinite,XxKbhtpp_fade 7200ms linear 0ms infinite;}.XxKbhtpp_34{stroke-dasharray:139 141;stroke-dashoffset:140;animation:XxKbhtpp_draw_34 7200ms linear 0ms infinite,XxKbhtpp_fade 7200ms linear 0ms infinite;}.XxKbhtpp_35{stroke-dasharray:56 58;stroke-dashoffset:57;animation:XxKbhtpp_draw_35 7200ms linear 0ms infinite,XxKbhtpp_fade 7200ms linear 0ms infinite;}.XxKbhtpp_36{stroke-dasharray:25 27;stroke-dashoffset:26;animation:XxKbhtpp_draw_36 7200ms linear 0ms infinite,XxKbhtpp_fade 7200ms linear 0ms infinite;}.XxKbhtpp_37{stroke-dasharray:150 152;stroke-dashoffset:151;animation:XxKbhtpp_draw_37 7200ms linear 0ms infinite,XxKbhtpp_fade 7200ms linear 0ms infinite;}.XxKbhtpp_38{stroke-dasharray:151 153;stroke-dashoffset:152;animation:XxKbhtpp_draw_38 7200ms linear 0ms infinite,XxKbhtpp_fade 7200ms linear 0ms infinite;}.XxKbhtpp_39{stroke-dasharray:57 59;stroke-dashoffset:58;animation:XxKbhtpp_draw_39 7200ms linear 0ms infinite,XxKbhtpp_fade 7200ms linear 0ms infinite;}.XxKbhtpp_40{stroke-dasharray:36 38;stroke-dashoffset:37;animation:XxKbhtpp_draw_40 7200ms linear 0ms infinite,XxKbhtpp_fade 7200ms linear 0ms infinite;}.XxKbhtpp_41{stroke-dasharray:149 151;stroke-dashoffset:150;animation:XxKbhtpp_draw_41 7200ms linear 0ms infinite,XxKbhtpp_fade 7200ms linear 0ms infinite;}.XxKbhtpp_42{stroke-dasharray:85 87;stroke-dashoffset:86;animation:XxKbhtpp_draw_42 7200ms linear 0ms infinite,XxKbhtpp_fade 7200ms linear 0ms infinite;}.XxKbhtpp_43{stroke-dasharray:74 76;stroke-dashoffset:75;animation:XxKbhtpp_draw_43 7200ms linear 0ms infinite,XxKbhtpp_fade 7200ms linear 0ms infinite;}.XxKbhtpp_44{stroke-dasharray:114 116;stroke-dashoffset:115;animation:XxKbhtpp_draw_44 7200ms linear 0ms infinite,XxKbhtpp_fade 7200ms linear 0ms infinite;}.XxKbhtpp_45{stroke-dasharray:153 155;stroke-dashoffset:154;animation:XxKbhtpp_draw_45 7200ms linear 0ms infinite,XxKbhtpp_fade 7200ms linear 0ms infinite;}.XxKbhtpp_46{stroke-dasharray:131 133;stroke-dashoffset:132;animation:XxKbhtpp_draw_46 7200ms linear 0ms infinite,XxKbhtpp_fade 7200ms linear 0ms infinite;}.XxKbhtpp_47{stroke-dasharray:160 162;stroke-dashoffset:161;animation:XxKbhtpp_draw_47 7200ms linear 0ms infinite,XxKbhtpp_fade 7200ms linear 0ms infinite;}.XxKbhtpp_48{stroke-dasharray:58 60;stroke-dashoffset:59;animation:XxKbhtpp_draw_48 7200ms linear 0ms infinite,XxKbhtpp_fade 7200ms linear 0ms infinite;}.XxKbhtpp_49{stroke-dasharray:59 61;stroke-dashoffset:60;animation:XxKbhtpp_draw_49 7200ms linear 0ms infinite,XxKbhtpp_fade 7200ms linear 0ms infinite;}.XxKbhtpp_50{stroke-dasharray:77 79;stroke-dashoffset:78;animation:XxKbhtpp_draw_50 7200ms linear 0ms infinite,XxKbhtpp_fade 7200ms linear 0ms infinite;}.XxKbhtpp_51{stroke-dasharray:34 36;stroke-dashoffset:35;animation:XxKbhtpp_draw_51 7200ms linear 0ms infinite,XxKbhtpp_fade 7200ms linear 0ms infinite;}.XxKbhtpp_52{stroke-dasharray:112 114;stroke-dashoffset:113;animation:XxKbhtpp_draw_52 7200ms linear 0ms infinite,XxKbhtpp_fade 7200ms linear 0ms infinite;}.XxKbhtpp_53{stroke-dasharray:129 131;stroke-dashoffset:130;animation:XxKbhtpp_draw_53 7200ms linear 0ms infinite,XxKbhtpp_fade 7200ms linear 0ms infinite;}.XxKbhtpp_54{stroke-dasharray:127 129;stroke-dashoffset:128;animation:XxKbhtpp_draw_54 7200ms linear 0ms infinite,XxKbhtpp_fade 7200ms linear 0ms infinite;}.XxKbhtpp_55{stroke-dasharray:152 154;stroke-dashoffset:153;animation:XxKbhtpp_draw_55 7200ms linear 0ms infinite,XxKbhtpp_fade 7200ms linear 0ms infinite;}.XxKbhtpp_56{stroke-dasharray:102 104;stroke-dashoffset:103;animation:XxKbhtpp_draw_56 7200ms linear 0ms infinite,XxKbhtpp_fade 7200ms linear 0ms infinite;}.XxKbhtpp_57{stroke-dasharray:54 56;stroke-dashoffset:55;animation:XxKbhtpp_draw_57 7200ms linear 0ms infinite,XxKbhtpp_fade 7200ms linear 0ms infinite;}.XxKbhtpp_58{stroke-dasharray:73 75;stroke-dashoffset:74;animation:XxKbhtpp_draw_58 7200ms linear 0ms infinite,XxKbhtpp_fade 7200ms linear 0ms infinite;}.XxKbhtpp_59{stroke-dasharray:75 77;stroke-dashoffset:76;animation:XxKbhtpp_draw_59 7200ms linear 0ms infinite,XxKbhtpp_fade 7200ms linear 0ms infinite;}.XxKbhtpp_60{stroke-dasharray:129 131;stroke-dashoffset:130;animation:XxKbhtpp_draw_60 7200ms linear 0ms infinite,XxKbhtpp_fade 7200ms linear 0ms infinite;}.XxKbhtpp_61{stroke-dasharray:106 108;stroke-dashoffset:107;animation:XxKbhtpp_draw_61 7200ms linear 0ms infinite,XxKbhtpp_fade 7200ms linear 0ms infinite;}.XxKbhtpp_62{stroke-dasharray:293 295;stroke-dashoffset:294;animation:XxKbhtpp_draw_62 7200ms linear 0ms infinite,XxKbhtpp_fade 7200ms linear 0ms infinite;}.XxKbhtpp_63{stroke-dasharray:298 300;stroke-dashoffset:299;animation:XxKbhtpp_draw_63 7200ms linear 0ms infinite,XxKbhtpp_fade 7200ms linear 0ms infinite;}.XxKbhtpp_64{stroke-dasharray:107 109;stroke-dashoffset:108;animation:XxKbhtpp_draw_64 7200ms linear 0ms infinite,XxKbhtpp_fade 7200ms linear 0ms infinite;}.XxKbhtpp_65{stroke-dasharray:332 334;stroke-dashoffset:333;animation:XxKbhtpp_draw_65 7200ms linear 0ms infinite,XxKbhtpp_fade 7200ms linear 0ms infinite;}.XxKbhtpp_66{stroke-dasharray:334 336;stroke-dashoffset:335;animation:XxKbhtpp_draw_66 7200ms linear 0ms infinite,XxKbhtpp_fade 7200ms linear 0ms infinite;}.XxKbhtpp_67{stroke-dasharray:27 29;stroke-dashoffset:28;animation:XxKbhtpp_draw_67 7200ms linear 0ms infinite,XxKbhtpp_fade 7200ms linear 0ms infinite;}.XxKbhtpp_68{stroke-dasharray:52 54;stroke-dashoffset:53;animation:XxKbhtpp_draw_68 7200ms linear 0ms infinite,XxKbhtpp_fade 7200ms linear 0ms infinite;}.XxKbhtpp_69{stroke-dasharray:53 55;stroke-dashoffset:54;animation:XxKbhtpp_draw_69 7200ms linear 0ms infinite,XxKbhtpp_fade 7200ms linear 0ms infinite;}.XxKbhtpp_70{stroke-dasharray:30 32;stroke-dashoffset:31;animation:XxKbhtpp_draw_70 7200ms linear 0ms infinite,XxKbhtpp_fade 7200ms linear 0ms infinite;}.XxKbhtpp_71{stroke-dasharray:44 46;stroke-dashoffset:45;animation:XxKbhtpp_draw_71 7200ms linear 0ms infinite,XxKbhtpp_fade 7200ms linear 0ms infinite;}.XxKbhtpp_72{stroke-dasharray:36 38;stroke-dashoffset:37;animation:XxKbhtpp_draw_72 7200ms linear 0ms infinite,XxKbhtpp_fade 7200ms linear 0ms infinite;}.XxKbhtpp_73{stroke-dasharray:46 48;stroke-dashoffset:47;animation:XxKbhtpp_draw_73 7200ms linear 0ms infinite,XxKbhtpp_fade 7200ms linear 0ms infinite;}.XxKbhtpp_74{stroke-dasharray:46 48;stroke-dashoffset:47;animation:XxKbhtpp_draw_74 7200ms linear 0ms infinite,XxKbhtpp_fade 7200ms linear 0ms infinite;}.XxKbhtpp_75{stroke-dasharray:19 21;stroke-dashoffset:20;animation:XxKbhtpp_draw_75 7200ms linear 0ms infinite,XxKbhtpp_fade 7200ms linear 0ms infinite;}.XxKbhtpp_76{stroke-dasharray:37 39;stroke-dashoffset:38;animation:XxKbhtpp_draw_76 7200ms linear 0ms infinite,XxKbhtpp_fade 7200ms linear 0ms infinite;}.XxKbhtpp_77{stroke-dasharray:44 46;stroke-dashoffset:45;animation:XxKbhtpp_draw_77 7200ms linear 0ms infinite,XxKbhtpp_fade 7200ms linear 0ms infinite;}.XxKbhtpp_78{stroke-dasharray:29 31;stroke-dashoffset:30;animation:XxKbhtpp_draw_78 7200ms linear 0ms infinite,XxKbhtpp_fade 7200ms linear 0ms infinite;}.XxKbhtpp_79{stroke-dasharray:58 60;stroke-dashoffset:59;animation:XxKbhtpp_draw_79 7200ms linear 0ms infinite,XxKbhtpp_fade 7200ms linear 0ms infinite;}.XxKbhtpp_80{stroke-dasharray:51 53;stroke-dashoffset:52;animation:XxKbhtpp_draw_80 7200ms linear 0ms infinite,XxKbhtpp_fade 7200ms linear 0ms infinite;}.XxKbhtpp_81{stroke-dasharray:47 49;stroke-dashoffset:48;animation:XxKbhtpp_draw_81 7200ms linear 0ms infinite,XxKbhtpp_fade 7200ms linear 0ms infinite;}.XxKbhtpp_82{stroke-dasharray:47 49;stroke-dashoffset:48;animation:XxKbhtpp_draw_82 7200ms linear 0ms infinite,XxKbhtpp_fade 7200ms linear 0ms infinite;}.XxKbhtpp_83{stroke-dasharray:53 55;stroke-dashoffset:54;animation:XxKbhtpp_draw_83 7200ms linear 0ms infinite,XxKbhtpp_fade 7200ms linear 0ms infinite;}.XxKbhtpp_84{stroke-dasharray:34 36;stroke-dashoffset:35;animation:XxKbhtpp_draw_84 7200ms linear 0ms infinite,XxKbhtpp_fade 7200ms linear 0ms infinite;}.XxKbhtpp_85{stroke-dasharray:53 55;stroke-dashoffset:54;animation:XxKbhtpp_draw_85 7200ms linear 0ms infinite,XxKbhtpp_fade 7200ms linear 0ms infinite;}@keyframes XxKbhtpp_draw{100%{stroke-dashoffset:0;}}@keyframes XxKbhtpp_fade{0%{stroke-opacity:1;}94.44444444444444%{stroke-opacity:1;}100%{stroke-opacity:0;}}@keyframes XxKbhtpp_draw_0{11.11111111111111%{stroke-dashoffset: 15}38.88888888888889%{ stroke-dashoffset: 0;}100%{ stroke-dashoffset: 0;}}@keyframes XxKbhtpp_draw_1{11.27450980392157%{stroke-dashoffset: 15}39.05228758169935%{ stroke-dashoffset: 0;}100%{ stroke-dashoffset: 0;}}@keyframes XxKbhtpp_draw_2{11.437908496732026%{stroke-dashoffset: 15}39.21568627450981%{ stroke-dashoffset: 0;}100%{ stroke-dashoffset: 0;}}@keyframes XxKbhtpp_draw_3{11.601307189542483%{stroke-dashoffset: 15}39.37908496732026%{ stroke-dashoffset: 0;}100%{ stroke-dashoffset: 0;}}@keyframes XxKbhtpp_draw_4{11.76470588235294%{stroke-dashoffset: 15}39.54248366013072%{ stroke-dashoffset: 0;}100%{ stroke-dashoffset: 0;}}@keyframes XxKbhtpp_draw_5{11.928104575163399%{stroke-dashoffset: 15}39.70588235294118%{ stroke-dashoffset: 0;}100%{ stroke-dashoffset: 0;}}@keyframes XxKbhtpp_draw_6{12.091503267973856%{stroke-dashoffset: 15}39.869281045751634%{ stroke-dashoffset: 0;}100%{ stroke-dashoffset: 0;}}@keyframes XxKbhtpp_draw_7{12.254901960784315%{stroke-dashoffset: 15}40.032679738562095%{ stroke-dashoffset: 0;}100%{ stroke-dashoffset: 0;}}@keyframes XxKbhtpp_draw_8{12.418300653594772%{stroke-dashoffset: 15}40.19607843137255%{ stroke-dashoffset: 0;}100%{ stroke-dashoffset: 0;}}@keyframes XxKbhtpp_draw_9{12.581699346405228%{stroke-dashoffset: 15}40.35947712418301%{ stroke-dashoffset: 0;}100%{ stroke-dashoffset: 0;}}@keyframes XxKbhtpp_draw_10{12.745098039215685%{stroke-dashoffset: 15}40.52287581699346%{ stroke-dashoffset: 0;}100%{ stroke-dashoffset: 0;}}@keyframes XxKbhtpp_draw_11{12.908496732026146%{stroke-dashoffset: 15}40.68627450980392%{ stroke-dashoffset: 0;}100%{ stroke-dashoffset: 0;}}@keyframes XxKbhtpp_draw_12{13.071895424836603%{stroke-dashoffset: 15}40.849673202614376%{ stroke-dashoffset: 0;}100%{ stroke-dashoffset: 0;}}@keyframes XxKbhtpp_draw_13{13.23529411764706%{stroke-dashoffset: 15}41.01307189542484%{ stroke-dashoffset: 0;}100%{ stroke-dashoffset: 0;}}@keyframes XxKbhtpp_draw_14{13.398692810457517%{stroke-dashoffset: 15}41.1764705882353%{ stroke-dashoffset: 0;}100%{ stroke-dashoffset: 0;}}@keyframes XxKbhtpp_draw_15{13.562091503267974%{stroke-dashoffset: 15}41.33986928104576%{ stroke-dashoffset: 0;}100%{ stroke-dashoffset: 0;}}@keyframes XxKbhtpp_draw_16{13.725490196078432%{stroke-dashoffset: 15}41.503267973856204%{ stroke-dashoffset: 0;}100%{ stroke-dashoffset: 0;}}@keyframes XxKbhtpp_draw_17{13.88888888888889%{stroke-dashoffset: 15}41.66666666666667%{ stroke-dashoffset: 0;}100%{ stroke-dashoffset: 0;}}@keyframes XxKbhtpp_draw_18{14.052287581699346%{stroke-dashoffset: 15}41.830065359477125%{ stroke-dashoffset: 0;}100%{ stroke-dashoffset: 0;}}@keyframes XxKbhtpp_draw_19{14.215686274509803%{stroke-dashoffset: 15}41.993464052287585%{ stroke-dashoffset: 0;}100%{ stroke-dashoffset: 0;}}@keyframes XxKbhtpp_draw_20{14.37908496732026%{stroke-dashoffset: 15}42.15686274509803%{ stroke-dashoffset: 0;}100%{ stroke-dashoffset: 0;}}@keyframes XxKbhtpp_draw_21{14.542483660130717%{stroke-dashoffset: 15}42.3202614379085%{ stroke-dashoffset: 0;}100%{ stroke-dashoffset: 0;}}@keyframes XxKbhtpp_draw_22{14.70588235294118%{stroke-dashoffset: 15}42.48366013071896%{ stroke-dashoffset: 0;}100%{ stroke-dashoffset: 0;}}@keyframes XxKbhtpp_draw_23{14.869281045751634%{stroke-dashoffset: 15}42.64705882352941%{ stroke-dashoffset: 0;}100%{ stroke-dashoffset: 0;}}@keyframes XxKbhtpp_draw_24{15.032679738562093%{stroke-dashoffset: 15}42.81045751633987%{ stroke-dashoffset: 0;}100%{ stroke-dashoffset: 0;}}@keyframes XxKbhtpp_draw_25{15.196078431372548%{stroke-dashoffset: 15}42.97385620915033%{ stroke-dashoffset: 0;}100%{ stroke-dashoffset: 0;}}@keyframes XxKbhtpp_draw_26{15.359477124183007%{stroke-dashoffset: 15}43.13725490196079%{ stroke-dashoffset: 0;}100%{ stroke-dashoffset: 0;}}@keyframes XxKbhtpp_draw_27{15.522875816993464%{stroke-dashoffset: 305}43.30065359477125%{ stroke-dashoffset: 0;}100%{ stroke-dashoffset: 0;}}@keyframes XxKbhtpp_draw_28{15.686274509803921%{stroke-dashoffset: 84}43.4640522875817%{ stroke-dashoffset: 0;}100%{ stroke-dashoffset: 0;}}@keyframes XxKbhtpp_draw_29{15.849673202614381%{stroke-dashoffset: 114}43.627450980392155%{ stroke-dashoffset: 0;}100%{ stroke-dashoffset: 0;}}@keyframes XxKbhtpp_draw_30{16.013071895424837%{stroke-dashoffset: 70}43.790849673202615%{ stroke-dashoffset: 0;}100%{ stroke-dashoffset: 0;}}@keyframes XxKbhtpp_draw_31{16.176470588235293%{stroke-dashoffset: 83}43.954248366013076%{ stroke-dashoffset: 0;}100%{ stroke-dashoffset: 0;}}@keyframes XxKbhtpp_draw_32{16.33986928104575%{stroke-dashoffset: 43}44.11764705882353%{ stroke-dashoffset: 0;}100%{ stroke-dashoffset: 0;}}@keyframes XxKbhtpp_draw_33{16.503267973856207%{stroke-dashoffset: 143}44.28104575163398%{ stroke-dashoffset: 0;}100%{ stroke-dashoffset: 0;}}@keyframes XxKbhtpp_draw_34{16.666666666666664%{stroke-dashoffset: 140}44.44444444444444%{ stroke-dashoffset: 0;}100%{ stroke-dashoffset: 0;}}@keyframes XxKbhtpp_draw_35{16.83006535947712%{stroke-dashoffset: 57}44.6078431372549%{ stroke-dashoffset: 0;}100%{ stroke-dashoffset: 0;}}@keyframes XxKbhtpp_draw_36{16.99346405228758%{stroke-dashoffset: 26}44.771241830065364%{ stroke-dashoffset: 0;}100%{ stroke-dashoffset: 0;}}@keyframes XxKbhtpp_draw_37{17.15686274509804%{stroke-dashoffset: 151}44.93464052287581%{ stroke-dashoffset: 0;}100%{ stroke-dashoffset: 0;}}@keyframes XxKbhtpp_draw_38{17.320261437908496%{stroke-dashoffset: 152}45.09803921568628%{ stroke-dashoffset: 0;}100%{ stroke-dashoffset: 0;}}@keyframes XxKbhtpp_draw_39{17.483660130718956%{stroke-dashoffset: 58}45.26143790849673%{ stroke-dashoffset: 0;}100%{ stroke-dashoffset: 0;}}@keyframes XxKbhtpp_draw_40{17.64705882352941%{stroke-dashoffset: 37}45.42483660130719%{ stroke-dashoffset: 0;}100%{ stroke-dashoffset: 0;}}@keyframes XxKbhtpp_draw_41{17.81045751633987%{stroke-dashoffset: 150}45.58823529411765%{ stroke-dashoffset: 0;}100%{ stroke-dashoffset: 0;}}@keyframes XxKbhtpp_draw_42{17.973856209150323%{stroke-dashoffset: 86}45.751633986928105%{ stroke-dashoffset: 0;}100%{ stroke-dashoffset: 0;}}@keyframes XxKbhtpp_draw_43{18.137254901960787%{stroke-dashoffset: 75}45.915032679738566%{ stroke-dashoffset: 0;}100%{ stroke-dashoffset: 0;}}@keyframes XxKbhtpp_draw_44{18.300653594771244%{stroke-dashoffset: 115}46.07843137254902%{ stroke-dashoffset: 0;}100%{ stroke-dashoffset: 0;}}@keyframes XxKbhtpp_draw_45{18.4640522875817%{stroke-dashoffset: 154}46.24183006535948%{ stroke-dashoffset: 0;}100%{ stroke-dashoffset: 0;}}@keyframes XxKbhtpp_draw_46{18.627450980392158%{stroke-dashoffset: 132}46.40522875816993%{ stroke-dashoffset: 0;}100%{ stroke-dashoffset: 0;}}@keyframes XxKbhtpp_draw_47{18.790849673202615%{stroke-dashoffset: 161}46.568627450980394%{ stroke-dashoffset: 0;}100%{ stroke-dashoffset: 0;}}@keyframes XxKbhtpp_draw_48{18.954248366013072%{stroke-dashoffset: 59}46.732026143790854%{ stroke-dashoffset: 0;}100%{ stroke-dashoffset: 0;}}@keyframes XxKbhtpp_draw_49{19.117647058823533%{stroke-dashoffset: 60}46.89542483660131%{ stroke-dashoffset: 0;}100%{ stroke-dashoffset: 0;}}@keyframes XxKbhtpp_draw_50{19.28104575163399%{stroke-dashoffset: 78}47.05882352941176%{ stroke-dashoffset: 0;}100%{ stroke-dashoffset: 0;}}@keyframes XxKbhtpp_draw_51{19.444444444444446%{stroke-dashoffset: 35}47.22222222222222%{ stroke-dashoffset: 0;}100%{ stroke-dashoffset: 0;}}@keyframes XxKbhtpp_draw_52{19.607843137254903%{stroke-dashoffset: 113}47.38562091503268%{ stroke-dashoffset: 0;}100%{ stroke-dashoffset: 0;}}@keyframes XxKbhtpp_draw_53{19.77124183006536%{stroke-dashoffset: 130}47.549019607843135%{ stroke-dashoffset: 0;}100%{ stroke-dashoffset: 0;}}@keyframes XxKbhtpp_draw_54{19.934640522875817%{stroke-dashoffset: 128}47.712418300653596%{ stroke-dashoffset: 0;}100%{ stroke-dashoffset: 0;}}@keyframes XxKbhtpp_draw_55{20.098039215686274%{stroke-dashoffset: 153}47.875816993464056%{ stroke-dashoffset: 0;}100%{ stroke-dashoffset: 0;}}@keyframes XxKbhtpp_draw_56{20.261437908496735%{stroke-dashoffset: 103}48.03921568627451%{ stroke-dashoffset: 0;}100%{ stroke-dashoffset: 0;}}@keyframes XxKbhtpp_draw_57{20.424836601307188%{stroke-dashoffset: 55}48.20261437908497%{ stroke-dashoffset: 0;}100%{ stroke-dashoffset: 0;}}@keyframes XxKbhtpp_draw_58{20.58823529411765%{stroke-dashoffset: 74}48.36601307189542%{ stroke-dashoffset: 0;}100%{ stroke-dashoffset: 0;}}@keyframes XxKbhtpp_draw_59{20.751633986928102%{stroke-dashoffset: 76}48.529411764705884%{ stroke-dashoffset: 0;}100%{ stroke-dashoffset: 0;}}@keyframes XxKbhtpp_draw_60{20.915032679738562%{stroke-dashoffset: 130}48.69281045751634%{ stroke-dashoffset: 0;}100%{ stroke-dashoffset: 0;}}@keyframes XxKbhtpp_draw_61{21.07843137254902%{stroke-dashoffset: 107}48.856209150326805%{ stroke-dashoffset: 0;}100%{ stroke-dashoffset: 0;}}@keyframes XxKbhtpp_draw_62{21.24183006535948%{stroke-dashoffset: 294}49.01960784313726%{ stroke-dashoffset: 0;}100%{ stroke-dashoffset: 0;}}@keyframes XxKbhtpp_draw_63{21.405228758169937%{stroke-dashoffset: 299}49.18300653594771%{ stroke-dashoffset: 0;}100%{ stroke-dashoffset: 0;}}@keyframes XxKbhtpp_draw_64{21.568627450980394%{stroke-dashoffset: 108}49.34640522875817%{ stroke-dashoffset: 0;}100%{ stroke-dashoffset: 0;}}@keyframes XxKbhtpp_draw_65{21.73202614379085%{stroke-dashoffset: 333}49.50980392156863%{ stroke-dashoffset: 0;}100%{ stroke-dashoffset: 0;}}@keyframes XxKbhtpp_draw_66{21.895424836601308%{stroke-dashoffset: 335}49.673202614379086%{ stroke-dashoffset: 0;}100%{ stroke-dashoffset: 0;}}@keyframes XxKbhtpp_draw_67{22.058823529411764%{stroke-dashoffset: 28}49.83660130718954%{ stroke-dashoffset: 0;}100%{ stroke-dashoffset: 0;}}@keyframes XxKbhtpp_draw_68{22.22222222222222%{stroke-dashoffset: 53}50%{ stroke-dashoffset: 0;}100%{ stroke-dashoffset: 0;}}@keyframes XxKbhtpp_draw_69{22.385620915032682%{stroke-dashoffset: 54}50.16339869281046%{ stroke-dashoffset: 0;}100%{ stroke-dashoffset: 0;}}@keyframes XxKbhtpp_draw_70{22.54901960784314%{stroke-dashoffset: 31}50.326797385620914%{ stroke-dashoffset: 0;}100%{ stroke-dashoffset: 0;}}@keyframes XxKbhtpp_draw_71{22.712418300653596%{stroke-dashoffset: 45}50.49019607843137%{ stroke-dashoffset: 0;}100%{ stroke-dashoffset: 0;}}@keyframes XxKbhtpp_draw_72{22.875816993464053%{stroke-dashoffset: 37}50.65359477124183%{ stroke-dashoffset: 0;}100%{ stroke-dashoffset: 0;}}@keyframes XxKbhtpp_draw_73{23.03921568627451%{stroke-dashoffset: 47}50.81699346405229%{ stroke-dashoffset: 0;}100%{ stroke-dashoffset: 0;}}@keyframes XxKbhtpp_draw_74{23.202614379084967%{stroke-dashoffset: 47}50.98039215686274%{ stroke-dashoffset: 0;}100%{ stroke-dashoffset: 0;}}@keyframes XxKbhtpp_draw_75{23.366013071895427%{stroke-dashoffset: 20}51.14379084967321%{ stroke-dashoffset: 0;}100%{ stroke-dashoffset: 0;}}@keyframes XxKbhtpp_draw_76{23.529411764705884%{stroke-dashoffset: 38}51.307189542483655%{ stroke-dashoffset: 0;}100%{ stroke-dashoffset: 0;}}@keyframes XxKbhtpp_draw_77{23.69281045751634%{stroke-dashoffset: 45}51.47058823529412%{ stroke-dashoffset: 0;}100%{ stroke-dashoffset: 0;}}@keyframes XxKbhtpp_draw_78{23.856209150326798%{stroke-dashoffset: 30}51.633986928104584%{ stroke-dashoffset: 0;}100%{ stroke-dashoffset: 0;}}@keyframes XxKbhtpp_draw_79{24.019607843137255%{stroke-dashoffset: 59}51.79738562091504%{ stroke-dashoffset: 0;}100%{ stroke-dashoffset: 0;}}@keyframes XxKbhtpp_draw_80{24.18300653594771%{stroke-dashoffset: 52}51.96078431372548%{ stroke-dashoffset: 0;}100%{ stroke-dashoffset: 0;}}@keyframes XxKbhtpp_draw_81{24.34640522875817%{stroke-dashoffset: 48}52.12418300653595%{ stroke-dashoffset: 0;}100%{ stroke-dashoffset: 0;}}@keyframes XxKbhtpp_draw_82{24.50980392156863%{stroke-dashoffset: 48}52.28758169934641%{ stroke-dashoffset: 0;}100%{ stroke-dashoffset: 0;}}@keyframes XxKbhtpp_draw_83{24.673202614379086%{stroke-dashoffset: 54}52.450980392156865%{ stroke-dashoffset: 0;}100%{ stroke-dashoffset: 0;}}@keyframes XxKbhtpp_draw_84{24.836601307189543%{stroke-dashoffset: 35}52.614379084967325%{ stroke-dashoffset: 0;}100%{ stroke-dashoffset: 0;}}@keyframes XxKbhtpp_draw_85{25%{stroke-dashoffset: 54}52.77777777777778%{ stroke-dashoffset: 0;}100%{ stroke-dashoffset: 0;}}</style></svg>