<svg xmlns="http://www.w3.org/2000/svg" width="121.901" height="136" viewBox="0 0 121.901 136">
  <path id="ferris-wheel" d="M145.9,60.95a6.914,6.914,0,0,0-5.092-6.66,55.788,55.788,0,0,0-4.147-15.508,6.9,6.9,0,0,0-6.669-11.529,56.353,56.353,0,0,0-11.346-11.347A6.9,6.9,0,0,0,107.12,9.24,55.776,55.776,0,0,0,91.61,5.093a6.9,6.9,0,0,0-13.32,0A55.77,55.77,0,0,0,62.78,9.241a6.9,6.9,0,0,0-11.527,6.667A56.366,56.366,0,0,0,39.906,27.254a6.9,6.9,0,0,0-6.669,11.527A55.816,55.816,0,0,0,29.092,54.29a6.9,6.9,0,0,0,0,13.32,55.8,55.8,0,0,0,4.149,15.51A6.9,6.9,0,0,0,39.91,94.648a56.344,56.344,0,0,0,11.344,11.345,6.9,6.9,0,0,0,11.53,6.669q1.392.6,2.81,1.118l-5.747,17.814h-7.8a2.2,2.2,0,1,0,0,4.406h65.8a2.2,2.2,0,0,0,0-4.406h-7.8l-5.747-17.814q1.418-.52,2.81-1.118a6.932,6.932,0,0,0,4.869,2,6.9,6.9,0,0,0,6.661-8.666,56.346,56.346,0,0,0,11.345-11.345,6.9,6.9,0,0,0,6.67-11.53,55.783,55.783,0,0,0,4.147-15.508A6.912,6.912,0,0,0,145.9,60.95ZM132.716,81.136A6.9,6.9,0,0,0,127.2,82.8l-8.772-5.064a37.18,37.18,0,0,0,3.911-14.58h10.122a6.936,6.936,0,0,0,3.944,4.191A51.383,51.383,0,0,1,132.716,81.136ZM91.345,112.4a6.935,6.935,0,0,0-4.191-3.944V98.335a37.289,37.289,0,0,0,7.18-1.124l4.427,13.723A51.5,51.5,0,0,1,91.345,112.4Zm-12.789,0a51.506,51.506,0,0,1-7.415-1.468l4.427-13.723a37.284,37.284,0,0,0,7.179,1.124v10.122A6.938,6.938,0,0,0,78.556,112.4ZM42.706,82.8a6.936,6.936,0,0,0-5.52-1.657A51.418,51.418,0,0,1,33.5,67.346a6.936,6.936,0,0,0,3.947-4.192H47.565a37.181,37.181,0,0,0,3.911,14.58ZM37.186,40.761A6.894,6.894,0,0,0,42.706,39.1l8.77,5.063a37.175,37.175,0,0,0-3.911,14.579H37.443A6.935,6.935,0,0,0,33.5,54.556,51.4,51.4,0,0,1,37.186,40.761ZM64.761,13.186A51.376,51.376,0,0,1,78.556,9.5a6.936,6.936,0,0,0,4.191,3.944V23.565a37.175,37.175,0,0,0-14.579,3.911L63.1,18.706A6.934,6.934,0,0,0,64.761,13.186ZM91.345,9.5a51.377,51.377,0,0,1,13.8,3.688,6.935,6.935,0,0,0,1.656,5.52l-5.063,8.77a37.173,37.173,0,0,0-14.579-3.911V13.443A6.936,6.936,0,0,0,91.345,9.5ZM127.2,39.1a6.868,6.868,0,0,0,2.774,1.491,6.948,6.948,0,0,0,1.8.238,6.812,6.812,0,0,0,.948-.068A51.382,51.382,0,0,1,136.4,54.556a6.935,6.935,0,0,0-3.944,4.191H122.335a37.175,37.175,0,0,0-3.911-14.579Zm-9.275,19.644H96.341a11.5,11.5,0,0,0-.425-1.584L114.6,46.375A32.8,32.8,0,0,1,117.921,58.747ZM84.95,53.754a7.193,7.193,0,0,1,4.2,13.036l-2.1-6.516a2.2,2.2,0,0,0-4.193,0l-2.1,6.516a7.193,7.193,0,0,1,4.2-13.036Zm0,14.393h-.007l.007-.021.007.021Zm8.756-14.8a11.722,11.722,0,0,0-1.157-1.157l10.789-18.687a33.314,33.314,0,0,1,9.055,9.055Zm-4.97-3.365a11.466,11.466,0,0,0-1.584-.425V27.98A32.8,32.8,0,0,1,99.526,31.3ZM82.747,27.98V49.56a11.5,11.5,0,0,0-1.584.425L70.375,31.3A32.8,32.8,0,0,1,82.747,27.98Zm-5.4,24.214a11.756,11.756,0,0,0-1.157,1.157L57.507,42.562a33.315,33.315,0,0,1,9.055-9.055Zm-3.365,4.969a11.461,11.461,0,0,0-.425,1.584H51.98A32.8,32.8,0,0,1,55.3,46.375ZM51.98,63.153H73.56a11.5,11.5,0,0,0,.425,1.584L55.3,75.526A32.8,32.8,0,0,1,51.98,63.153Zm24.214,5.4a11.725,11.725,0,0,0,1.157,1.157L66.562,88.394a33.319,33.319,0,0,1-9.055-9.055Zm.29,11.471L72.731,91.653q-1.2-.48-2.357-1.051Zm6.264-5.065V93.921a32.874,32.874,0,0,1-5.823-.913Zm2.2,37.545a2.5,2.5,0,1,1-2.5,2.5A2.5,2.5,0,0,1,84.95,112.5Zm2.2-18.58V74.956l5.823,18.052A32.927,32.927,0,0,1,87.153,93.921Zm6.264-13.9L99.526,90.6q-1.154.57-2.357,1.051ZM92.55,69.707a11.753,11.753,0,0,0,1.157-1.157l18.687,10.789a33.31,33.31,0,0,1-9.055,9.055Zm3.365-4.97a11.466,11.466,0,0,0,.425-1.584h21.58A32.8,32.8,0,0,1,114.6,75.526ZM139,63.447a2.5,2.5,0,1,1,2.5-2.5A2.5,2.5,0,0,1,139,63.447Zm-5.079-30.769a2.5,2.5,0,1,1-3.411-.914A2.5,2.5,0,0,1,133.919,32.678Zm-7.611-2.992a6.921,6.921,0,0,0-1.319,5.6l-8.774,5.065a37.752,37.752,0,0,0-10.67-10.67l5.065-8.772a6.812,6.812,0,0,0,1.353.136,6.951,6.951,0,0,0,4.252-1.457A51.962,51.962,0,0,1,126.308,29.686Zm-14.98-17.954a2.514,2.514,0,0,1,.65-.086,2.5,2.5,0,0,1,2.158,3.746h0a2.5,2.5,0,1,1-2.808-3.66ZM84.95,4.406a2.5,2.5,0,1,1-2.5,2.5A2.5,2.5,0,0,1,84.95,4.406ZM56.678,11.982a2.5,2.5,0,1,1-.914,3.411h0A2.5,2.5,0,0,1,56.678,11.982Zm-2.992,7.611a6.951,6.951,0,0,0,4.252,1.457,6.812,6.812,0,0,0,1.353-.136l5.065,8.772a37.752,37.752,0,0,0-10.67,10.67L44.912,35.29a6.92,6.92,0,0,0-1.32-5.6A51.969,51.969,0,0,1,53.686,19.593Zm-17.7,13.085a2.5,2.5,0,1,1-.25,1.895A2.5,2.5,0,0,1,35.982,32.678ZM30.9,58.454a2.5,2.5,0,1,1-2.5,2.5A2.5,2.5,0,0,1,30.9,58.454Zm5.079,30.769a2.5,2.5,0,0,1,.914-3.411h0a2.483,2.483,0,0,1,1.244-.336,2.512,2.512,0,0,1,.65.086,2.5,2.5,0,1,1-2.808,3.66Zm7.611,2.992a6.921,6.921,0,0,0,1.319-5.6l8.774-5.065a37.752,37.752,0,0,0,10.67,10.67l-5.065,8.774a6.921,6.921,0,0,0-5.6,1.319A51.94,51.94,0,0,1,43.593,92.214Zm13.085,17.7a2.5,2.5,0,1,1,2.5-4.324h0a2.5,2.5,0,1,1-2.5,4.324Zm8.087-1.2A6.9,6.9,0,0,0,63.1,103.2l5.064-8.772q1.564.787,3.208,1.43l-4.428,13.727Q65.848,109.175,64.765,108.716Zm40.659,22.878H64.477l5.311-16.463a55.951,55.951,0,0,0,8.5,1.677,6.9,6.9,0,0,0,13.32,0,55.927,55.927,0,0,0,8.5-1.678Zm-6.9-35.739q1.643-.641,3.208-1.43L106.8,103.2a6.9,6.9,0,0,0-1.662,5.52q-1.083.458-2.183.866Zm14.7,14.064a2.5,2.5,0,1,1,.914-3.411A2.5,2.5,0,0,1,113.223,109.919Zm2.992-7.611a6.92,6.92,0,0,0-5.6-1.319l-5.065-8.774a37.752,37.752,0,0,0,10.67-10.67l8.774,5.065a6.92,6.92,0,0,0,1.319,5.6A51.96,51.96,0,0,1,116.214,102.308Zm17.7-13.086a2.5,2.5,0,0,1-3.411.914h0a2.5,2.5,0,0,1-.914-3.41h0a2.48,2.48,0,0,1,1.516-1.163,2.514,2.514,0,0,1,.65-.086,2.5,2.5,0,0,1,2.158,3.746Z" transform="translate(-24)" fill="#fff" opacity="0.24"/>
</svg>
