<svg xmlns="http://www.w3.org/2000/svg" width="489" height="304.199" viewBox="0 0 489 304.199">
  <g id="Group_1169" data-name="Group 1169" transform="translate(0.5 0.5)">
    <rect id="Rectangle_435" data-name="Rectangle 435" width="6.9" height="303.2" fill="#ed1166" stroke="#bfc2c7" stroke-miterlimit="10" stroke-width="1"/>
    <g id="Group_1167" data-name="Group 1167">
      <path id="Path_3213" data-name="Path 3213" d="M81.8,199.9c-4,3.7-9.7,5.6-17,5.6-7.5,0-13.4-1.8-17.6-5.4s-6.3-9.3-6.3-17.1V145.7h7.8V183c0,5.2,1.4,9.2,4.2,11.9s6.8,4,12,4c5,0,8.7-1.3,11.3-4s3.9-6.7,3.9-11.9V145.7h7.8V183C87.8,190.6,85.8,196.2,81.8,199.9Z" fill="#929498" stroke="#bfc2c7" stroke-miterlimit="10" stroke-width="1"/>
      <path id="Path_3214" data-name="Path 3214" d="M107,145.8v29.1l29.6-29.1h10.1l-24.6,23.6,25.6,34.8h-9.8l-21.1-29.5-9.7,9.1v20.4H99.3V145.8H107Z" fill="#929498" stroke="#bfc2c7" stroke-miterlimit="10" stroke-width="1"/>
      <path id="Path_3215" data-name="Path 3215" d="M168.4,152.3v-6.5h46.7v6.5H195.6v51.9h-7.8V152.3H168.4Z" fill="#929498" stroke="#bfc2c7" stroke-miterlimit="10" stroke-width="1"/>
      <path id="Path_3216" data-name="Path 3216" d="M218.2,161.9v8.9h.2a19.3,19.3,0,0,1,6.2-7.6,15.891,15.891,0,0,1,9.3-2.3v7.4a20.761,20.761,0,0,0-7.1,1.1,11.011,11.011,0,0,0-4.7,3.4,13.594,13.594,0,0,0-2.6,5.4,31.069,31.069,0,0,0-.8,7.2v18.8h-7V161.9h6.5Z" fill="#929498" stroke="#bfc2c7" stroke-miterlimit="10" stroke-width="1"/>
      <path id="Path_3217" data-name="Path 3217" d="M275.6,204a10.016,10.016,0,0,1-5,1.1,6.089,6.089,0,0,1-4.3-1.5c-1.1-1-1.6-2.7-1.6-4.9a15.972,15.972,0,0,1-6.7,4.9,22.132,22.132,0,0,1-8.2,1.5,19.041,19.041,0,0,1-5.4-.7,15.4,15.4,0,0,1-4.5-2,9.668,9.668,0,0,1-3-3.6,14.454,14.454,0,0,1,.1-11.3,10.491,10.491,0,0,1,3.2-3.7,14.007,14.007,0,0,1,4.6-2.2,45.369,45.369,0,0,1,5.3-1.2q2.85-.6,5.4-.9a41.2,41.2,0,0,0,4.5-.8,8.239,8.239,0,0,0,3.1-1.6,3.719,3.719,0,0,0,1.1-3,6.756,6.756,0,0,0-.9-3.7,6.3,6.3,0,0,0-2.2-2.1,9.643,9.643,0,0,0-3-1,18.288,18.288,0,0,0-3.3-.2,15.271,15.271,0,0,0-7.4,1.7c-2,1.1-3,3.2-3.2,6.3h-7a16.03,16.03,0,0,1,1.6-6.6,12.785,12.785,0,0,1,3.9-4.4,16.66,16.66,0,0,1,5.6-2.4,28.7,28.7,0,0,1,6.7-.7,36.424,36.424,0,0,1,5.7.4,13.968,13.968,0,0,1,5.1,1.7,9.14,9.14,0,0,1,3.7,3.6,11.575,11.575,0,0,1,1.4,6v21.7a15.993,15.993,0,0,0,.3,3.6c.2.8.8,1.1,1.9,1.1a8.815,8.815,0,0,0,2.1-.3V204h.4Zm-11.3-21.7a8.118,8.118,0,0,1-3.4,1.4c-1.4.3-2.9.5-4.5.7s-3.1.4-4.7.7a14.333,14.333,0,0,0-4.3,1.2,7.229,7.229,0,0,0-3.1,2.3,6.452,6.452,0,0,0-1.2,4.1,5.426,5.426,0,0,0,.7,2.9,6.558,6.558,0,0,0,1.8,1.9,8.856,8.856,0,0,0,2.6,1.1,15.526,15.526,0,0,0,3.1.3,17.029,17.029,0,0,0,5.9-.9,11.225,11.225,0,0,0,4-2.4,9.629,9.629,0,0,0,2.3-3.1,7.633,7.633,0,0,0,.7-3.1l.1-7.1Z" fill="#929498" stroke="#bfc2c7" stroke-miterlimit="10" stroke-width="1"/>
      <path id="Path_3218" data-name="Path 3218" d="M311.9,204.2v-5.7h-.2a10.369,10.369,0,0,1-5.4,5.1,21.658,21.658,0,0,1-8.1,1.6,18.7,18.7,0,0,1-8.5-1.8,19.117,19.117,0,0,1-6.1-4.8,21.13,21.13,0,0,1-3.6-7,30.7,30.7,0,0,1,0-17,20.2,20.2,0,0,1,3.6-7,15.893,15.893,0,0,1,6.1-4.7,18.7,18.7,0,0,1,8.5-1.8,21.589,21.589,0,0,1,3.5.3,17.955,17.955,0,0,1,7.4,3.1,10.4,10.4,0,0,1,2.8,3.1h.2V145.8h7v58.4Zm-25-15a13.673,13.673,0,0,0,2.4,5,11.609,11.609,0,0,0,4.1,3.5,12.1,12.1,0,0,0,5.8,1.3,12.658,12.658,0,0,0,6-1.4,11.551,11.551,0,0,0,4-3.6,14.626,14.626,0,0,0,2.2-5.1,22.473,22.473,0,0,0,.7-5.8,23.49,23.49,0,0,0-.7-6,16.93,16.93,0,0,0-2.3-5.1,11.878,11.878,0,0,0-4.1-3.6,12.785,12.785,0,0,0-6.1-1.3,12.658,12.658,0,0,0-6,1.4,11.516,11.516,0,0,0-3.9,3.7,14.973,14.973,0,0,0-2.1,5.2,30.817,30.817,0,0,0-.7,6.1A18.571,18.571,0,0,0,286.9,189.2Z" fill="#929498" stroke="#bfc2c7" stroke-miterlimit="10" stroke-width="1"/>
      <path id="Path_3219" data-name="Path 3219" d="M358.5,201.5a19.137,19.137,0,0,1-11.9,3.6,21.612,21.612,0,0,1-8.8-1.6,17.145,17.145,0,0,1-6.3-4.6,19,19,0,0,1-3.8-7,35.285,35.285,0,0,1-1.4-8.9,24.62,24.62,0,0,1,1.5-8.8,23.07,23.07,0,0,1,4.1-7,18.561,18.561,0,0,1,14.3-6.2,17.924,17.924,0,0,1,9.4,2.3,18.8,18.8,0,0,1,6,5.9,23.714,23.714,0,0,1,3.1,7.9,32.5,32.5,0,0,1,.7,8.1H333.7a15.452,15.452,0,0,0,.7,5.3,11.791,11.791,0,0,0,2.4,4.4A12.108,12.108,0,0,0,341,198a13.984,13.984,0,0,0,6,1.1,12.264,12.264,0,0,0,7.2-2,9.792,9.792,0,0,0,3.7-6.2h6.9C363.7,195.5,361.7,199.1,358.5,201.5Zm-1.7-27.2a12.548,12.548,0,0,0-2.5-3.8,10.936,10.936,0,0,0-3.8-2.5,12.085,12.085,0,0,0-4.8-.9,12.951,12.951,0,0,0-4.9.9,10.786,10.786,0,0,0-3.7,2.6,13.913,13.913,0,0,0-2.5,3.8,14.093,14.093,0,0,0-1.1,4.6h24.3A11.041,11.041,0,0,0,356.8,174.3Z" fill="#929498" stroke="#bfc2c7" stroke-miterlimit="10" stroke-width="1"/>
    </g>
    <g id="Group_1168" data-name="Group 1168">
      <path id="Path_3220" data-name="Path 3220" d="M54.1,269.8a21.771,21.771,0,0,1-9.4,2,21.448,21.448,0,0,1-9.5-1.8,15.726,15.726,0,0,1-5.6-4.3,13.4,13.4,0,0,1-2.6-5.2,21.472,21.472,0,0,1-.6-4.5,16.583,16.583,0,0,1,1.1-6.1,17.546,17.546,0,0,1,2.9-4.7,26.531,26.531,0,0,1,4.3-3.8,45.977,45.977,0,0,1,5.3-3.1L37.6,235a28.24,28.24,0,0,1-2.1-3.1,20.653,20.653,0,0,1-1.5-3.4,12.532,12.532,0,0,1-.5-4,11.3,11.3,0,0,1,.9-4.5,11.947,11.947,0,0,1,2.5-3.8,13.292,13.292,0,0,1,4.1-2.7,14,14,0,0,1,5.6-1,18.819,18.819,0,0,1,5.3.7,13.5,13.5,0,0,1,4.5,2.2,10.411,10.411,0,0,1,3.1,3.8,10.791,10.791,0,0,1,1.2,5.2,13.444,13.444,0,0,1-3.4,9,18.788,18.788,0,0,1-3.5,3.4,36.222,36.222,0,0,1-4.1,2.7l10.6,12.8a33.619,33.619,0,0,0,1.9-9.1h6.6c-.2,1.7-.3,3.2-.5,4.5a29.033,29.033,0,0,1-.7,3.4c-.3,1-.7,2.1-1.1,3.1s-1,2.2-1.6,3.5l11.4,13.2H67.2L61,263.6A13.937,13.937,0,0,1,54.1,269.8Zm-14-24.7a14.316,14.316,0,0,0-3.2,2.8,11.525,11.525,0,0,0-2.2,3.5,12.458,12.458,0,0,0-.8,4.5,8.719,8.719,0,0,0,.9,4,9.5,9.5,0,0,0,2.5,3.1,12.453,12.453,0,0,0,3.6,2,11.409,11.409,0,0,0,4.1.7,13.365,13.365,0,0,0,7.2-1.9,16.114,16.114,0,0,0,5.3-5.1L44.1,242.6C42.6,243.5,41.3,244.3,40.1,245.1Zm8.8-11.8a17.873,17.873,0,0,0,2.5-2.2,10.148,10.148,0,0,0,1.9-2.7A7.391,7.391,0,0,0,54,225a6.2,6.2,0,0,0-1.8-4.4,6.569,6.569,0,0,0-4.9-1.8,7.893,7.893,0,0,0-4.6,1.5,5.421,5.421,0,0,0-2.1,4.7,7.985,7.985,0,0,0,.5,2.6c.4.9.8,1.7,1.3,2.6a19.5,19.5,0,0,0,1.8,2.5c.7.8,1.3,1.6,2,2.5C47.1,234.5,48,233.9,48.9,233.3Z" fill="#929498" stroke="#bfc2c7" stroke-miterlimit="10" stroke-width="1"/>
      <path id="Path_3221" data-name="Path 3221" d="M110.6,212.6V271h-7.8V212.6Z" fill="#929498" stroke="#bfc2c7" stroke-miterlimit="10" stroke-width="1"/>
      <path id="Path_3222" data-name="Path 3222" d="M128.1,228.7v6.7h.2c2.9-5.1,7.5-7.7,13.7-7.7a20.155,20.155,0,0,1,7,1.1,10.83,10.83,0,0,1,4.5,3.2,13.212,13.212,0,0,1,2.4,4.9,24.813,24.813,0,0,1,.7,6.3V271h-7V242.4a7.94,7.94,0,0,0-8.6-8.5,13.185,13.185,0,0,0-5.5,1,11.139,11.139,0,0,0-3.9,2.8,12.234,12.234,0,0,0-2.3,4.2,17.846,17.846,0,0,0-.8,5.3v23.9h-7V228.8l6.6-.1Z" fill="#929498" stroke="#bfc2c7" stroke-miterlimit="10" stroke-width="1"/>
      <path id="Path_3223" data-name="Path 3223" d="M177.6,271l-15.7-42.3h7.8l11.9,35.2h.2l11.5-35.2h7.3L185.1,271Z" fill="#929498" stroke="#bfc2c7" stroke-miterlimit="10" stroke-width="1"/>
      <path id="Path_3224" data-name="Path 3224" d="M235.9,268.3a19.137,19.137,0,0,1-11.9,3.6,21.612,21.612,0,0,1-8.8-1.6,17.145,17.145,0,0,1-6.3-4.6,19,19,0,0,1-3.8-7,35.283,35.283,0,0,1-1.4-8.9,24.62,24.62,0,0,1,1.5-8.8,23.07,23.07,0,0,1,4.1-7,18.561,18.561,0,0,1,14.3-6.2,17.924,17.924,0,0,1,9.4,2.3,18.8,18.8,0,0,1,6,5.9,23.714,23.714,0,0,1,3.1,7.9,32.5,32.5,0,0,1,.7,8.1H211.1a15.452,15.452,0,0,0,.7,5.3,11.791,11.791,0,0,0,2.4,4.4,12.108,12.108,0,0,0,4.2,3.1,13.985,13.985,0,0,0,6,1.1,12.264,12.264,0,0,0,7.2-2,9.792,9.792,0,0,0,3.7-6.2h6.9C241.1,262.3,239,265.9,235.9,268.3Zm-1.7-27.2a12.548,12.548,0,0,0-2.5-3.8,10.936,10.936,0,0,0-3.8-2.5,12.085,12.085,0,0,0-4.8-.9,12.951,12.951,0,0,0-4.9.9,10.786,10.786,0,0,0-3.7,2.6,13.913,13.913,0,0,0-2.5,3.8,14.093,14.093,0,0,0-1.1,4.6h24.4A15.335,15.335,0,0,0,234.2,241.1Z" fill="#929498" stroke="#bfc2c7" stroke-miterlimit="10" stroke-width="1"/>
      <path id="Path_3225" data-name="Path 3225" d="M254.2,261.5a6.92,6.92,0,0,0,2.6,2.5,11.076,11.076,0,0,0,3.6,1.3,18.4,18.4,0,0,0,4.1.4c1.1,0,2.2-.1,3.4-.2a15.913,15.913,0,0,0,3.3-.9,6.667,6.667,0,0,0,2.5-1.9,5.366,5.366,0,0,0-1-7.3,17.065,17.065,0,0,0-5.1-2.2c-2-.6-4.3-1.1-6.7-1.6a34.817,34.817,0,0,1-6.7-2,13.183,13.183,0,0,1-5.1-3.6c-1.4-1.5-2-3.7-2-6.4a10.693,10.693,0,0,1,1.4-5.5,11.878,11.878,0,0,1,3.7-3.7,14.468,14.468,0,0,1,5.1-2.1,21.49,21.49,0,0,1,5.6-.7,33.713,33.713,0,0,1,6.6.6,16.017,16.017,0,0,1,5.4,2.1,10.468,10.468,0,0,1,3.7,4.1,15.071,15.071,0,0,1,1.6,6.4h-7a6.849,6.849,0,0,0-1.1-3.4,8.04,8.04,0,0,0-2.3-2.2,14.276,14.276,0,0,0-3.1-1.2,18.61,18.61,0,0,0-3.4-.4c-1,0-2.1.1-3.1.2a12.313,12.313,0,0,0-2.9.9,5.844,5.844,0,0,0-2.1,1.6,4.551,4.551,0,0,0-.8,2.7,3.8,3.8,0,0,0,1.3,3,10.96,10.96,0,0,0,3.2,2,25.364,25.364,0,0,0,4.4,1.3c1.6.3,3.3.7,4.9,1.1a48.375,48.375,0,0,1,5.1,1.4,15.121,15.121,0,0,1,4.4,2.2,9.788,9.788,0,0,1,4.3,8.5,11.475,11.475,0,0,1-1.6,6.4,12.653,12.653,0,0,1-4.2,4.1,18.375,18.375,0,0,1-5.8,2.2,35.479,35.479,0,0,1-6.4.6,29.287,29.287,0,0,1-6.7-.7,16.66,16.66,0,0,1-5.6-2.4,12.785,12.785,0,0,1-3.9-4.4,14.714,14.714,0,0,1-1.6-6.7h7A6.652,6.652,0,0,0,254.2,261.5Z" fill="#929498" stroke="#bfc2c7" stroke-miterlimit="10" stroke-width="1"/>
      <path id="Path_3226" data-name="Path 3226" d="M306.9,228.7v6.1h-8.4v26.3a10.314,10.314,0,0,0,.2,2,1.548,1.548,0,0,0,.8,1.1,3.36,3.36,0,0,0,1.6.5,20.973,20.973,0,0,0,2.7.1H307v6.1h-5.3a20.712,20.712,0,0,1-4.6-.4,8.056,8.056,0,0,1-3.1-1.3,6.188,6.188,0,0,1-1.8-2.8,15.349,15.349,0,0,1-.6-4.7V234.8h-7.3v-6.1h7.2V216h7v12.7Z" fill="#929498" stroke="#bfc2c7" stroke-miterlimit="10" stroke-width="1"/>
      <path id="Path_3227" data-name="Path 3227" d="M320.1,228.7v6.2h.2a15.421,15.421,0,0,1,13.7-7.2,15.138,15.138,0,0,1,7.1,1.6,9.22,9.22,0,0,1,4.5,5.6,14.244,14.244,0,0,1,5.6-5.3,15.315,15.315,0,0,1,7.6-1.9,21.451,21.451,0,0,1,5.8.7,12.137,12.137,0,0,1,4.4,2.2,10.138,10.138,0,0,1,2.9,3.8,13.674,13.674,0,0,1,1,5.6v31h-7V243.3a22.179,22.179,0,0,0-.3-3.7,7.892,7.892,0,0,0-1.2-3,6.339,6.339,0,0,0-2.5-2,9.743,9.743,0,0,0-4.1-.7,11.3,11.3,0,0,0-8.1,2.9c-2,1.9-2.9,4.6-2.9,7.9V271h-7V243.3a15.286,15.286,0,0,0-.4-3.8,8.064,8.064,0,0,0-1.3-3,6.773,6.773,0,0,0-2.4-2,8.784,8.784,0,0,0-3.9-.7,10.521,10.521,0,0,0-5.2,1.2,12.612,12.612,0,0,0-3.5,2.9,10.681,10.681,0,0,0-2,3.6,9.887,9.887,0,0,0-.6,3.1v26.3h-7V228.6h6.6v.1Z" fill="#929498" stroke="#bfc2c7" stroke-miterlimit="10" stroke-width="1"/>
      <path id="Path_3228" data-name="Path 3228" d="M412.3,268.3a19.137,19.137,0,0,1-11.9,3.6,21.612,21.612,0,0,1-8.8-1.6,17.145,17.145,0,0,1-6.3-4.6,19,19,0,0,1-3.8-7,35.285,35.285,0,0,1-1.4-8.9,24.62,24.62,0,0,1,1.5-8.8,23.07,23.07,0,0,1,4.1-7,18.561,18.561,0,0,1,14.3-6.2,17.924,17.924,0,0,1,9.4,2.3,18.8,18.8,0,0,1,6,5.9,23.714,23.714,0,0,1,3.1,7.9,32.5,32.5,0,0,1,.7,8.1H387.5a15.452,15.452,0,0,0,.7,5.3,11.791,11.791,0,0,0,2.4,4.4,12.108,12.108,0,0,0,4.2,3.1,13.985,13.985,0,0,0,6,1.1,12.264,12.264,0,0,0,7.2-2,9.792,9.792,0,0,0,3.7-6.2h6.9C417.5,262.3,415.4,265.9,412.3,268.3Zm-1.7-27.2a12.548,12.548,0,0,0-2.5-3.8,10.936,10.936,0,0,0-3.8-2.5,12.085,12.085,0,0,0-4.8-.9,12.951,12.951,0,0,0-4.9.9,10.786,10.786,0,0,0-3.7,2.6,13.913,13.913,0,0,0-2.5,3.8,14.093,14.093,0,0,0-1.1,4.6h24.3A12.779,12.779,0,0,0,410.6,241.1Z" fill="#929498" stroke="#bfc2c7" stroke-miterlimit="10" stroke-width="1"/>
      <path id="Path_3229" data-name="Path 3229" d="M431.8,228.7v6.7h.2c2.9-5.1,7.5-7.7,13.7-7.7a20.155,20.155,0,0,1,7,1.1,10.83,10.83,0,0,1,4.5,3.2,13.212,13.212,0,0,1,2.4,4.9,24.813,24.813,0,0,1,.7,6.3V271h-7V242.4a7.94,7.94,0,0,0-8.6-8.5,13.185,13.185,0,0,0-5.5,1,10.294,10.294,0,0,0-3.9,2.8,12.234,12.234,0,0,0-2.3,4.2,17.846,17.846,0,0,0-.8,5.3v23.9h-7V228.8l6.6-.1Z" fill="#929498" stroke="#bfc2c7" stroke-miterlimit="10" stroke-width="1"/>
      <path id="Path_3230" data-name="Path 3230" d="M487.9,228.7v6.1h-8.4v26.3a10.314,10.314,0,0,0,.2,2,1.548,1.548,0,0,0,.8,1.1,3.36,3.36,0,0,0,1.6.5,20.973,20.973,0,0,0,2.7.1H488v6.1h-5.3a20.712,20.712,0,0,1-4.6-.4,8.056,8.056,0,0,1-3.1-1.3,6.188,6.188,0,0,1-1.8-2.8,15.349,15.349,0,0,1-.6-4.7V234.8h-7.3v-6.1h7.2V216h7v12.7Z" fill="#929498" stroke="#bfc2c7" stroke-miterlimit="10" stroke-width="1"/>
    </g>
    <g id="g3093" transform="translate(-350.49 427.551)">
      <g id="g3551" transform="translate(459.887 929.478)">
        <g id="g3111" transform="translate(97.717 -1038.025)">
          <path id="path3113" d="M-111.731-299.443c-.641,1.281-1.281,2.05-1.153,2.947.128,1.025,1.153,1.666,1.538,2.691.384-1.153,1.153-2.05,1.025-2.947.128-.9-1.153-2.05-1.409-2.691" fill="#929499" stroke="#bfc2c7" stroke-miterlimit="10" stroke-width="1.281"/>
        </g>
        <g id="g3115" transform="translate(103.501 -1038.025)">
          <path id="path3117" d="M-100.583-299.443c.641,1.281,1.281,2.05,1.153,2.947-.128,1.025-1.153,1.666-1.538,2.691-.384-1.153-1.153-2.05-1.025-2.947,0-.9,1.153-2.05,1.409-2.691" fill="#929499" stroke="#bfc2c7" stroke-miterlimit="10" stroke-width="1.281"/>
        </g>
        <g id="g3119" transform="translate(94.389 -1038.274)">
          <path id="path3121" d="M-118.137-299.956a1.148,1.148,0,0,0,1.153-1.153,1.148,1.148,0,0,0-1.153-1.153,1.148,1.148,0,0,0-1.153,1.153,1.148,1.148,0,0,0,1.153,1.153" fill="#929499" stroke="#bfc2c7" stroke-miterlimit="10" stroke-width="1.281"/>
        </g>
        <g id="g3123" transform="translate(94.65 -1037.716)">
          <path id="path3125" d="M-117.625-298.8a1.148,1.148,0,0,0-1.153-1.153,1.148,1.148,0,0,0-1.153,1.153,1.148,1.148,0,0,0,1.153,1.153c.641-.128,1.153-.513,1.153-1.153" fill="#929499" stroke="#bfc2c7" stroke-miterlimit="10" stroke-width="1.281"/>
        </g>
        <g id="g3127" transform="translate(94.841 -1036.769)">
          <path id="path3129" d="M-117.24-297.009a1.148,1.148,0,0,0-1.153-1.153,1.148,1.148,0,0,0-1.153,1.153,1.148,1.148,0,0,0,1.153,1.153,1.148,1.148,0,0,0,1.153-1.153" fill="#929499" stroke="#bfc2c7" stroke-miterlimit="10" stroke-width="1.281"/>
        </g>
        <g id="g3131" transform="translate(96.553 -1040.137)">
          <path id="path3133" d="M-113.909-303.544a1.148,1.148,0,0,0,1.153-1.153,1.148,1.148,0,0,0-1.153-1.153,1.148,1.148,0,0,0-1.153,1.153,1.148,1.148,0,0,0,1.153,1.153" fill="#929499" stroke="#bfc2c7" stroke-miterlimit="10" stroke-width="1.281"/>
        </g>
        <g id="g3135" transform="translate(95.581 -1039.838)">
          <path id="path3137" d="M-115.831-302.9a1.148,1.148,0,0,0,1.153-1.153,1.148,1.148,0,0,0-1.153-1.153,1.148,1.148,0,0,0-1.153,1.153,1.148,1.148,0,0,0,1.153,1.153" fill="#929499" stroke="#bfc2c7" stroke-miterlimit="10" stroke-width="1.281"/>
        </g>
        <g id="g3139" transform="translate(94.817 -1039.168)">
          <path id="path3141" d="M-117.24-301.622a1.148,1.148,0,0,0,1.153-1.153,1.148,1.148,0,0,0-1.153-1.153,1.148,1.148,0,0,0-1.153,1.153,1.148,1.148,0,0,0,1.153,1.153" fill="#929499" stroke="#bfc2c7" stroke-miterlimit="10" stroke-width="1.281"/>
        </g>
        <g id="g3143" transform="translate(97.572 -1040.043)">
          <path id="path3145" d="M-111.987-303.287a1.148,1.148,0,0,0,1.153-1.153,1.148,1.148,0,0,0-1.153-1.153,1.148,1.148,0,0,0-1.153,1.153,1.148,1.148,0,0,0,1.153,1.153" fill="#929499" stroke="#bfc2c7" stroke-miterlimit="10" stroke-width="1.281"/>
        </g>
        <g id="g3147" transform="translate(98.541 -1039.763)">
          <path id="path3149" d="M-110.065-302.775a1.148,1.148,0,0,0,1.153-1.153,1.148,1.148,0,0,0-1.153-1.153,1.148,1.148,0,0,0-1.153,1.153,1.148,1.148,0,0,0,1.153,1.153" fill="#929499" stroke="#bfc2c7" stroke-miterlimit="10" stroke-width="1.281"/>
        </g>
        <g id="g3151" transform="translate(99.453 -1039.335)">
          <path id="path3153" d="M-108.4-302.006a1.148,1.148,0,0,0,1.153-1.153,1.148,1.148,0,0,0-1.153-1.153,1.148,1.148,0,0,0-1.153,1.153,1.148,1.148,0,0,0,1.153,1.153" fill="#929499" stroke="#bfc2c7" stroke-miterlimit="10" stroke-width="1.281"/>
        </g>
        <g id="g3155" transform="translate(106.425 -1038.665)">
          <path id="path3157" d="M-94.945-300.725a1.148,1.148,0,0,0,1.153,1.153,1.148,1.148,0,0,0,1.153-1.153,1.148,1.148,0,0,0-1.153-1.153,1.148,1.148,0,0,0-1.153,1.153" fill="#929499" stroke="#bfc2c7" stroke-miterlimit="10" stroke-width="1.281"/>
        </g>
        <g id="g3159" transform="translate(106.946 -1038.107)">
          <path id="path3161" d="M-93.92-299.572a1.148,1.148,0,0,0-1.153,1.153,1.148,1.148,0,0,0,1.153,1.153,1.148,1.148,0,0,0,1.153-1.153,1.148,1.148,0,0,0-1.153-1.153" fill="#929499" stroke="#bfc2c7" stroke-miterlimit="10" stroke-width="1.281"/>
        </g>
        <g id="g3163" transform="translate(106.755 -1037.16)">
          <path id="path3165" d="M-94.3-297.778a1.148,1.148,0,0,0-1.153,1.153,1.148,1.148,0,0,0,1.153,1.153,1.148,1.148,0,0,0,1.153-1.153,1.148,1.148,0,0,0-1.153-1.153" fill="#929499" stroke="#bfc2c7" stroke-miterlimit="10" stroke-width="1.281"/>
        </g>
        <g id="g3167" transform="translate(104.654 -1040.137)">
          <path id="path3169" d="M-98.277-303.544a1.148,1.148,0,0,0,1.153-1.153,1.148,1.148,0,0,0-1.153-1.153A1.148,1.148,0,0,0-99.43-304.7a1.148,1.148,0,0,0,1.153,1.153" fill="#929499" stroke="#bfc2c7" stroke-miterlimit="10" stroke-width="1.281"/>
        </g>
        <g id="g3171" transform="translate(105.625 -1039.838)">
          <path id="path3173" d="M-96.483-302.9a1.148,1.148,0,0,0,1.153-1.153,1.148,1.148,0,0,0-1.153-1.153,1.148,1.148,0,0,0-1.153,1.153,1.148,1.148,0,0,0,1.153,1.153" fill="#929499" stroke="#bfc2c7" stroke-miterlimit="10" stroke-width="1.281"/>
        </g>
        <g id="g3175" transform="translate(106.389 -1039.168)">
          <path id="path3177" d="M-94.945-301.622a1.148,1.148,0,0,0,1.153-1.153,1.148,1.148,0,0,0-1.153-1.153,1.148,1.148,0,0,0-1.153,1.153,1.148,1.148,0,0,0,1.153,1.153" fill="#929499" stroke="#bfc2c7" stroke-miterlimit="10" stroke-width="1.281"/>
        </g>
        <g id="g3179" transform="translate(103.633 -1040.043)">
          <path id="path3181" d="M-100.327-303.287a1.148,1.148,0,0,0,1.153-1.153,1.148,1.148,0,0,0-1.153-1.153,1.148,1.148,0,0,0-1.153,1.153,1.148,1.148,0,0,0,1.153,1.153" fill="#929499" stroke="#bfc2c7" stroke-miterlimit="10" stroke-width="1.281"/>
        </g>
        <g id="g3183" transform="translate(102.665 -1039.763)">
          <path id="path3185" d="M-102.121-302.775a1.148,1.148,0,0,0,1.153-1.153,1.148,1.148,0,0,0-1.153-1.153,1.148,1.148,0,0,0-1.153,1.153,1.148,1.148,0,0,0,1.153,1.153" fill="#929499" stroke="#bfc2c7" stroke-miterlimit="10" stroke-width="1.281"/>
        </g>
        <g id="g3187" transform="translate(101.363 -1039.727)">
          <path id="path3189" d="M-104.683-302.775a1.148,1.148,0,0,0,1.153,1.153,1.148,1.148,0,0,0,1.153-1.153,1.148,1.148,0,0,0-1.153-1.153,1.148,1.148,0,0,0-1.153,1.153" fill="#929499" stroke="#bfc2c7" stroke-miterlimit="10" stroke-width="1.281"/>
        </g>
        <g id="g3191" transform="translate(99.936 -1037.612)">
          <path id="path3193" d="M-107.374-298.675h1.281v-4.869c-.513-.128-.9-.256-1.281-.384Z" fill="#929499" stroke="#bfc2c7" stroke-miterlimit="10" stroke-width="1.281"/>
        </g>
        <g id="g3195" transform="translate(101.271 -1039.421)">
          <path id="path3197" d="M-104.812-302.134a3.76,3.76,0,0,1-1.281.384v4.869h1.281Z" fill="#929499" stroke="#bfc2c7" stroke-miterlimit="10" stroke-width="1.281"/>
        </g>
        <g id="g3199" transform="translate(100.352 -1041.268)">
          <path id="path3201" d="M-106.605-305.722v-2.947a3.546,3.546,0,0,0-2.819,2.947Z" fill="#929499" stroke="#bfc2c7" stroke-miterlimit="10" stroke-width="1.281"/>
        </g>
        <g id="g3203" transform="translate(100.86 -1041.268)">
          <path id="path3205" d="M-105.709-305.722h2.819a3.884,3.884,0,0,0-2.819-2.947Z" fill="#929499" stroke="#bfc2c7" stroke-miterlimit="10" stroke-width="1.281"/>
        </g>
        <g id="g3207" transform="translate(99.404 -1040.789)">
          <path id="path3209" d="M-108.4-304.825a3.554,3.554,0,0,0,3.46,2.819,3.452,3.452,0,0,0,3.46-2.819Z" fill="#929499" stroke="#bfc2c7" stroke-miterlimit="10" stroke-width="1.281"/>
        </g>
        <g id="g3211" transform="translate(101.276 -1042.417)">
          <path id="path3213" d="M-104.812-307.9a4.125,4.125,0,0,1-1.538-2.563,4.723,4.723,0,0,1,2.563,1.666v-3.972a4.723,4.723,0,0,1-2.563,1.666,5.649,5.649,0,0,1,1.538-2.819h-3.844a6.889,6.889,0,0,1,1.538,2.819,4.723,4.723,0,0,1-2.563-1.666v3.972a4.723,4.723,0,0,1,2.563-1.666,4.125,4.125,0,0,1-1.538,2.563Z" fill="#929499" stroke="#bfc2c7" stroke-miterlimit="10" stroke-width="1.281"/>
        </g>
        <g id="g3215" transform="translate(102.714 -1015.574)">
          <path id="path3217" d="M-102.121-256.135a74.369,74.369,0,0,1-11.916-4.228h0a3.089,3.089,0,0,0-.769-2.434,2.91,2.91,0,0,0-2.306-1.153,3.741,3.741,0,0,0-1.153.256,10.243,10.243,0,0,1-1.666-1.666,20.971,20.971,0,0,1-3.588-6.15,21.338,21.338,0,0,1-1.025-4.1,3.618,3.618,0,0,1-3.716,2.691c0-.256,0-.769-.256-.9a2.761,2.761,0,0,1-3.46.641,27.219,27.219,0,0,0,1.281,4.613,28.414,28.414,0,0,0,5.125,8.713l2.306,2.306v.513a3.713,3.713,0,0,0,1.922,2.819,2.552,2.552,0,0,0,2.947-.384,33.5,33.5,0,0,0,6.407,2.434,27.6,27.6,0,0,0,7.3,1.153,12.236,12.236,0,0,0,6.407-2.306c.9-.641,1.794-1.281,2.435-1.794l.256-.256c-1.666.256-4.228-.256-6.535-.769m-13.2-5.51-.384-.256a1.393,1.393,0,0,0-1.922,0,5.572,5.572,0,0,0-.769.9l-.384.384.256.256c.769.641.9,1.281.641,1.666-.128.128-.256.256-.384.256a1.606,1.606,0,0,1-1.409-.384l-.256-.128-.128.256c0,.128-.128.128-.128.256s-.128.128-.256.256a4.329,4.329,0,0,0-.513,1.281v.256a1.155,1.155,0,0,0,.769.769l.128.128a5.193,5.193,0,0,0,1.153.641,2.054,2.054,0,0,1-1.922.128,3.15,3.15,0,0,1-1.666-2.178,6.68,6.68,0,0,1,1.025-3.075l.128-.128-.128-.128a3.837,3.837,0,0,1-.513-1.025,3.742,3.742,0,0,1,1.153.256h.128l.128-.128c.384-.513,1.922-2.05,3.331-2.05a2.692,2.692,0,0,1,1.794.9,2.058,2.058,0,0,1,.641,1.409c0-.128-.256-.256-.513-.513m2.435,6.919a1.48,1.48,0,0,1-1.538-1.538,1.48,1.48,0,0,1,1.538-1.538,1.48,1.48,0,0,1,1.538,1.538,1.558,1.558,0,0,1-1.538,1.538m6.663,2.05a1.422,1.422,0,0,1-1.409-1.409,1.422,1.422,0,0,1,1.409-1.409,1.422,1.422,0,0,1,1.409,1.409,1.422,1.422,0,0,1-1.409,1.409" fill="#929499" stroke="#bfc2c7" stroke-miterlimit="10" stroke-width="1.281"/>
        </g>
        <g id="g3219" transform="translate(101.946 -1011.942)">
          <path id="path3221" d="M-103.53-249.216a1.625,1.625,0,0,0-.769.128v-4.356a28.506,28.506,0,0,1-6.278-.9v5.253a1.625,1.625,0,0,0-.769-.128,2.428,2.428,0,0,0-2.435,2.434,4.159,4.159,0,0,0,1.281,2.819c.256-.641.513-1.153.9-1.153.769,0,.384,3.716,2.563,3.844a.96.96,0,0,0-.128.641,1.7,1.7,0,0,0,1.666,1.666,1.7,1.7,0,0,0,1.666-1.666,1.155,1.155,0,0,0-.128-.641c2.178-.128,1.794-3.844,2.563-3.844.384,0,.641.513.9,1.153a4.73,4.73,0,0,0,1.153-2.819,2.078,2.078,0,0,0-2.178-2.435m-3.972,9.482a.876.876,0,0,1-.9-.9.876.876,0,0,1,.9-.9.876.876,0,0,1,.9.9c.128.384-.256.9-.9.9m5.125-5.51a1.2,1.2,0,0,0-1.025-.769c-1.538,0-.9,3.844-2.691,3.844a1.048,1.048,0,0,1-1.153-1.025c0-.513.384-.769.384-1.153a.718.718,0,0,0-.769-.641c-.384,0-.769.128-.769.641,0,.384.384.641.384,1.153a1.048,1.048,0,0,1-1.153,1.025c-1.794,0-1.153-3.844-2.691-3.844a1.2,1.2,0,0,0-1.025.769,4.322,4.322,0,0,1-.513-1.538,1.609,1.609,0,0,1,1.666-1.666c1.922,0,1.538,2.691,2.435,2.691a.718.718,0,0,0,.769-.641c0-.769-1.409-1.538-1.409-2.563s1.025-2.05,2.05-2.947c1.153.9,2.05,1.794,2.05,2.947s-1.409,1.794-1.409,2.563c0,.384.256.641.769.641.9,0,.513-2.691,2.435-2.691a1.682,1.682,0,0,1,1.666,1.666c.513.384.384,1.025,0,1.538" fill="#929499" stroke="#bfc2c7" stroke-miterlimit="10" stroke-width="1.281"/>
        </g>
        <g id="g3223" transform="translate(119.227 -1010.172)">
          <path id="path3225" d="M-70.216-245.756c-.128-.256-.384-.384-.513-.256-5,1.409-11.276-2.691-17.3-6.791-5.125-3.331-9.866-6.535-13.966-6.535a10.669,10.669,0,0,0-4.1.9,7.084,7.084,0,0,0-3.2,3.716,16.009,16.009,0,0,1-2.05,3.716,6.132,6.132,0,0,0-1.153,2.947,3.716,3.716,0,0,0,1.025,2.306,9.728,9.728,0,0,0,2.691,1.794l.769.384c1.025.513,1.666.769,1.794,1.409a33.343,33.343,0,0,1-7.56,2.178,57.166,57.166,0,0,1-10.763.9,57.166,57.166,0,0,1-10.763-.9,33.343,33.343,0,0,1-7.56-2.178c.128-.9.641-1.153,1.794-1.666l.769-.384a9.847,9.847,0,0,0,2.563-1.666,2.55,2.55,0,0,0,1.025-2.178,6.133,6.133,0,0,0-1.153-2.947,22.821,22.821,0,0,1-2.05-3.716,7.083,7.083,0,0,0-3.2-3.716,8.237,8.237,0,0,0-3.972-.9c-4.1,0-8.969,3.2-14.094,6.663-6.022,3.972-12.3,8.2-17.3,6.791-.256-.128-.513,0-.513.256a.468.468,0,0,0,.256.641,23.731,23.731,0,0,1,4.228,2.691c1.794,1.409,3.588,2.819,5.382,2.819a12.248,12.248,0,0,0,6.022-1.794,53.83,53.83,0,0,0,6.15-3.844c3.972-2.691,8.072-5.51,12.044-5.894l-1.153,1.153c-1.153,1.025-2.178,1.922-2.178,3.716A8.854,8.854,0,0,0-147.1-242.3a15.032,15.032,0,0,1,.641,1.409,23.907,23.907,0,0,1,.9,2.819l.384,1.538a6.061,6.061,0,0,0,3.588,4.1c3.331,1.666,9.1,2.563,17.042,2.563s13.71-.9,17.041-2.563a6.061,6.061,0,0,0,3.588-4.1,13.3,13.3,0,0,1,.384-1.538,11.986,11.986,0,0,1,.9-2.819,11.635,11.635,0,0,1,.9-1.794,6.351,6.351,0,0,0,1.025-3.331c0-1.794-1.025-2.691-2.306-3.844a11.551,11.551,0,0,0-1.281-1.153c3.972.256,8.072,3.075,12.044,5.894a53.829,53.829,0,0,0,6.15,3.844,12.248,12.248,0,0,0,6.022,1.794c1.922,0,3.588-1.281,5.382-2.819a18.214,18.214,0,0,1,4.228-2.691,1.822,1.822,0,0,0,.256-.769" fill="#929499" stroke="#bfc2c7" stroke-miterlimit="10" stroke-width="1.281"/>
        </g>
        <g id="g3227" transform="translate(108.874 -1023.965)">
          <path id="path3229" d="M-90.2-272.408a7.294,7.294,0,0,1-1.922-2.306c-.641-1.281-3.075-6.15-3.46-6.791a2.386,2.386,0,0,1-.513-1.409,2.277,2.277,0,0,1,.513-1.281,3.99,3.99,0,0,0,.9-1.153c.128-.256.256-.384.384-.641a19.069,19.069,0,0,0-3.075-4.1,21.812,21.812,0,0,0-4.869-4.228,3.768,3.768,0,0,0,1.922-3.075,2.933,2.933,0,0,0-1.025-2.178c1.025-3.2,2.819-7.175,4.356-8.841l-3.2-1.409a5.293,5.293,0,0,1,.769,3.716,4.237,4.237,0,0,1-1.794-2.434,11.016,11.016,0,0,1-1.153,3.46,3.278,3.278,0,0,1,2.691-.256,3.784,3.784,0,0,1-4.1,1.409c-1.153-.256-2.306-.9-2.306-1.794a1.144,1.144,0,0,1,1.153-1.153c.769.128.769,1.153.513,1.666.9-.513,1.922-3.2.384-3.588-1.153-.256-2.178,1.281-2.563,2.434-.256-1.409-.769-2.819-1.922-2.819-1.538.128-1.025,2.819-.513,3.588.128-1.025.641-1.538,1.025-1.409.384,0,.9.256.769,1.153s-1.281,1.409-2.819,1.409c-1.409,0-3.716-.384-3.972-3.075a4.923,4.923,0,0,1,2.819,1.666,24.723,24.723,0,0,1,0-4.356,4.4,4.4,0,0,1-2.819,1.666,5.978,5.978,0,0,1,2.306-3.075h-5.894a5.363,5.363,0,0,1,2.306,3.075,4.4,4.4,0,0,1-2.819-1.666,24.723,24.723,0,0,1,0,4.356,4.653,4.653,0,0,1,2.819-1.666c-.256,2.691-2.691,3.075-3.972,3.075-1.409,0-2.691-.513-2.819-1.409s.384-1.153.9-1.153a1.322,1.322,0,0,1,1.025,1.409c.513-.641,1.025-3.46-.513-3.588-1.153-.128-1.794,1.281-1.922,2.819-.384-1.153-1.409-2.819-2.563-2.434-1.409.384-.513,3.075.384,3.588-.256-.513-.128-1.538.513-1.666.769-.128,1.153.513,1.153,1.153,0,.9-1.153,1.538-2.306,1.794a3.884,3.884,0,0,1-4.1-1.409,2.894,2.894,0,0,1,2.691.256,12.216,12.216,0,0,1-1.153-3.46,4.385,4.385,0,0,1-1.794,2.434,5.293,5.293,0,0,1,.769-3.716l-3.2,1.409c1.538,1.666,3.331,5.638,4.356,8.841a2.675,2.675,0,0,0-1.025,2.05,3.768,3.768,0,0,0,1.922,3.075,21.812,21.812,0,0,0-4.869,4.228,26.388,26.388,0,0,0-5.125,8.585,33.6,33.6,0,0,1,2.819,3.2,5.4,5.4,0,0,1,1.281,2.819,4.365,4.365,0,0,0,1.153,3.075,4.392,4.392,0,0,1,.641,2.178h16.145v17.682a2.237,2.237,0,0,0-1.794.9,54.9,54.9,0,0,0,5.382,1.922,4.213,4.213,0,0,1,1.025-2.563s-2.306-.256-3.588-.256v-17.554h15.76a20.712,20.712,0,0,1-1.281,6.919,18.5,18.5,0,0,1-3.588,6.15,14.666,14.666,0,0,1-5.253,4.1c-.256.128-.256.384-.641.513a4.588,4.588,0,0,0-.769,1.409,5.408,5.408,0,0,0-.384,1.538,13.147,13.147,0,0,0,1.794.513c5.51,1.409,6.919,1.025,7.175.769h0a20.529,20.529,0,0,0,3.46-3.2,26.986,26.986,0,0,0,5.125-8.713,29.535,29.535,0,0,0,1.922-10.635,2.148,2.148,0,0,0,.384-1.538m-24.473,1.281h-16.145a22.869,22.869,0,0,1,1.281-7.175,18.5,18.5,0,0,1,3.588-6.15,15.853,15.853,0,0,1,5.253-4.1,16.725,16.725,0,0,1,6.022-1.538Zm.256-26.908c-5.382,0-9.1,1.538-11.276,3.075-1.281-.769-1.794-1.409-1.794-2.306,0-3.075,8.585-3.331,12.941-3.331h0c4.356,0,12.941.256,12.941,3.331,0,.9-.513,1.538-1.794,2.306-1.922-1.409-5.638-3.075-11.019-3.075m.769,26.908V-290.09a14.635,14.635,0,0,1,5.638,1.409,17.721,17.721,0,0,1,5.253,4.1,20.97,20.97,0,0,1,3.588,6.15,22.869,22.869,0,0,1,1.281,7.175C-98.021-271.126-113.653-271.126-113.653-271.126Z" fill="#929499" stroke="#bfc2c7" stroke-miterlimit="10" stroke-width="1.281"/>
        </g>
        <g id="g3231" transform="translate(105.366 -1024.61)">
          <path id="path3233" d="M-97-273.561c.256.128.128.641-.128.513a17.788,17.788,0,0,0-3.075-7.944h0c.256-.128.641-.384.641-.769a1.261,1.261,0,0,0-1.025.384l-.384-.384a16.327,16.327,0,0,0-3.46-3.2,13.217,13.217,0,0,0-3.844-1.794c0-.256.384-.384.641-.128,0-.513-.384-.769-.641-.641-.128,0-.256.128-.256.384a1.1,1.1,0,0,0-.769-.384,1.374,1.374,0,0,0,.256.769c-.256,0-.384.128-.384.256-.128.256,0,.641.513.769-.256-.256-.128-.641.128-.513v6.15a1.13,1.13,0,0,0-1.025.256.866.866,0,0,0,1.025.256v6.663c-.384,0-.384-.384-.128-.513-.513,0-.769.513-.641.641a.666.666,0,0,0,.513.256,1.083,1.083,0,0,0-.256.769.979.979,0,0,0,.641-.256.666.666,0,0,0,.256.513c.256.128.641-.128.641-.641-.128.256-.641.128-.641-.128h4.613a1.13,1.13,0,0,0,.256,1.025,1.13,1.13,0,0,0,.256-1.025h5.125c0,.384-.384.384-.513.128a.666.666,0,0,0,.641.641.666.666,0,0,0,.256-.513,1.083,1.083,0,0,0,.769.256.979.979,0,0,0-.256-.641.666.666,0,0,0,.513-.256c.513-.513.256-.9-.256-.9m-4.356-8.2c-.128.128-.256.256-.128.384,0,.128.128.256.513.256a2.8,2.8,0,0,0-.384.641,1.625,1.625,0,0,0,.769-.128c0,.256,0,.384.128.513a.24.24,0,0,0,.384,0,16.047,16.047,0,0,1,2.306,6.407.96.96,0,0,0-.641-.128,1.374,1.374,0,0,0,.256.769h-3.972c0-.256-.128-.513-.256-.513a.77.77,0,0,0-.513.128.979.979,0,0,0-.256-.641.828.828,0,0,0-.256.641.317.317,0,0,0-.513-.128c-.128,0-.256.256-.256.513H-107.5a.979.979,0,0,0,.256-.641.979.979,0,0,0-.641.256v-5.382c.256,0,.513-.128.513-.256a.77.77,0,0,0-.128-.513.979.979,0,0,0,.641-.256.828.828,0,0,0-.641-.256.317.317,0,0,0,.128-.513c0-.128-.256-.256-.513-.256v-4.613a.979.979,0,0,0,.641.256.96.96,0,0,0-.128-.641,17.224,17.224,0,0,1,3.075,1.538,12.681,12.681,0,0,1,2.947,2.563" fill="#929499" stroke="#bfc2c7" stroke-miterlimit="10" stroke-width="1.281"/>
        </g>
        <g id="g3235" transform="translate(104.425 -1025.189)">
          <path id="path3237" d="M-98.789-274.714q.384-.192.384-.384c-.256.128-.384,0-.384,0,.128-.128.384,0,.128-.256-.128-.256-.256-.256-.513-.128-.128.256-1.409,0-1.409-1.025l.384.384a.125.125,0,0,1,.128.128h.641a.551.551,0,0,0,.513-.512c0-.513-.384-.769-1.025-1.153-.256-.128-.384-.384-.513-.513a2.7,2.7,0,0,0-.513-1.409,1.393,1.393,0,0,0-.128-.641,1.6,1.6,0,0,0,.256,1.922c.513.641,1.666,1.153,1.538,1.666a.276.276,0,0,1-.256.256h-.256c-.128,0-.128,0-.256-.128s-.256-.128-.384-.256a5.586,5.586,0,0,1-1.153-1.409c-.513-.641-.256-1.281-.256-1.794.384-.513-.256-1.538-.513-1.794a.619.619,0,0,0,0-.513h-.256c-.128-.128-.128-.256-.256-.256-.256,0-.256-.128-.256-.256-.128.128-.128.256-.256.256h-.384c-.128.128-.128.128-.384.128s-.256.128-.128.256c0,.128,0,.256.128.256h0l.128.256.128-.256c.128-.128.384-.128.384.128,0,.128,0,.128-.128.256h-.513c-.128,0-.128.128-.128.256s.128.128.384.128.641-.128.641.128c0,.513-.641.513-.769,1.153l-.384-.384c-.128-.128-.256-.384-.513-.641a1.77,1.77,0,0,0-.513-.384c-.256-.128-.256-.256-.256-.513s.128-.384.128-.513v-.128c0-.128-.256-.256-.256-.128a.447.447,0,0,1,.128.256l-.128.128v.128h0v.128h0c0-.128-.128-.384-.256-.384h-.128c0-.128-.128-.256-.384-.128h.128v.128a.276.276,0,0,0,.256.256h0c-.256-.128-.384,0-.384.128v.128c-.128,0-.128.256,0,.256v-.128h0l.128.128h.256a.24.24,0,0,0,0,.384c-.128.128-.384.128-.384-.128-.256.384.128.641.384.513v.384a.125.125,0,0,1,.128-.128h0c0,.128,0,.128.128.256v-.128c0,.128.128.128.128.256a1.964,1.964,0,0,0,1.153,1.153,4.348,4.348,0,0,0-.769.769c-.128.128-.513.384-.641.256-.128,0-.128-.128-.256-.256-.128,0-.128-.128-.256,0h-.128a.471.471,0,0,0-.384.128h.256v.128c0,.128,0,.128.384.128h0s-.128.128-.128,0c-.128,0-.256-.128-.384,0l-.128.128h0a.246.246,0,0,0-.128.384.4.4,0,0,1,.128-.256.125.125,0,0,0,.128.128c.128.128.256.256.384-.128h0c0,.128-.128.384,0,.384h.128a.246.246,0,0,0,.384.128c-.128,0-.128-.128-.256-.256h.128c.128-.128,0-.256,0-.384h0c0,.128.128.256.384.128.128,0,.128-.128.128-.256a1.155,1.155,0,0,1,.641-.128q0-.192.384-.384c.256-.128.384,0,.384.128,0-.128.128-.256.256-.384,0,1.025,1.281.9,1.666,1.538a5.763,5.763,0,0,0-1.025-.256c-.384,0-.9.384-.9.769a1.582,1.582,0,0,0,.513,1.025c-.384.128-.513,0-.9,0h0c-.256,0-.384-.513-.641-.384a.125.125,0,0,0-.128.128h0c-.128,0-.384.128-.256.256a.447.447,0,0,1,.256-.128v.128a.125.125,0,0,0,.128.128h.128c0,.128-.384-.128-.384.256a.125.125,0,0,0,.128.128c0,.128.128.256.256.128l-.128-.128h.128v.256c0,.128.128.256.384.128a.125.125,0,0,1-.128-.128h.128v-.128h.128c0,.128.128.128.256.128a.125.125,0,0,0,.128-.128.125.125,0,0,1,.128.128c0-.128,0-.256.384,0l.256-.128s.256.128.384,0,.128-.128.128-.384c-.128-.256-.256-.256-.256-.513-.128-.513.641-.769,1.025-.641a2.572,2.572,0,0,0,1.281,1.409c.513.128.641-.384.769-.256l.128.128v.513c0,.128-.256,0-.513,0-.128,0-.128,0-.128.128a.276.276,0,0,0-.256.256.447.447,0,0,1,.256-.128v.128a.246.246,0,0,0,.384.128h0c-.128.128-.256.256-.128.384h.128a.447.447,0,0,0,.128.256v-.256h.128c.128,0,.128-.256.256-.256h0c0,.128-.128.256,0,.384h.128c0,.128.128.128.384.128a.125.125,0,0,1-.128-.128l.128-.128c.128-.256-.128-.256-.128-.384s.256,0,.256-.384h0c.128-.128.256-.128.384-.256Z" fill="#929499" stroke="#bfc2c7" stroke-miterlimit="10" stroke-width="1.281"/>
        </g>
        <g id="g3239" transform="translate(99.895 -1022.157)">
          <path id="path3241" d="M-107.5-268.82h-.256v-.256a1.513,1.513,0,0,0-1.538-1.666c-.9,0-2.691,1.153-5.125,1.153a7.834,7.834,0,0,1-3.075-.9l-.256.769v-.128a.605.605,0,0,0-.641-.641.605.605,0,0,0-.641.641.605.605,0,0,0,.641.641.971.971,0,0,0,.513-.256l-.256.769a.447.447,0,0,1,.256.128c-.384,3.716,2.435,8.457,7.175,9.866.769-.128,1.409-.128,1.409.641,0,.513-.256.641-.641.641-.256,0-.513-.128-.513-.384,0-.384.513-.128.641-.384s-.128-.384-.513-.384a.847.847,0,0,0-.9.769,1.047,1.047,0,0,0,1.153,1.025,1.438,1.438,0,0,0,1.538-1.666c.256,0,.513,0,.641-.256v-.769h-.256l.256-8.457h.128c.256,0,.641-.128.641-.513.128-.256-.128-.384-.384-.384m-8.713.641,5.894,8.457c-3.2-1.281-6.278-4.1-5.894-8.457m6.022,7.56-5.382-7.688h1.281l4.356,6.15a9.461,9.461,0,0,0-.256,1.538m.384-2.435-3.844-5.382,1.153-.384,2.819,4.1a7.306,7.306,0,0,1-.128,1.666m.9-5.894h-.256a.7.7,0,0,0-.641.384.469.469,0,0,0,.513.513h.128v.256c-.128.513-.256,1.281-.384,2.178l-2.435-3.46a15.62,15.62,0,0,1,2.563-.9c.513,0,.641.256.513,1.025" fill="#929499" stroke="#bfc2c7" stroke-miterlimit="10" stroke-width="1.281"/>
        </g>
        <g id="g3243" transform="translate(99.543 -1028.001)">
          <path id="path3245" d="M-108.143-280.1c1.153,0,1.666-.384,1.666-.769,0-1.281-3.2-.513-3.2-1.281,0-.128.128-.256.256-.384h0c1.538-.128,1.666-1.281,2.691-1.409-1.409-.256-1.538.9-2.178.9a.875.875,0,0,0,.384-.641c-.256.384-.9.384-1.281.769,0,.128-.128.128,0,.256-.256.128-.384.256-.384.512,0,1.153,3.2.384,3.2,1.281,0,.256-.513.513-1.409.513-.641,0-1.153-.513-2.306-.128,0-.256.384-.641.256-.769a.276.276,0,0,0,.256-.256c-.128-.128-.128-.128-.256-.128v-.128a.126.126,0,0,0-.128-.128.447.447,0,0,0-.256-.128.4.4,0,0,0-.256-.128h-.128c-.128,0-.128,0-.128.128a.447.447,0,0,0-.256-.128c0,.128-.128.128,0,.384-.128,0-.256.256-.384.256a.125.125,0,0,0,.128.128c-.128.128-.128.384-.256.384a.125.125,0,0,0,.128.128,1.625,1.625,0,0,0-.128.769h0l-.256-.256a.471.471,0,0,1-.128-.384c0-.128.128-.256.128-.384v-.128c0-.128-.128-.128-.256-.128l.128.128-.128.128s-.128.128,0,.128h0v.128h0c0-.128,0-.256-.128-.256h-.128c0-.128-.128-.256-.256-.128h.128v.128c0,.128,0,.128.256.128h0c-.256-.128-.384,0-.384.128v.128c-.128,0-.128.128,0,.256a.125.125,0,0,1,.128-.128h.128c-.128.128-.128.256,0,.256h0a.192.192,0,0,1-.384,0c-.256.256.128.513.384.384h0a.125.125,0,0,0,.128.128h.128a.125.125,0,0,0,.128.128v-.128a1.843,1.843,0,0,0,.256.384,2.656,2.656,0,0,1-.769.256h-.513c-.128.128-.641.256-.769.128a.4.4,0,0,0-.128-.256l-.128-.128h-.128c-.128-.128-.256-.128-.256,0a.125.125,0,0,1,.128.128v.128s0,.128.256.256h-.128c-.128-.128-.128-.256-.256-.128h-.128a.276.276,0,0,0-.256.256.125.125,0,0,1,.128-.128v.128c0,.128.128.256.384,0h0c-.128.128-.256.256-.128.384h.128a.276.276,0,0,0,.256.256.447.447,0,0,1-.128-.256h.128c.128,0,.128-.256.128-.256h0c0,.128,0,.256.256.256a.276.276,0,0,0,.256-.256h0l.128.128a.125.125,0,0,0,.128-.128v.256s.256-.128.256-.256v.128h.384v0a.4.4,0,0,0,.128.256c0-.384.256-.256.513-.384h0a.125.125,0,0,1-.128.128c.128,0,.384-.128.384-.256l.128-.128c.128,0,.256,0,.256-.128v.256a1.089,1.089,0,0,0,.641-.384c.641-.128-.384-.513.9-.513a.471.471,0,0,0,.384-.128.446.446,0,0,0,.128.641.447.447,0,0,1,.256.128h0c-.128,0-.256,0-.256.128-.256.128-.256-.384-.641-.256h-.128a.276.276,0,0,0-.256.256.447.447,0,0,1,.256-.128h0a.125.125,0,0,0,.128.128h.128c0,.128-.384,0-.256.256v.128c0,.128.128.256.256.128a.125.125,0,0,1-.128-.128h.128v.256c0,.128.128.256.384.128a.126.126,0,0,1-.128-.128h.128v-.128h.128c0,.128.128.128.256.128.256-.128,0-.256.256-.256h.513a.77.77,0,0,0-.128-.513c-.128,0,0-.128-.128-.384a.96.96,0,0,0,.641.128c.384,0,0-.128.256-.128.256-.128.513-.128.513,0a.125.125,0,0,1,.128.128v.384c0,.128-.256,0-.384,0h-.128a.276.276,0,0,0-.256.256.447.447,0,0,1,.256-.128h0c0,.128.128.256.256.128h0c-.128.128-.256.256-.128.256h.128c0,.128,0,.256.128.256v-.128h.128c.128,0,0-.128.128-.256h0v.256h.128c0,.128.128.128.256.128a.126.126,0,0,1-.128-.128l.128-.128c0-.256-.128-.256-.128-.384s.256,0,.256-.256a.126.126,0,0,0-.128-.128h0a.125.125,0,0,0,.128-.128c-.128,0-.128-.128-.128-.256h0a.447.447,0,0,0,.128-.256c0,.128-.256.128-.256,0a.125.125,0,0,0-.128-.128c-.384.128-.513-.128-1.025-.128h0m-3.588-1.281h0m.9-.256a1.29,1.29,0,0,0,.384.128c-.128,0-.128.128-.256.128s-.128-.128-.128-.256m-.256-.128c0,.128-.128.128-.256.128-.128-.128,0-.128-.128-.256a1.29,1.29,0,0,1,.384.128m-.384.769h0l.256-.256c0-.128,0-.128-.128-.128.128,0,.128,0,.128-.128h-.128l.128-.128h.128l.256.128v.256a.125.125,0,0,0-.128-.128v.128h-.128v.256q0,.192-.384,0h0" fill="#929499" stroke="#bfc2c7" stroke-miterlimit="10" stroke-width="1.281"/>
        </g>
        <g id="g3247" transform="translate(100.086 -1026.535)">
          <path id="path3249" d="M-107.118-277.277c0-.384-.384-.513-1.538-.513s-3.716.384-3.716-.256c0-.256.513-.256,1.025-.256a.447.447,0,0,0,.256.128c1.409.384,3.2-.384,4.1-.128-1.025-.769-1.922,0-2.947-.256.641,0,.9-.128.9-.384-.513.384-1.409-.128-2.05.256a.125.125,0,0,0-.128.128c-.769,0-1.409,0-1.409.513,0,1.153,3.075.513,3.972.513s1.153.128,1.153.256c0,.256-.9.384-1.409.384a27.193,27.193,0,0,0-4.741-.128c.128-.256.384-.512.256-.769a.276.276,0,0,0,.256-.256c-.128-.128-.128-.128-.256-.128,0-.128,0-.128-.128-.256a.126.126,0,0,0-.128-.128,1.586,1.586,0,0,0-.384-.256.471.471,0,0,0-.384-.128h-.256c-.128,0-.128,0-.128.128-.128-.128-.128-.128-.256-.128,0,.128-.128.256,0,.384-.128,0-.256.384-.384.256a.125.125,0,0,0,.128.128c-.128.256-.128.384-.256.384l.128.128v.384l-.256-.128h-.128a1.768,1.768,0,0,0-.513-.384c-.256-.128-.256-.256-.256-.513s.128-.384.128-.513v-.128a.276.276,0,0,0-.256-.256.447.447,0,0,1,.128.256l-.128.128v.256h0v.128h0c0-.128-.128-.384-.256-.384h-.128c0-.128-.128-.256-.384-.128h.128v.128a.276.276,0,0,0,.256.256h0v.128h0c-.256-.128-.384,0-.384.128v.128c-.128.128-.128.256,0,.256v-.128h.256c-.128.128-.128.384,0,.384h0c0,.256-.513.256-.384,0-.256.384.128.641.513.513h0a.125.125,0,0,0,.128.128.125.125,0,0,1,.128-.128h0c0,.128,0,.128.128.256v-.128a2.39,2.39,0,0,0,.513.384c.256.128.384.256.513.128a1.325,1.325,0,0,0,.128.512h-.769c-.256.128-.769.256-.9.128,0-.128,0-.128-.128-.256a.125.125,0,0,0-.128-.128h-.128a.24.24,0,0,0-.384,0,.4.4,0,0,1,.256.128V-276c0,.128,0,.128.256.256h-.128c-.128-.128-.128-.256-.256-.128h-.128c-.128,0-.384.128-.256.384l.128-.128v.128c0,.128.128.256.513.128h0c-.128.128-.256.256-.128.384h.128c0,.256.128.384.256.384a.447.447,0,0,1-.128-.256h.128a.471.471,0,0,0,.128-.384h0c0,.128,0,.256.256.256a.276.276,0,0,0,.256-.256h0a.447.447,0,0,1,.128.256.125.125,0,0,0,.128-.128.471.471,0,0,1-.128.384c.128,0,.256-.128.256-.384a.125.125,0,0,0,.128.128h.384v.128a.126.126,0,0,1,.128-.128.4.4,0,0,0,.128.256c0-.513.256-.256.641-.513h0a.125.125,0,0,1-.128.128c.384.128.9-.384,1.025-.641h.384c1.025.128.256-.9,1.922-.641.128,0,.256-.128.384-.128-.128.256-.128.641.128.641.128,0,.256.128.384.128h0c-.128,0-.256,0-.256.128-.384.256-.384-.513-.641-.384a.125.125,0,0,0-.128.128c-.128,0-.384.128-.256.256a.447.447,0,0,1,.256-.128v.128a.125.125,0,0,0,.128.128h.128c0,.128-.513-.128-.384.256v.128c0,.128.128.256.256.128l-.128-.128h.128v.256c0,.128.128.256.384.128a.4.4,0,0,1-.256-.128h.128v-.128h.256c0,.128.128.128.256.128.256-.128,0-.256.256-.384h.641a.77.77,0,0,0-.128-.513c-.128,0,0-.256-.128-.384a1.155,1.155,0,0,0,.641.128,1.493,1.493,0,0,0,.9-.256.572.572,0,0,1,.641,0,.125.125,0,0,1,.128.128v.384c0,.128-.256,0-.384,0s-.128,0-.128.128a.276.276,0,0,0-.256.256.447.447,0,0,1,.256-.128h0a.246.246,0,0,0,.384.128h0c-.128.128-.256.256-.128.256h.128a.447.447,0,0,0,.128.256v-.256h.128c.128,0,0-.256.128-.256h0c0,.128-.128.256,0,.384h.128c0,.128.128.128.256.128a.125.125,0,0,1-.128-.128l.128-.128c.128-.256-.128-.256-.128-.384s.256,0,.256-.256a.125.125,0,0,0-.128-.128h0c.128,0,.128,0,.256-.128-.256,0-.128-.128-.128-.256h0c.128,0,.128-.128.128-.256-.128.128-.256.256-.256,0,0,0,0-.128-.256-.128a5.308,5.308,0,0,1-1.281-.128c.641,0,1.794-.128,1.794-.513m-8.841.641h0m1.794-1.666a1.29,1.29,0,0,0,.384.128c-.256,0-.128.128-.256.128s-.128-.128-.128-.256m-.256-.128c0,.128-.128.128-.256.128-.128-.128,0-.128-.128-.256a1.291,1.291,0,0,1,.384.128m-.384.9c0-.128.128-.128,0,0,.256-.128.256-.128.256-.256s0-.128-.128-.128c.128,0,.128,0,.128-.128h-.128a.125.125,0,0,1,.128-.128h.128l.384.128a.125.125,0,0,1,.128.128v.128a.125.125,0,0,0-.128-.128v.128c-.128,0-.128-.128-.256,0v.256c0,.128-.128.256-.256.128-.384.128-.384,0-.256-.128m.9,2.05h0" fill="#929499" stroke="#bfc2c7" stroke-miterlimit="10" stroke-width="1.281"/>
        </g>
        <g id="g3251" transform="translate(99.915 -1024.85)">
          <path id="path3253" d="M-107.5-274.073c0-.384-.384-.513-1.409-.513s-4.356.384-4.356-.256c0-.384,1.153-.256,1.922-.256a.447.447,0,0,0,.256.128c1.409.384,2.819-.513,3.844-.256-.769-.769-1.794.128-2.819-.128.641,0,1.281-.128,1.281-.256-.513.256-1.794-.256-2.435.128a.125.125,0,0,0-.128.128c-1.025,0-2.306-.128-2.306.513,0,1.025,3.716.384,4.613.384s1.153.128,1.153.256c0,.256-.9.256-1.409.256-.769,0-4.356-.513-5.766,0,.128-.256.384-.641.256-.769a.276.276,0,0,0,.256-.256c-.128-.128-.128-.128-.256-.128v-.128a.125.125,0,0,0-.128-.128l-.256-.256a.4.4,0,0,0-.256-.128h-.256c-.128,0-.128,0-.128.128a.447.447,0,0,0-.256-.128c0,.128-.128.256,0,.384-.128,0-.256.384-.384.256a.125.125,0,0,0,.128.128c-.128.128-.128.384-.256.384l.128.128v.384h-.384c-.128,0-.256-.256-.641-.512-.256-.128-.256-.256-.256-.384s.128-.384.128-.513v-.128c0-.128-.256-.256-.256-.128l.128.128-.128.128v.128h0v.128h0c0-.128-.128-.384-.256-.384h-.128c0-.128-.128-.256-.256-.128h.128v.128c0,.128.128.128.256.256h0c-.256-.128-.384,0-.384.128v.128c-.128.128-.128.128,0,.256v-.128h.384c-.128.128-.128.256.128.384h0a.192.192,0,0,1-.384,0c-.256.384.128.641.513.384h0a.125.125,0,0,0,.128.128h.128c0,.128,0,.128.128.256v-.128a2.133,2.133,0,0,0,.769.641c.128,0,.256,0,.256-.128a.125.125,0,0,0,.128.128.561.561,0,0,0,.128.384h-.9a1.125,1.125,0,0,1-.9.128c0-.128,0-.128-.128-.256a.125.125,0,0,0-.128-.128h-.128a.24.24,0,0,0-.384,0,.4.4,0,0,1,.256.128v.128c0,.128,0,.128.256.256h-.128c-.128-.128-.128-.256-.256-.128h-.128c-.128,0-.384.128-.256.384l.128-.128v.128c0,.128.128.256.384.128h0c-.128.128-.256.256-.128.384h.128c0,.128.128.384.256.256a.448.448,0,0,1-.128-.256h.128c.128,0,.128-.256.128-.256h0c0,.128,0,.256.256.256a.276.276,0,0,0,.256-.256h0a.447.447,0,0,1,.128.256l.128-.128c0,.128,0,.256-.128.256a.276.276,0,0,0,.256-.256v.128h.384v.128a.125.125,0,0,1,.128-.128.4.4,0,0,0,.128.256c0-.513.641-.256.9-.384h0a.125.125,0,0,1-.128.128.471.471,0,0,0,.384-.128h0l.513-.256v-.128h.128c.256,0,.256-.256.384-.256,1.794.256.769-.769,2.819-.513.128,0,.128,0,.256-.128-.128.256-.128.513.128.513.128,0,.256.128.384.128h0c-.128,0-.256,0-.256.128-.384.256-.384-.513-.641-.384a.125.125,0,0,0-.128.128c-.128,0-.384.128-.256.256a.447.447,0,0,1,.256-.128v.128a.125.125,0,0,0,.128.128h.128c0,.128-.384-.128-.384.256v.128c0,.128.128.256.256.128l-.128-.128h.128v.256c0,.128.128.256.384.128a.125.125,0,0,1-.128-.128h.128v-.128h.256c0,.128.128.128.256.128.256-.128,0-.256.256-.384h.641a.77.77,0,0,0-.128-.513c-.128,0,0-.256-.128-.384a1.155,1.155,0,0,0,.641.128c.513,0,.641-.128.769-.256a.572.572,0,0,1,.641,0,.125.125,0,0,1,.128.128v.384c0,.128-.256,0-.384,0s-.128,0-.128.128a.276.276,0,0,0-.256.256.447.447,0,0,1,.256-.128h0c0,.128.256.256.256.128h0c-.128.128-.256.256-.128.256h.128a.447.447,0,0,0,.128.256v-.256h.128c.128,0,0-.256.128-.256h0v.256h.128c0,.128.128.128.256.128a.125.125,0,0,1-.128-.128l.128-.128c.128-.256-.128-.256-.128-.384s.256,0,.256-.256a.125.125,0,0,0-.128-.128h0c.128,0,.128,0,.128-.128-.256,0-.128-.128-.128-.256h0a.447.447,0,0,0,.128-.256c0,.128-.256.256-.256,0,0,0,0-.128-.256-.128a4.414,4.414,0,0,1-1.153-.128c.513.256,1.538.128,1.538-.256m-7.816-.9a1.291,1.291,0,0,0,.384.128c-.128,0-.128.128-.256.128s-.128-.128-.128-.256m-.256-.128c0,.128-.128.128-.256.128-.128-.128,0-.128-.128-.256a1.29,1.29,0,0,1,.384.128m-.384.9h0c.256-.128.256-.128.256-.256s0-.128-.128-.128c.128,0,.128,0,.128-.128h-.128l.128-.128h.128l.384.128a.125.125,0,0,1,.128.128v.128a.125.125,0,0,0-.128-.128v.128h-.256v.256c0,.128-.128.128-.256.128-.256,0-.256-.128-.256-.128" fill="#929499" stroke="#bfc2c7" stroke-miterlimit="10" stroke-width="1.281"/>
        </g>
        <g id="g3255" transform="translate(105.124 -1022.031)">
          <path id="path3257" d="M-97.38-268.692h0c.128-.128.128-.128.128-.384-.128.128-.256.256-.256,0,0,0,0-.128-.256-.128a5.307,5.307,0,0,1-1.281-.128h0c.641,0,1.794-.128,1.794-.513s-.384-.513-1.409-.513-4.356.384-4.356-.256c0-.384,1.153-.256,1.922-.256a.447.447,0,0,0,.256.128c1.409.384,2.947-.641,3.844-.384-1.025-.384-1.794.256-2.819,0,.641,0,1.281-.128,1.281-.256-.513.256-1.794-.256-2.435.128a.125.125,0,0,0-.128.128c-1.025,0-2.306-.128-2.306.513,0,1.025,3.716.384,4.613.384s1.153.128,1.153.256c0,.256-.9.384-1.409.384-.9,0-4.356-.513-5.766,0,.128-.256.384-.641.256-.769a.276.276,0,0,0,.256-.256c-.128-.128-.128-.128-.256-.128v-.128a.125.125,0,0,0-.128-.128l-.256-.256a.4.4,0,0,0-.256-.128h-.128c-.128,0-.128,0-.128.128-.128,0-.128-.128-.256-.128,0,.128-.128.256,0,.384-.128,0-.256.384-.384.256a.125.125,0,0,0,.128.128c-.128.128-.128.384-.256.384l.128.128v.256h-.384c-.128,0-.256-.256-.641-.513-.256-.128-.256-.256-.256-.384s.128-.384.128-.513v-.128c0-.128-.128-.256-.256-.128l.128.128-.128.128v.128h0V-271h0c0-.128-.128-.256-.256-.384h-.128c0-.128-.128-.256-.256-.128h.128v.128a.276.276,0,0,0,.256.256h0c-.256-.128-.384,0-.384.128v.128c-.128,0-.128.128,0,.256v-.128h.384c-.128.128-.128.384.128.384h0a.192.192,0,0,1-.384,0c-.256.384.128.641.513.384h0a.125.125,0,0,0,.128.128h.128c0,.128,0,.128.128.256v-.128a2.618,2.618,0,0,0,.641.641.447.447,0,0,1,.256-.128c0,.128.128.128.128.256h.128c0,.256.256.384.128.384h-.641a1.125,1.125,0,0,1-.9.128c0-.128,0-.128-.128-.256a.125.125,0,0,0-.128-.128h-.128a.24.24,0,0,0-.384,0,.125.125,0,0,1,.128.128v.128c0,.128,0,.128.256.256h-.128c-.128-.128-.128-.256-.256-.128h-.128c-.128,0-.384.128-.256.384l.128-.128v.128c0,.128.128.256.384.128h0c-.128.128-.256.256-.128.384h.128a.276.276,0,0,0,.256.256.447.447,0,0,1-.128-.256h.128c.128,0,.128-.256.128-.256h0c0,.128,0,.256.256.256a.276.276,0,0,0,.256-.256h0a.448.448,0,0,1,.128.256l.128-.128a.471.471,0,0,1-.128.384c.128,0,.256-.128.256-.384a.125.125,0,0,0,.128.128h.384v.128a.125.125,0,0,1,.128-.128.4.4,0,0,0,.128.256c0-.513.256-.256.641-.513h0a.126.126,0,0,1-.128.128c.128.128.513-.128.513-.384a.4.4,0,0,0,.256-.128c.256,0,.256-.256.384-.256,1.794.256.769-.769,2.819-.513.128,0,.128-.128.256-.256-.128.256-.128.641.128.641.128,0,.256.128.384.128h0c-.128,0-.256,0-.256.128-.256.256-.384-.513-.641-.384a.125.125,0,0,0-.128.128.276.276,0,0,0-.256.256.447.447,0,0,1,.256-.128v.128a.125.125,0,0,0,.128.128h.128c0,.128-.384-.128-.384.256a.125.125,0,0,0,.128.128c0,.128.128.256.256.128l-.128-.128h.128v.256c0,.128.128.256.384.128a.125.125,0,0,1-.128-.128h.128v-.128h.128c0,.128.128.128.256.128.256-.128,0-.256.256-.256h.641a.77.77,0,0,0-.128-.513c-.128,0,0-.256-.128-.384a1.155,1.155,0,0,0,.641.128,1.493,1.493,0,0,0,.9-.256.572.572,0,0,1,.641,0,.125.125,0,0,1,.128.128c-.128.256,0,.256,0,.384s-.256,0-.384,0-.128,0-.128.128a.276.276,0,0,0-.256.256.447.447,0,0,1,.256-.128h0c0,.128.128.256.256.128h0c-.128.128-.256.256-.128.256h.128c0,.128,0,.256.128.256v-.256h.128c.128,0,.128-.256.256-.256h0c0,.128-.128.256,0,.256h.128c0,.128.128.128.256.128a.125.125,0,0,1-.128-.128l.128-.128c.128-.256-.128-.256-.128-.384s.256,0,.256-.256a.125.125,0,0,0-.128-.128h0c.128,0,.128,0,.256-.128-.641.384-.512.128-.512,0m-7.816-1.922a1.291,1.291,0,0,0,.384.128l-.128.128a.276.276,0,0,1-.256-.256m-.256-.128c0,.128-.128.128-.256.128-.128-.128,0-.128-.128-.256a1.291,1.291,0,0,1,.384.128m-.384.9c0-.128.128-.128,0,0,.256-.128.256-.128.256-.256s0-.128-.128-.128c.128,0,.128,0,.128-.128h-.128v-.128h.128l.384.128v.256a.125.125,0,0,0-.128-.128v.128c-.128,0-.128-.128-.256,0v.256c0,.128-.128.128-.256,0h0m-.256-.513Zm.128-.384h0m1.538,2.435h0" fill="#929499" stroke="#bfc2c7" stroke-miterlimit="10" stroke-width="1.281"/>
        </g>
        <g id="g3259" transform="translate(103.48 -1021.109)">
          <path id="path3261" d="M-100.583-266.9c0,.128.128.128.256.128,1.281.384,2.819-.641,3.588-.384-1.025-.384-1.666.256-2.691,0a2.377,2.377,0,0,0,1.281-.256c-.513.256-1.666-.128-2.306.128h-.128c-.769,0-1.281,0-1.281.512,0,1.025,2.691.384,3.588.384s.769.128.769.256c0,.256-1.025.256-1.409.256a22.806,22.806,0,0,0-4.356-.128c.128-.256.384-.513.256-.641a.276.276,0,0,0,.256-.256c-.128-.128-.128-.128-.256-.128v-.128a.125.125,0,0,0-.128-.128l-.256-.256a.4.4,0,0,0-.256-.128h-.128c-.128,0-.128,0-.128.128a.447.447,0,0,0-.256-.128c0,.128-.128.256,0,.384-.128,0-.256.256-.384.256a.125.125,0,0,0,.128.128c-.128.128-.128.384-.256.384l.128.128a.471.471,0,0,1-.128.384h-.128a.969.969,0,0,1-.513-.128c-.256-.128-.256-.256-.256-.384s.128-.384.128-.513v-.128c0-.128-.128-.256-.256-.128l.128.128-.128.128v.128h0v.128h0a.276.276,0,0,0-.256-.256h-.128c0-.128-.128-.256-.256-.128h.128v.128c0,.128.128.128.256.128h0c-.256-.128-.384,0-.384.128v.128c-.128,0-.128.128,0,.256v-.128h.256c-.128.128-.128.256.128.384h0a.192.192,0,0,1-.384,0c-.256.384.128.641.513.384h0a.125.125,0,0,0,.128.128h0c0,.128,0,.128.128.128v-.128s0-.128.384.128a.125.125,0,0,0,.128.128h.256v.513h-.641c-.128.128-.641.256-.769.128,0-.128,0-.128-.128-.256a.125.125,0,0,0-.128-.128h-.128a.24.24,0,0,0-.384,0,.125.125,0,0,1,.128.128v.128s0,.128.256.256h-.128c-.128-.128-.128-.256-.256-.128h-.128c-.128,0-.384.128-.256.256a.126.126,0,0,1,.128-.128v.128c0,.128.128.256.384,0h0c-.128.128-.256.256-.128.384h.128a.276.276,0,0,0,.256.256.448.448,0,0,1-.128-.256h.128c.128,0,.128-.256.128-.256h0c0,.128,0,.256.256.256a.276.276,0,0,0,.256-.256h0a.447.447,0,0,1,.128.256l.128-.128c0,.128,0,.256-.128.256a.276.276,0,0,0,.256-.256.125.125,0,0,0,.128.128h.384v.128a.125.125,0,0,1,.128-.128.4.4,0,0,0,.128.256c0-.513.384-.384.641-.513h0a.125.125,0,0,1-.128.128c.256.128.641-.256.769-.513l.128-.128v.128c.256,0,.256-.256.384-.256.9.128.256-.769,1.666-.513.128,0,.256-.128.384-.128-.128.128-.128.641.128.641.128,0,.256.128.384.128h0c-.128,0-.256,0-.256.128-.256.256-.256-.513-.641-.384h-.128a.276.276,0,0,0-.256.256.447.447,0,0,1,.256-.128v.128a.126.126,0,0,0,.128.128h.128c0,.128-.384-.128-.384.256v.128c0,.128.128.256.256.128l-.128-.128h.128v.256c0,.128.128.256.384.128a.125.125,0,0,1-.128-.128h.128v-.128h.128c0,.128.128.128.256.128.256-.128,0-.256.256-.256h.641a.77.77,0,0,0-.128-.513c-.128,0,0-.128-.128-.384a.96.96,0,0,0,.641.128,1.647,1.647,0,0,0,.9-.128.572.572,0,0,1,.641,0s.128,0,0,.128c-.128.256,0,.256-.128.384s-.256,0-.384,0h-.128a.276.276,0,0,0-.256.256.447.447,0,0,1,.256-.128h0c0,.128.128.256.256.128h0c-.128.128-.384.256-.256.256h.128c0,.128,0,.256.128.256a.4.4,0,0,1,.128-.256h.128c.128,0,.128-.256.256-.256h0c-.128.128-.128.256,0,.256h.128c0,.128.128.128.256.128a.125.125,0,0,1-.128-.128l.128-.128c.128-.256-.128-.256,0-.384,0-.128.256,0,.384-.256A.125.125,0,0,0-97-265.1h0c.128,0,.128,0,.256-.128-.128,0-.128-.128-.128-.256h0c.128,0,.128-.128.128-.256-.128.128-.256.128-.256,0a.125.125,0,0,0-.128-.128A5.307,5.307,0,0,1-98.405-266h0c.641,0,1.794-.128,1.794-.513,0-.256,0-.513-1.025-.513s-3.331.384-3.331-.256c-.641.384-.128.384.384.384m-3.331,0c0,.128-.128.128-.256.128-.128-.128,0-.128-.128-.256.128,0,.256.128.384.128m.256.641c-.128,0-.128-.128,0,0-.256-.128-.128-.128,0,0h-.256V-266a.447.447,0,0,1-.256.128c-.128,0-.128-.128-.128-.256a.125.125,0,0,1,.128-.128c.128,0,.128,0,.128-.128s0-.128-.128-.128c.128,0,.128,0,.128-.128h-.128v-.128h.128l.384.128c0,.128,0,.128,0,.384h0m.128-.256c-.128,0-.128-.128-.128-.256a1.29,1.29,0,0,0,.384.128c-.128,0-.128.128-.256.128" fill="#929499" stroke="#bfc2c7" stroke-miterlimit="10" stroke-width="1.281"/>
        </g>
        <g id="g3263" transform="translate(103.112 -1019.492)">
          <path id="path3265" d="M-101.352-263.695c0,.128.128.128.256.128,1.281.384,2.819-.641,3.588-.384-1.025-.384-1.666.256-2.691,0a2.377,2.377,0,0,0,1.281-.256c-.513.256-1.666-.256-2.306.128a.125.125,0,0,0-.128.128c-.384.128-.769.256-.769.641,0,.9,3.331.128,3.331.513,0,.256-.641.513-1.538.513a12.3,12.3,0,0,0-3.331-.128h0c.128-.256.384-.641.256-.769a.276.276,0,0,0,.256-.256c-.128-.128-.128-.128-.256-.128v-.128a.126.126,0,0,0-.128-.128.447.447,0,0,0-.256-.128c-.128-.128-.256,0-.256-.128h-.128a.125.125,0,0,0-.128.128.447.447,0,0,0-.256-.128c0,.128-.128.256,0,.384-.128,0-.256.256-.384.256a.125.125,0,0,0,.128.128c-.128.128-.128.384-.256.384l.128.128c0,.256-.128.641,0,.769-.256-.256-.513-.641-.769-.769s-.256-.256-.256-.384.128-.256.128-.513v-.128c0-.128-.128-.128-.256-.128l.128.128-.128.128v.128h0v.128h0a.276.276,0,0,0-.256-.256h-.128c0-.128-.128-.256-.256-.128h.128v.128c0,.128.128.128.256.128h0c-.256-.128-.256,0-.384.128v.128c-.128,0-.128.128,0,.256v-.128h.256c-.128.128-.128.256.128.256h0a.192.192,0,0,1-.384,0c-.256.256.128.513.384.384h0a.125.125,0,0,0,.128.128h0c0,.128,0,.128.128.128v-.128a.828.828,0,0,0,.384.641c.128.256.256.384.513.384a.4.4,0,0,1,.128.256h-.641c-.128,0-.256.128-.384.128h0a.471.471,0,0,1-.384-.128.4.4,0,0,0-.128-.256.125.125,0,0,0-.128-.128h-.128c-.128-.128-.256-.128-.256,0a.125.125,0,0,1,.128.128v.128s0,.128.256.256h-.128c-.128-.128-.128-.256-.256-.128h-.128a.276.276,0,0,0-.256.256.126.126,0,0,1,.128-.128v.128c0,.128.128.256.384,0h0c-.128.128-.256.256-.128.384h0a.276.276,0,0,0,.256.256.447.447,0,0,1-.128-.256h.128c.128,0,.128-.256.128-.256h0c0,.128,0,.256.256.256a.276.276,0,0,0,.256-.256h0l.128.128a.125.125,0,0,0,.128-.128c0,.128,0,.128-.128.256,0,0,.256-.128.256-.256v.128h.384v.128a.125.125,0,0,1,.128-.128.4.4,0,0,0,.128.256c0-.384.256-.256.513-.384h0a.125.125,0,0,1-.128.128c.128,0,.384-.128.384-.256a1.122,1.122,0,0,0,.256-.769h.128c.384,0,.513-.256.9-.256a.77.77,0,0,0-.128.513c0,.128.256.384.384.513h0c-.128,0-.256,0-.256.128-.256.128-.256-.384-.641-.256l-.128.128a.276.276,0,0,0-.256.256.447.447,0,0,1,.256-.128h0a.125.125,0,0,0,.128.128h.128c0,.128-.384-.128-.256.256v.128c0,.128.128.256.256.128l-.128-.128h.128v.256c0,.128.128.256.384.128a.125.125,0,0,1-.128-.128h.128v-.128h.128a.447.447,0,0,0,.256.128c.256-.128,0-.256.256-.256h.128c.128,0,.256.128.384,0a.77.77,0,0,0-.128-.513c-.128,0,.128-.641-.384-1.025.256,0,1.025.128,1.153,0a.9.9,0,0,1,.513.256v.128c-.256.128-.128.128-.256.256h0l-.256-.256h-.128c-.128,0-.256,0-.256.128h.256v.128h0c-.128,0-.384,0-.256.128v.128c-.128,0-.128.128,0,.256a.125.125,0,0,1,.128-.128v.128a.447.447,0,0,1,.256-.128h0c-.128,0-.256.128-.128.256v.128c0,.128,0,.256.128.256v-.128h.128c.256-.128.128-.256.128-.384.128-.128.128.128.384,0v-.128h0s.128.128.128,0c-.128-.128,0-.128.128-.256h0a.4.4,0,0,0,.256-.128c-.128,0-.384-.128-.256-.128.256-.128.256-.256.128-.384-.128-.256-.513-.256-.513-.513h.384c1.153,0,1.922-.256,1.794-.641,0-.769-3.46,0-3.46-.513.512-.256.641-.384.9-.384m-2.435,0a1.291,1.291,0,0,0,.384.128c-.128,0-.128.128-.256.128s-.128-.128-.128-.256m-.256,0c0,.128-.128.128-.256.128-.128-.128,0-.128-.128-.256.128,0,.384,0,.384.128m-.256.769h0a.4.4,0,0,1,.256-.128c0-.128,0-.128-.128-.128.128,0,.128,0,.128-.128h-.128v-.128h.128l.256.128v.256a.125.125,0,0,0-.128-.128v.128h-.128v.256c0,.128-.128.128-.256.128-.128-.128-.128-.256,0-.256" fill="#929499" stroke="#bfc2c7" stroke-miterlimit="10" stroke-width="1.281"/>
        </g>
        <g id="g3267" transform="translate(84.332 -1039.7)">
          <path id="path3269" d="M-137.485-302.647a.739.739,0,0,0-.769-.769.739.739,0,0,0-.769.769.827.827,0,0,0,.769.769.827.827,0,0,0,.769-.769" fill="#929499" stroke="#bfc2c7" stroke-miterlimit="10" stroke-width="1.281"/>
        </g>
        <g id="g3271" transform="translate(84.234 -1040.449)">
          <path id="path3273" d="M-137.741-304.184a.739.739,0,0,0-.769-.769.739.739,0,0,0-.769.769.827.827,0,0,0,.769.769c.513.128.769-.256.769-.769" fill="#929499" stroke="#bfc2c7" stroke-miterlimit="10" stroke-width="1.281"/>
        </g>
        <g id="g3275" transform="translate(84.393 -1040.781)">
          <path id="path3277" d="M-137.357-304.825a.739.739,0,0,0,.769-.769.827.827,0,0,0-.769-.769.739.739,0,0,0-.769.769.739.739,0,0,0,.769.769" fill="#929499" stroke="#bfc2c7" stroke-miterlimit="10" stroke-width="1.281"/>
        </g>
        <g id="g3279" transform="translate(85.142 -1040.83)">
          <path id="path3281" d="M-135.948-304.825a.739.739,0,0,0,.769-.769.739.739,0,0,0-.769-.769.739.739,0,0,0-.769.769.827.827,0,0,0,.769.769" fill="#929499" stroke="#bfc2c7" stroke-miterlimit="10" stroke-width="1.281"/>
        </g>
        <g id="g3283" transform="translate(88.335 -1041.35)">
          <path id="path3285" d="M-129.8-305.85a.956.956,0,0,0,1.153,0,.961.961,0,0,0,0-1.153.718.718,0,0,0-1.153,0,.956.956,0,0,0,0,1.153" fill="#929499" stroke="#bfc2c7" stroke-miterlimit="10" stroke-width="1.281"/>
        </g>
        <g id="g3287" transform="translate(88.272 -1041.949)">
          <path id="path3289" d="M-129.925-307a.721.721,0,0,0,0-1.153c-.384-.256-.9-.384-1.153,0-.384.256-.256.9,0,1.153a.956.956,0,0,0,1.153,0" fill="#929499" stroke="#bfc2c7" stroke-miterlimit="10" stroke-width="1.281"/>
        </g>
        <g id="g3291" transform="translate(87.527 -1042.07)">
          <path id="path3293" d="M-131.335-307.259a.961.961,0,0,0,0-1.153.718.718,0,0,0-1.153,0,.956.956,0,0,0,0,1.153.718.718,0,0,0,1.153,0" fill="#929499" stroke="#bfc2c7" stroke-miterlimit="10" stroke-width="1.281"/>
        </g>
        <g id="g3295" transform="translate(86.891 -1041.598)">
          <path id="path3297" d="M-132.616-306.363a.961.961,0,0,0,0-1.153.956.956,0,0,0-1.153,0,.956.956,0,0,0,0,1.153.718.718,0,0,0,1.153,0" fill="#929499" stroke="#bfc2c7" stroke-miterlimit="10" stroke-width="1.281"/>
        </g>
        <g id="g3299" transform="translate(85.099 -1041.985)">
          <path id="path3301" d="M-136.076-307.131l.641,1.409.769-1.025h.128a8.458,8.458,0,0,1,.128,1.794,1.011,1.011,0,0,0,1.025,1.025,1.1,1.1,0,0,0,1.025-1.025,1.079,1.079,0,0,0-.513-.9,9.317,9.317,0,0,1-1.153-1.025V-307l1.409.128-.513-1.538-1.025.9h0l-.128-1.538-1.409.513.9,1.153v.128Z" fill="#929499" stroke="#bfc2c7" stroke-miterlimit="10" stroke-width="1.281"/>
        </g>
        <g id="g3303" transform="translate(88.353 -1041.11)">
          <path id="path3305" d="M-129.8-305.338a8.092,8.092,0,0,1,.513,1.153,4.089,4.089,0,0,1-.9-.769l.128,1.922a1.512,1.512,0,0,1,.641-.641c-.128,1.281-.513,1.794-1.025,1.794a.882.882,0,0,1-1.025-.641c-.128-.513.384-.9.9-.384.128-1.153-.9-1.153-1.281-.641a1.693,1.693,0,0,0-.641-2.435c-.641,1.025-.384,1.666.384,2.563-.769-.384-1.409.256-.769,1.153.128-.769.769-.513.9,0s-.384,1.153-1.153,1.409c-1.153.384-1.538-.384-1.794-1.025a1.6,1.6,0,0,1,1.538.384l-.513-1.922a2.039,2.039,0,0,1-1.153,1.153,8.071,8.071,0,0,1,.384-1.666l-2.306.9a7.465,7.465,0,0,1,1.409.9,2.114,2.114,0,0,1-1.538,0l.9,1.794c.128-.769.513-1.281.9-1.281a1.38,1.38,0,0,1-.641,2.05,1.454,1.454,0,0,1-1.794-.128c-.256-.513,0-1.153.641-.641-.128-1.025-1.025-1.025-1.281-.256,0-1.153-.256-1.794-1.409-2.05a1.636,1.636,0,0,0,1.153,2.178c-.641-.128-1.281.513-.384,1.281,0-.641.641-.769.9-.256a.835.835,0,0,1-.256,1.153c-.384.256-1.025.256-2.05-.641a1.37,1.37,0,0,1,1.025,0l-1.153-1.538a1.607,1.607,0,0,1-.128,1.153,1.936,1.936,0,0,1-.513-1.153l-.9.769a9.773,9.773,0,0,1,3.075,3.075c1.281-.769,3.588-1.922,5-2.563a26.189,26.189,0,0,1,5.382-1.666,11.429,11.429,0,0,1,.128-4.356Z" fill="#929499" stroke="#bfc2c7" stroke-miterlimit="10" stroke-width="1.281"/>
        </g>
        <g id="g3307" transform="translate(94.52 -1023.226)">
          <path id="path3309" d="M-117.881-271c.384-.9-1.281-1.922-1.538-3.075s0-2.434-1.538-4.1c-1.409-1.666-6.278-6.919-7.816-8.585a2.406,2.406,0,0,1,2.178.641c.513.513,1.538,1.538,2.563,2.435a27.558,27.558,0,0,1,5.253-8.457c.256-.384.641-.641.9-1.025a11.473,11.473,0,0,0-2.947,1.025c0-1.409,0-2.563-.9-3.588.384-2.05,0-4.485-4.485-7.432,2.306.513,3.716,2.691,5.51,1.025-1.538,0-1.666-3.46-7.432-6.407,2.178,0,3.844,3.46,6.407,1.538-2.435-.256-3.2-4.485-7.56-5.894,1.538.128,3.075.9,4.356-.9-1.538.384-2.435-1.025-3.972-1.153a5.068,5.068,0,0,0-.128-4.356,5.026,5.026,0,0,0-3.075,1.153c-.128-1.025-1.153-1.025-2.178-1.025,0,.384.256,1.025-.256,1.153a43.814,43.814,0,0,0-5.382,1.666,25.428,25.428,0,0,0-4.869,2.691c-.384.256-.769-.384-1.025-.641-.641.641-1.409,1.409-.9,2.178a6.519,6.519,0,0,0-3.331,1.153,3.742,3.742,0,0,0,2.691,3.2c-2.691,2.691-.256,5.125-2.563,7.432,3.331.128,2.691-4.485,4.356-5.125-.128,3.2-1.922,3.844-1.922,7.3,0,1.922,1.153,3.844.128,5.125,2.819-.769,2.05-6.919,3.716-8.713a5.091,5.091,0,0,1-.256,3.075c-1.025,2.819.128,6.791-1.409,7.944,2.819-.256,3.2-4.741,5.51-6.407-2.05,4.1-3.972,12.685-7.047,17.042-4.741,6.535-7.688,14.351-12.044,14.351a3.263,3.263,0,0,1-3.46-3.588c0-7.3,12.685-12.429,12.685-20.245a4.7,4.7,0,0,0-4.613-4.869,6.993,6.993,0,0,0-3.844,1.538,3.412,3.412,0,0,0-1.538-.384c-4.485,0-3.331,8.072-7.175,7.944,1.538.9,4.228-.769,5.766-3.075-.641,5.253-8.2,3.844-7.56,10.122,1.025-4.869,12.941-4.228,12.941-11.66a2.49,2.49,0,0,0-1.025-2.05,5.311,5.311,0,0,1,2.563-.769c1.409,0,2.691,1.025,2.691,3.2,0,6.535-12.557,12.172-12.557,20.245A5.168,5.168,0,0,0-162.983-266a2.06,2.06,0,0,1-2.563-.641c-.128,2.05,2.947,3.331,4.741,2.306a4.552,4.552,0,0,0,1.281.256c-.513,1.538-2.434,2.05-3.46,1.922,3.075,2.434,8.457-.769,8.2-3.46,2.434-1.922,3.972-5.382,5.766-7.56a6.431,6.431,0,0,0-.256,1.538c-1.794,3.331-3.46,6.15-3.972,10.507-.384,3.588-2.178,6.919-4.741,6.919-.513,0-1.409-.769-1.922-.384-.769.641,0,1.409,0,2.05,0,1.025-1.922,2.05-1.922,5.253,0,1.409.769,3.075.513,4.1a5.662,5.662,0,0,0,2.306-3.46c.9,4.228-1.794,3.972.128,7.688.256-1.281,1.409-1.794,2.178-1.281s.384.9-.128,1.409-1.025,3.331,1.409,3.2c-.513-.256-.513-1.025.769-1.281,1.794-.384,2.306.512,4.1.512,1.153,0,1.409-1.538,2.435-1.538.9,0,.9.769.641,1.281,1.409-.384,1.794-1.153,1.794-2.05,0-.769-.641-1.281-.128-1.666.513-.256,2.178,0,1.538,1.409.9-.128,1.409-.769,1.409-1.922,0-1.025-1.281-1.666-2.306-1.538a2.183,2.183,0,0,0-2.05-1.025c-2.05,0-1.794,1.666-3.2,1.666-2.306,0-4.485-2.947-4.485-7.944,0-2.691,2.819-3.331,4.869-4.228a17.744,17.744,0,0,0,7.688-6.663c1.666-2.819,1.666-5.894,1.538-9.482a6.052,6.052,0,0,1,3.2,5.638,3.406,3.406,0,0,1-2.05,3.46c-.769.384-1.025.256-1.153.641a.882.882,0,0,0,.641,1.025c1.025.513.769,1.538,1.153,2.563A8.806,8.806,0,0,0-136.2-252.8a11.92,11.92,0,0,0,0-3.075c2.178,1.025.384,5.51,4.741,5.51a1.153,1.153,0,0,1-.128-1.794c.384-.256,1.025.256,1.794,1.409s.641,1.025,2.563,1.025c2.05,0,1.153-.641,2.178-.641s1.025,1.281.384,2.178a2.273,2.273,0,0,0,1.666-3.331c1.538-.9,2.435.384,2.691,1.281,1.538-1.538,0-3.46-1.281-3.588a1.484,1.484,0,0,0-1.153-1.281,10.934,10.934,0,0,0-2.05,0c-.769,0-1.153,1.153-2.05,1.153-2.691,0-7.944-4.869-7.944-6.919s5-3.331,5-6.535c0-4.228-4.1-5.638-7.688-8.329,1.281-1.409,4.869-1.794,6.919-.769.256-1.153,1.025-.9,1.281-2.947.769,1.794,0,3.331.769,4.1.641-.9,2.05-.769,2.05-2.947.513,1.409-.641,3.46.513,4.485.128-1.153.9-1.409,1.281-1.409s.769.256.769,1.025c0,1.666-2.05.9-2.05,2.819,0,.769,1.025,1.025,1.025,1.538a1.092,1.092,0,0,1-1.794.641A2.224,2.224,0,0,0-124.8-267.8a2.817,2.817,0,0,0,2.306-1.666c.513,1.153.128,2.563-.769,2.691.9.513,3.075,0,2.819-2.819,1.281.256,1.922,1.025,1.153,2.563,1.025-.256,1.922-.769,1.922-1.794,0-.769-.9-1.025-.513-2.178m-23.832-38.055c-1.153.128-1.153-1.025-3.2-1.538a31.4,31.4,0,0,0,4.869-1.666c.384,1.409-.256,3.075-1.666,3.2m8.2,8.585a2.238,2.238,0,0,1-2.947-1.538c-.256-.9-.513-1.666-.128-1.922.641-.641.9-1.153.513-1.922-.384-.9-1.409-.513-2.435-.256.513-.9.513-1.538-.128-1.409-.769.128-.769,1.409-1.281,1.153-.384-.128-.128-.9-.128-1.281,0-.513.384-.769.9-1.025l4.228-1.666a.971.971,0,0,1,1.281.128c.256.256,1.025.641.769,1.025s-1.153-.513-1.794,0c-.513.384-.128.769.9,1.153-.9.513-1.922.9-1.538,1.922.256.769.769,1.025,1.666,1.025.513,0,.769.641,1.281,1.538a2.352,2.352,0,0,1-1.153,3.075m.256-11.916c-1.153.9-2.691.128-3.331-1.153a30.976,30.976,0,0,0,4.613-2.178c-1.153,1.794-.384,2.563-1.281,3.331" fill="#929499" stroke="#bfc2c7" stroke-miterlimit="10" stroke-width="1.281"/>
        </g>
        <g id="g3311" transform="translate(122.015 -1016.294)">
          <path id="path3313" d="M-64.835-257.544a3.581,3.581,0,0,0,3.588,3.588,3.581,3.581,0,0,0,3.588-3.588,3.5,3.5,0,0,0-3.588-3.588,3.5,3.5,0,0,0-3.588,3.588m.9,0a2.707,2.707,0,0,1,2.691-2.691,2.706,2.706,0,0,1,2.691,2.691,2.634,2.634,0,0,1-2.819,2.563,2.57,2.57,0,0,1-2.563-2.563" fill="#929499" stroke="#bfc2c7" stroke-miterlimit="10" stroke-width="1.281"/>
        </g>
        <g id="g3315" transform="translate(117.489 -1015.177)">
          <path id="path3317" d="M-73.548-255.494a2.166,2.166,0,0,0-.9,1.281,2.3,2.3,0,0,0,.513,1.794,2.686,2.686,0,0,0,1.794.9,3.653,3.653,0,0,0,2.05-.256,2.287,2.287,0,0,0,1.153-1.538c.256-1.281-.769-2.434-2.306-2.691a4.11,4.11,0,0,0-2.306.513m1.538,3.2a1.567,1.567,0,0,1-1.538-1.666,1.177,1.177,0,0,1,.513-.769,2.1,2.1,0,0,1,1.538-.256,1.783,1.783,0,0,1,1.666,1.538v.128a1.767,1.767,0,0,1-2.178,1.025" fill="#929499" stroke="#bfc2c7" stroke-miterlimit="10" stroke-width="1.281"/>
        </g>
        <g id="g3319" transform="translate(110.81 -1032.193)">
          <path id="path3321" d="M-86.489-288.168a2.387,2.387,0,0,0-.769,3.2h0a2.513,2.513,0,0,0,3.331.128A2.4,2.4,0,0,0-82.9-286.63a1.834,1.834,0,0,0-.384-1.409,1.577,1.577,0,0,0-1.281-.641,1.967,1.967,0,0,0-1.922.513m-.128,2.05a1.771,1.771,0,0,1,.769-1.409,1.683,1.683,0,0,1,1.281-.384.7.7,0,0,1,.641.384.847.847,0,0,1,.128.769,1.706,1.706,0,0,1-.769,1.153,1.55,1.55,0,0,1-2.05,0v-.513" fill="#929499" stroke="#bfc2c7" stroke-miterlimit="10" stroke-width="1.281"/>
        </g>
        <g id="g3323" transform="translate(116.065 -1017.192)">
          <path id="path3325" d="M-76.366-259.338a3.091,3.091,0,0,0-.9,2.178v.128a2.91,2.91,0,0,0,.769,2.05,2.058,2.058,0,0,0,1.409.641,2.058,2.058,0,0,0,1.409-.641,3.091,3.091,0,0,0,.9-2.178,3.147,3.147,0,0,0-.641-1.922,2.19,2.19,0,0,0-1.666-.9,2.039,2.039,0,0,0-1.281.641m1.409,4.1h0a1.1,1.1,0,0,1-.769-.384,2.042,2.042,0,0,1-.513-1.538A2.122,2.122,0,0,1-75.6-258.7a1.461,1.461,0,0,1,.769-.384,1.587,1.587,0,0,1,1.281,1.922,2.122,2.122,0,0,1-.641,1.538,1.1,1.1,0,0,1-.769.384m0,.9Z" fill="#929499" stroke="#bfc2c7" stroke-miterlimit="10" stroke-width="1.281"/>
        </g>
        <g id="g3327" transform="translate(110.131 -1026.99)">
          <path id="path3329" d="M-87.77-278.174a1.564,1.564,0,0,0-1.153,1.025,2.51,2.51,0,0,0,1.538,3.2,2.9,2.9,0,0,0,2.306.128,1.564,1.564,0,0,0,1.153-1.025,1.634,1.634,0,0,0,0-1.538,3.207,3.207,0,0,0-1.538-1.666,2.923,2.923,0,0,0-2.306-.128m.641,3.46c-.9-.384-1.409-1.409-1.025-2.05a.773.773,0,0,1,.641-.513,2.143,2.143,0,0,1,1.538.128A2.514,2.514,0,0,1-84.823-276a1.084,1.084,0,0,1,0,.9.773.773,0,0,1-.641.513,2.55,2.55,0,0,1-1.666-.128" fill="#929499" stroke="#bfc2c7" stroke-miterlimit="10" stroke-width="1.281"/>
        </g>
        <g id="g3331" transform="translate(122.876 -1028.237)">
          <path id="path3333" d="M-63.169-280.608c1.153,3.2,3.46,4.356,5.253,3.46-3.972-.513-.769-7.175-5.766-7.175a1.625,1.625,0,0,0-.769.128,4.168,4.168,0,0,0-3.331-1.281,6.18,6.18,0,0,0-5.766,6.278c0,9.1,10.635,9.994,10.635,18.067a3.774,3.774,0,0,1-3.844,3.844c-1.794,0-3.2-2.05-4.741-5.125a44.462,44.462,0,0,0-3.844-5.638,2.462,2.462,0,0,0,1.538.513,2.237,2.237,0,0,0,1.538-.513,2.058,2.058,0,0,0,.641-1.409v-.128a2.729,2.729,0,0,0-.9-2.05,2.888,2.888,0,0,0-2.05-1.025,2.237,2.237,0,0,0-1.538.513,2.058,2.058,0,0,0-.641,1.409v.128a2.181,2.181,0,0,0,.128.9c-2.306-2.947-4.356-5.894-4.356-7.56,0-1.409,1.025-2.691,2.178-4.1l.384.256.256-.384c.384-.513,1.281-1.409,3.2-3.46l.128-.128h0l.384-.513-1.153-.9a24.188,24.188,0,0,0,.769-2.306c.384,1.409,1.153,2.435,2.178,2.05-.641-1.538.641-3.588-.256-7.3.9,1.409,2.178,2.178,3.075,1.922-2.306-2.05.641-5-2.306-9.482a1.841,1.841,0,0,0,2.178-.384c-2.819-.384-1.538-3.972-6.407-5.253,1.281-.256,1.922-.9,1.794-1.538-1.281.9-2.435-1.794-6.663-1.666a6.383,6.383,0,0,0-3.46-4.1,7.1,7.1,0,0,1-.256,3.331l-13.838-13.582q-.577-.577-.769-.384c-.128.128-.128.384.128.641l11.916,14.991a23.1,23.1,0,0,0-2.691,1.025A1.545,1.545,0,0,0-91.23-307a29.639,29.639,0,0,0-5.125,3.331c-.769.641-1.281.769-.641,2.306.256.513-.513,1.922,1.153.9,1.153-.641,3.716-2.05,4.1-1.153.256.513-1.025,1.025-1.922,1.409s-1.794,1.025-1.666,1.409.769,0,.9.384a.831.831,0,0,0,.641.769c.384,0,.769-.769,1.025-.513s-.128,1.922-.384,2.306a2.708,2.708,0,0,0,2.306-2.434c0-1.025.256-1.281.513-1.409s.513,1.025.128,1.794c.769-.128,1.409-1.153,1.409-2.819a2.523,2.523,0,0,1,1.025-.513c.513,0,1.409,1.281,2.691,1.281a4.029,4.029,0,0,0,3.844-2.819,2.413,2.413,0,0,0-.384-1.922,3.175,3.175,0,0,1,1.153,2.563c0,3.331-5.894,4.869-8.329,7.175l-.256.256-2.819-1.025-.128.641a2.02,2.02,0,0,1-.128.512c-.256.9-.9,2.947-1.281,4.1l-.128.513.256.128a14.521,14.521,0,0,0-3.2,7.175,13.716,13.716,0,0,0-2.05-1.794,1.625,1.625,0,0,0,.128-.769,2.516,2.516,0,0,0-.641-1.922,1.779,1.779,0,0,0-1.281-.641,2.135,2.135,0,0,0-1.409.513l-.256.256c-.128-.128-.256-.128-.256-.256a25.1,25.1,0,0,1-2.691-2.306,1.249,1.249,0,0,0-1.153-.513h-1.281c-.384,0-.641.256-1.153.769-.256.256-.9.641-1.538,1.281l1.025,1.025c.128.256.384.384.513.641.128-.128.384-.256.513-.384a1.381,1.381,0,0,1,1.025-.256,1.37,1.37,0,0,1,1.153.769,60.675,60.675,0,0,0,4.356,5.382c-.256.128-.384.128-.641.256a9.781,9.781,0,0,1-3.331.256c-.769-.128-.9-.256-1.538.641a7.106,7.106,0,0,1-.769,1.025c-.256.384-.513.641.128,1.666.769,1.409,2.819,5,3.588,6.663.641,1.666,1.409,1.922,2.819,2.434a21.5,21.5,0,0,1,3.716,2.05l.128-1.281a7.674,7.674,0,0,0-2.05-1.025c-.513-.128-.641-.384,0-.384a12.555,12.555,0,0,1,3.2,1.025A10.731,10.731,0,0,0-98.4-270.87a3.465,3.465,0,0,0-2.306,0c0,.256-.128.641-.513.641s-.641-.256-.513-.641.641-.513.513-1.153c-.128-.769-1.025-.769-1.538-.9-.769-1.153-1.666-2.819-2.178-3.46a.924.924,0,0,1,.128-1.281c.641-.513,2.05.256,4.869.513,1.025,0,2.178.128,3.46.128.384,3.331,1.666,6.407,6.278,7.56a7.525,7.525,0,0,1,5.253,4.356c-9.1-.128-10.507,3.331-10.507,6.791,0,3.844,3.2,3.588,3.2,6.407,0,2.434-7.688,3.46-9.994,3.844a6.362,6.362,0,0,0-3.972,1.666c-.9.9-1.922,1.794-3.588,3.588a10.208,10.208,0,0,0,1.409.128l1.281-1.666c.384-.512.641-1.025.9-1.025s.128.513-.256,1.025l-1.025,1.794c4.485.256,4.741-1.409,4.741-2.05s-1.153-1.153-.513-1.538,1.153-.128,1.666.513.641,1.153,1.922.641c0,0,9.738-4.1,11.019-4.613,1.153-.513.769-1.025.128-1.538a3.039,3.039,0,0,1-.9-2.563c0-2.947,1.794-3.844,5-3.844,0,.513-.128,1.025-.128,1.409,0,4.613,7.047,9.1,8.841,9.1.9,0,1.922-.641,2.05,2.178,0,2.05.513,3.46.128,5.894-.384,2.306-1.025,2.691-2.435,3.716s-2.819,4.1-3.331,4.741c.641.384,1.281.513,1.794-1.025.384-1.281.9-2.178,1.538-2.434-.513,1.409-.9,3.46-1.281,4.1,1.794.256,4.741-1.281,4.741-2.563s-1.025-1.153-1.025-2.05c0-.384.513-.769,1.025-.769.769,0,1.281.513,1.281.9.769-.384,1.281-1.153,1.281-3.075a12.431,12.431,0,0,0-.128-2.178.447.447,0,0,0,.128.256,2,2,0,0,0,1.666.9,3.337,3.337,0,0,0,1.922-.513,3.233,3.233,0,0,0,1.281-1.922v-.513a2.066,2.066,0,0,0-.384-1.153,2.35,2.35,0,0,0-1.281-.9,3.087,3.087,0,0,0-2.306.513,2.719,2.719,0,0,0-1.281,1.666,58.979,58.979,0,0,1-.256-5.894c.128-1.409.128-2.05-.256-2.306-.513-.256-1.025.641-1.666.641s-2.691-1.922-2.691-3.844c0-2.05,2.178-4.613,2.05-7.3,0-.9.513-1.281.9-.513a12.454,12.454,0,0,0,1.922,3.2c-.513,3.46,3.2,6.791,6.278,4.356-1.538.256-2.563-1.153-3.331-2.563.256,0,.513.128.9.128h.513c1.153,1.409,4.613,1.281,5.51-2.178a3.507,3.507,0,0,1-2.819,1.153,5.733,5.733,0,0,0,2.05-4.485c0-8.713-10.635-9.738-10.635-17.682a4.886,4.886,0,0,1,4.356-4.869,3.634,3.634,0,0,1,1.666.513,4.439,4.439,0,0,0-1.025,3.075c.256,6.278,10.507,6.022,10.635,8.969.9-5-6.663-3.588-6.919-9.738M-90.461-304.7c.513-.9,0-2.434,1.794-2.434.9,0,1.666.9,2.691,1.153a13.3,13.3,0,0,0-4.485,1.281m-9.354,19.22a1.957,1.957,0,0,1-.513,1.281.979.979,0,0,1-.641.256c-.641,0-1.025-.769-1.025-1.538v-.128a1.957,1.957,0,0,1,.513-1.281.979.979,0,0,1,.641-.256,1.09,1.09,0,0,1,.641.384,2.165,2.165,0,0,1,.384,1.281M-69.575-241.4a2.35,2.35,0,0,1,.9-1.281,1.772,1.772,0,0,1,1.538-.384.927.927,0,0,1,.769.513h0c.256.256.128.641.128.9a2.35,2.35,0,0,1-.9,1.281c-.9.513-1.922.513-2.306-.128a1.186,1.186,0,0,1-.128-.9m-6.407-29.214a1.108,1.108,0,0,1,.384-.769,1.083,1.083,0,0,1,.769-.256,1.77,1.77,0,0,1,1.409.769,2.364,2.364,0,0,1,.641,1.538,1.107,1.107,0,0,1-.384.769h0a1.083,1.083,0,0,1-.769.256,1.77,1.77,0,0,1-1.409-.769,2.662,2.662,0,0,1-.641-1.538m-17.3-19.732c.513-1.538,1.409-4.613,1.409-4.613l1.666.641a4.03,4.03,0,0,0-1.538,1.153,1.815,1.815,0,0,0,1.409-.128l-.641,1.666c-.128-.256-.641-.9-1.025-.9a1.6,1.6,0,0,0,1.025,2.05c1.025.513,1.666.641,1.922.128s-.384-1.281-1.153-1.025c-.128-.9.384-1.281.9-1.281a1.079,1.079,0,0,1,.9.9,2.584,2.584,0,0,1,1.794-2.819c.513,1.281.128,2.178-.9,3.2a1.338,1.338,0,0,1,1.409.128,1.049,1.049,0,0,1-.513,1.538.853.853,0,0,0-1.538-.384c-.256.513.128,1.153,1.025,1.666a1.609,1.609,0,0,0,2.435-.641,2.414,2.414,0,0,0-1.538.256l1.025-2.05a2.112,2.112,0,0,0,.641,1.153,2.493,2.493,0,0,0,0-1.922l2.306,1.281a2.678,2.678,0,0,0-1.666,1.025,1.787,1.787,0,0,0,1.409,0L-83.67-287.4a2.049,2.049,0,0,0-.513-1.409,1.65,1.65,0,0,0,.641,2.434c.9.513,1.538.641,1.922.128s-.256-1.409-1.025-1.153c0-.9.513-1.281,1.025-1.281s.769.513.9,1.153c.384-1.409.9-2.178,2.306-2.435a2.672,2.672,0,0,1-1.538,2.947c.513-.128,1.025-.128,1.281.256a.96.96,0,0,1-.641,1.409c-.128-.9-1.153-1.025-1.409-.513s.128,1.025,1.025,1.538a1.628,1.628,0,0,0,2.306-.128,1.927,1.927,0,0,0-1.409-.513l1.025-1.409a1.577,1.577,0,0,0,.641,1.281,5.034,5.034,0,0,0,.128-1.922l1.409,1.025s-2.178,2.306-3.2,3.588Zm14.351,36.133c-.641.769-1.538,1.153-2.178.641a1.74,1.74,0,0,1-.128-2.306,1.589,1.589,0,0,1,2.178-.641,1.74,1.74,0,0,1,.128,2.306m4.1-6.535c-.641.769-1.538,1.153-2.178.641a1.74,1.74,0,0,1-.128-2.306c.641-.769,1.538-1.153,2.178-.641a1.586,1.586,0,0,1,.128,2.306" fill="#929499" stroke="#bfc2c7" stroke-miterlimit="10" stroke-width="1.281"/>
        </g>
      </g>
    </g>
  </g>
</svg>
