<svg xmlns="http://www.w3.org/2000/svg" width="489" height="304.2" viewBox="0 0 489 304.2">
  <g id="Group_1156" data-name="Group 1156" transform="translate(-443.5 126.5)">
    <g id="Group_1157" data-name="Group 1157" transform="translate(444 -126)">
      <rect id="Rectangle_434" data-name="Rectangle 434" width="6.9" height="303.2" transform="translate(0 0)" fill="none" stroke="#fefeff" stroke-miterlimit="10" stroke-width="1"/>
      <g id="Group_1154" data-name="Group 1154">
        <path id="Path_3191" data-name="Path 3191" d="M81.8,199.9c-4,3.7-9.7,5.6-17,5.6-7.5,0-13.4-1.8-17.6-5.4s-6.3-9.3-6.3-17.1V145.7h7.8V183c0,5.2,1.4,9.2,4.2,11.9s6.8,4,12,4c5,0,8.7-1.3,11.3-4s3.9-6.7,3.9-11.9V145.7h7.8V183C87.8,190.6,85.8,196.2,81.8,199.9Z" fill="none" stroke="#fefeff" stroke-miterlimit="10" stroke-width="1"/>
        <path id="Path_3192" data-name="Path 3192" d="M107,145.8v29.1l29.6-29.1h10.1l-24.6,23.6,25.6,34.8h-9.8l-21.1-29.5-9.7,9.1v20.4H99.3V145.8Z" fill="none" stroke="#fefeff" stroke-miterlimit="10" stroke-width="1"/>
        <path id="Path_3193" data-name="Path 3193" d="M168.4,152.3v-6.5h46.7v6.5H195.6v51.9h-7.8V152.3Z" fill="none" stroke="#fefeff" stroke-miterlimit="10" stroke-width="1"/>
        <path id="Path_3194" data-name="Path 3194" d="M218.2,161.9v8.9h.2a19.3,19.3,0,0,1,6.2-7.6,15.891,15.891,0,0,1,9.3-2.3v7.4a20.762,20.762,0,0,0-7.1,1.1,11.011,11.011,0,0,0-4.7,3.4,13.594,13.594,0,0,0-2.6,5.4,31.069,31.069,0,0,0-.8,7.2v18.8h-7V161.9Z" fill="none" stroke="#fefeff" stroke-miterlimit="10" stroke-width="1"/>
        <path id="Path_3195" data-name="Path 3195" d="M275.6,204a10.016,10.016,0,0,1-5,1.1,6.089,6.089,0,0,1-4.3-1.5c-1.1-1-1.6-2.7-1.6-4.9a15.973,15.973,0,0,1-6.7,4.9,22.132,22.132,0,0,1-8.2,1.5,19.041,19.041,0,0,1-5.4-.7,15.394,15.394,0,0,1-4.5-2,9.668,9.668,0,0,1-3-3.6,14.455,14.455,0,0,1,.1-11.3,10.491,10.491,0,0,1,3.2-3.7,14.007,14.007,0,0,1,4.6-2.2,45.369,45.369,0,0,1,5.3-1.2q2.85-.6,5.4-.9a41.2,41.2,0,0,0,4.5-.8,8.239,8.239,0,0,0,3.1-1.6,3.719,3.719,0,0,0,1.1-3,6.756,6.756,0,0,0-.9-3.7,6.3,6.3,0,0,0-2.2-2.1,9.643,9.643,0,0,0-3-1,18.288,18.288,0,0,0-3.3-.2,15.271,15.271,0,0,0-7.4,1.7c-2,1.1-3,3.2-3.2,6.3h-7a16.03,16.03,0,0,1,1.6-6.6,12.785,12.785,0,0,1,3.9-4.4,16.66,16.66,0,0,1,5.6-2.4,28.7,28.7,0,0,1,6.7-.7,36.425,36.425,0,0,1,5.7.4,13.968,13.968,0,0,1,5.1,1.7,9.14,9.14,0,0,1,3.7,3.6,11.575,11.575,0,0,1,1.4,6v21.7a15.991,15.991,0,0,0,.3,3.6c.2.8.8,1.1,1.9,1.1a8.815,8.815,0,0,0,2.1-.3V204Zm-11.3-21.7a8.118,8.118,0,0,1-3.4,1.4c-1.4.3-2.9.5-4.5.7s-3.1.4-4.7.7a14.333,14.333,0,0,0-4.3,1.2,7.229,7.229,0,0,0-3.1,2.3,6.452,6.452,0,0,0-1.2,4.1,5.426,5.426,0,0,0,.7,2.9,6.558,6.558,0,0,0,1.8,1.9,8.856,8.856,0,0,0,2.6,1.1,15.526,15.526,0,0,0,3.1.3,17.029,17.029,0,0,0,5.9-.9,11.226,11.226,0,0,0,4-2.4,9.629,9.629,0,0,0,2.3-3.1,7.633,7.633,0,0,0,.7-3.1v-7.1Z" fill="none" stroke="#fefeff" stroke-miterlimit="10" stroke-width="1"/>
        <path id="Path_3196" data-name="Path 3196" d="M311.9,204.2v-5.7h-.2a10.369,10.369,0,0,1-5.4,5.1,21.658,21.658,0,0,1-8.1,1.6,18.7,18.7,0,0,1-8.5-1.8,19.117,19.117,0,0,1-6.1-4.8,21.129,21.129,0,0,1-3.6-7,30.7,30.7,0,0,1,0-17,20.2,20.2,0,0,1,3.6-7,15.893,15.893,0,0,1,6.1-4.7,18.7,18.7,0,0,1,8.5-1.8,21.589,21.589,0,0,1,3.5.3,17.955,17.955,0,0,1,7.4,3.1,10.4,10.4,0,0,1,2.8,3.1h.2V145.8h7v58.4Zm-25-15a13.673,13.673,0,0,0,2.4,5,11.609,11.609,0,0,0,4.1,3.5,12.094,12.094,0,0,0,5.8,1.3,12.658,12.658,0,0,0,6-1.4,11.551,11.551,0,0,0,4-3.6,14.625,14.625,0,0,0,2.2-5.1,22.473,22.473,0,0,0,.7-5.8,23.49,23.49,0,0,0-.7-6,16.93,16.93,0,0,0-2.3-5.1,11.878,11.878,0,0,0-4.1-3.6,12.785,12.785,0,0,0-6.1-1.3,12.658,12.658,0,0,0-6,1.4,11.516,11.516,0,0,0-3.9,3.7,14.973,14.973,0,0,0-2.1,5.2,30.817,30.817,0,0,0-.7,6.1A18.57,18.57,0,0,0,286.9,189.2Z" fill="none" stroke="#fefeff" stroke-miterlimit="10" stroke-width="1"/>
        <path id="Path_3197" data-name="Path 3197" d="M358.5,201.5a19.137,19.137,0,0,1-11.9,3.6,21.612,21.612,0,0,1-8.8-1.6,17.145,17.145,0,0,1-6.3-4.6,19,19,0,0,1-3.8-7,35.283,35.283,0,0,1-1.4-8.9,24.62,24.62,0,0,1,1.5-8.8,23.071,23.071,0,0,1,4.1-7,18.562,18.562,0,0,1,14.3-6.2,17.924,17.924,0,0,1,9.4,2.3,18.8,18.8,0,0,1,6,5.9,23.714,23.714,0,0,1,3.1,7.9,32.5,32.5,0,0,1,.7,8.1H333.7a15.452,15.452,0,0,0,.7,5.3,11.791,11.791,0,0,0,2.4,4.4A12.108,12.108,0,0,0,341,198a13.984,13.984,0,0,0,6,1.1,12.264,12.264,0,0,0,7.2-2,9.793,9.793,0,0,0,3.7-6.2h6.9C363.7,195.5,361.7,199.1,358.5,201.5Zm-1.7-27.2a12.548,12.548,0,0,0-2.5-3.8,10.936,10.936,0,0,0-3.8-2.5,12.085,12.085,0,0,0-4.8-.9,12.951,12.951,0,0,0-4.9.9,10.786,10.786,0,0,0-3.7,2.6,13.913,13.913,0,0,0-2.5,3.8,14.093,14.093,0,0,0-1.1,4.6h24.3A11.041,11.041,0,0,0,356.8,174.3Z" fill="none" stroke="#fefeff" stroke-miterlimit="10" stroke-width="1"/>
      </g>
      <g id="Group_1155" data-name="Group 1155">
        <path id="Path_3198" data-name="Path 3198" d="M54.1,269.85a21.771,21.771,0,0,1-9.4,2,21.447,21.447,0,0,1-9.5-1.8,15.725,15.725,0,0,1-5.6-4.3,13.4,13.4,0,0,1-2.6-5.2,21.472,21.472,0,0,1-.6-4.5,16.583,16.583,0,0,1,1.1-6.1,17.546,17.546,0,0,1,2.9-4.7,26.531,26.531,0,0,1,4.3-3.8,45.977,45.977,0,0,1,5.3-3.1l-2.4-3.3a28.24,28.24,0,0,1-2.1-3.1,20.652,20.652,0,0,1-1.5-3.4,12.532,12.532,0,0,1-.5-4,11.3,11.3,0,0,1,.9-4.5,11.947,11.947,0,0,1,2.5-3.8,13.292,13.292,0,0,1,4.1-2.7,14,14,0,0,1,5.6-1,18.819,18.819,0,0,1,5.3.7,13.5,13.5,0,0,1,4.5,2.2,10.411,10.411,0,0,1,3.1,3.8,10.791,10.791,0,0,1,1.2,5.2,13.444,13.444,0,0,1-3.4,9,18.788,18.788,0,0,1-3.5,3.4,36.222,36.222,0,0,1-4.1,2.7l10.6,12.8a33.618,33.618,0,0,0,1.9-9.1h6.6c-.2,1.7-.3,3.2-.5,4.5a29.033,29.033,0,0,1-.7,3.4c-.3,1-.7,2.1-1.1,3.1s-1,2.2-1.6,3.5l11.4,13.2H67.2l-6.2-7.3A13.937,13.937,0,0,1,54.1,269.85Zm-14-24.7a14.316,14.316,0,0,0-3.2,2.8,11.525,11.525,0,0,0-2.2,3.5,12.458,12.458,0,0,0-.8,4.5,8.719,8.719,0,0,0,.9,4,9.5,9.5,0,0,0,2.5,3.1,12.452,12.452,0,0,0,3.6,2,11.409,11.409,0,0,0,4.1.7,13.365,13.365,0,0,0,7.2-1.9,16.114,16.114,0,0,0,5.3-5.1l-13.4-16.1C42.6,243.55,41.3,244.35,40.1,245.15Zm8.8-11.8a17.875,17.875,0,0,0,2.5-2.2,10.148,10.148,0,0,0,1.9-2.7,7.391,7.391,0,0,0,.7-3.4,6.2,6.2,0,0,0-1.8-4.4,6.569,6.569,0,0,0-4.9-1.8,7.893,7.893,0,0,0-4.6,1.5,5.421,5.421,0,0,0-2.1,4.7,7.985,7.985,0,0,0,.5,2.6c.4.9.8,1.7,1.3,2.6a19.5,19.5,0,0,0,1.8,2.5c.7.8,1.3,1.6,2,2.5C47.1,234.55,48,233.95,48.9,233.35Z" fill="none" stroke="#fefeff" stroke-miterlimit="10" stroke-width="1"/>
        <path id="Path_3199" data-name="Path 3199" d="M110.6,212.65v58.4h-7.8v-58.4Z" fill="none" stroke="#fefeff" stroke-miterlimit="10" stroke-width="1"/>
        <path id="Path_3200" data-name="Path 3200" d="M128.1,228.75v6.7h.2c2.9-5.1,7.5-7.7,13.7-7.7a20.155,20.155,0,0,1,7,1.1,10.83,10.83,0,0,1,4.5,3.2,13.212,13.212,0,0,1,2.4,4.9,24.813,24.813,0,0,1,.7,6.3v27.8h-7v-28.6a7.94,7.94,0,0,0-8.6-8.5,13.185,13.185,0,0,0-5.5,1,11.139,11.139,0,0,0-3.9,2.8,12.234,12.234,0,0,0-2.3,4.2,17.846,17.846,0,0,0-.8,5.3v23.9h-7v-42.3h6.6Z" fill="none" stroke="#fefeff" stroke-miterlimit="10" stroke-width="1"/>
        <path id="Path_3201" data-name="Path 3201" d="M177.6,271.05l-15.7-42.3h7.8l11.9,35.2h.2l11.5-35.2h7.3l-15.5,42.3Z" fill="none" stroke="#fefeff" stroke-miterlimit="10" stroke-width="1"/>
        <path id="Path_3202" data-name="Path 3202" d="M235.9,268.35a19.137,19.137,0,0,1-11.9,3.6,21.612,21.612,0,0,1-8.8-1.6,17.145,17.145,0,0,1-6.3-4.6,19,19,0,0,1-3.8-7,35.284,35.284,0,0,1-1.4-8.9,24.62,24.62,0,0,1,1.5-8.8,23.071,23.071,0,0,1,4.1-7,18.561,18.561,0,0,1,14.3-6.2,17.924,17.924,0,0,1,9.4,2.3,18.8,18.8,0,0,1,6,5.9,23.714,23.714,0,0,1,3.1,7.9,32.5,32.5,0,0,1,.7,8.1H211.1a15.452,15.452,0,0,0,.7,5.3,11.791,11.791,0,0,0,2.4,4.4,12.108,12.108,0,0,0,4.2,3.1,13.985,13.985,0,0,0,6,1.1,12.264,12.264,0,0,0,7.2-2,9.793,9.793,0,0,0,3.7-6.2h6.9C241.1,262.35,239,265.95,235.9,268.35Zm-1.7-27.2a12.548,12.548,0,0,0-2.5-3.8,10.936,10.936,0,0,0-3.8-2.5,12.085,12.085,0,0,0-4.8-.9,12.951,12.951,0,0,0-4.9.9,10.786,10.786,0,0,0-3.7,2.6,13.913,13.913,0,0,0-2.5,3.8,14.093,14.093,0,0,0-1.1,4.6h24.4A15.335,15.335,0,0,0,234.2,241.15Z" fill="none" stroke="#fefeff" stroke-miterlimit="10" stroke-width="1"/>
        <path id="Path_3203" data-name="Path 3203" d="M254.2,261.55a6.919,6.919,0,0,0,2.6,2.5,11.077,11.077,0,0,0,3.6,1.3,18.4,18.4,0,0,0,4.1.4c1.1,0,2.2-.1,3.4-.2a15.911,15.911,0,0,0,3.3-.9,6.667,6.667,0,0,0,2.5-1.9,5.366,5.366,0,0,0-1-7.3,17.066,17.066,0,0,0-5.1-2.2c-2-.6-4.3-1.1-6.7-1.6a34.816,34.816,0,0,1-6.7-2,13.183,13.183,0,0,1-5.1-3.6c-1.4-1.5-2-3.7-2-6.4a10.693,10.693,0,0,1,1.4-5.5,11.878,11.878,0,0,1,3.7-3.7,14.467,14.467,0,0,1,5.1-2.1,21.49,21.49,0,0,1,5.6-.7,33.714,33.714,0,0,1,6.6.6,16.016,16.016,0,0,1,5.4,2.1,10.468,10.468,0,0,1,3.7,4.1,15.071,15.071,0,0,1,1.6,6.4h-7a6.849,6.849,0,0,0-1.1-3.4,8.04,8.04,0,0,0-2.3-2.2,14.277,14.277,0,0,0-3.1-1.2,18.61,18.61,0,0,0-3.4-.4c-1,0-2.1.1-3.1.2a12.314,12.314,0,0,0-2.9.9,5.844,5.844,0,0,0-2.1,1.6,4.551,4.551,0,0,0-.8,2.7,3.8,3.8,0,0,0,1.3,3,10.961,10.961,0,0,0,3.2,2,25.366,25.366,0,0,0,4.4,1.3c1.6.3,3.3.7,4.9,1.1a48.375,48.375,0,0,1,5.1,1.4,15.121,15.121,0,0,1,4.4,2.2,9.788,9.788,0,0,1,4.3,8.5,11.475,11.475,0,0,1-1.6,6.4,12.654,12.654,0,0,1-4.2,4.1,18.374,18.374,0,0,1-5.8,2.2,35.479,35.479,0,0,1-6.4.6,29.287,29.287,0,0,1-6.7-.7,16.66,16.66,0,0,1-5.6-2.4,12.785,12.785,0,0,1-3.9-4.4,14.714,14.714,0,0,1-1.6-6.7h7A6.652,6.652,0,0,0,254.2,261.55Z" fill="none" stroke="#fefeff" stroke-miterlimit="10" stroke-width="1"/>
        <path id="Path_3204" data-name="Path 3204" d="M306.9,228.75v6.1h-8.4v26.3a10.314,10.314,0,0,0,.2,2,1.548,1.548,0,0,0,.8,1.1,3.36,3.36,0,0,0,1.6.5,20.972,20.972,0,0,0,2.7.1H307v6.1h-5.3a20.71,20.71,0,0,1-4.6-.4,8.055,8.055,0,0,1-3.1-1.3,6.188,6.188,0,0,1-1.8-2.8,15.348,15.348,0,0,1-.6-4.7v-26.9h-7.3v-6.1h7.2v-12.7h7v12.7Z" fill="none" stroke="#fefeff" stroke-miterlimit="10" stroke-width="1"/>
        <path id="Path_3205" data-name="Path 3205" d="M320.1,228.75v6.2h.2a15.421,15.421,0,0,1,13.7-7.2,15.138,15.138,0,0,1,7.1,1.6,9.22,9.22,0,0,1,4.5,5.6,14.244,14.244,0,0,1,5.6-5.3,15.316,15.316,0,0,1,7.6-1.9,21.451,21.451,0,0,1,5.8.7,12.137,12.137,0,0,1,4.4,2.2,10.138,10.138,0,0,1,2.9,3.8,13.674,13.674,0,0,1,1,5.6v31h-7v-27.7a22.179,22.179,0,0,0-.3-3.7,7.892,7.892,0,0,0-1.2-3,6.34,6.34,0,0,0-2.5-2,9.743,9.743,0,0,0-4.1-.7,11.3,11.3,0,0,0-8.1,2.9c-2,1.9-2.9,4.6-2.9,7.9v26.3h-7v-27.7a15.285,15.285,0,0,0-.4-3.8,8.063,8.063,0,0,0-1.3-3,6.773,6.773,0,0,0-2.4-2,8.785,8.785,0,0,0-3.9-.7,10.521,10.521,0,0,0-5.2,1.2,12.612,12.612,0,0,0-3.5,2.9,10.681,10.681,0,0,0-2,3.6,9.887,9.887,0,0,0-.6,3.1v26.3h-7v-42.3h6.6Z" fill="none" stroke="#fefeff" stroke-miterlimit="10" stroke-width="1"/>
        <path id="Path_3206" data-name="Path 3206" d="M412.3,268.35a19.137,19.137,0,0,1-11.9,3.6,21.612,21.612,0,0,1-8.8-1.6,17.145,17.145,0,0,1-6.3-4.6,19,19,0,0,1-3.8-7,35.285,35.285,0,0,1-1.4-8.9,24.62,24.62,0,0,1,1.5-8.8,23.07,23.07,0,0,1,4.1-7,18.561,18.561,0,0,1,14.3-6.2,17.924,17.924,0,0,1,9.4,2.3,18.8,18.8,0,0,1,6,5.9,23.714,23.714,0,0,1,3.1,7.9,32.5,32.5,0,0,1,.7,8.1H387.5a15.452,15.452,0,0,0,.7,5.3,11.791,11.791,0,0,0,2.4,4.4,12.108,12.108,0,0,0,4.2,3.1,13.985,13.985,0,0,0,6,1.1,12.264,12.264,0,0,0,7.2-2,9.793,9.793,0,0,0,3.7-6.2h6.9C417.5,262.35,415.4,265.95,412.3,268.35Zm-1.7-27.2a12.548,12.548,0,0,0-2.5-3.8,10.936,10.936,0,0,0-3.8-2.5,12.085,12.085,0,0,0-4.8-.9,12.951,12.951,0,0,0-4.9.9,10.786,10.786,0,0,0-3.7,2.6,13.913,13.913,0,0,0-2.5,3.8,14.093,14.093,0,0,0-1.1,4.6h24.3A12.779,12.779,0,0,0,410.6,241.15Z" fill="none" stroke="#fefeff" stroke-miterlimit="10" stroke-width="1"/>
        <path id="Path_3207" data-name="Path 3207" d="M431.8,228.75v6.7h.2c2.9-5.1,7.5-7.7,13.7-7.7a20.155,20.155,0,0,1,7,1.1,10.83,10.83,0,0,1,4.5,3.2,13.212,13.212,0,0,1,2.4,4.9,24.813,24.813,0,0,1,.7,6.3v27.8h-7v-28.6a7.94,7.94,0,0,0-8.6-8.5,13.185,13.185,0,0,0-5.5,1,10.3,10.3,0,0,0-3.9,2.8,12.234,12.234,0,0,0-2.3,4.2,17.846,17.846,0,0,0-.8,5.3v23.9h-7v-42.3h6.6Z" fill="none" stroke="#fefeff" stroke-miterlimit="10" stroke-width="1"/>
        <path id="Path_3208" data-name="Path 3208" d="M487.9,228.75v6.1h-8.4v26.3a10.314,10.314,0,0,0,.2,2,1.548,1.548,0,0,0,.8,1.1,3.36,3.36,0,0,0,1.6.5,20.972,20.972,0,0,0,2.7.1H488v6.1h-5.3a20.71,20.71,0,0,1-4.6-.4,8.055,8.055,0,0,1-3.1-1.3,6.188,6.188,0,0,1-1.8-2.8,15.348,15.348,0,0,1-.6-4.7v-26.9h-7.3v-6.1h7.2v-12.7h7v12.7Z" fill="none" stroke="#fefeff" stroke-miterlimit="10" stroke-width="1"/>
      </g>
      <g id="g3093">
        <g id="g3551">
          <g id="g3111">
            <path id="path3113" d="M95.4,19.587c-.641,1.281-1.282,2.05-1.154,2.947.129,1.025,1.154,1.666,1.538,2.691.384-1.154,1.153-2.051,1.025-2.947.128-.9-1.153-2.051-1.409-2.691" fill="none" stroke="#fefeff" stroke-miterlimit="10" stroke-width="1"/>
          </g>
          <g id="g3115">
            <path id="path3117" d="M112.332,19.587c.64,1.281,1.281,2.05,1.153,2.947-.128,1.025-1.153,1.666-1.538,2.691-.384-1.154-1.153-2.051-1.025-2.947,0-.9,1.153-2.051,1.41-2.691" fill="none" stroke="#fefeff" stroke-miterlimit="10" stroke-width="1"/>
          </g>
          <g id="g3119">
            <path id="path3121" d="M85.666,18.825a1.154,1.154,0,1,0-1.153-1.153,1.148,1.148,0,0,0,1.153,1.153" fill="none" stroke="#fefeff" stroke-miterlimit="10" stroke-width="1"/>
          </g>
          <g id="g3123">
            <path id="path3125" d="M86.439,20.536a1.153,1.153,0,1,0-1.153,1.153c.641-.128,1.153-.512,1.153-1.153" fill="none" stroke="#fefeff" stroke-miterlimit="10" stroke-width="1"/>
          </g>
          <g id="g3127">
            <path id="path3129" d="M87.015,23.277a1.153,1.153,0,1,0-1.154,1.153,1.148,1.148,0,0,0,1.154-1.153" fill="none" stroke="#fefeff" stroke-miterlimit="10" stroke-width="1"/>
          </g>
          <g id="g3131">
            <path id="path3133" d="M92.058,13.374A1.153,1.153,0,1,0,90.9,12.221a1.149,1.149,0,0,0,1.154,1.153" fill="none" stroke="#fefeff" stroke-miterlimit="10" stroke-width="1"/>
          </g>
          <g id="g3135">
            <path id="path3137" d="M89.164,14.314a1.153,1.153,0,1,0-1.153-1.153,1.148,1.148,0,0,0,1.153,1.153" fill="none" stroke="#fefeff" stroke-miterlimit="10" stroke-width="1"/>
          </g>
          <g id="g3139">
            <path id="path3141" d="M86.991,16.265a1.153,1.153,0,1,0-1.154-1.153,1.149,1.149,0,0,0,1.154,1.153" fill="none" stroke="#fefeff" stroke-miterlimit="10" stroke-width="1"/>
          </g>
          <g id="g3143">
            <path id="path3145" d="M95,13.724a1.153,1.153,0,1,0-1.153-1.153A1.148,1.148,0,0,0,95,13.724" fill="none" stroke="#fefeff" stroke-miterlimit="10" stroke-width="1"/>
          </g>
          <g id="g3147">
            <path id="path3149" d="M97.89,14.517a1.153,1.153,0,1,0-1.153-1.153,1.148,1.148,0,0,0,1.153,1.153" fill="none" stroke="#fefeff" stroke-miterlimit="10" stroke-width="1"/>
          </g>
          <g id="g3151">
            <path id="path3153" d="M100.468,15.714a1.154,1.154,0,1,0-1.153-1.153,1.148,1.148,0,0,0,1.153,1.153" fill="none" stroke="#fefeff" stroke-miterlimit="10" stroke-width="1"/>
          </g>
          <g id="g3155">
            <path id="path3157" d="M120.894,17.665a1.153,1.153,0,1,0,1.153-1.153,1.148,1.148,0,0,0-1.153,1.153" fill="none" stroke="#fefeff" stroke-miterlimit="10" stroke-width="1"/>
          </g>
          <g id="g3159">
            <path id="path3161" d="M122.44,19.376a1.154,1.154,0,1,0,1.153,1.153,1.148,1.148,0,0,0-1.153-1.153" fill="none" stroke="#fefeff" stroke-miterlimit="10" stroke-width="1"/>
          </g>
          <g id="g3163">
            <path id="path3165" d="M121.864,22.117a1.153,1.153,0,1,0,1.154,1.153,1.149,1.149,0,0,0-1.154-1.153" fill="none" stroke="#fefeff" stroke-miterlimit="10" stroke-width="1"/>
          </g>
          <g id="g3167">
            <path id="path3169" d="M115.791,13.374a1.153,1.153,0,1,0-1.153-1.153,1.148,1.148,0,0,0,1.153,1.153" fill="none" stroke="#fefeff" stroke-miterlimit="10" stroke-width="1"/>
          </g>
          <g id="g3171">
            <path id="path3173" d="M118.556,14.314a1.153,1.153,0,1,0-1.153-1.153,1.148,1.148,0,0,0,1.153,1.153" fill="none" stroke="#fefeff" stroke-miterlimit="10" stroke-width="1"/>
          </g>
          <g id="g3175">
            <path id="path3177" d="M120.858,16.265a1.153,1.153,0,1,0-1.154-1.153,1.149,1.149,0,0,0,1.154,1.153" fill="none" stroke="#fefeff" stroke-miterlimit="10" stroke-width="1"/>
          </g>
          <g id="g3179">
            <path id="path3181" d="M112.72,13.724a1.153,1.153,0,1,0-1.153-1.153,1.148,1.148,0,0,0,1.153,1.153" fill="none" stroke="#fefeff" stroke-miterlimit="10" stroke-width="1"/>
          </g>
          <g id="g3183">
            <path id="path3185" d="M109.958,14.517a1.153,1.153,0,1,0-1.153-1.153,1.148,1.148,0,0,0,1.153,1.153" fill="none" stroke="#fefeff" stroke-miterlimit="10" stroke-width="1"/>
          </g>
          <g id="g3187">
            <path id="path3189" d="M106.093,14.553a1.153,1.153,0,1,0,1.153-1.153,1.149,1.149,0,0,0-1.153,1.153" fill="none" stroke="#fefeff" stroke-miterlimit="10" stroke-width="1"/>
          </g>
          <g id="g3191">
            <path id="path3193" d="M101.976,20.768h1.281V15.9c-.512-.128-.9-.256-1.281-.384Z" fill="none" stroke="#fefeff" stroke-miterlimit="10" stroke-width="1"/>
          </g>
          <g id="g3195">
            <path id="path3197" d="M105.873,15.5a3.755,3.755,0,0,1-1.281.384v4.869h1.281Z" fill="none" stroke="#fefeff" stroke-miterlimit="10" stroke-width="1"/>
          </g>
          <g id="g3199">
            <path id="path3201" d="M103.161,10.065V7.118a3.544,3.544,0,0,0-2.819,2.947Z" fill="none" stroke="#fefeff" stroke-miterlimit="10" stroke-width="1"/>
          </g>
          <g id="g3203">
            <path id="path3205" d="M104.565,10.065h2.819a3.882,3.882,0,0,0-2.819-2.947Z" fill="none" stroke="#fefeff" stroke-miterlimit="10" stroke-width="1"/>
          </g>
          <g id="g3207">
            <path id="path3209" d="M100.419,11.441a3.552,3.552,0,0,0,3.459,2.819,3.452,3.452,0,0,0,3.46-2.819Z" fill="none" stroke="#fefeff" stroke-miterlimit="10" stroke-width="1"/>
          </g>
          <g id="g3211">
            <path id="path3213" d="M105.878,6.738a4.129,4.129,0,0,1-1.537-2.563A4.718,4.718,0,0,1,106.9,5.841V1.868a4.718,4.718,0,0,1-2.562,1.666A5.645,5.645,0,0,1,105.878.715h-3.844a6.886,6.886,0,0,1,1.538,2.819,4.723,4.723,0,0,1-2.563-1.666V5.841a4.723,4.723,0,0,1,2.563-1.666,4.126,4.126,0,0,1-1.538,2.563Z" fill="none" stroke="#fefeff" stroke-miterlimit="10" stroke-width="1"/>
          </g>
          <g id="g3215">
            <path id="path3217" d="M110.007,85.347a74.356,74.356,0,0,1-11.916-4.229h0a3.086,3.086,0,0,0-.769-2.434,2.912,2.912,0,0,0-2.307-1.154,3.752,3.752,0,0,0-1.153.257A10.25,10.25,0,0,1,92.2,76.121a20.968,20.968,0,0,1-3.588-6.15,21.294,21.294,0,0,1-1.025-4.1,3.618,3.618,0,0,1-3.716,2.691c0-.256,0-.769-.256-.9a2.761,2.761,0,0,1-3.46.641,27.248,27.248,0,0,0,1.281,4.613,28.445,28.445,0,0,0,5.126,8.713l2.306,2.306v.513a3.714,3.714,0,0,0,1.922,2.819,2.553,2.553,0,0,0,2.947-.385,33.515,33.515,0,0,0,6.407,2.435,27.628,27.628,0,0,0,7.3,1.153,12.233,12.233,0,0,0,6.407-2.307c.9-.64,1.794-1.281,2.434-1.793l.257-.257c-1.666.257-4.229-.256-6.535-.768m-13.2-5.51-.384-.256a1.393,1.393,0,0,0-1.922,0,5.537,5.537,0,0,0-.769.9l-.384.384.256.256c.769.641.9,1.282.641,1.666-.128.128-.257.256-.385.256a1.606,1.606,0,0,1-1.409-.384l-.256-.128-.129.256c0,.128-.128.128-.128.256s-.128.128-.256.256a4.342,4.342,0,0,0-.512,1.282v.256a1.155,1.155,0,0,0,.768.769l.128.128a5.247,5.247,0,0,0,1.154.641A2.056,2.056,0,0,1,91.3,86.5a3.153,3.153,0,0,1-1.666-2.178,6.681,6.681,0,0,1,1.025-3.076l.128-.128-.128-.128a3.872,3.872,0,0,1-.513-1.025,3.75,3.75,0,0,1,1.154.256h.128l.128-.128c.384-.512,1.922-2.05,3.331-2.05a2.689,2.689,0,0,1,1.794.9,2.055,2.055,0,0,1,.641,1.409c0-.128-.256-.256-.513-.512m2.435,6.919a1.537,1.537,0,1,1,1.537-1.538,1.558,1.558,0,0,1-1.537,1.538m6.663,2.05a1.41,1.41,0,1,1,1.409-1.409,1.422,1.422,0,0,1-1.409,1.409" fill="none" stroke="#fefeff" stroke-miterlimit="10" stroke-width="1"/>
          </g>
          <g id="g3219">
            <path id="path3221" d="M107.83,95.9a1.628,1.628,0,0,0-.769.128V91.669a28.471,28.471,0,0,1-6.278-.9v5.254a1.629,1.629,0,0,0-.769-.128,2.428,2.428,0,0,0-2.435,2.434,4.159,4.159,0,0,0,1.282,2.819c.256-.641.512-1.153.9-1.153.768,0,.384,3.716,2.562,3.844a.959.959,0,0,0-.128.64,1.666,1.666,0,1,0,3.332,0,1.146,1.146,0,0,0-.129-.64c2.179-.128,1.794-3.844,2.563-3.844.384,0,.641.512.9,1.153a4.735,4.735,0,0,0,1.153-2.819A2.078,2.078,0,0,0,107.83,95.9m-3.972,9.481a.9.9,0,1,1,.9-.9c.128.385-.257.9-.9.9m5.125-5.509a1.2,1.2,0,0,0-1.025-.769c-1.538,0-.9,3.844-2.691,3.844a1.048,1.048,0,0,1-1.153-1.025c0-.513.384-.769.384-1.153a.717.717,0,0,0-.768-.641c-.385,0-.769.128-.769.641,0,.384.384.64.384,1.153a1.048,1.048,0,0,1-1.153,1.025c-1.794,0-1.153-3.844-2.691-3.844a1.2,1.2,0,0,0-1.025.769,4.333,4.333,0,0,1-.512-1.538,1.609,1.609,0,0,1,1.665-1.666c1.922,0,1.538,2.691,2.435,2.691a.718.718,0,0,0,.769-.641c0-.768-1.41-1.537-1.41-2.562s1.025-2.05,2.05-2.947c1.154.9,2.051,1.794,2.051,2.947s-1.41,1.794-1.41,2.562c0,.385.256.641.769.641.9,0,.512-2.691,2.434-2.691a1.682,1.682,0,0,1,1.666,1.666c.513.384.384,1.025,0,1.538" fill="none" stroke="#fefeff" stroke-miterlimit="10" stroke-width="1"/>
          </g>
          <g id="g3223">
            <path id="path3225" d="M158.426,101.127c-.129-.256-.385-.384-.513-.256-5,1.41-11.276-2.691-17.3-6.791-5.125-3.331-9.866-6.535-13.966-6.535a10.684,10.684,0,0,0-4.1.9,7.087,7.087,0,0,0-3.2,3.716,16.005,16.005,0,0,1-2.05,3.716,6.128,6.128,0,0,0-1.153,2.947,3.711,3.711,0,0,0,1.025,2.306,9.7,9.7,0,0,0,2.691,1.794l.768.385c1.026.512,1.666.768,1.794,1.409a33.305,33.305,0,0,1-7.559,2.178,57.151,57.151,0,0,1-10.764.9,57.141,57.141,0,0,1-10.763-.9,33.33,33.33,0,0,1-7.56-2.178c.129-.9.641-1.153,1.794-1.666l.769-.384A9.861,9.861,0,0,0,90.9,101a2.548,2.548,0,0,0,1.025-2.178,6.138,6.138,0,0,0-1.153-2.947,22.73,22.73,0,0,1-2.05-3.716,7.084,7.084,0,0,0-3.2-3.716,8.242,8.242,0,0,0-3.972-.9c-4.1,0-8.969,3.2-14.094,6.663-6.023,3.972-12.3,8.2-17.3,6.791-.257-.128-.513,0-.513.256a.468.468,0,0,0,.256.641,23.761,23.761,0,0,1,4.229,2.691c1.794,1.409,3.588,2.819,5.381,2.819a12.255,12.255,0,0,0,6.023-1.794,53.881,53.881,0,0,0,6.15-3.844c3.972-2.691,8.072-5.51,12.044-5.894l-1.153,1.153c-1.153,1.025-2.178,1.922-2.178,3.716a8.853,8.853,0,0,0,1.153,3.844A15.029,15.029,0,0,1,82.187,106a24.123,24.123,0,0,1,.9,2.819l.384,1.538a6.059,6.059,0,0,0,3.588,4.1c3.331,1.666,9.1,2.563,17.041,2.563s13.711-.9,17.042-2.563a6.062,6.062,0,0,0,3.588-4.1,13.334,13.334,0,0,1,.384-1.538,12,12,0,0,1,.9-2.819,11.633,11.633,0,0,1,.9-1.793,6.353,6.353,0,0,0,1.025-3.332c0-1.794-1.025-2.691-2.306-3.844a11.574,11.574,0,0,0-1.282-1.153c3.972.256,8.073,3.075,12.045,5.894a53.881,53.881,0,0,0,6.15,3.844,12.255,12.255,0,0,0,6.022,1.794c1.922,0,3.588-1.281,5.382-2.819a18.232,18.232,0,0,1,4.228-2.691,1.821,1.821,0,0,0,.257-.769" fill="none" stroke="#fefeff" stroke-miterlimit="10" stroke-width="1"/>
          </g>
          <g id="g3227">
            <path id="path3229" d="M128.083,60.682a7.3,7.3,0,0,1-1.922-2.306c-.641-1.282-3.075-6.151-3.459-6.791a2.384,2.384,0,0,1-.513-1.41,2.271,2.271,0,0,1,.513-1.281,4.011,4.011,0,0,0,.9-1.153c.128-.257.256-.385.384-.641a19.086,19.086,0,0,0-3.075-4.1,21.807,21.807,0,0,0-4.869-4.228,3.769,3.769,0,0,0,1.922-3.076,2.936,2.936,0,0,0-1.025-2.178c1.025-3.2,2.819-7.175,4.356-8.841l-3.2-1.41a5.294,5.294,0,0,1,.769,3.716,4.232,4.232,0,0,1-1.794-2.434,11.024,11.024,0,0,1-1.153,3.459,3.278,3.278,0,0,1,2.69-.256,3.784,3.784,0,0,1-4.1,1.41c-1.153-.257-2.306-.9-2.306-1.794a1.143,1.143,0,0,1,1.153-1.153c.769.128.769,1.153.512,1.665.9-.512,1.922-3.2.385-3.587-1.153-.257-2.178,1.281-2.563,2.434-.256-1.409-.769-2.819-1.922-2.819-1.537.128-1.025,2.819-.512,3.588.128-1.025.64-1.538,1.025-1.41.384,0,.9.257.769,1.154s-1.282,1.409-2.819,1.409c-1.41,0-3.716-.384-3.972-3.075a4.921,4.921,0,0,1,2.818,1.666,24.754,24.754,0,0,1,0-4.357,4.4,4.4,0,0,1-2.818,1.666,5.973,5.973,0,0,1,2.306-3.075h-5.894a5.359,5.359,0,0,1,2.306,3.075,4.4,4.4,0,0,1-2.819-1.666,24.754,24.754,0,0,1,0,4.357,4.653,4.653,0,0,1,2.819-1.666c-.256,2.691-2.691,3.075-3.972,3.075-1.409,0-2.691-.512-2.819-1.409s.385-1.154.9-1.154A1.322,1.322,0,0,1,98.1,27.5c.513-.641,1.025-3.46-.512-3.588-1.154-.128-1.794,1.282-1.922,2.819-.385-1.153-1.41-2.819-2.563-2.434-1.409.384-.513,3.075.384,3.587-.256-.512-.128-1.537.513-1.665.769-.129,1.153.512,1.153,1.153,0,.9-1.153,1.537-2.306,1.794a3.884,3.884,0,0,1-4.1-1.41,2.9,2.9,0,0,1,2.69.256,12.225,12.225,0,0,1-1.153-3.459,4.38,4.38,0,0,1-1.794,2.434,5.294,5.294,0,0,1,.769-3.716l-3.2,1.41c1.537,1.666,3.331,5.638,4.356,8.841a2.677,2.677,0,0,0-1.025,2.05,3.766,3.766,0,0,0,1.922,3.075,21.837,21.837,0,0,0-4.869,4.229,26.376,26.376,0,0,0-5.125,8.585,33.644,33.644,0,0,1,2.819,3.2,5.4,5.4,0,0,1,1.281,2.819,4.364,4.364,0,0,0,1.153,3.075,4.382,4.382,0,0,1,.641,2.178h16.145V80.415a2.237,2.237,0,0,0-1.794.9,54.694,54.694,0,0,0,5.381,1.922,4.215,4.215,0,0,1,1.025-2.562s-2.306-.256-3.587-.256V62.86h15.76a20.738,20.738,0,0,1-1.281,6.92,18.513,18.513,0,0,1-3.588,6.15,14.663,14.663,0,0,1-5.254,4.1c-.256.128-.256.385-.64.513a4.577,4.577,0,0,0-.769,1.409,5.416,5.416,0,0,0-.384,1.538,13.143,13.143,0,0,0,1.793.512c5.51,1.41,6.92,1.025,7.176.769h0a20.545,20.545,0,0,0,3.459-3.2,26.979,26.979,0,0,0,5.126-8.713A29.543,29.543,0,0,0,127.7,62.22a2.151,2.151,0,0,0,.384-1.538M103.61,61.963H87.465a22.862,22.862,0,0,1,1.282-7.175,18.494,18.494,0,0,1,3.587-6.15,15.861,15.861,0,0,1,5.254-4.1A16.741,16.741,0,0,1,103.61,43Zm.256-26.907c-5.381,0-9.1,1.537-11.276,3.075-1.281-.769-1.793-1.41-1.793-2.307,0-3.075,8.584-3.331,12.941-3.331h0c4.356,0,12.941.256,12.941,3.331,0,.9-.512,1.538-1.794,2.307-1.921-1.41-5.637-3.075-11.019-3.075m.769,26.907V43a14.631,14.631,0,0,1,5.638,1.409,17.711,17.711,0,0,1,5.253,4.1,20.956,20.956,0,0,1,3.588,6.15,22.861,22.861,0,0,1,1.281,7.175C120.267,61.963,104.635,61.963,104.635,61.963Z" fill="none" stroke="#fefeff" stroke-miterlimit="10" stroke-width="1"/>
          </g>
          <g id="g3231">
            <path id="path3233" d="M117.785,58.885c.256.128.128.64-.128.512a17.8,17.8,0,0,0-3.075-7.944h0c.256-.128.64-.384.64-.769a1.259,1.259,0,0,0-1.025.385l-.384-.385a16.32,16.32,0,0,0-3.46-3.2,13.193,13.193,0,0,0-3.844-1.794c0-.256.385-.384.641-.128,0-.513-.385-.769-.641-.641-.128,0-.256.128-.256.385a1.1,1.1,0,0,0-.769-.385,1.373,1.373,0,0,0,.256.769c-.256,0-.384.128-.384.256-.128.257,0,.641.513.769-.257-.256-.129-.641.128-.512v6.15a1.13,1.13,0,0,0-1.025.256.863.863,0,0,0,1.025.256v6.663c-.385,0-.385-.384-.128-.512-.513,0-.769.512-.641.64a.663.663,0,0,0,.512.257,1.083,1.083,0,0,0-.256.769.981.981,0,0,0,.641-.257.665.665,0,0,0,.256.513c.256.128.641-.128.641-.641-.128.256-.641.128-.641-.128h4.613a1.13,1.13,0,0,0,.256,1.025,1.128,1.128,0,0,0,.256-1.025h5.126c0,.384-.385.384-.513.128a.478.478,0,1,0,.9.128,1.083,1.083,0,0,0,.769.257.978.978,0,0,0-.256-.641.665.665,0,0,0,.512-.256c.513-.513.256-.9-.256-.9m-4.357-8.2c-.128.128-.256.256-.128.385,0,.128.128.256.513.256a2.82,2.82,0,0,0-.385.641,1.614,1.614,0,0,0,.769-.129c0,.257,0,.385.128.513a.241.241,0,0,0,.385,0,16.044,16.044,0,0,1,2.306,6.407.955.955,0,0,0-.641-.129,1.373,1.373,0,0,0,.257.769H112.66c0-.256-.129-.512-.257-.512a.77.77,0,0,0-.512.128.98.98,0,0,0-.256-.641.827.827,0,0,0-.257.641.317.317,0,0,0-.512-.128c-.128,0-.257.256-.257.512h-3.331a.978.978,0,0,0,.256-.64.978.978,0,0,0-.64.256V53.631c.256,0,.512-.128.512-.256a.774.774,0,0,0-.128-.513.98.98,0,0,0,.641-.256.83.83,0,0,0-.641-.256.317.317,0,0,0,.128-.513c0-.128-.256-.256-.512-.256V46.968a.973.973,0,0,0,.64.257.961.961,0,0,0-.128-.641,17.175,17.175,0,0,1,3.075,1.538,12.665,12.665,0,0,1,2.947,2.562" fill="none" stroke="#fefeff" stroke-miterlimit="10" stroke-width="1"/>
          </g>
          <g id="g3235">
            <path id="path3237" d="M115.05,57.152q.384-.192.384-.384c-.256.128-.384,0-.384,0,.128-.128.384,0,.128-.256-.128-.257-.256-.257-.513-.129-.128.257-1.409,0-1.409-1.025l.384.385a.125.125,0,0,1,.128.128h.641a.552.552,0,0,0,.513-.513c0-.512-.385-.768-1.026-1.153-.256-.128-.384-.384-.512-.512a2.7,2.7,0,0,0-.513-1.41,1.392,1.392,0,0,0-.128-.64A1.6,1.6,0,0,0,113,53.565c.512.64,1.665,1.153,1.537,1.665a.275.275,0,0,1-.256.256h-.256c-.129,0-.129,0-.257-.128s-.256-.128-.384-.256a5.568,5.568,0,0,1-1.153-1.409c-.513-.641-.257-1.282-.257-1.794.385-.513-.256-1.538-.512-1.794a.62.62,0,0,0,0-.513h-.256c-.128-.128-.128-.256-.257-.256-.256,0-.256-.128-.256-.256-.128.128-.128.256-.256.256h-.385c-.128.128-.128.128-.384.128s-.256.128-.128.257c0,.128,0,.256.128.256h0l.128.256.128-.256c.128-.128.385-.128.385.128,0,.128,0,.128-.128.256h-.513c-.128,0-.128.128-.128.256s.128.129.384.129.641-.129.641.128c0,.512-.641.512-.769,1.153l-.384-.384c-.128-.129-.256-.385-.513-.641a1.785,1.785,0,0,0-.512-.385c-.256-.128-.256-.256-.256-.512s.128-.384.128-.513v-.128c0-.128-.257-.256-.257-.128a.446.446,0,0,1,.129.256l-.129.129v.128h0v.128h0c0-.128-.128-.385-.256-.385h-.128c0-.128-.128-.256-.384-.128h.128v.128a.276.276,0,0,0,.256.257h0c-.256-.129-.384,0-.384.128V50.1c-.129,0-.129.256,0,.256v-.128h0l.128.128h.256a.241.241,0,0,0,0,.385c-.128.128-.384.128-.384-.129-.257.385.128.641.384.513v.384a.125.125,0,0,1,.128-.128h0c0,.128,0,.128.128.256v-.128c0,.128.128.128.128.257a1.965,1.965,0,0,0,1.154,1.153,4.29,4.29,0,0,0-.769.769c-.128.128-.513.384-.641.256-.128,0-.128-.128-.256-.256-.128,0-.128-.129-.256,0h-.129a.47.47,0,0,0-.384.128h.256v.128c0,.128,0,.128.385.128h0s-.128.128-.128,0c-.129,0-.257-.128-.385,0l-.128.128h0a.246.246,0,0,0-.128.385.4.4,0,0,1,.128-.257.125.125,0,0,0,.128.128c.128.129.256.257.385-.128h0c0,.128-.129.385,0,.385h.128a.245.245,0,0,0,.384.128c-.128,0-.128-.128-.256-.256h.128c.128-.129,0-.257,0-.385h0c0,.128.128.256.384.128.129,0,.129-.128.129-.256a1.154,1.154,0,0,1,.64-.128q0-.192.385-.385c.256-.128.384,0,.384.129,0-.129.128-.257.256-.385,0,1.025,1.282.9,1.666,1.538a5.763,5.763,0,0,0-1.025-.256c-.385,0-.9.384-.9.768a1.577,1.577,0,0,0,.513,1.025c-.385.129-.513,0-.9,0h0c-.257,0-.385-.512-.641-.384a.125.125,0,0,0-.128.128h0c-.128,0-.385.128-.256.256a.447.447,0,0,1,.256-.128v.128a.126.126,0,0,0,.128.129h.128c0,.128-.384-.129-.384.256a.125.125,0,0,0,.128.128c0,.128.128.256.256.128l-.128-.128h.128v.256c0,.128.128.256.384.128a.125.125,0,0,1-.128-.128h.128v-.128h.129c0,.128.128.128.256.128a.125.125,0,0,0,.128-.128.125.125,0,0,1,.128.128c0-.128,0-.256.384,0l.257-.128s.256.128.384,0,.128-.128.128-.384c-.128-.257-.256-.257-.256-.513-.128-.512.641-.769,1.025-.641a2.571,2.571,0,0,0,1.281,1.41c.513.128.641-.384.769-.256l.128.128v.512c0,.128-.256,0-.512,0-.128,0-.128,0-.128.128a.277.277,0,0,0-.257.257.451.451,0,0,1,.257-.128v.128a.245.245,0,0,0,.384.128h0c-.128.128-.256.256-.128.384h.128a.451.451,0,0,0,.128.257v-.257h.128c.128,0,.128-.256.257-.256h0c0,.128-.129.256,0,.384h.128c0,.129.128.129.384.129a.126.126,0,0,1-.128-.129l.128-.128c.128-.256-.128-.256-.128-.384s.256,0,.256-.385h0c.128-.128.257-.128.385-.256Z" fill="none" stroke="#fefeff" stroke-miterlimit="10" stroke-width="1"/>
          </g>
          <g id="g3239">
            <path id="path3241" d="M101.806,66.078h-.256v-.256a1.514,1.514,0,0,0-1.538-1.666c-.9,0-2.69,1.153-5.125,1.153a7.842,7.842,0,0,1-3.075-.9l-.256.769v-.128a.641.641,0,1,0-.641.64.976.976,0,0,0,.513-.256l-.257.769a.451.451,0,0,1,.257.128c-.385,3.716,2.434,8.457,7.175,9.866.769-.128,1.409-.128,1.409.641,0,.512-.256.641-.64.641-.256,0-.513-.129-.513-.385,0-.384.513-.128.641-.384s-.128-.385-.513-.385a.848.848,0,0,0-.9.769,1.047,1.047,0,0,0,1.154,1.025,1.438,1.438,0,0,0,1.537-1.665c.256,0,.513,0,.641-.257v-.769h-.256l.256-8.456h.128c.256,0,.641-.128.641-.513.128-.256-.128-.384-.385-.384m-8.713.64,5.894,8.457c-3.2-1.281-6.278-4.1-5.894-8.457m6.022,7.56L93.734,66.59h1.281l4.357,6.151a9.483,9.483,0,0,0-.257,1.537m.385-2.434-3.844-5.382,1.153-.384,2.819,4.1a7.316,7.316,0,0,1-.128,1.666m.9-5.894h-.256a.7.7,0,0,0-.641.384.47.47,0,0,0,.512.513h.129V67.1c-.129.512-.257,1.281-.385,2.178l-2.434-3.459a15.574,15.574,0,0,1,2.562-.9c.513,0,.641.256.513,1.025" fill="none" stroke="#fefeff" stroke-miterlimit="10" stroke-width="1"/>
          </g>
          <g id="g3243">
            <path id="path3245" d="M100.814,48.959c1.153,0,1.666-.384,1.666-.769,0-1.281-3.2-.512-3.2-1.281,0-.128.128-.256.256-.385h0c1.538-.128,1.666-1.281,2.691-1.409-1.41-.256-1.538.9-2.179.9a.874.874,0,0,0,.385-.641c-.256.385-.9.385-1.281.769,0,.128-.129.128,0,.256-.257.128-.385.257-.385.513,0,1.153,3.2.384,3.2,1.281,0,.256-.512.513-1.409.513-.641,0-1.153-.513-2.306-.128,0-.257.384-.641.256-.769a.275.275,0,0,0,.256-.257c-.128-.128-.128-.128-.256-.128v-.128a.125.125,0,0,0-.128-.128.447.447,0,0,0-.257-.128.4.4,0,0,0-.256-.128h-.128c-.128,0-.128,0-.128.128a.447.447,0,0,0-.256-.128c0,.128-.128.128,0,.384-.128,0-.257.256-.385.256a.126.126,0,0,0,.128.129c-.128.128-.128.384-.256.384a.125.125,0,0,0,.128.128,1.628,1.628,0,0,0-.128.769h0l-.256-.256a.472.472,0,0,1-.128-.385c0-.128.128-.256.128-.384v-.128c0-.128-.128-.128-.256-.128l.128.128-.128.128s-.128.128,0,.128h0v.128h0c0-.128,0-.256-.128-.256h-.129c0-.128-.128-.256-.256-.128h.128v.128c0,.128,0,.128.257.128h0c-.257-.128-.385,0-.385.128v.128c-.128,0-.128.128,0,.257a.126.126,0,0,1,.128-.129h.128c-.128.129-.128.257,0,.257h0a.192.192,0,1,1-.384,0c-.256.256.128.512.384.384h0a.126.126,0,0,0,.129.128h.128a.125.125,0,0,0,.128.128v-.128a1.865,1.865,0,0,0,.256.385,2.658,2.658,0,0,1-.769.256h-.512c-.128.128-.641.256-.769.128a.4.4,0,0,0-.128-.256l-.128-.128H94.28c-.129-.129-.257-.129-.257,0a.125.125,0,0,1,.128.128v.128s0,.128.257.256H94.28c-.129-.128-.129-.256-.257-.128h-.128a.275.275,0,0,0-.256.256.125.125,0,0,1,.128-.128v.128c0,.128.128.257.384,0h0c-.128.128-.256.257-.128.385h.128a.276.276,0,0,0,.257.256.447.447,0,0,1-.128-.256h.128c.128,0,.128-.257.128-.257h0c0,.129,0,.257.256.257a.275.275,0,0,0,.256-.257h0l.128.129a.126.126,0,0,0,.129-.129v.257s.256-.128.256-.257V50.5h.384v0a.4.4,0,0,0,.128.256c0-.385.257-.256.513-.385h0a.126.126,0,0,1-.128.129c.128,0,.384-.129.384-.257l.128-.128c.128,0,.257,0,.257-.128v.256a1.088,1.088,0,0,0,.64-.384c.641-.128-.384-.513.9-.513a.473.473,0,0,0,.385-.128.445.445,0,0,0,.128.641.447.447,0,0,1,.256.128h0c-.128,0-.256,0-.256.128-.257.128-.257-.384-.641-.256h-.128a.275.275,0,0,0-.256.256.447.447,0,0,1,.256-.128h0a.125.125,0,0,0,.128.128h.128c0,.128-.384,0-.256.256V50.5c0,.129.128.257.256.129a.126.126,0,0,1-.128-.129h.128v.257c0,.128.128.256.385.128a.126.126,0,0,1-.129-.128h.129v-.128h.128c0,.128.128.128.256.128.256-.128,0-.257.256-.257h.513a.77.77,0,0,0-.128-.512c-.129,0,0-.128-.129-.384a.964.964,0,0,0,.641.128c.385,0,0-.128.256-.128.257-.129.513-.129.513,0a.125.125,0,0,1,.128.128v.384c0,.128-.256,0-.384,0h-.128a.275.275,0,0,0-.257.256.447.447,0,0,1,.257-.128h0c0,.128.128.256.256.128h0c-.128.128-.256.257-.128.257h.128c0,.128,0,.256.128.256v-.128h.128c.128,0,0-.128.128-.257h0v.257h.128c0,.128.128.128.257.128a.126.126,0,0,1-.129-.128l.129-.128c0-.257-.129-.257-.129-.385s.257,0,.257-.256a.125.125,0,0,0-.128-.128h0a.125.125,0,0,0,.128-.128c-.128,0-.128-.128-.128-.257h0a.447.447,0,0,0,.128-.256c0,.128-.257.128-.257,0a.125.125,0,0,0-.128-.128c-.384.128-.512-.128-1.025-.128h0m-3.587-1.281h0m.9-.257a1.3,1.3,0,0,0,.385.128c-.128,0-.128.129-.256.129s-.129-.129-.129-.257m-.256-.128c0,.128-.128.128-.256.128-.128-.128,0-.128-.128-.256a1.289,1.289,0,0,1,.384.128m-.384.769h0l.256-.256c0-.128,0-.128-.128-.128.128,0,.128,0,.128-.129h-.128l.128-.128h.128l.256.128v.257A.125.125,0,0,0,98,47.678v.128h-.128v.256q0,.192-.384,0h0" fill="none" stroke="#fefeff" stroke-miterlimit="10" stroke-width="1"/>
          </g>
          <g id="g3247">
            <path id="path3249" d="M102.382,53.244c0-.385-.384-.513-1.537-.513s-3.716.385-3.716-.256c0-.256.513-.256,1.025-.256a.447.447,0,0,0,.256.128c1.41.384,3.2-.385,4.1-.128-1.025-.769-1.922,0-2.947-.257.64,0,.9-.128.9-.384-.512.384-1.409-.128-2.05.256a.125.125,0,0,0-.128.128c-.769,0-1.409,0-1.409.513,0,1.153,3.075.513,3.972.513s1.153.128,1.153.256c0,.256-.9.384-1.409.384a27.224,27.224,0,0,0-4.741-.128c.128-.256.384-.512.256-.769a.275.275,0,0,0,.256-.256c-.128-.128-.128-.128-.256-.128,0-.128,0-.128-.128-.256a.125.125,0,0,0-.128-.128,1.562,1.562,0,0,0-.385-.257.47.47,0,0,0-.384-.128h-.256c-.128,0-.128,0-.128.128-.129-.128-.129-.128-.257-.128,0,.128-.128.256,0,.385-.128,0-.256.384-.384.256a.125.125,0,0,0,.128.128c-.128.256-.128.384-.256.384l.128.128v.385l-.256-.128h-.129a1.767,1.767,0,0,0-.512-.385c-.256-.128-.256-.256-.256-.512s.128-.385.128-.513v-.128a.275.275,0,0,0-.256-.256.447.447,0,0,1,.128.256l-.128.128v.257h0v.128h0c0-.128-.129-.385-.257-.385h-.128c0-.128-.128-.256-.384-.128h.128v.128a.275.275,0,0,0,.256.256h0v.129h0c-.256-.129-.384,0-.384.128v.128c-.128.128-.128.256,0,.256v-.128h.256c-.128.128-.128.384,0,.384h0c0,.257-.513.257-.384,0-.257.385.128.641.512.513h0a.125.125,0,0,0,.128.128.125.125,0,0,1,.128-.128h0c0,.128,0,.128.129.256V53.5a2.388,2.388,0,0,0,.512.384c.256.129.384.257.513.129a1.324,1.324,0,0,0,.128.512h-.769c-.256.128-.769.256-.9.128,0-.128,0-.128-.128-.256A.125.125,0,0,0,92,54.269h-.128a.241.241,0,0,0-.385,0,.4.4,0,0,1,.256.128v.128c0,.128,0,.128.257.256h-.128c-.129-.128-.129-.256-.257-.128h-.128a.266.266,0,0,0-.256.385l.128-.128v.128c0,.128.128.256.513.128h0c-.129.128-.257.256-.129.384h.129c0,.256.128.385.256.385A.451.451,0,0,1,92,55.678h.128a.47.47,0,0,0,.128-.384h0c0,.128,0,.256.256.256a.276.276,0,0,0,.257-.256h0a.447.447,0,0,1,.128.256.125.125,0,0,0,.128-.128.47.47,0,0,1-.128.384c.128,0,.256-.128.256-.384a.125.125,0,0,0,.128.128h.384v.128a.126.126,0,0,1,.129-.128.4.4,0,0,0,.128.256c0-.512.256-.256.64-.512h0a.125.125,0,0,1-.128.128c.385.128.9-.384,1.025-.641h.385c1.025.129.256-.9,1.922-.64.128,0,.256-.128.384-.128-.128.256-.128.64.128.64.128,0,.256.128.385.128h0c-.128,0-.257,0-.257.129-.384.256-.384-.513-.64-.385a.125.125,0,0,0-.128.128c-.129,0-.385.128-.257.257a.446.446,0,0,1,.257-.129v.129a.125.125,0,0,0,.128.128H97.9c0,.128-.513-.128-.385.256v.128c0,.128.129.256.257.128l-.128-.128h.128v.256c0,.128.128.257.384.128a.4.4,0,0,1-.256-.128h.128V55.55h.256c0,.128.128.128.256.128.257-.128,0-.256.257-.384h.64a.772.772,0,0,0-.128-.513c-.128,0,0-.256-.128-.384a1.157,1.157,0,0,0,.641.128,1.5,1.5,0,0,0,.9-.256.571.571,0,0,1,.64,0,.126.126,0,0,1,.129.128v.384c0,.128-.257,0-.385,0s-.128,0-.128.128a.276.276,0,0,0-.256.257.447.447,0,0,1,.256-.128h0a.245.245,0,0,0,.384.128h0c-.128.128-.256.256-.128.256h.128a.446.446,0,0,0,.129.256v-.256h.128c.128,0,0-.256.128-.256h0c0,.128-.128.256,0,.384h.128c0,.128.128.128.256.128A.125.125,0,0,1,102,55.55l.128-.128c.128-.256-.128-.256-.128-.384s.256,0,.256-.257a.125.125,0,0,0-.128-.128h0c.128,0,.128,0,.256-.128-.256,0-.128-.128-.128-.256h0c.128,0,.128-.128.128-.256-.128.128-.256.256-.256,0,0,0,0-.129-.256-.129a5.309,5.309,0,0,1-1.281-.128c.64,0,1.793-.128,1.793-.512m-8.841.64h0m1.794-1.665a1.288,1.288,0,0,0,.385.128c-.257,0-.129.128-.257.128s-.128-.128-.128-.256m-.256-.128c0,.128-.128.128-.256.128-.128-.128,0-.128-.128-.257a1.283,1.283,0,0,1,.384.129m-.384.9c0-.129.128-.129,0,0,.256-.129.256-.129.256-.257s0-.128-.128-.128c.128,0,.128,0,.128-.128h-.128a.125.125,0,0,1,.128-.128h.128l.384.128a.125.125,0,0,1,.128.128v.128a.125.125,0,0,0-.128-.128v.128c-.128,0-.128-.128-.256,0v.257c0,.128-.128.256-.256.128-.385.128-.385,0-.256-.128m.9,2.05h0" fill="none" stroke="#fefeff" stroke-miterlimit="10" stroke-width="1"/>
          </g>
          <g id="g3251">
            <path id="path3253" d="M101.827,58.131c0-.384-.384-.512-1.409-.512s-4.357.384-4.357-.256c0-.385,1.153-.257,1.922-.257a.447.447,0,0,0,.256.128c1.41.385,2.819-.512,3.844-.256-.768-.769-1.793.128-2.818-.128.64,0,1.281-.128,1.281-.256-.513.256-1.794-.256-2.435.128a.125.125,0,0,0-.128.128c-1.025,0-2.306-.128-2.306.513,0,1.025,3.716.384,4.613.384s1.153.128,1.153.256c0,.256-.9.256-1.41.256-.768,0-4.356-.512-5.766,0,.128-.256.385-.64.257-.768a.275.275,0,0,0,.256-.257c-.128-.128-.128-.128-.256-.128v-.128a.126.126,0,0,0-.129-.128l-.256-.256a.4.4,0,0,0-.256-.128h-.256c-.128,0-.128,0-.128.128a.451.451,0,0,0-.257-.128c0,.128-.128.256,0,.384-.128,0-.256.384-.384.256a.125.125,0,0,0,.128.128c-.128.129-.128.385-.256.385l.128.128v.384h-.384c-.129,0-.257-.256-.641-.512-.256-.128-.256-.256-.256-.385s.128-.384.128-.512v-.128c0-.128-.257-.256-.257-.128l.129.128-.129.128v.128h0v.128h0c0-.128-.128-.384-.256-.384h-.128c0-.128-.128-.256-.256-.128h.128v.128c0,.128.128.128.256.256h0c-.256-.128-.384,0-.384.128v.128c-.128.128-.128.128,0,.257v-.129h.384c-.128.129-.128.257.128.385h0a.192.192,0,0,1-.384,0c-.256.384.128.64.512.384h0a.126.126,0,0,0,.129.128h.128c0,.128,0,.128.128.257v-.129a2.127,2.127,0,0,0,.769.641c.128,0,.256,0,.256-.128a.125.125,0,0,0,.128.128.565.565,0,0,0,.128.385h-.9a1.126,1.126,0,0,1-.9.128c0-.128,0-.128-.128-.257a.125.125,0,0,0-.128-.128h-.128a.24.24,0,0,0-.384,0,.4.4,0,0,1,.256.128v.129c0,.128,0,.128.256.256h-.128c-.128-.128-.128-.256-.256-.128h-.128c-.129,0-.385.128-.257.384l.128-.128V59.8c0,.128.129.256.385.128h0c-.128.128-.256.256-.128.385h.128c0,.128.128.384.256.256a.447.447,0,0,1-.128-.256h.128c.128,0,.128-.257.128-.257h0c0,.128,0,.257.256.257a.276.276,0,0,0,.257-.257h0a.447.447,0,0,1,.128.257l.128-.129c0,.129,0,.257-.128.257a.275.275,0,0,0,.256-.257v.129h.384v.128a.126.126,0,0,1,.129-.128.4.4,0,0,0,.128.256c0-.513.64-.256.9-.385h0a.126.126,0,0,1-.128.129.468.468,0,0,0,.384-.129h0l.512-.256V59.8h.129c.256,0,.256-.256.384-.256,1.794.256.769-.769,2.819-.513.128,0,.128,0,.256-.128-.128.256-.128.513.128.513.128,0,.257.128.385.128h0c-.128,0-.257,0-.257.128-.384.256-.384-.513-.64-.384a.125.125,0,0,0-.128.128c-.128,0-.385.128-.257.256a.451.451,0,0,1,.257-.128v.128a.125.125,0,0,0,.128.128h.128c0,.128-.384-.128-.384.256v.128c0,.129.128.257.256.129l-.128-.129H97.6v.257c0,.128.128.256.384.128a.125.125,0,0,1-.128-.128h.128V60.31h.256c0,.128.129.128.257.128.256-.128,0-.257.256-.385h.641a.765.765,0,0,0-.129-.512c-.128,0,0-.256-.128-.385a1.151,1.151,0,0,0,.641.129c.513,0,.641-.129.769-.257a.571.571,0,0,1,.64,0,.126.126,0,0,1,.129.128v.385c0,.128-.257,0-.385,0s-.128,0-.128.128a.275.275,0,0,0-.256.256.447.447,0,0,1,.256-.128h0c0,.128.256.256.256.128h0c-.128.128-.256.256-.128.256h.128a.447.447,0,0,0,.128.257v-.257h.129c.128,0,0-.256.128-.256h0v.256h.128c0,.129.128.129.256.129a.126.126,0,0,1-.128-.129l.128-.128c.128-.256-.128-.256-.128-.384s.256,0,.256-.256a.125.125,0,0,0-.128-.128h0c.128,0,.128,0,.128-.129-.256,0-.128-.128-.128-.256h0a.447.447,0,0,0,.128-.256c0,.128-.256.256-.256,0,0,0,0-.128-.256-.128a4.412,4.412,0,0,1-1.153-.128c.512.256,1.537.128,1.537-.257m-7.816-.9a1.283,1.283,0,0,0,.384.129c-.128,0-.128.128-.256.128s-.128-.128-.128-.257m-.256-.128c0,.128-.128.128-.256.128-.129-.128,0-.128-.129-.256a1.288,1.288,0,0,1,.385.128m-.385.9h0c.257-.128.257-.128.257-.256s0-.128-.128-.128c.128,0,.128,0,.128-.128H93.5l.128-.128h.128l.384.128a.125.125,0,0,1,.128.128v.128a.125.125,0,0,0-.128-.128v.128h-.256V58c0,.128-.128.128-.256.128-.257,0-.257-.128-.257-.128" fill="none" stroke="#fefeff" stroke-miterlimit="10" stroke-width="1"/>
          </g>
          <g id="g3255">
            <path id="path3257" d="M117.158,66.333h0c.128-.128.128-.128.128-.385-.128.129-.256.257-.256,0,0,0,0-.128-.257-.128a5.314,5.314,0,0,1-1.281-.128h0c.641,0,1.794-.128,1.794-.512s-.384-.513-1.41-.513-4.356.384-4.356-.256c0-.385,1.153-.256,1.922-.256a.447.447,0,0,0,.256.128c1.41.384,2.947-.641,3.844-.385-1.025-.384-1.794.257-2.819,0,.641,0,1.282-.128,1.282-.256-.513.256-1.794-.256-2.435.128a.125.125,0,0,0-.128.128c-1.025,0-2.306-.128-2.306.513,0,1.025,3.715.384,4.612.384s1.154.128,1.154.256c0,.257-.9.385-1.41.385-.9,0-4.356-.513-5.766,0,.128-.256.385-.641.256-.769a.275.275,0,0,0,.257-.256c-.128-.128-.128-.128-.257-.128v-.128a.126.126,0,0,0-.128-.129l-.256-.256a.4.4,0,0,0-.256-.128h-.128c-.129,0-.129,0-.129.128-.128,0-.128-.128-.256-.128,0,.128-.128.256,0,.384-.128,0-.256.385-.384.257a.125.125,0,0,0,.128.128c-.128.128-.128.384-.256.384l.128.128v.257h-.385c-.128,0-.256-.257-.64-.513-.257-.128-.257-.256-.257-.384s.129-.385.129-.513v-.128c0-.128-.129-.256-.257-.128l.128.128-.128.128V63.9h0v.128h0c0-.128-.128-.256-.256-.384h-.128c0-.128-.128-.256-.256-.128h.128v.128a.275.275,0,0,0,.256.256h0c-.256-.128-.384,0-.384.128v.129c-.128,0-.128.128,0,.256v-.128h.384c-.128.128-.128.384.128.384h0a.192.192,0,1,1-.384,0c-.256.384.128.641.512.384h0a.126.126,0,0,0,.128.129h.129c0,.128,0,.128.128.256v-.128a2.615,2.615,0,0,0,.64.64.451.451,0,0,1,.257-.128c0,.128.128.128.128.257h.128c0,.256.256.384.128.384h-.641a1.126,1.126,0,0,1-.9.128c0-.128,0-.128-.128-.256a.125.125,0,0,0-.128-.128h-.128a.24.24,0,0,0-.384,0,.125.125,0,0,1,.128.128v.128c0,.128,0,.128.256.256h-.128c-.128-.128-.128-.256-.256-.128h-.128c-.129,0-.385.128-.257.384l.128-.128v.128c0,.129.129.257.385.129h0c-.128.128-.256.256-.128.384h.128a.275.275,0,0,0,.256.256.447.447,0,0,1-.128-.256h.128c.128,0,.128-.256.128-.256h0c0,.128,0,.256.256.256a.275.275,0,0,0,.257-.256h0a.447.447,0,0,1,.128.256l.128-.128a.47.47,0,0,1-.128.384c.128,0,.256-.128.256-.384a.125.125,0,0,0,.128.128h.385v.128a.125.125,0,0,1,.128-.128.4.4,0,0,0,.128.256c0-.512.256-.256.641-.512h0a.126.126,0,0,1-.129.128c.129.128.513-.128.513-.385a.4.4,0,0,0,.256-.128c.257,0,.257-.256.385-.256,1.793.256.768-.769,2.819-.512.128,0,.128-.129.256-.257-.128.257-.128.641.128.641.128,0,.256.128.384.128h0c-.128,0-.256,0-.256.128-.256.256-.384-.512-.641-.384a.125.125,0,0,0-.128.128.275.275,0,0,0-.256.256.447.447,0,0,1,.256-.128v.128a.125.125,0,0,0,.128.128h.129c0,.128-.385-.128-.385.257a.125.125,0,0,0,.128.128c0,.128.128.256.257.128l-.129-.128h.129v.256c0,.128.128.256.384.128a.125.125,0,0,1-.128-.128h.128v-.128h.128c0,.128.128.128.256.128.257-.128,0-.256.257-.256h.64a.772.772,0,0,0-.128-.513c-.128,0,0-.256-.128-.384a1.156,1.156,0,0,0,.641.128,1.5,1.5,0,0,0,.9-.256.568.568,0,0,1,.64,0,.125.125,0,0,1,.128.128c-.128.256,0,.256,0,.384s-.256,0-.384,0-.128,0-.128.128A.275.275,0,0,0,116,67.1a.446.446,0,0,1,.256-.129h0c0,.129.128.257.256.129h0c-.128.128-.256.256-.128.256h.128c0,.128,0,.256.128.256v-.256h.128c.128,0,.128-.256.257-.256h0c0,.128-.129.256,0,.256h.128c0,.128.128.128.256.128a.125.125,0,0,1-.128-.128l.128-.128c.128-.257-.128-.257-.128-.385s.256,0,.256-.256a.125.125,0,0,0-.128-.128h0c.128,0,.128,0,.256-.128-.64.384-.512.128-.512,0m-7.816-1.922a1.289,1.289,0,0,0,.384.128l-.128.128a.275.275,0,0,1-.256-.256m-.257-.128c0,.128-.128.128-.256.128-.128-.128,0-.128-.128-.256a1.289,1.289,0,0,1,.384.128m-.384.9c0-.129.128-.129,0,0,.256-.129.256-.129.256-.257s0-.128-.128-.128c.128,0,.128,0,.128-.128h-.128v-.128h.128l.385.128v.256a.125.125,0,0,0-.128-.128v.128c-.129,0-.129-.128-.257,0v.257c0,.128-.128.128-.256,0h0m-.256-.513Zm.128-.384h0m1.538,2.434h0" fill="none" stroke="#fefeff" stroke-miterlimit="10" stroke-width="1"/>
          </g>
          <g id="g3259">
            <path id="path3261" d="M112.311,69.048c0,.128.128.128.257.128,1.281.385,2.818-.641,3.587-.384-1.025-.385-1.665.256-2.69,0a2.366,2.366,0,0,0,1.281-.257c-.513.257-1.666-.128-2.307.129h-.128c-.768,0-1.281,0-1.281.512,0,1.025,2.691.385,3.588.385s.769.128.769.256c0,.256-1.026.256-1.41.256a22.826,22.826,0,0,0-4.356-.128c.128-.256.384-.513.256-.641a.275.275,0,0,0,.256-.256c-.128-.128-.128-.128-.256-.128v-.128a.125.125,0,0,0-.128-.128l-.257-.257a.4.4,0,0,0-.256-.128h-.128c-.128,0-.128,0-.128.128a.447.447,0,0,0-.256-.128c0,.128-.128.256,0,.385-.128,0-.257.256-.385.256a.125.125,0,0,0,.128.128c-.128.128-.128.384-.256.384l.128.129a.47.47,0,0,1-.128.384h-.128a.972.972,0,0,1-.513-.128c-.256-.128-.256-.256-.256-.385s.128-.384.128-.512v-.128c0-.128-.128-.257-.256-.128l.128.128-.128.128v.128h0v.128h0a.275.275,0,0,0-.256-.256H106.8c0-.128-.128-.256-.257-.128h.129v.128c0,.128.128.128.256.128h0c-.256-.128-.385,0-.385.128V69.3c-.128,0-.128.128,0,.257v-.129h.257c-.128.129-.128.257.128.385h0a.193.193,0,0,1-.385,0c-.256.384.129.64.513.384h0a.125.125,0,0,0,.128.128h0c0,.128,0,.128.128.128v-.128s0-.128.385.128a.126.126,0,0,0,.128.129h.256V71.1h-.641c-.128.128-.64.256-.768.128,0-.128,0-.128-.129-.256a.125.125,0,0,0-.128-.128h-.128a.24.24,0,0,0-.384,0,.125.125,0,0,1,.128.128V71.1s0,.128.256.256h-.128c-.128-.128-.128-.256-.256-.128h-.128c-.129,0-.385.128-.257.256a.125.125,0,0,1,.128-.128v.128c0,.129.129.257.385,0h0c-.128.129-.256.257-.128.385h.128a.275.275,0,0,0,.256.256.447.447,0,0,1-.128-.256h.128c.128,0,.128-.256.128-.256h0c0,.128,0,.256.257.256a.275.275,0,0,0,.256-.256h0a.447.447,0,0,1,.128.256l.128-.128c0,.128,0,.256-.128.256a.275.275,0,0,0,.256-.256.125.125,0,0,0,.128.128h.385V72a.125.125,0,0,1,.128-.128.4.4,0,0,0,.128.256c0-.512.384-.384.641-.512h0a.126.126,0,0,1-.129.128c.257.128.641-.257.769-.513l.128-.128v.128c.257,0,.257-.256.385-.256.9.128.256-.769,1.666-.513.128,0,.256-.128.384-.128-.128.128-.128.641.128.641.128,0,.256.128.384.128h0c-.128,0-.256,0-.256.128-.256.256-.256-.512-.64-.384h-.129a.275.275,0,0,0-.256.256.447.447,0,0,1,.256-.128V71.1a.126.126,0,0,0,.129.128h.128c0,.128-.385-.128-.385.256v.129c0,.128.128.256.257.128l-.129-.128h.129v.256c0,.128.128.256.384.128a.125.125,0,0,1-.128-.128h.128v-.128h.128c0,.128.128.128.256.128.257-.128,0-.256.257-.256h.64a.771.771,0,0,0-.128-.513c-.128,0,0-.128-.128-.384a.961.961,0,0,0,.641.128,1.651,1.651,0,0,0,.9-.128.571.571,0,0,1,.64,0s.128,0,0,.128c-.128.256,0,.256-.128.384s-.256,0-.384,0h-.128a.275.275,0,0,0-.257.256.447.447,0,0,1,.257-.128h0c0,.128.128.257.256.128h0c-.128.129-.385.257-.256.257h.128c0,.128,0,.256.128.256a.4.4,0,0,1,.128-.256H115c.128,0,.128-.257.256-.257h0c-.128.129-.128.257,0,.257h.128c0,.128.129.128.257.128a.125.125,0,0,1-.128-.128l.128-.128c.128-.257-.128-.257,0-.385,0-.128.256,0,.384-.256a.125.125,0,0,0-.128-.128h0c.128,0,.128,0,.256-.128-.128,0-.128-.128-.128-.257h0c.128,0,.128-.128.128-.256-.128.128-.256.128-.256,0a.125.125,0,0,0-.128-.128,5.309,5.309,0,0,1-1.281-.128h0c.64,0,1.793-.128,1.793-.513,0-.256,0-.512-1.025-.512s-3.331.384-3.331-.256c-.641.384-.128.384.384.384m-3.331,0c0,.128-.128.128-.256.128-.129-.128,0-.128-.129-.256.129,0,.257.128.385.128m.256.641c-.128,0-.128-.128,0,0-.256-.128-.128-.128,0,0h-.256v.256a.447.447,0,0,1-.256.128c-.129,0-.129-.128-.129-.256a.126.126,0,0,1,.129-.128c.128,0,.128,0,.128-.128s0-.129-.128-.129c.128,0,.128,0,.128-.128h-.128v-.128h.128l.384.128v.385h0m.128-.257c-.128,0-.128-.128-.128-.256a1.288,1.288,0,0,0,.385.128c-.129,0-.129.128-.257.128" fill="none" stroke="#fefeff" stroke-miterlimit="10" stroke-width="1"/>
          </g>
          <g id="g3263">
            <path id="path3265" d="M111.174,73.868c0,.128.129.128.257.128,1.281.385,2.819-.64,3.587-.384-1.025-.385-1.665.256-2.69,0a2.379,2.379,0,0,0,1.281-.256c-.513.256-1.666-.257-2.306.128a.126.126,0,0,0-.129.128c-.384.128-.768.256-.768.64,0,.9,3.331.129,3.331.513,0,.256-.641.513-1.538.513a12.3,12.3,0,0,0-3.331-.129h0c.128-.256.384-.64.256-.768a.276.276,0,0,0,.257-.257c-.129-.128-.129-.128-.257-.128v-.128A.125.125,0,0,0,109,73.74a.447.447,0,0,0-.256-.128c-.128-.128-.256,0-.256-.128h-.128a.126.126,0,0,0-.129.128.447.447,0,0,0-.256-.128c0,.128-.128.256,0,.384-.128,0-.256.256-.384.256a.126.126,0,0,0,.128.129c-.128.128-.128.384-.256.384l.128.128c0,.256-.128.641,0,.769-.257-.256-.513-.641-.769-.769s-.256-.256-.256-.384.128-.257.128-.513V73.74c0-.128-.128-.128-.256-.128l.128.128-.128.128V74h0v.128h0a.276.276,0,0,0-.257-.256h-.128c0-.128-.128-.256-.256-.128h.128v.128c0,.128.128.128.256.128h0c-.256-.128-.256,0-.384.128v.129c-.128,0-.128.128,0,.256v-.128h.256c-.128.128-.128.256.128.256h0a.192.192,0,0,1-.384,0c-.256.256.128.512.384.384h0a.125.125,0,0,0,.128.128h0c0,.129,0,.129.129.129v-.129a.828.828,0,0,0,.384.641c.128.256.256.384.512.384a.4.4,0,0,1,.129.257h-.641c-.128,0-.256.128-.384.128h0a.471.471,0,0,1-.385-.128.4.4,0,0,0-.128-.257.125.125,0,0,0-.128-.128h-.128c-.128-.128-.257-.128-.257,0a.126.126,0,0,1,.129.128V76.3s0,.128.256.256h-.128c-.128-.128-.128-.256-.257-.128h-.128a.275.275,0,0,0-.256.256.125.125,0,0,1,.128-.128v.128c0,.128.128.256.385,0h0c-.129.128-.257.256-.129.384h0a.276.276,0,0,0,.257.257.447.447,0,0,1-.128-.257h.128c.128,0,.128-.256.128-.256h0c0,.128,0,.256.256.256a.275.275,0,0,0,.256-.256h0l.129.128a.125.125,0,0,0,.128-.128c0,.128,0,.128-.128.256,0,0,.256-.128.256-.256v.128h.384v.128a.125.125,0,0,1,.128-.128.4.4,0,0,0,.128.257c0-.385.257-.257.513-.385h0a.125.125,0,0,1-.128.128c.128,0,.384-.128.384-.256a1.12,1.12,0,0,0,.257-.769h.128c.384,0,.512-.256.9-.256a.765.765,0,0,0-.129.512c0,.129.257.385.385.513h0c-.128,0-.256,0-.256.128-.257.128-.257-.384-.641-.256l-.128.128a.275.275,0,0,0-.256.256.447.447,0,0,1,.256-.128h0a.125.125,0,0,0,.128.128h.128c0,.128-.384-.128-.256.257v.128c0,.128.128.256.256.128l-.128-.128h.128v.256c0,.128.128.256.384.128a.125.125,0,0,1-.128-.128h.128v-.128h.129a.447.447,0,0,0,.256.128c.256-.128,0-.256.256-.256h.128c.128,0,.256.128.385,0a.768.768,0,0,0-.129-.513c-.128,0,.129-.641-.384-1.025.256,0,1.025.128,1.153,0a.894.894,0,0,1,.513.256v.128c-.256.129-.128.129-.256.257h0l-.257-.257h-.128c-.128,0-.256,0-.256.129h.256v.128h0c-.128,0-.384,0-.256.128v.128c-.128,0-.128.128,0,.256a.125.125,0,0,1,.128-.128v.128a.447.447,0,0,1,.256-.128h0c-.128,0-.256.128-.128.256V77.2c0,.128,0,.256.128.256v-.128h.128c.257-.128.129-.257.129-.385.128-.128.128.128.384,0v-.128h0s.128.128.128,0c-.128-.128,0-.128.128-.256h0a.4.4,0,0,0,.256-.128c-.128,0-.384-.128-.256-.128.256-.129.256-.257.128-.385-.128-.256-.512-.256-.512-.512h.384c1.153,0,1.922-.257,1.794-.641,0-.769-3.459,0-3.459-.513.512-.256.64-.384.9-.384m-2.434,0a1.289,1.289,0,0,0,.384.128c-.128,0-.128.128-.256.128s-.128-.128-.128-.256m-.256,0c0,.128-.129.128-.257.128-.128-.128,0-.128-.128-.256.128,0,.385,0,.385.128m-.257.769h0a.4.4,0,0,1,.257-.128c0-.128,0-.128-.129-.128.129,0,.129,0,.129-.128h-.129v-.129h.129l.256.129v.256a.125.125,0,0,0-.128-.128v.128h-.128v.256c0,.128-.129.128-.257.128-.128-.128-.128-.256,0-.256" fill="none" stroke="#fefeff" stroke-miterlimit="10" stroke-width="1"/>
          </g>
          <g id="g3267">
            <path id="path3269" d="M56.26,14.708a.768.768,0,1,0-1.537,0,.768.768,0,1,0,1.537,0" fill="none" stroke="#fefeff" stroke-miterlimit="10" stroke-width="1"/>
          </g>
          <g id="g3271">
            <path id="path3273" d="M55.906,12.422a.768.768,0,1,0-1.537,0,.827.827,0,0,0,.769.769c.512.128.768-.257.768-.769" fill="none" stroke="#fefeff" stroke-miterlimit="10" stroke-width="1"/>
          </g>
          <g id="g3275">
            <path id="path3277" d="M56.45,11.449a.738.738,0,0,0,.769-.769.828.828,0,0,0-.769-.769.769.769,0,1,0,0,1.538" fill="none" stroke="#fefeff" stroke-miterlimit="10" stroke-width="1"/>
          </g>
          <g id="g3279">
            <path id="path3281" d="M58.608,11.4a.769.769,0,1,0-.769-.768.826.826,0,0,0,.769.768" fill="none" stroke="#fefeff" stroke-miterlimit="10" stroke-width="1"/>
          </g>
          <g id="g3283">
            <path id="path3285" d="M67.952,9.855a.957.957,0,0,0,1.153,0,.962.962,0,0,0,0-1.153.717.717,0,0,0-1.153,0,.954.954,0,0,0,0,1.153" fill="none" stroke="#fefeff" stroke-miterlimit="10" stroke-width="1"/>
          </g>
          <g id="g3287">
            <path id="path3289" d="M67.76,8.1a.72.72,0,0,0,0-1.153c-.384-.257-.9-.385-1.153,0-.384.256-.256.9,0,1.153a.957.957,0,0,0,1.153,0" fill="none" stroke="#fefeff" stroke-miterlimit="10" stroke-width="1"/>
          </g>
          <g id="g3291">
            <path id="path3293" d="M65.606,7.725a.962.962,0,0,0,0-1.153.717.717,0,0,0-1.153,0,.957.957,0,0,0,0,1.153.719.719,0,0,0,1.153,0" fill="none" stroke="#fefeff" stroke-miterlimit="10" stroke-width="1"/>
          </g>
          <g id="g3295">
            <path id="path3297" d="M63.689,9.094a.961.961,0,0,0,0-1.153.958.958,0,0,0-1.154,0,.957.957,0,0,0,0,1.153.72.72,0,0,0,1.154,0" fill="none" stroke="#fefeff" stroke-miterlimit="10" stroke-width="1"/>
          </g>
          <g id="g3299">
            <path id="path3301" d="M58.437,7.939l.64,1.409.769-1.025h.128a8.469,8.469,0,0,1,.128,1.794,1.011,1.011,0,0,0,1.025,1.025,1.1,1.1,0,0,0,1.026-1.025,1.079,1.079,0,0,0-.513-.9,9.325,9.325,0,0,1-1.153-1.025V8.067l1.409.128-.512-1.538-1.025.9h0l-.128-1.537-1.41.512.9,1.153V7.81Z" fill="none" stroke="#fefeff" stroke-miterlimit="10" stroke-width="1"/>
          </g>
          <g id="g3303">
            <path id="path3305" d="M67.97,10.607a8.138,8.138,0,0,1,.512,1.153,4.09,4.09,0,0,1-.9-.769l.128,1.922a1.517,1.517,0,0,1,.641-.64c-.128,1.281-.512,1.794-1.025,1.794a.883.883,0,0,1-1.025-.641c-.128-.513.384-.9.9-.384.128-1.154-.9-1.154-1.281-.641a1.694,1.694,0,0,0-.641-2.435c-.641,1.025-.384,1.666.384,2.563-.768-.384-1.409.256-.768,1.153.128-.769.768-.512.9,0s-.384,1.153-1.153,1.41c-1.153.384-1.537-.385-1.794-1.025a1.594,1.594,0,0,1,1.538.384l-.513-1.922a2.034,2.034,0,0,1-1.153,1.153,8.073,8.073,0,0,1,.385-1.666l-2.307.9a7.507,7.507,0,0,1,1.41.9,2.113,2.113,0,0,1-1.538,0l.9,1.794c.128-.769.513-1.281.9-1.281a1.379,1.379,0,0,1-.641,2.05,1.456,1.456,0,0,1-1.794-.128c-.256-.513,0-1.153.641-.641-.128-1.025-1.025-1.025-1.281-.256,0-1.153-.256-1.794-1.41-2.05a1.636,1.636,0,0,0,1.154,2.178c-.641-.128-1.282.513-.385,1.281,0-.64.641-.768.9-.256a.835.835,0,0,1-.256,1.153c-.385.257-1.025.257-2.05-.64a1.361,1.361,0,0,1,1.025,0l-1.153-1.538a1.6,1.6,0,0,1-.129,1.153,1.934,1.934,0,0,1-.512-1.153l-.9.769a9.76,9.76,0,0,1,3.075,3.075c1.281-.769,3.588-1.922,5-2.563a26.219,26.219,0,0,1,5.382-1.665,11.443,11.443,0,0,1,.128-4.357Z" fill="none" stroke="#fefeff" stroke-miterlimit="10" stroke-width="1"/>
          </g>
          <g id="g3307">
            <path id="path3309" d="M86.053,62.831c.384-.9-1.281-1.922-1.538-3.075s0-2.435-1.537-4.1c-1.41-1.666-6.279-6.919-7.816-8.585a2.406,2.406,0,0,1,2.178.641c.512.512,1.537,1.537,2.563,2.434a27.567,27.567,0,0,1,5.253-8.457c.256-.384.641-.64.9-1.025a11.523,11.523,0,0,0-2.947,1.025c0-1.409,0-2.562-.9-3.587.384-2.05,0-4.485-4.485-7.432,2.307.512,3.716,2.691,5.51,1.025-1.538,0-1.666-3.46-7.432-6.407,2.179,0,3.844,3.46,6.407,1.538-2.435-.256-3.2-4.485-7.56-5.894,1.538.128,3.075.9,4.357-.9-1.538.384-2.435-1.025-3.972-1.153a5.071,5.071,0,0,0-.129-4.357,5.031,5.031,0,0,0-3.075,1.153c-.128-1.025-1.153-1.025-2.178-1.025,0,.385.256,1.025-.256,1.154a43.88,43.88,0,0,0-5.382,1.665,25.477,25.477,0,0,0-4.869,2.691c-.384.256-.769-.384-1.025-.641-.641.641-1.409,1.41-.9,2.179a6.515,6.515,0,0,0-3.331,1.153,3.742,3.742,0,0,0,2.69,3.2c-2.69,2.691-.256,5.125-2.562,7.432,3.331.128,2.691-4.485,4.356-5.125-.128,3.2-1.922,3.844-1.922,7.3,0,1.922,1.154,3.844.128,5.125,2.819-.768,2.051-6.919,3.716-8.713a5.091,5.091,0,0,1-.256,3.076c-1.025,2.818.128,6.791-1.409,7.944,2.819-.256,3.2-4.741,5.509-6.407-2.05,4.1-3.972,12.685-7.047,17.042-4.741,6.535-7.688,14.351-12.044,14.351a3.264,3.264,0,0,1-3.46-3.588c0-7.3,12.685-12.429,12.685-20.245a4.7,4.7,0,0,0-4.613-4.869,7,7,0,0,0-3.844,1.538,3.4,3.4,0,0,0-1.537-.385c-4.485,0-3.332,8.072-7.176,7.944,1.538.9,4.229-.768,5.766-3.075-.64,5.254-8.2,3.844-7.559,10.123,1.025-4.869,12.941-4.229,12.941-11.66a2.494,2.494,0,0,0-1.025-2.051,5.315,5.315,0,0,1,2.562-.768c1.41,0,2.691,1.025,2.691,3.2,0,6.535-12.557,12.173-12.557,20.245a5.17,5.17,0,0,0,1.025,3.331,2.058,2.058,0,0,1-2.562-.64c-.128,2.05,2.947,3.331,4.741,2.306a4.555,4.555,0,0,0,1.281.256c-.513,1.538-2.435,2.05-3.46,1.922,3.076,2.435,8.457-.769,8.2-3.459,2.434-1.922,3.972-5.382,5.766-7.56a6.433,6.433,0,0,0-.256,1.537c-1.794,3.332-3.46,6.151-3.973,10.507-.384,3.588-2.178,6.919-4.74,6.919-.513,0-1.41-.768-1.922-.384-.769.641,0,1.41,0,2.05,0,1.025-1.922,2.05-1.922,5.254,0,1.409.768,3.075.512,4.1a5.661,5.661,0,0,0,2.306-3.46c.9,4.229-1.793,3.972.129,7.688.256-1.281,1.409-1.794,2.178-1.281s.384.9-.128,1.409-1.025,3.332,1.409,3.2c-.512-.257-.512-1.025.769-1.282,1.794-.384,2.306.513,4.1.513,1.153,0,1.41-1.538,2.435-1.538.9,0,.9.769.64,1.282,1.41-.385,1.794-1.154,1.794-2.051,0-.768-.64-1.281-.128-1.665.513-.256,2.178,0,1.538,1.409.9-.128,1.409-.769,1.409-1.922,0-1.025-1.281-1.665-2.306-1.537a2.183,2.183,0,0,0-2.05-1.025c-2.05,0-1.794,1.665-3.2,1.665-2.306,0-4.484-2.947-4.484-7.944,0-2.691,2.819-3.331,4.869-4.228A17.747,17.747,0,0,0,61.58,73.21c1.665-2.819,1.665-5.894,1.537-9.482a6.053,6.053,0,0,1,3.2,5.638,3.406,3.406,0,0,1-2.051,3.459c-.768.385-1.025.257-1.153.641a.882.882,0,0,0,.641,1.025c1.025.513.769,1.538,1.153,2.563a8.8,8.8,0,0,0,2.819,3.972,11.932,11.932,0,0,0,0-3.075c2.178,1.025.384,5.509,4.741,5.509a1.151,1.151,0,0,1-.128-1.793c.384-.257,1.025.256,1.794,1.409S74.777,84.1,76.7,84.1c2.05,0,1.153-.641,2.179-.641s1.025,1.282.384,2.179a2.274,2.274,0,0,0,1.666-3.332c1.537-.9,2.434.385,2.69,1.282,1.538-1.538,0-3.46-1.281-3.588a1.482,1.482,0,0,0-1.153-1.281,10.86,10.86,0,0,0-2.05,0c-.769,0-1.153,1.153-2.05,1.153-2.691,0-7.945-4.869-7.945-6.919s5-3.332,5-6.535c0-4.229-4.1-5.638-7.688-8.329,1.281-1.409,4.869-1.794,6.919-.769.256-1.153,1.025-.9,1.281-2.947.769,1.794,0,3.332.769,4.1.641-.9,2.05-.769,2.05-2.947.513,1.409-.641,3.459.513,4.484.128-1.153.9-1.409,1.281-1.409s.769.256.769,1.025c0,1.666-2.05.9-2.05,2.819,0,.769,1.025,1.025,1.025,1.537a1.092,1.092,0,0,1-1.794.641,2.223,2.223,0,0,0,1.922,1.409,2.815,2.815,0,0,0,2.306-1.665c.513,1.153.128,2.562-.769,2.69.9.513,3.076,0,2.819-2.818,1.282.256,1.922,1.025,1.154,2.562,1.025-.256,1.921-.769,1.921-1.794,0-.768-.9-1.025-.512-2.178M62.22,24.776c-1.153.128-1.153-1.025-3.2-1.538a31.465,31.465,0,0,0,4.869-1.665c.384,1.409-.256,3.075-1.666,3.2m8.2,8.585a2.238,2.238,0,0,1-2.947-1.538c-.257-.9-.513-1.666-.128-1.922.64-.64.9-1.153.512-1.922-.384-.9-1.409-.512-2.434-.256.512-.9.512-1.538-.129-1.41-.768.129-.768,1.41-1.281,1.154-.384-.128-.128-.9-.128-1.282,0-.512.384-.768.9-1.025L69.011,23.5a.971.971,0,0,1,1.282.128c.256.256,1.025.64.768,1.025s-1.153-.513-1.793,0c-.513.384-.129.769.9,1.153-.9.512-1.922.9-1.537,1.922.256.769.769,1.025,1.666,1.025.512,0,.768.641,1.281,1.538a2.353,2.353,0,0,1-1.153,3.075m.256-11.917c-1.153.9-2.691.129-3.331-1.153a30.9,30.9,0,0,0,4.612-2.178c-1.153,1.794-.384,2.563-1.281,3.331" fill="none" stroke="#fefeff" stroke-miterlimit="10" stroke-width="1"/>
          </g>
          <g id="g3311">
            <path id="path3313" d="M166.594,83.217a3.588,3.588,0,0,0,7.176,0,3.588,3.588,0,1,0-7.176,0m.9,0a2.691,2.691,0,1,1,5.382,0,2.634,2.634,0,0,1-2.819,2.562,2.571,2.571,0,0,1-2.563-2.562" fill="none" stroke="#fefeff" stroke-miterlimit="10" stroke-width="1"/>
          </g>
          <g id="g3315">
            <path id="path3317" d="M153.356,86.384a2.174,2.174,0,0,0-.9,1.282,2.3,2.3,0,0,0,.513,1.793,2.683,2.683,0,0,0,1.794.9,3.656,3.656,0,0,0,2.05-.256,2.284,2.284,0,0,0,1.153-1.538c.256-1.281-.769-2.434-2.306-2.69a4.116,4.116,0,0,0-2.307.512m1.538,3.2a1.568,1.568,0,0,1-1.538-1.666,1.176,1.176,0,0,1,.513-.769,2.1,2.1,0,0,1,1.537-.256,1.783,1.783,0,0,1,1.666,1.537v.128a1.768,1.768,0,0,1-2.178,1.026" fill="none" stroke="#fefeff" stroke-miterlimit="10" stroke-width="1"/>
          </g>
          <g id="g3319">
            <path id="path3321" d="M133.735,36.695a2.388,2.388,0,0,0-.769,3.2h0a2.513,2.513,0,0,0,3.332.128,2.4,2.4,0,0,0,1.025-1.794,1.831,1.831,0,0,0-.385-1.409,1.574,1.574,0,0,0-1.281-.641,1.968,1.968,0,0,0-1.922.513m-.128,2.05a1.771,1.771,0,0,1,.769-1.41,1.684,1.684,0,0,1,1.281-.384.705.705,0,0,1,.641.384.849.849,0,0,1,.128.769,1.7,1.7,0,0,1-.769,1.153,1.549,1.549,0,0,1-2.05,0v-.512" fill="none" stroke="#fefeff" stroke-miterlimit="10" stroke-width="1"/>
          </g>
          <g id="g3323">
            <path id="path3325" d="M149.113,80.525a3.092,3.092,0,0,0-.9,2.178v.128a2.911,2.911,0,0,0,.769,2.05,1.87,1.87,0,0,0,2.819,0,3.088,3.088,0,0,0,.9-2.178,3.144,3.144,0,0,0-.641-1.922,2.191,2.191,0,0,0-1.665-.9,2.038,2.038,0,0,0-1.282.641m1.41,4.1h0a1.094,1.094,0,0,1-.769-.384,2.045,2.045,0,0,1-.512-1.538,2.124,2.124,0,0,1,.64-1.538,1.463,1.463,0,0,1,.769-.384,1.587,1.587,0,0,1,1.281,1.922,2.124,2.124,0,0,1-.64,1.538,1.1,1.1,0,0,1-.769.384m0,.9Z" fill="none" stroke="#fefeff" stroke-miterlimit="10" stroke-width="1"/>
          </g>
          <g id="g3327">
            <path id="path3329" d="M131.775,51.891a1.563,1.563,0,0,0-1.153,1.025,2.51,2.51,0,0,0,1.537,3.2,2.9,2.9,0,0,0,2.307.129,1.567,1.567,0,0,0,1.153-1.025,1.636,1.636,0,0,0,0-1.538,3.212,3.212,0,0,0-1.538-1.666,2.925,2.925,0,0,0-2.306-.128m.64,3.46c-.9-.385-1.409-1.41-1.025-2.05a.773.773,0,0,1,.641-.513,2.146,2.146,0,0,1,1.538.128,2.516,2.516,0,0,1,1.153,1.153,1.085,1.085,0,0,1,0,.9.773.773,0,0,1-.641.513,2.553,2.553,0,0,1-1.666-.128" fill="none" stroke="#fefeff" stroke-miterlimit="10" stroke-width="1"/>
          </g>
          <g id="g3331">
            <path id="path3333" d="M169.121,48.21c1.153,3.2,3.46,4.357,5.254,3.46-3.972-.513-.769-7.176-5.766-7.176a1.625,1.625,0,0,0-.769.128,4.168,4.168,0,0,0-3.332-1.281,6.18,6.18,0,0,0-5.765,6.279c0,9.1,10.635,9.994,10.635,18.066a3.774,3.774,0,0,1-3.844,3.844c-1.794,0-3.2-2.05-4.741-5.125a44.513,44.513,0,0,0-3.844-5.638,2.464,2.464,0,0,0,1.537.513,2.241,2.241,0,0,0,1.538-.513,2.059,2.059,0,0,0,.641-1.409v-.129a2.733,2.733,0,0,0-.9-2.05,2.893,2.893,0,0,0-2.051-1.025,2.233,2.233,0,0,0-1.537.513,2.055,2.055,0,0,0-.641,1.409V58.2a2.181,2.181,0,0,0,.128.9c-2.306-2.947-4.356-5.894-4.356-7.56,0-1.409,1.025-2.69,2.178-4.1l.384.257.257-.385c.384-.512,1.281-1.409,3.2-3.459l.128-.129h0l.385-.512-1.154-.9a23.919,23.919,0,0,0,.769-2.306c.385,1.409,1.153,2.434,2.178,2.05-.64-1.538.641-3.588-.256-7.3.9,1.41,2.178,2.178,3.075,1.922-2.306-2.05.641-5-2.306-9.482a1.84,1.84,0,0,0,2.178-.384c-2.819-.384-1.537-3.972-6.406-5.253,1.281-.257,1.922-.9,1.793-1.538-1.281.9-2.434-1.794-6.662-1.666a6.386,6.386,0,0,0-3.46-4.1,7.1,7.1,0,0,1-.256,3.331L133.5,4q-.576-.576-.768-.384c-.128.128-.128.384.128.641l11.916,14.991a23.125,23.125,0,0,0-2.691,1.025,1.546,1.546,0,0,0-1.025,1.538,29.63,29.63,0,0,0-5.125,3.331c-.769.641-1.281.769-.641,2.307.257.512-.512,1.922,1.153.9,1.154-.641,3.716-2.051,4.1-1.154.256.513-1.025,1.025-1.922,1.41s-1.794,1.025-1.666,1.409.769,0,.9.385a.83.83,0,0,0,.641.768c.384,0,.768-.768,1.025-.512s-.128,1.922-.385,2.306a2.708,2.708,0,0,0,2.307-2.434c0-1.025.256-1.281.512-1.41s.513,1.025.128,1.794c.769-.128,1.41-1.153,1.41-2.819a2.523,2.523,0,0,1,1.025-.512c.512,0,1.409,1.281,2.691,1.281a4.03,4.03,0,0,0,3.844-2.819,2.412,2.412,0,0,0-.385-1.922,3.175,3.175,0,0,1,1.153,2.563c0,3.331-5.894,4.869-8.328,7.175l-.257.257L140.42,33.09l-.129.641a2.028,2.028,0,0,1-.128.513c-.256.9-.9,2.947-1.281,4.1l-.128.512.256.129a14.512,14.512,0,0,0-3.2,7.175,13.73,13.73,0,0,0-2.05-1.794,1.626,1.626,0,0,0,.128-.769,2.516,2.516,0,0,0-.641-1.922,1.779,1.779,0,0,0-1.281-.64,2.137,2.137,0,0,0-1.41.512l-.256.256c-.128-.128-.256-.128-.256-.256a25.12,25.12,0,0,1-2.691-2.306,1.248,1.248,0,0,0-1.153-.513h-1.281c-.385,0-.641.257-1.154.769-.256.256-.9.641-1.537,1.281L123.25,41.8c.128.257.384.385.512.641.129-.128.385-.256.513-.384a1.511,1.511,0,0,1,2.178.512,60.538,60.538,0,0,0,4.357,5.382c-.257.128-.385.128-.641.256a9.79,9.79,0,0,1-3.331.256c-.769-.128-.9-.256-1.538.641a7.114,7.114,0,0,1-.769,1.025c-.256.384-.512.641.128,1.666.769,1.409,2.819,5,3.588,6.663.641,1.665,1.41,1.922,2.819,2.434a21.558,21.558,0,0,1,3.716,2.05l.128-1.281a7.68,7.68,0,0,0-2.05-1.025c-.513-.128-.641-.384,0-.384a12.539,12.539,0,0,1,3.2,1.025,10.715,10.715,0,0,0-2.178-3.332,3.47,3.47,0,0,0-2.307,0c0,.256-.128.641-.512.641s-.641-.256-.513-.641.641-.512.513-1.153c-.128-.769-1.025-.769-1.538-.9-.768-1.153-1.665-2.819-2.178-3.46a.925.925,0,0,1,.128-1.281c.641-.512,2.05.256,4.869.513,1.025,0,2.179.128,3.46.128.384,3.331,1.666,6.406,6.278,7.56a7.523,7.523,0,0,1,5.254,4.356c-9.1-.128-10.507,3.332-10.507,6.791,0,3.844,3.2,3.588,3.2,6.407,0,2.434-7.688,3.459-9.994,3.844a6.36,6.36,0,0,0-3.972,1.665c-.9.9-1.922,1.794-3.588,3.588a10.225,10.225,0,0,0,1.41.128l1.281-1.665c.384-.513.641-1.026.9-1.026s.128.513-.256,1.026l-1.026,1.793c4.485.257,4.741-1.409,4.741-2.05s-1.153-1.153-.512-1.537,1.153-.128,1.666.512.64,1.153,1.922.641c0,0,9.738-4.1,11.019-4.613,1.153-.512.769-1.025.128-1.537a3.04,3.04,0,0,1-.9-2.563c0-2.947,1.794-3.844,5-3.844,0,.512-.128,1.025-.128,1.409,0,4.613,7.047,9.1,8.841,9.1.9,0,1.922-.641,2.05,2.178,0,2.05.513,3.46.129,5.894-.385,2.306-1.026,2.691-2.435,3.716s-2.819,4.1-3.331,4.741c.64.384,1.281.512,1.793-1.025.385-1.282.9-2.178,1.538-2.435-.512,1.41-.9,3.46-1.281,4.1,1.794.257,4.741-1.281,4.741-2.562s-1.025-1.153-1.025-2.05c0-.385.512-.769,1.025-.769.768,0,1.281.512,1.281.9.769-.385,1.281-1.153,1.281-3.075a12.452,12.452,0,0,0-.128-2.179.447.447,0,0,0,.128.257,2,2,0,0,0,1.666.9,3.34,3.34,0,0,0,1.922-.513,3.228,3.228,0,0,0,1.281-1.922v-.512a2.071,2.071,0,0,0-.384-1.154,2.356,2.356,0,0,0-1.281-.9,3.087,3.087,0,0,0-2.307.513,2.719,2.719,0,0,0-1.281,1.666,58.728,58.728,0,0,1-.256-5.894c.128-1.41.128-2.05-.257-2.307-.512-.256-1.025.641-1.665.641s-2.691-1.922-2.691-3.844c0-2.05,2.178-4.613,2.05-7.3,0-.9.512-1.281.9-.512a12.436,12.436,0,0,0,1.922,3.2c-.513,3.46,3.2,6.791,6.278,4.357-1.537.256-2.562-1.154-3.331-2.563.256,0,.512.128.9.128h.512c1.154,1.41,4.613,1.281,5.51-2.178a3.507,3.507,0,0,1-2.819,1.153,5.735,5.735,0,0,0,2.05-4.485c0-8.713-10.635-9.738-10.635-17.682a4.886,4.886,0,0,1,4.357-4.869,3.631,3.631,0,0,1,1.666.513,4.436,4.436,0,0,0-1.026,3.075c.257,6.278,10.507,6.022,10.635,8.969.9-5-6.662-3.588-6.919-9.738M141.829,24.121c.513-.9,0-2.434,1.794-2.434.9,0,1.666.9,2.691,1.153a13.314,13.314,0,0,0-4.485,1.281m-9.354,19.22a1.956,1.956,0,0,1-.512,1.281.981.981,0,0,1-.641.257c-.64,0-1.025-.769-1.025-1.538v-.128a1.952,1.952,0,0,1,.513-1.281.973.973,0,0,1,.64-.257,1.089,1.089,0,0,1,.641.385,2.166,2.166,0,0,1,.384,1.281m30.24,44.078a2.345,2.345,0,0,1,.9-1.282,1.772,1.772,0,0,1,1.537-.384.927.927,0,0,1,.769.512h0c.256.257.128.641.128.9a2.349,2.349,0,0,1-.9,1.282c-.9.512-1.922.512-2.306-.129a1.18,1.18,0,0,1-.128-.9M156.308,58.2a1.106,1.106,0,0,1,.384-.768,1.083,1.083,0,0,1,.769-.257,1.773,1.773,0,0,1,1.41.769,2.367,2.367,0,0,1,.64,1.538,1.11,1.11,0,0,1-.384.769h0a1.084,1.084,0,0,1-.769.256,1.769,1.769,0,0,1-1.409-.769,2.66,2.66,0,0,1-.641-1.538m-17.3-19.732c.513-1.538,1.41-4.613,1.41-4.613l1.665.641a4.032,4.032,0,0,0-1.537,1.153,1.816,1.816,0,0,0,1.409-.128l-.64,1.666c-.129-.257-.641-.9-1.026-.9a1.6,1.6,0,0,0,1.026,2.05c1.025.512,1.665.641,1.922.128s-.385-1.281-1.154-1.025c-.128-.9.385-1.281.9-1.281a1.078,1.078,0,0,1,.9.9,2.584,2.584,0,0,1,1.794-2.819c.513,1.281.128,2.178-.9,3.2a1.34,1.34,0,0,1,1.41.128,1.05,1.05,0,0,1-.513,1.538.854.854,0,0,0-1.538-.385c-.256.513.129,1.153,1.025,1.666a1.609,1.609,0,0,0,2.435-.641,2.413,2.413,0,0,0-1.538.257l1.025-2.051a2.117,2.117,0,0,0,.641,1.154,2.491,2.491,0,0,0,0-1.922l2.307,1.281a2.678,2.678,0,0,0-1.666,1.025,1.788,1.788,0,0,0,1.409,0l-1.153,1.922a2.048,2.048,0,0,0-.512-1.409,1.65,1.65,0,0,0,.64,2.434c.9.513,1.538.641,1.922.128s-.256-1.409-1.025-1.153c0-.9.513-1.281,1.025-1.281s.769.512.9,1.153c.385-1.41.9-2.178,2.306-2.435a2.67,2.67,0,0,1-1.537,2.947c.512-.128,1.025-.128,1.281.257a.96.96,0,0,1-.64,1.409c-.129-.9-1.154-1.025-1.41-.512s.128,1.025,1.025,1.537a1.628,1.628,0,0,0,2.307-.128,1.931,1.931,0,0,0-1.41-.512l1.025-1.41a1.574,1.574,0,0,0,.641,1.281,5.038,5.038,0,0,0,.128-1.922l1.409,1.025s-2.178,2.307-3.2,3.588Zm14.351,36.133c-.641.769-1.538,1.154-2.178.641a1.739,1.739,0,0,1-.128-2.306,1.588,1.588,0,0,1,2.178-.641,1.741,1.741,0,0,1,.128,2.306m4.1-6.534c-.64.768-1.537,1.153-2.178.64a1.739,1.739,0,0,1-.128-2.306c.64-.769,1.537-1.153,2.178-.641a1.586,1.586,0,0,1,.128,2.307" fill="none" stroke="#fefeff" stroke-miterlimit="10" stroke-width="1"/>
          </g>
        </g>
      </g>
    </g>
  </g>
</svg>
