<svg xmlns="http://www.w3.org/2000/svg" width="62.028" height="72" viewBox="0 0 62.028 72">
  <g id="manager" transform="translate(-0.5 0)" opacity="0.45">
    <path id="Path_747" data-name="Path 747" d="M262.457,162.813a1.406,1.406,0,1,0-1.406-1.406A1.407,1.407,0,0,0,262.457,162.813Zm0,0" transform="translate(-223.911 -137.5)" fill="#fff"/>
    <path id="Path_748" data-name="Path 748" d="M162.457,162.813a1.406,1.406,0,1,0-1.406-1.406A1.407,1.407,0,0,0,162.457,162.813Zm0,0" transform="translate(-137.974 -137.5)" fill="#fff"/>
    <path id="Path_749" data-name="Path 749" d="M189.385,232.365a8.845,8.845,0,0,0,7.446.034,1.406,1.406,0,1,0-1.175-2.555,6.033,6.033,0,0,1-5.072-.023,1.406,1.406,0,1,0-1.2,2.544Zm0,0" transform="translate(-161.63 -197.387)" fill="#fff"/>
    <path id="Path_750" data-name="Path 750" d="M62.528,57.062c0-7.733-8.807-13.8-16.355-14.084l-3.851-3.46a18.346,18.346,0,0,0,7.538-14.767V15.469A15.511,15.511,0,0,0,34.341,0H28.716A15.418,15.418,0,0,0,13.3,15.469v9.281a18.378,18.378,0,0,0,7.439,14.74l-3.88,3.487C9.323,43.264.5,49.313.5,57.062V70.594A1.406,1.406,0,0,0,1.906,72H61.122a1.406,1.406,0,0,0,1.406-1.406ZM28.4,62.719h6.222L36.1,69.188H26.882Zm6.343-2.813H28.31l-1.079-3.361L31.515,54.4l4.375,2.188Zm-3.228-9.728-4.887-7.817a18.276,18.276,0,0,0,9.766.012Zm2.013,2.087,6.752-10.8,3.641,3.272L39.286,55.146ZM28.716,2.813h5.625A12.7,12.7,0,0,1,47.047,15.469v1.162l-2.641-3.8a1.406,1.406,0,0,0-2.16-.181c-2.859,2.923-6.168,4.228-10.731,4.228s-7.872-1.3-10.733-4.228a1.406,1.406,0,0,0-2.167.191l-2.506,3.672V15.469A12.646,12.646,0,0,1,28.716,2.813ZM16.109,24.751V21.5l3.906-5.723a16.846,16.846,0,0,0,11.5,3.911,16.838,16.838,0,0,0,11.508-3.919l4.024,5.794v3.188a15.469,15.469,0,1,1-30.938,0Zm6.64,16.712,6.753,10.8-5.761,2.881L19.108,44.734ZM3.312,57.062c0-5.793,7.042-10.8,13.2-11.25L21.77,57.634a1.406,1.406,0,0,0,1.914.686l1-.5,1.141,3.553-1.834,7.817H3.312Zm56.4,12.126H38.98l-1.776-7.8,1.223-3.532.917.459a1.406,1.406,0,0,0,1.914-.686l5.261-11.822c6.154.455,13.2,5.457,13.2,11.25Zm0,0" fill="#fff"/>
    <path id="Path_751" data-name="Path 751" d="M308.082,446h-5.625a1.406,1.406,0,0,0,0,2.813h5.625a1.406,1.406,0,0,0,0-2.812Zm0,0" transform="translate(-258.286 -383.281)" fill="#fff"/>
    <path id="Path_752" data-name="Path 752" d="M381.906,446a1.406,1.406,0,1,1-1.406,1.406A1.407,1.407,0,0,1,381.906,446Zm0,0" transform="translate(-326.563 -383.281)" fill="#fff"/>
  </g>
</svg>
