<svg xmlns="http://www.w3.org/2000/svg" width="145.34" height="106.952" viewBox="0 0 145.34 106.952">
  <g id="India" transform="translate(-272.082 -300.429)" opacity="0.8">
    <g id="Group_1178" data-name="Group 1178" transform="translate(274.786 306.062)">
      <path id="Path_3231" data-name="Path 3231" d="M292.769,403.551l33.043.273v67.451H290.857V424.032l34.226-.182,15.11.182v47.243H326.54" transform="translate(-286.306 -371.956)" fill="none" stroke="#fff" stroke-miterlimit="10" stroke-width="4"/>
      <path id="Path_3232" data-name="Path 3232" d="M419.507,447.3h6.554l2.549-9.1H294.071V426.821" transform="translate(-288.61 -395.227)" fill="none" stroke="#fff" stroke-miterlimit="10" stroke-width="4"/>
      <path id="Path_3233" data-name="Path 3233" d="M280.247,467h-5.462l2.731,8.921,1.821.182" transform="translate(-274.786 -424.027)" fill="none" stroke="#fff" stroke-miterlimit="10" stroke-width="4"/>
      <path id="Path_3234" data-name="Path 3234" d="M463.11,438.2l.728,56.346h12.744V426.821h-58.44" transform="translate(-377.545 -395.227)" fill="none" stroke="#fff" stroke-miterlimit="10" stroke-width="4"/>
      <path id="Path_3235" data-name="Path 3235" d="M628.357,426.821h35.137v10.241" transform="translate(-528.227 -395.227)" fill="none" stroke="#fff" stroke-miterlimit="10" stroke-width="4"/>
      <path id="Path_3236" data-name="Path 3236" d="M663.494,502.357V548.69H628.357" transform="translate(-528.227 -449.371)" fill="none" stroke="#fff" stroke-miterlimit="10" stroke-width="4"/>
      <line id="Line_13" data-name="Line 13" x2="36.229" transform="translate(86.476 52.075)" fill="none" stroke="#fff" stroke-linecap="round" stroke-miterlimit="10" stroke-width="4"/>
      <path id="Path_3237" data-name="Path 3237" d="M446.589,384.714H413l.364,12.2" transform="translate(-373.858 -365.045)" fill="none" stroke="#fff" stroke-linecap="round" stroke-miterlimit="10" stroke-width="4"/>
      <path id="Path_3238" data-name="Path 3238" d="M558.929,384.714H577.5v10.923" transform="translate(-478.46 -365.045)" fill="none" stroke="#fff" stroke-linecap="round" stroke-miterlimit="10" stroke-width="4"/>
      <path id="Path_3239" data-name="Path 3239" d="M427.325,334.928V324.369q-.091-3.186-.182-6.372a4.144,4.144,0,0,1,7.646-.364q.182,8.648.364,17.3" transform="translate(-383.996 -315.258)" fill="none" stroke="#fff" stroke-miterlimit="10" stroke-width="4"/>
      <line id="Line_14" data-name="Line 14" x2="5.826" transform="translate(44.057 8.746)" fill="none" stroke="#fff" stroke-miterlimit="10" stroke-width="4"/>
      <path id="Path_3240" data-name="Path 3240" d="M588.039,334.928V324.369q-.091-3.186-.182-6.372a4.144,4.144,0,0,1,7.646-.364q.182,8.648.364,17.3" transform="translate(-499.196 -315.258)" fill="none" stroke="#fff" stroke-miterlimit="10" stroke-width="4"/>
      <line id="Line_15" data-name="Line 15" x2="5.826" transform="translate(89.571 8.746)" fill="none" stroke="#fff" stroke-miterlimit="10" stroke-width="4"/>
      <line id="Line_16" data-name="Line 16" y2="21.558" transform="translate(85.869 20.277)" fill="none" stroke="#fff" stroke-miterlimit="10" stroke-width="4"/>
      <line id="Line_17" data-name="Line 17" y2="9.3" transform="translate(75.795 32.535)" fill="none" stroke="#fff" stroke-miterlimit="10" stroke-width="4"/>
      <path id="Path_3241" data-name="Path 3241" d="M501.714,430.143" transform="translate(-437.449 -397.608)" fill="none" stroke="#fff" stroke-miterlimit="10" stroke-width="4"/>
      <line id="Line_18" data-name="Line 18" y2="9.3" transform="translate(64.265 32.535)" fill="none" stroke="#fff" stroke-miterlimit="10" stroke-width="4"/>
      <line id="Line_19" data-name="Line 19" x2="35.804" transform="translate(52.007 11.902)" fill="none" stroke="#fff" stroke-miterlimit="10" stroke-width="4"/>
      <g id="Group_1175" data-name="Group 1175" transform="translate(16.99 63.363)">
        <g id="Group_1174" data-name="Group 1174">
          <path id="Path_3242" data-name="Path 3242" d="M342.366,539a10.588,10.588,0,0,0-3.015,1.715c-5.116,4.174-4.388,11.864-4.267,12.97l-.305,20.147" transform="translate(-334.779 -539)" fill="none" stroke="#fff" stroke-miterlimit="10" stroke-width="4"/>
          <path id="Path_3243" data-name="Path 3243" d="M359,539a11.085,11.085,0,0,1,3.127,1.715c5.306,4.174,4.552,11.864,4.426,12.97l.317,20.147" transform="translate(-352.141 -539)" fill="none" stroke="#fff" stroke-miterlimit="10" stroke-width="4"/>
          <line id="Line_20" data-name="Line 20" x2="14.232" transform="translate(0.244 11.348)" fill="none" stroke="#fff" stroke-miterlimit="10" stroke-width="4"/>
        </g>
        <path id="Path_3244" data-name="Path 3244" d="M338.606,604.626c-.364.243,6.266-4.126,6.266-4.126l6.478,3.7" transform="translate(-337.512 -583.083)" fill="none" stroke="#fff" stroke-miterlimit="10" stroke-width="4"/>
      </g>
      <g id="Group_1177" data-name="Group 1177" transform="translate(107.976 63.28)">
        <g id="Group_1176" data-name="Group 1176">
          <path id="Path_3245" data-name="Path 3245" d="M663.649,538.708a10.579,10.579,0,0,0-3.015,1.715c-5.116,4.174-4.388,11.864-4.267,12.971l-.305,20.147" transform="translate(-656.062 -538.708)" fill="none" stroke="#fff" stroke-miterlimit="10" stroke-width="4"/>
          <path id="Path_3246" data-name="Path 3246" d="M680.283,538.708a11.079,11.079,0,0,1,3.127,1.715c5.306,4.174,4.551,11.864,4.426,12.971l.317,20.147" transform="translate(-673.424 -538.708)" fill="none" stroke="#fff" stroke-miterlimit="10" stroke-width="4"/>
          <line id="Line_21" data-name="Line 21" x2="14.232" transform="translate(0.244 11.348)" fill="none" stroke="#fff" stroke-miterlimit="10" stroke-width="4"/>
        </g>
        <path id="Path_3247" data-name="Path 3247" d="M659.889,604.334c-.364.243,6.266-4.126,6.266-4.126l6.478,3.7" transform="translate(-658.795 -582.791)" fill="none" stroke="#fff" stroke-miterlimit="10" stroke-width="4"/>
      </g>
      <path id="Path_3248" data-name="Path 3248" d="M465.071,511.877a29.965,29.965,0,0,1,6.979-7.646c2.947-2.27,5.351-4.122,8.739-4.248,4.225-.157,7.427,2.466,10.2,4.733a26.758,26.758,0,0,1,6.038,7.038" transform="translate(-411.183 -447.665)" fill="none" stroke="#fff" stroke-miterlimit="10" stroke-width="4"/>
    </g>
    <line id="Line_22" data-name="Line 22" y2="3.641" transform="translate(321.574 302.429)" fill="none" stroke="#fff" stroke-linecap="round" stroke-miterlimit="10" stroke-width="4"/>
    <line id="Line_23" data-name="Line 23" y2="3.641" transform="translate(367.269 302.429)" fill="none" stroke="#fff" stroke-linecap="round" stroke-miterlimit="10" stroke-width="4"/>
  </g>
</svg>
