<svg xmlns="http://www.w3.org/2000/svg" width="624.823" height="428.488" viewBox="0 0 624.823 428.488">
  <path id="Path_3211" data-name="Path 3211" d="M909.5,237.1c-8.3,1.7-14.4,3.5-15.1,4.4-1.4,1.9-4.8,14.4-4.1,15.2.3.3,3.1.1,6.1-.4l5.5-1-2.7,3.3c-5.5,6.8-41.7,47.3-42.3,47.3-.3.1,1.8-7.9,4.8-17.7,6.1-20.3,6.2-21.4,3.1-20.7-1.3.2-7.5,1.4-13.8,2.5s-12,2.6-12.6,3.2c-1.5,1.6-4.7,12.6-4,13.7.3.4,2.6.5,5.1.1s4.5-.5,4.5-.3-65.9,77.6-146.5,172.1L550.9,630.5l-111.2,6-111.2,6-3.2,2.5c-1.8,1.3-3.3,2.6-3.3,2.9,0,.4,52-2.1,115.6-5.4l115.6-6L667.7,505c62.9-72.3,129.2-148.5,147.1-169.2,18-20.7,33-37.7,33.3-37.7.4-.1-.4,3.3-1.6,7.5-2.4,7.6-2.4,7.8,1.6,8.6,1,.2-50.5,58.6-145.3,164.8L556.1,643.5l-12.8.8c-7,.4-62,3.2-122.1,6.2l-109.3,5.4-3.5,2.6c-2,1.5-3.4,2.9-3.2,3.1s57.1-2.4,126.3-5.7l126-6,2.5-2.4c1.5-1.4,80-87.5,174.5-191.4,94.6-103.8,172.1-188.8,172.2-188.7a79.294,79.294,0,0,1-2.2,8.1c-1.4,4.4-2.3,8.5-2.1,9.1.5,1.3,9.1.3,10.7-1.3.8-.8,15.8-46.7,15.9-48.6C929,233.5,924.1,234.1,909.5,237.1Z" transform="translate(-304.677 -233.621)" fill="none" stroke="#fff" stroke-width="1"/>
</svg>
