<svg xmlns="http://www.w3.org/2000/svg" width="675.823" height="570.399" viewBox="0 0 675.823 570.399">
  <g id="startup_3" data-name="startup 3" transform="translate(-4132.179 -12027.5)" opacity="0.54">
    <g id="Group_1153" data-name="Group 1153" transform="translate(3259 11946)" opacity="0.75">
      <path id="Path_3132" data-name="Path 3132" d="M592.785,531.769l64.412-.035.024,2.5-64.429-1.765Z" transform="translate(387.786 -279.05)" fill="none" stroke="#707070" stroke-width="1" opacity="0.15"/>
      <g id="Group_1164" data-name="Group 1164" transform="translate(876.724 164.514)">
        <g id="Group_1162" data-name="Group 1162" transform="translate(104.958 356.167)">
          <path id="Path_3137" data-name="Path 3137" d="M669.6,610.163a31.009,31.009,0,0,0-3.237-9.3,37.029,37.029,0,0,0-26.827-18.6c-.215-.041-.43-.086-.646-.123a63.255,63.255,0,0,0-29.706,1.79,32.426,32.426,0,0,0-5.679,2.16,49.737,49.737,0,0,0-9.092,5.257,27.707,27.707,0,0,0-7.614,7.966,26.986,26.986,0,0,0-3.22,9.876c-1.765,11.819.828,23.5,4.73,34.242,1.65,4.54,3.547,8.945,5.5,13.264.323.716.645,1.435.97,2.146,1.145,2.5,2.41,4.963,3.444,7.443.233.558,1.17,2.4,1.789,3.928.42,1.038.695,1.929.493,2.161,0,0,.4-.457,1.227-1.32,1.614-1.679,4.889-4.926,10.258-9.552,1.29,3.532,2.589,6.939,4,10.337a156.9,156.9,0,0,0,10.355,20.645s8.549-16.422,13.5-29.671c4.166,5.179,9.147,14.292,12.416,21.327-.323-.7,1.092-3.061,1.333-3.768,3.579-10.49,7.082-21.428,10.324-32.865,2.611-9.205,6.1-19.185,6.288-29.312A40.338,40.338,0,0,0,669.6,610.163Zm-58.192,30.929c-.588-1.427-1.307-2.841-1.957-4.277-1.3-2.87-2.578-5.8-3.663-8.832-2.2-6.139-3.645-12.8-2.607-19.515a15.337,15.337,0,0,1,1.858-5.6,15.817,15.817,0,0,1,4.345-4.509,28.319,28.319,0,0,1,5.172-2.971,18.452,18.452,0,0,1,3.225-1.22,36.092,36.092,0,0,1,16.857-1.013c.123.021.246.046.367.07a21.037,21.037,0,0,1,15.271,10.519,17.616,17.616,0,0,1,1.866,5.278c1.376,7.3-1.287,14.642-3.143,21.3-1.829,6.559-3.813,12.848-5.845,18.893l0,.013a1.028,1.028,0,0,1-1.751.1,62.857,62.857,0,0,0-6.149-10.22,187.289,187.289,0,0,1-7.733,17.109,98.957,98.957,0,0,1-8.218-17.863A71.056,71.056,0,0,0,612.7,644.6C612.99,644.265,611.63,641.631,611.408,641.092Z" transform="translate(-583.015 -581.158)" fill="none" stroke="#707070" stroke-width="1"/>
          <path id="Path_3138" data-name="Path 3138" d="M620.85,642.47a98.949,98.949,0,0,0,8.218,17.863,187.323,187.323,0,0,0,7.733-17.109,62.845,62.845,0,0,1,6.149,10.22,1.028,1.028,0,0,0,1.751-.1l0-.013c2.032-6.045,4.016-12.334,5.845-18.893,1.856-6.654,4.519-13.993,3.143-21.3a17.61,17.61,0,0,0-1.866-5.278,21.037,21.037,0,0,0-15.271-10.519c-.122-.024-.244-.049-.367-.07a36.092,36.092,0,0,0-16.857,1.013,18.494,18.494,0,0,0-3.225,1.22,28.307,28.307,0,0,0-5.172,2.971,15.814,15.814,0,0,0-4.345,4.509,15.334,15.334,0,0,0-1.857,5.6c-1.038,6.718.407,13.376,2.607,19.515,1.085,3.029,2.363,5.962,3.663,8.832.65,1.436,1.369,2.85,1.957,4.277.222.539,1.582,3.173,1.3,3.5A71.033,71.033,0,0,1,620.85,642.47Z" transform="translate(-584.568 -585.285)" fill="none" stroke="#707070" stroke-width="1"/>
        </g>
        <path id="Path_3212" data-name="Path 3212" d="M0,0,70.727.012l0,13.627L0,13.627Z" transform="translate(114.015 318.785) rotate(-0.131)" fill="none" stroke="#707070" stroke-width="1"/>
        <path id="Path_3127" data-name="Path 3127" d="M669.6,560.749l-84.885.153,5.1-13.614,74.616-.135Z" transform="translate(-478.181 -215.981)" fill="none" stroke="#707070" stroke-width="1"/>
        <path id="Path_3131" data-name="Path 3131" d="M676.992,566.081a1.945,1.945,0,0,0-2.129-1.679l-5.18.009-10.249.019-80.134.144a1.94,1.94,0,0,0-2.119,1.688l0,1.441a1.945,1.945,0,0,0,2.129,1.679l76.611-.138,17.722-.032,1.232,0A1.94,1.94,0,0,0,677,567.522Z" transform="translate(-477.633 -220.552)" fill="none" stroke="#707070" stroke-width="1"/>
        <path id="Path_3133" data-name="Path 3133" d="M551.922,521.455l138.7-.25,3.108-29-144.048,1.178Z" transform="translate(-475.635 -201.421)" fill="none" stroke="#707070" stroke-width="1" opacity="0.19"/>
        <path id="Path_3139" data-name="Path 3139" d="M478.746,545.914s20.281,2.264,27.129-.452l1.226-5.716s-17.223,1.949-29.615.053Z" transform="translate(-470.391 -214.018)" fill="none" stroke="#707070" stroke-width="1"/>
        <path id="Path_3128" data-name="Path 3128" d="M756.55,376.772c-1.21-17.077-6.135-59.658-21.849-76.627-5.881,6.413-10.211,16.456-13.384,27.394l-23.2-17.942c3.286-23.441,5.516-46.876,1.843-70.649-5.814-37.631-22.293-74.319-46.827-106.819-9.343-12.377-24.732-27.6-38.068-35.533-13.292,7.977-28.592,23.259-37.865,35.669-24.348,32.588-40.616,69.335-46.212,106.988-3.353,22.551-1.4,44.779,1.725,66.993l-3.35,2.614-24.434,19.07c-3.236-10.928-7.623-20.955-13.541-27.347-15.615,17.026-20.3,59.625-21.408,76.705a64.366,64.366,0,0,0,1.148,17.253l7.078,33.952h-.015l2.252,10.8c.006.006.012.01.018.015l.024.118c4.888,5,17.746,4.98,22.606-.04h0l6.788-33.517c7.069-4.837,20.618-14.554,32.983-23.488q1.888,17.124,3.774,34.247l69.347-.125,69.348-.125q1.607-15.393,3.213-30.784c2.034,1.452,4.071,2.9,6.083,4.337l0,0c8.84,6.291,17.15,12.148,22.184,15.561l6.981,33.492c4.888,5,17.746,4.98,22.605-.041l.024-.118.018-.015L748.634,428h-.015l6.882-33.977A64.374,64.374,0,0,0,756.55,376.772Z" transform="translate(-469.836 -96.596)" fill="none" stroke="#707070" stroke-width="1"/>
        <path id="Path_3141" data-name="Path 3141" d="M625.742,320.34c-29.884.054-54.252-19.172-54.319-42.858s24.188-43,54.073-43.053,54.251,19.172,54.318,42.857S655.626,320.286,625.742,320.34Zm-.232-80.469c-26.1.048-47.281,16.914-47.221,37.6s21.339,37.475,47.437,37.428,47.281-16.914,47.221-37.6S651.608,239.823,625.51,239.87Z" transform="translate(-477.215 -133.118)" fill="none" stroke="#707070" stroke-width="1"/>
        <path id="Path_3142" data-name="Path 3142" d="M741.125,548.309s20.281,2.263,27.128-.452l1.227-5.717s-17.224,1.95-29.616.054Z" transform="translate(-489.45 -214.653)" fill="none" stroke="#707070" stroke-width="1"/>
      </g>
    </g>
    <g id="Group_1158" data-name="Group 1158" transform="translate(-279.498 13524.79)" opacity="0.53">
      <g id="Group_1159" data-name="Group 1159" transform="translate(4107 -1589)">
        <path id="Path_3209" data-name="Path 3209" d="M959.1,98.6c-9.6,3.5-17.8,6.9-18.3,7.6-1.3,2-5.8,17.2-5.2,17.7.2.3,3.4-.5,6.9-1.6,3.9-1.3,6.2-1.6,5.8-1-1.4,2.4-73.6,90.7-73.9,90.5-.1-.2,2.4-9.3,5.6-20.3s5.4-20.2,4.9-20.3c-1.3-.5-26,6.7-28.6,8.4-2.1,1.3-5.3,9.9-5.3,14.3,0,1.8.4,2,2.8,1.5,1.5-.4,3.7-1.1,5-1.5,1.2-.5,2.2-.6,2.2-.3,0,.4-71.8,92.4-278.4,356.6-41.4,53-42.1,53.8-45.6,53.8-1.9,0-41.9,2.5-88.7,5.5L363,614.9l-3.5,2.7a15.81,15.81,0,0,0-3.3,2.9c.5.4,186.8-11.1,187.2-11.6,1.2-1.3,317.6-399,319.6-401.7,1.3-1.7,2.5-3,2.7-2.9a66.4,66.4,0,0,1-2.1,8.5c-1.3,4.5-2,8.5-1.5,8.8a5.208,5.208,0,0,0,3.2-.2c1.8-.6,2-.4,1.1.7-1.1,1.4-230.2,282.9-290.6,357.1l-29.9,36.7-5.2.5c-2.9.3-47.7,3.1-99.6,6.1L346.7,628l-3.4,2.6c-1.9,1.4-3.3,2.8-3.1,3s46.9-2.3,103.8-5.6c103-5.9,103.3-5.9,105.6-8.2,1.2-1.3,81.5-97.9,178.4-214.8C955.1,131.3,954.4,132.1,954.7,132.4a87.7,87.7,0,0,1-2.8,9.5c-1.6,5.2-2.7,9.6-2.4,9.9,1,1,9.9-1.8,11.8-3.7,1.5-1.5,18.7-52.3,18.7-55.2C980,91.3,976.6,92.2,959.1,98.6Z" fill="none" stroke="#707070" stroke-width="1"/>
        <path id="Path_3210" data-name="Path 3210" d="M886,117c-5.8,2.2-12.4,4.7-14.7,5.6-4.1,1.5-4.4,1.9-6.3,8.3-2.2,7.4-2.5,10.1-1.1,10.1a33.59,33.59,0,0,0,5.1-1.5,27.365,27.365,0,0,1,4.5-1.3c.1.2-16.6,22.8-37.1,50.3C815.8,216,799,238.2,799,237.9s2-8.4,4.5-17.9,4.3-17.5,4.1-17.7c-.2-.3-5.7,1-12.1,2.8-13,3.6-13.5,4.1-15.1,13.8-.7,4.4-.5,4.6,4.4,3.2,1.7-.5,3.2-.7,3.2-.4,0,.4-254.2,353.5-256,355.6-.4.4-30.9,3-67.8,5.6-63.2,4.6-67.2,5-70.1,7.1-1.7,1.2-3.1,2.5-3.1,2.8,0,.7,139-8.5,141.6-9.3.7-.2,59.1-79.4,130-175.9,70.8-96.6,128.9-175.5,129-175.3.2.2-.3,2.7-1.1,5.7-2.1,7.7-2,9.4.6,8.7,1.4-.4,1.8-.2,1.1.6-.5.7-58,77.5-127.7,170.7S537.3,588.1,536.6,588.7c-.8.9-23.8,2.8-75.1,6.2-40.7,2.8-75.7,5.2-77.7,5.5a15.21,15.21,0,0,0-6.9,3l-3.1,2.6,5.4-.1c2.9,0,39.8-2.4,82-5.2l76.8-5.2,169.1-222c93-122.1,169.6-222.6,170.4-223.4.9-.9.4,1.7-1.2,7.3-1.4,4.8-2.3,9-2,9.2,1.1,1.1,9-2.1,10.2-4S899,116.1,899,113.9C899,112.4,897,112.9,886,117Z" fill="none" stroke="#707070" stroke-width="1"/>
        <path id="Path_3211" data-name="Path 3211" d="M909.5,237.1c-8.3,1.7-14.4,3.5-15.1,4.4-1.4,1.9-4.8,14.4-4.1,15.2.3.3,3.1.1,6.1-.4l5.5-1-2.7,3.3c-5.5,6.8-41.7,47.3-42.3,47.3-.3.1,1.8-7.9,4.8-17.7,6.1-20.3,6.2-21.4,3.1-20.7-1.3.2-7.5,1.4-13.8,2.5s-12,2.6-12.6,3.2c-1.5,1.6-4.7,12.6-4,13.7.3.4,2.6.5,5.1.1s4.5-.5,4.5-.3-65.9,77.6-146.5,172.1L550.9,630.5l-111.2,6-111.2,6-3.2,2.5c-1.8,1.3-3.3,2.6-3.3,2.9,0,.4,52-2.1,115.6-5.4l115.6-6L667.7,505c62.9-72.3,129.2-148.5,147.1-169.2,18-20.7,33-37.7,33.3-37.7.4-.1-.4,3.3-1.6,7.5-2.4,7.6-2.4,7.8,1.6,8.6,1,.2-50.5,58.6-145.3,164.8L556.1,643.5l-12.8.8c-7,.4-62,3.2-122.1,6.2l-109.3,5.4-3.5,2.6c-2,1.5-3.4,2.9-3.2,3.1s57.1-2.4,126.3-5.7l126-6,2.5-2.4c1.5-1.4,80-87.5,174.5-191.4,94.6-103.8,172.1-188.8,172.2-188.7a79.294,79.294,0,0,1-2.2,8.1c-1.4,4.4-2.3,8.5-2.1,9.1.5,1.3,9.1.3,10.7-1.3.8-.8,15.8-46.7,15.9-48.6C929,233.5,924.1,234.1,909.5,237.1Z" fill="none" stroke="#707070" stroke-width="1"/>
      </g>
    </g>
  </g>
</svg>
