<svg xmlns="http://www.w3.org/2000/svg" xmlns:xlink="http://www.w3.org/1999/xlink" width="2474.083" height="1292.501" viewBox="0 0 2474.083 1292.501">
  <defs>
    <clipPath id="clip-path">
      <rect id="Rectangle_101" data-name="Rectangle 101" width="2474.083" height="1292.501" fill="none" stroke="#707070" stroke-width="11"/>
    </clipPath>
  </defs>
  <g id="Group_95" data-name="Group 95" transform="translate(-11061.004 -3435)">
    <g id="Group_94" data-name="Group 94" transform="translate(11061.004 3435)">
      <g id="Group_86" data-name="Group 86" transform="translate(0 0)">
        <g id="Group_85" data-name="Group 85" clip-path="url(#clip-path)">
          <g id="Group_64" data-name="Group 64" transform="translate(-178.636 106.139)">
            <g id="Group_55" data-name="Group 55">
              <path id="Rectangle_74" data-name="Rectangle 74" d="M13.249,0H240.376a13.249,13.249,0,0,1,13.249,13.249v160.14a0,0,0,0,1,0,0H0a0,0,0,0,1,0,0V13.249A13.249,13.249,0,0,1,13.249,0Z" transform="translate(0 141.701)" fill="none" stroke="#00729c" stroke-miterlimit="10" stroke-width="11"/>
              <path id="Path_470" data-name="Path 470" d="M185.622,266.116c-32.02,0-57.487-22.98-57.487-51.319v-21c0-28.339,25.742-51.319,57.487-51.319h0c31.752,0,57.487,22.98,57.487,51.319v21C243.11,243.136,217.649,266.116,185.622,266.116Z" transform="translate(-58.813 -142.475)" fill="none" stroke="#00729c" stroke-miterlimit="10" stroke-width="11"/>
              <line id="Line_144" data-name="Line 144" y1="107.2" transform="translate(42.37 207.89)" fill="none" stroke="#00729c" stroke-miterlimit="10" stroke-width="11"/>
              <line id="Line_145" data-name="Line 145" y2="107.2" transform="translate(214.679 207.89)" fill="none" stroke="#00729c" stroke-miterlimit="10" stroke-width="11"/>
            </g>
            <g id="Group_56" data-name="Group 56" transform="translate(322.217)">
              <path id="Rectangle_75" data-name="Rectangle 75" d="M13.249,0H240.375a13.249,13.249,0,0,1,13.249,13.249v160.14a0,0,0,0,1,0,0H0a0,0,0,0,1,0,0V13.249A13.249,13.249,0,0,1,13.249,0Z" transform="translate(0 141.701)" fill="none" stroke="#00729c" stroke-miterlimit="10" stroke-width="11"/>
              <path id="Path_471" data-name="Path 471" d="M232.486,266.116C200.46,266.116,175,243.136,175,214.8v-21c0-28.339,25.736-51.319,57.487-51.319h0c31.745,0,57.487,22.98,57.487,51.319v21C289.974,243.136,264.506,266.116,232.486,266.116Z" transform="translate(-105.672 -142.475)" fill="none" stroke="#00729c" stroke-miterlimit="10" stroke-width="11"/>
              <line id="Line_146" data-name="Line 146" y1="107.2" transform="translate(42.37 207.89)" fill="none" stroke="#00729c" stroke-miterlimit="10" stroke-width="11"/>
              <line id="Line_147" data-name="Line 147" y2="107.2" transform="translate(214.679 207.89)" fill="none" stroke="#00729c" stroke-miterlimit="10" stroke-width="11"/>
            </g>
            <g id="Group_57" data-name="Group 57" transform="translate(644.433)">
              <path id="Rectangle_76" data-name="Rectangle 76" d="M13.249,0H240.376a13.249,13.249,0,0,1,13.249,13.249v160.14a0,0,0,0,1,0,0H0a0,0,0,0,1,0,0V13.249A13.249,13.249,0,0,1,13.249,0Z" transform="translate(0 141.701)" fill="none" stroke="#00729c" stroke-miterlimit="10" stroke-width="11"/>
              <path id="Path_472" data-name="Path 472" d="M279.349,266.116c-32.027,0-57.487-22.98-57.487-51.319v-21c0-28.339,25.736-51.319,57.487-51.319h0c31.752,0,57.487,22.98,57.487,51.319v21C336.837,243.136,311.376,266.116,279.349,266.116Z" transform="translate(-152.537 -142.475)" fill="none" stroke="#00729c" stroke-miterlimit="10" stroke-width="11"/>
              <line id="Line_148" data-name="Line 148" y1="107.2" transform="translate(42.37 207.89)" fill="none" stroke="#00729c" stroke-miterlimit="10" stroke-width="11"/>
              <line id="Line_149" data-name="Line 149" y2="107.2" transform="translate(214.679 207.89)" fill="none" stroke="#00729c" stroke-miterlimit="10" stroke-width="11"/>
            </g>
            <g id="Group_58" data-name="Group 58" transform="translate(966.649)">
              <path id="Rectangle_77" data-name="Rectangle 77" d="M13.249,0H240.376a13.249,13.249,0,0,1,13.249,13.249v160.14a0,0,0,0,1,0,0H0a0,0,0,0,1,0,0V13.249A13.249,13.249,0,0,1,13.249,0Z" transform="translate(0 141.701)" fill="none" stroke="#00729c" stroke-miterlimit="10" stroke-width="11"/>
              <path id="Path_473" data-name="Path 473" d="M326.212,266.116c-32.02,0-57.487-22.98-57.487-51.319v-21c0-28.339,25.742-51.319,57.487-51.319h0c31.752,0,57.487,22.98,57.487,51.319v21C383.7,243.136,358.239,266.116,326.212,266.116Z" transform="translate(-199.403 -142.475)" fill="none" stroke="#00729c" stroke-miterlimit="10" stroke-width="11"/>
              <line id="Line_150" data-name="Line 150" y1="107.2" transform="translate(42.37 207.89)" fill="none" stroke="#00729c" stroke-miterlimit="10" stroke-width="11"/>
              <line id="Line_151" data-name="Line 151" y2="107.2" transform="translate(214.679 207.89)" fill="none" stroke="#00729c" stroke-miterlimit="10" stroke-width="11"/>
            </g>
            <g id="Group_59" data-name="Group 59" transform="translate(1288.865)">
              <path id="Rectangle_78" data-name="Rectangle 78" d="M13.249,0H240.375a13.249,13.249,0,0,1,13.249,13.249v160.14a0,0,0,0,1,0,0H0a0,0,0,0,1,0,0V13.249A13.249,13.249,0,0,1,13.249,0Z" transform="translate(0 141.701)" fill="none" stroke="#00729c" stroke-miterlimit="10" stroke-width="11"/>
              <path id="Path_474" data-name="Path 474" d="M373.077,266.116c-32.027,0-57.488-22.98-57.488-51.319v-21c0-28.339,25.736-51.319,57.488-51.319h0c31.745,0,57.487,22.98,57.487,51.319v21C430.564,243.136,405.1,266.116,373.077,266.116Z" transform="translate(-246.262 -142.475)" fill="none" stroke="#00729c" stroke-miterlimit="10" stroke-width="11"/>
              <line id="Line_152" data-name="Line 152" y1="107.2" transform="translate(42.37 207.89)" fill="none" stroke="#00729c" stroke-miterlimit="10" stroke-width="11"/>
              <line id="Line_153" data-name="Line 153" y2="107.2" transform="translate(214.679 207.89)" fill="none" stroke="#00729c" stroke-miterlimit="10" stroke-width="11"/>
            </g>
            <g id="Group_60" data-name="Group 60" transform="translate(1611.081)">
              <path id="Rectangle_79" data-name="Rectangle 79" d="M13.249,0H240.376a13.249,13.249,0,0,1,13.249,13.249v160.14a0,0,0,0,1,0,0H0a0,0,0,0,1,0,0V13.249A13.249,13.249,0,0,1,13.249,0Z" transform="translate(0 141.701)" fill="none" stroke="#00729c" stroke-miterlimit="10" stroke-width="11"/>
              <path id="Path_475" data-name="Path 475" d="M419.939,266.116c-32.027,0-57.487-22.98-57.487-51.319v-21c0-28.339,25.736-51.319,57.487-51.319h0c31.752,0,57.488,22.98,57.488,51.319v21C477.427,243.136,451.966,266.116,419.939,266.116Z" transform="translate(-293.127 -142.475)" fill="none" stroke="#00729c" stroke-miterlimit="10" stroke-width="11"/>
              <line id="Line_154" data-name="Line 154" y1="107.2" transform="translate(42.37 207.89)" fill="none" stroke="#00729c" stroke-miterlimit="10" stroke-width="11"/>
              <line id="Line_155" data-name="Line 155" y2="107.2" transform="translate(214.679 207.89)" fill="none" stroke="#00729c" stroke-miterlimit="10" stroke-width="11"/>
            </g>
            <g id="Group_61" data-name="Group 61" transform="translate(1933.297)">
              <path id="Rectangle_80" data-name="Rectangle 80" d="M13.249,0H240.376a13.249,13.249,0,0,1,13.249,13.249v160.14a0,0,0,0,1,0,0H0a0,0,0,0,1,0,0V13.249A13.249,13.249,0,0,1,13.249,0Z" transform="translate(0 141.701)" fill="none" stroke="#00729c" stroke-miterlimit="10" stroke-width="11"/>
              <path id="Path_476" data-name="Path 476" d="M466.8,266.116c-32.02,0-57.487-22.98-57.487-51.319v-21c0-28.339,25.742-51.319,57.487-51.319h0c31.752,0,57.487,22.98,57.487,51.319v21C524.29,243.136,498.829,266.116,466.8,266.116Z" transform="translate(-339.992 -142.475)" fill="none" stroke="#00729c" stroke-miterlimit="10" stroke-width="11"/>
              <line id="Line_156" data-name="Line 156" y1="107.2" transform="translate(42.37 207.89)" fill="none" stroke="#00729c" stroke-miterlimit="10" stroke-width="11"/>
              <line id="Line_157" data-name="Line 157" y2="107.2" transform="translate(214.679 207.89)" fill="none" stroke="#00729c" stroke-miterlimit="10" stroke-width="11"/>
            </g>
            <g id="Group_62" data-name="Group 62" transform="translate(2255.514)">
              <path id="Rectangle_81" data-name="Rectangle 81" d="M13.249,0H240.375a13.249,13.249,0,0,1,13.249,13.249v160.14a0,0,0,0,1,0,0H0a0,0,0,0,1,0,0V13.249A13.249,13.249,0,0,1,13.249,0Z" transform="translate(0 141.701)" fill="none" stroke="#00729c" stroke-miterlimit="10" stroke-width="11"/>
              <path id="Path_477" data-name="Path 477" d="M513.667,266.116c-32.027,0-57.488-22.98-57.488-51.319v-21c0-28.339,25.736-51.319,57.488-51.319h0c31.745,0,57.487,22.98,57.487,51.319v21C571.154,243.136,545.686,266.116,513.667,266.116Z" transform="translate(-386.852 -142.475)" fill="none" stroke="#00729c" stroke-miterlimit="10" stroke-width="11"/>
              <line id="Line_158" data-name="Line 158" y1="107.2" transform="translate(42.37 207.89)" fill="none" stroke="#00729c" stroke-miterlimit="10" stroke-width="11"/>
              <line id="Line_159" data-name="Line 159" y2="107.2" transform="translate(214.679 207.89)" fill="none" stroke="#00729c" stroke-miterlimit="10" stroke-width="11"/>
            </g>
            <g id="Group_63" data-name="Group 63" transform="translate(2577.73)">
              <path id="Rectangle_82" data-name="Rectangle 82" d="M13.249,0H240.376a13.249,13.249,0,0,1,13.249,13.249v160.14a0,0,0,0,1,0,0H0a0,0,0,0,1,0,0V13.249A13.249,13.249,0,0,1,13.249,0Z" transform="translate(0 141.701)" fill="none" stroke="#00729c" stroke-miterlimit="10" stroke-width="11"/>
              <path id="Path_478" data-name="Path 478" d="M560.529,266.116c-32.027,0-57.487-22.98-57.487-51.319v-21c0-28.339,25.736-51.319,57.487-51.319h0c31.752,0,57.487,22.98,57.487,51.319v21C618.016,243.136,592.556,266.116,560.529,266.116Z" transform="translate(-433.717 -142.475)" fill="none" stroke="#00729c" stroke-miterlimit="10" stroke-width="11"/>
              <line id="Line_160" data-name="Line 160" y1="107.2" transform="translate(42.37 207.89)" fill="none" stroke="#00729c" stroke-miterlimit="10" stroke-width="11"/>
              <line id="Line_161" data-name="Line 161" y2="107.2" transform="translate(214.679 207.89)" fill="none" stroke="#00729c" stroke-miterlimit="10" stroke-width="11"/>
            </g>
          </g>
          <g id="Group_74" data-name="Group 74" transform="translate(-178.636 838.974)">
            <g id="Group_65" data-name="Group 65">
              <path id="Rectangle_83" data-name="Rectangle 83" d="M13.249,0H240.376a13.249,13.249,0,0,1,13.249,13.249v160.14a0,0,0,0,1,0,0H0a0,0,0,0,1,0,0V13.249A13.249,13.249,0,0,1,13.249,0Z" transform="translate(0 141.702)" fill="none" stroke="#00729c" stroke-miterlimit="10" stroke-width="11"/>
              <path id="Path_479" data-name="Path 479" d="M185.622,385.512c-32.02,0-57.487-22.98-57.487-51.319v-21c0-28.339,25.742-51.318,57.487-51.318h0c31.752,0,57.487,22.98,57.487,51.318v21C243.11,362.532,217.649,385.512,185.622,385.512Z" transform="translate(-58.813 -261.871)" fill="none" stroke="#00729c" stroke-miterlimit="10" stroke-width="11"/>
              <line id="Line_162" data-name="Line 162" y1="107.2" transform="translate(42.37 207.891)" fill="none" stroke="#00729c" stroke-miterlimit="10" stroke-width="11"/>
              <line id="Line_163" data-name="Line 163" y2="107.2" transform="translate(214.679 207.891)" fill="none" stroke="#00729c" stroke-miterlimit="10" stroke-width="11"/>
            </g>
            <g id="Group_66" data-name="Group 66" transform="translate(322.217)">
              <path id="Rectangle_84" data-name="Rectangle 84" d="M13.249,0H240.375a13.249,13.249,0,0,1,13.249,13.249v160.14a0,0,0,0,1,0,0H0a0,0,0,0,1,0,0V13.249A13.249,13.249,0,0,1,13.249,0Z" transform="translate(0 141.702)" fill="none" stroke="#00729c" stroke-miterlimit="10" stroke-width="11"/>
              <path id="Path_480" data-name="Path 480" d="M232.486,385.512c-32.027,0-57.487-22.98-57.487-51.319v-21c0-28.339,25.736-51.318,57.487-51.318h0c31.745,0,57.487,22.98,57.487,51.318v21C289.974,362.532,264.506,385.512,232.486,385.512Z" transform="translate(-105.672 -261.871)" fill="none" stroke="#00729c" stroke-miterlimit="10" stroke-width="11"/>
              <line id="Line_164" data-name="Line 164" y1="107.2" transform="translate(42.37 207.891)" fill="none" stroke="#00729c" stroke-miterlimit="10" stroke-width="11"/>
              <line id="Line_165" data-name="Line 165" y2="107.2" transform="translate(214.679 207.891)" fill="none" stroke="#00729c" stroke-miterlimit="10" stroke-width="11"/>
            </g>
            <g id="Group_67" data-name="Group 67" transform="translate(644.433)">
              <path id="Rectangle_85" data-name="Rectangle 85" d="M13.249,0H240.376a13.249,13.249,0,0,1,13.249,13.249v160.14a0,0,0,0,1,0,0H0a0,0,0,0,1,0,0V13.249A13.249,13.249,0,0,1,13.249,0Z" transform="translate(0 141.702)" fill="none" stroke="#00729c" stroke-miterlimit="10" stroke-width="11"/>
              <path id="Path_481" data-name="Path 481" d="M279.349,385.512c-32.027,0-57.487-22.98-57.487-51.319v-21c0-28.339,25.736-51.318,57.487-51.318h0c31.752,0,57.487,22.98,57.487,51.318v21C336.837,362.532,311.376,385.512,279.349,385.512Z" transform="translate(-152.537 -261.871)" fill="none" stroke="#00729c" stroke-miterlimit="10" stroke-width="11"/>
              <line id="Line_166" data-name="Line 166" y1="107.2" transform="translate(42.37 207.891)" fill="none" stroke="#00729c" stroke-miterlimit="10" stroke-width="11"/>
              <line id="Line_167" data-name="Line 167" y2="107.2" transform="translate(214.679 207.891)" fill="none" stroke="#00729c" stroke-miterlimit="10" stroke-width="11"/>
            </g>
            <g id="Group_68" data-name="Group 68" transform="translate(966.649)">
              <path id="Rectangle_86" data-name="Rectangle 86" d="M13.249,0H240.376a13.249,13.249,0,0,1,13.249,13.249v160.14a0,0,0,0,1,0,0H0a0,0,0,0,1,0,0V13.249A13.249,13.249,0,0,1,13.249,0Z" transform="translate(0 141.702)" fill="none" stroke="#00729c" stroke-miterlimit="10" stroke-width="11"/>
              <path id="Path_482" data-name="Path 482" d="M326.212,385.512c-32.02,0-57.487-22.98-57.487-51.319v-21c0-28.339,25.742-51.318,57.487-51.318h0c31.752,0,57.487,22.98,57.487,51.318v21C383.7,362.532,358.239,385.512,326.212,385.512Z" transform="translate(-199.403 -261.871)" fill="none" stroke="#00729c" stroke-miterlimit="10" stroke-width="11"/>
              <line id="Line_168" data-name="Line 168" y1="107.2" transform="translate(42.37 207.891)" fill="none" stroke="#00729c" stroke-miterlimit="10" stroke-width="11"/>
              <line id="Line_169" data-name="Line 169" y2="107.2" transform="translate(214.679 207.891)" fill="none" stroke="#00729c" stroke-miterlimit="10" stroke-width="11"/>
            </g>
            <g id="Group_69" data-name="Group 69" transform="translate(1288.865)">
              <path id="Rectangle_87" data-name="Rectangle 87" d="M13.249,0H240.375a13.249,13.249,0,0,1,13.249,13.249v160.14a0,0,0,0,1,0,0H0a0,0,0,0,1,0,0V13.249A13.249,13.249,0,0,1,13.249,0Z" transform="translate(0 141.702)" fill="none" stroke="#00729c" stroke-miterlimit="10" stroke-width="11"/>
              <path id="Path_483" data-name="Path 483" d="M373.077,385.512c-32.027,0-57.488-22.98-57.488-51.319v-21c0-28.339,25.736-51.318,57.488-51.318h0c31.745,0,57.487,22.98,57.487,51.318v21C430.564,362.532,405.1,385.512,373.077,385.512Z" transform="translate(-246.262 -261.871)" fill="none" stroke="#00729c" stroke-miterlimit="10" stroke-width="11"/>
              <line id="Line_170" data-name="Line 170" y1="107.2" transform="translate(42.37 207.891)" fill="none" stroke="#00729c" stroke-miterlimit="10" stroke-width="11"/>
              <line id="Line_171" data-name="Line 171" y2="107.2" transform="translate(214.679 207.891)" fill="none" stroke="#00729c" stroke-miterlimit="10" stroke-width="11"/>
            </g>
            <g id="Group_70" data-name="Group 70" transform="translate(1611.081)">
              <path id="Rectangle_88" data-name="Rectangle 88" d="M13.249,0H240.376a13.249,13.249,0,0,1,13.249,13.249v160.14a0,0,0,0,1,0,0H0a0,0,0,0,1,0,0V13.249A13.249,13.249,0,0,1,13.249,0Z" transform="translate(0 141.702)" fill="none" stroke="#00729c" stroke-miterlimit="10" stroke-width="11"/>
              <path id="Path_484" data-name="Path 484" d="M419.939,385.512c-32.027,0-57.487-22.98-57.487-51.319v-21c0-28.339,25.736-51.318,57.487-51.318h0c31.752,0,57.488,22.98,57.488,51.318v21C477.427,362.532,451.966,385.512,419.939,385.512Z" transform="translate(-293.127 -261.871)" fill="none" stroke="#00729c" stroke-miterlimit="10" stroke-width="11"/>
              <line id="Line_172" data-name="Line 172" y1="107.2" transform="translate(42.37 207.891)" fill="none" stroke="#00729c" stroke-miterlimit="10" stroke-width="11"/>
              <line id="Line_173" data-name="Line 173" y2="107.2" transform="translate(214.679 207.891)" fill="none" stroke="#00729c" stroke-miterlimit="10" stroke-width="11"/>
            </g>
            <g id="Group_71" data-name="Group 71" transform="translate(1933.297)">
              <path id="Rectangle_89" data-name="Rectangle 89" d="M13.249,0H240.376a13.249,13.249,0,0,1,13.249,13.249v160.14a0,0,0,0,1,0,0H0a0,0,0,0,1,0,0V13.249A13.249,13.249,0,0,1,13.249,0Z" transform="translate(0 141.702)" fill="none" stroke="#00729c" stroke-miterlimit="10" stroke-width="11"/>
              <path id="Path_485" data-name="Path 485" d="M466.8,385.512c-32.02,0-57.487-22.98-57.487-51.319v-21c0-28.339,25.742-51.318,57.487-51.318h0c31.752,0,57.487,22.98,57.487,51.318v21C524.29,362.532,498.829,385.512,466.8,385.512Z" transform="translate(-339.992 -261.871)" fill="none" stroke="#00729c" stroke-miterlimit="10" stroke-width="11"/>
              <line id="Line_174" data-name="Line 174" y1="107.2" transform="translate(42.37 207.891)" fill="none" stroke="#00729c" stroke-miterlimit="10" stroke-width="11"/>
              <line id="Line_175" data-name="Line 175" y2="107.2" transform="translate(214.679 207.891)" fill="none" stroke="#00729c" stroke-miterlimit="10" stroke-width="11"/>
            </g>
            <g id="Group_72" data-name="Group 72" transform="translate(2255.514)">
              <path id="Rectangle_90" data-name="Rectangle 90" d="M13.249,0H240.375a13.249,13.249,0,0,1,13.249,13.249v160.14a0,0,0,0,1,0,0H0a0,0,0,0,1,0,0V13.249A13.249,13.249,0,0,1,13.249,0Z" transform="translate(0 141.702)" fill="none" stroke="#00729c" stroke-miterlimit="10" stroke-width="11"/>
              <path id="Path_486" data-name="Path 486" d="M513.667,385.512c-32.027,0-57.488-22.98-57.488-51.319v-21c0-28.339,25.736-51.318,57.488-51.318h0c31.745,0,57.487,22.98,57.487,51.318v21C571.154,362.532,545.686,385.512,513.667,385.512Z" transform="translate(-386.852 -261.871)" fill="none" stroke="#00729c" stroke-miterlimit="10" stroke-width="11"/>
              <line id="Line_176" data-name="Line 176" y1="107.2" transform="translate(42.37 207.891)" fill="none" stroke="#00729c" stroke-miterlimit="10" stroke-width="11"/>
              <line id="Line_177" data-name="Line 177" y2="107.2" transform="translate(214.679 207.891)" fill="none" stroke="#00729c" stroke-miterlimit="10" stroke-width="11"/>
            </g>
            <g id="Group_73" data-name="Group 73" transform="translate(2577.73)">
              <path id="Rectangle_91" data-name="Rectangle 91" d="M13.249,0H240.376a13.249,13.249,0,0,1,13.249,13.249v160.14a0,0,0,0,1,0,0H0a0,0,0,0,1,0,0V13.249A13.249,13.249,0,0,1,13.249,0Z" transform="translate(0 141.702)" fill="none" stroke="#00729c" stroke-miterlimit="10" stroke-width="11"/>
              <path id="Path_487" data-name="Path 487" d="M560.529,385.512c-32.027,0-57.487-22.98-57.487-51.319v-21c0-28.339,25.736-51.318,57.487-51.318h0c31.752,0,57.487,22.98,57.487,51.318v21C618.016,362.532,592.556,385.512,560.529,385.512Z" transform="translate(-433.717 -261.871)" fill="none" stroke="#00729c" stroke-miterlimit="10" stroke-width="11"/>
              <line id="Line_178" data-name="Line 178" y1="107.2" transform="translate(42.37 207.891)" fill="none" stroke="#00729c" stroke-miterlimit="10" stroke-width="11"/>
              <line id="Line_179" data-name="Line 179" y2="107.2" transform="translate(214.679 207.891)" fill="none" stroke="#00729c" stroke-miterlimit="10" stroke-width="11"/>
            </g>
          </g>
          <g id="Group_84" data-name="Group 84" transform="translate(-341.936 472.556)">
            <g id="Group_75" data-name="Group 75">
              <path id="Rectangle_92" data-name="Rectangle 92" d="M13.249,0H240.375a13.249,13.249,0,0,1,13.249,13.249v160.14a0,0,0,0,1,0,0H0a0,0,0,0,1,0,0V13.249A13.249,13.249,0,0,1,13.249,0Z" transform="translate(0 141.702)" fill="none" stroke="#00729c" stroke-miterlimit="10" stroke-width="11"/>
              <path id="Path_488" data-name="Path 488" d="M161.872,325.814c-32.027,0-57.487-22.98-57.487-51.319v-21c0-28.338,25.736-51.319,57.487-51.319h0c31.752,0,57.487,22.98,57.487,51.319v21C219.36,302.834,193.892,325.814,161.872,325.814Z" transform="translate(-35.06 -202.173)" fill="none" stroke="#00729c" stroke-miterlimit="10" stroke-width="11"/>
              <line id="Line_180" data-name="Line 180" y1="107.2" transform="translate(42.37 207.891)" fill="none" stroke="#00729c" stroke-miterlimit="10" stroke-width="11"/>
              <line id="Line_181" data-name="Line 181" y2="107.2" transform="translate(214.679 207.891)" fill="none" stroke="#00729c" stroke-miterlimit="10" stroke-width="11"/>
            </g>
            <g id="Group_76" data-name="Group 76" transform="translate(322.216)">
              <path id="Rectangle_93" data-name="Rectangle 93" d="M13.249,0H240.375a13.249,13.249,0,0,1,13.249,13.249v160.14a0,0,0,0,1,0,0H0a0,0,0,0,1,0,0V13.249A13.249,13.249,0,0,1,13.249,0Z" transform="translate(0 141.702)" fill="none" stroke="#00729c" stroke-miterlimit="10" stroke-width="11"/>
              <path id="Path_489" data-name="Path 489" d="M208.735,325.814c-32.02,0-57.487-22.98-57.487-51.319v-21c0-28.338,25.742-51.319,57.487-51.319h0c31.752,0,57.487,22.98,57.487,51.319v21C266.223,302.834,240.762,325.814,208.735,325.814Z" transform="translate(-81.925 -202.173)" fill="none" stroke="#00729c" stroke-miterlimit="10" stroke-width="11"/>
              <line id="Line_182" data-name="Line 182" y1="107.2" transform="translate(42.37 207.891)" fill="none" stroke="#00729c" stroke-miterlimit="10" stroke-width="11"/>
              <line id="Line_183" data-name="Line 183" y2="107.2" transform="translate(214.679 207.891)" fill="none" stroke="#00729c" stroke-miterlimit="10" stroke-width="11"/>
            </g>
            <g id="Group_77" data-name="Group 77" transform="translate(644.432)">
              <path id="Rectangle_94" data-name="Rectangle 94" d="M13.249,0H240.376a13.249,13.249,0,0,1,13.249,13.249v160.14a0,0,0,0,1,0,0H0a0,0,0,0,1,0,0V13.249A13.249,13.249,0,0,1,13.249,0Z" transform="translate(0 141.702)" fill="none" stroke="#00729c" stroke-miterlimit="10" stroke-width="11"/>
              <path id="Path_490" data-name="Path 490" d="M255.6,325.814c-32.027,0-57.487-22.98-57.487-51.319v-21c0-28.338,25.736-51.319,57.487-51.319h0c31.745,0,57.487,22.98,57.487,51.319v21C313.087,302.834,287.619,325.814,255.6,325.814Z" transform="translate(-128.785 -202.173)" fill="none" stroke="#00729c" stroke-miterlimit="10" stroke-width="11"/>
              <line id="Line_184" data-name="Line 184" y1="107.2" transform="translate(42.37 207.891)" fill="none" stroke="#00729c" stroke-miterlimit="10" stroke-width="11"/>
              <line id="Line_185" data-name="Line 185" y2="107.2" transform="translate(214.679 207.891)" fill="none" stroke="#00729c" stroke-miterlimit="10" stroke-width="11"/>
            </g>
            <g id="Group_78" data-name="Group 78" transform="translate(966.649)">
              <path id="Rectangle_95" data-name="Rectangle 95" d="M13.249,0H240.375a13.249,13.249,0,0,1,13.249,13.249v160.14a0,0,0,0,1,0,0H0a0,0,0,0,1,0,0V13.249A13.249,13.249,0,0,1,13.249,0Z" transform="translate(0 141.702)" fill="none" stroke="#00729c" stroke-miterlimit="10" stroke-width="11"/>
              <path id="Path_491" data-name="Path 491" d="M302.462,325.814c-32.027,0-57.487-22.98-57.487-51.319v-21c0-28.338,25.736-51.319,57.487-51.319h0c31.752,0,57.487,22.98,57.487,51.319v21C359.95,302.834,334.489,325.814,302.462,325.814Z" transform="translate(-175.65 -202.173)" fill="none" stroke="#00729c" stroke-miterlimit="10" stroke-width="11"/>
              <line id="Line_186" data-name="Line 186" y1="107.2" transform="translate(42.37 207.891)" fill="none" stroke="#00729c" stroke-miterlimit="10" stroke-width="11"/>
              <line id="Line_187" data-name="Line 187" y2="107.2" transform="translate(214.679 207.891)" fill="none" stroke="#00729c" stroke-miterlimit="10" stroke-width="11"/>
            </g>
            <g id="Group_79" data-name="Group 79" transform="translate(1288.865)">
              <path id="Rectangle_96" data-name="Rectangle 96" d="M13.249,0H240.375a13.249,13.249,0,0,1,13.249,13.249v160.14a0,0,0,0,1,0,0H0a0,0,0,0,1,0,0V13.249A13.249,13.249,0,0,1,13.249,0Z" transform="translate(0 141.702)" fill="none" stroke="#00729c" stroke-miterlimit="10" stroke-width="11"/>
              <path id="Path_492" data-name="Path 492" d="M349.325,325.814c-32.02,0-57.487-22.98-57.487-51.319v-21c0-28.338,25.742-51.319,57.487-51.319h0c31.752,0,57.487,22.98,57.487,51.319v21C406.813,302.834,381.352,325.814,349.325,325.814Z" transform="translate(-222.515 -202.173)" fill="none" stroke="#00729c" stroke-miterlimit="10" stroke-width="11"/>
              <line id="Line_188" data-name="Line 188" y1="107.2" transform="translate(42.37 207.891)" fill="none" stroke="#00729c" stroke-miterlimit="10" stroke-width="11"/>
              <line id="Line_189" data-name="Line 189" y2="107.2" transform="translate(214.679 207.891)" fill="none" stroke="#00729c" stroke-miterlimit="10" stroke-width="11"/>
            </g>
            <g id="Group_80" data-name="Group 80" transform="translate(1611.081)">
              <path id="Rectangle_97" data-name="Rectangle 97" d="M13.249,0H240.376a13.249,13.249,0,0,1,13.249,13.249v160.14a0,0,0,0,1,0,0H0a0,0,0,0,1,0,0V13.249A13.249,13.249,0,0,1,13.249,0Z" transform="translate(0 141.702)" fill="none" stroke="#00729c" stroke-miterlimit="10" stroke-width="11"/>
              <path id="Path_493" data-name="Path 493" d="M396.189,325.814c-32.027,0-57.487-22.98-57.487-51.319v-21c0-28.338,25.736-51.319,57.487-51.319h0c31.745,0,57.487,22.98,57.487,51.319v21C453.677,302.834,428.209,325.814,396.189,325.814Z" transform="translate(-269.374 -202.173)" fill="none" stroke="#00729c" stroke-miterlimit="10" stroke-width="11"/>
              <line id="Line_190" data-name="Line 190" y1="107.2" transform="translate(42.37 207.891)" fill="none" stroke="#00729c" stroke-miterlimit="10" stroke-width="11"/>
              <line id="Line_191" data-name="Line 191" y2="107.2" transform="translate(214.679 207.891)" fill="none" stroke="#00729c" stroke-miterlimit="10" stroke-width="11"/>
            </g>
            <g id="Group_81" data-name="Group 81" transform="translate(1933.297)">
              <path id="Rectangle_98" data-name="Rectangle 98" d="M13.249,0H240.375a13.249,13.249,0,0,1,13.249,13.249v160.14a0,0,0,0,1,0,0H0a0,0,0,0,1,0,0V13.249A13.249,13.249,0,0,1,13.249,0Z" transform="translate(0 141.702)" fill="none" stroke="#00729c" stroke-miterlimit="10" stroke-width="11"/>
              <path id="Path_494" data-name="Path 494" d="M443.052,325.814c-32.027,0-57.487-22.98-57.487-51.319v-21c0-28.338,25.736-51.319,57.487-51.319h0c31.752,0,57.487,22.98,57.487,51.319v21C500.54,302.834,475.079,325.814,443.052,325.814Z" transform="translate(-316.24 -202.173)" fill="none" stroke="#00729c" stroke-miterlimit="10" stroke-width="11"/>
              <line id="Line_192" data-name="Line 192" y1="107.2" transform="translate(42.37 207.891)" fill="none" stroke="#00729c" stroke-miterlimit="10" stroke-width="11"/>
              <line id="Line_193" data-name="Line 193" y2="107.2" transform="translate(214.679 207.891)" fill="none" stroke="#00729c" stroke-miterlimit="10" stroke-width="11"/>
            </g>
            <g id="Group_82" data-name="Group 82" transform="translate(2255.514)">
              <path id="Rectangle_99" data-name="Rectangle 99" d="M13.249,0H240.375a13.249,13.249,0,0,1,13.249,13.249v160.14a0,0,0,0,1,0,0H0a0,0,0,0,1,0,0V13.249A13.249,13.249,0,0,1,13.249,0Z" transform="translate(0 141.702)" fill="none" stroke="#00729c" stroke-miterlimit="10" stroke-width="11"/>
              <path id="Path_495" data-name="Path 495" d="M489.915,325.814c-32.02,0-57.487-22.98-57.487-51.319v-21c0-28.338,25.742-51.319,57.487-51.319h0c31.752,0,57.487,22.98,57.487,51.319v21C547.4,302.834,521.942,325.814,489.915,325.814Z" transform="translate(-363.105 -202.173)" fill="none" stroke="#00729c" stroke-miterlimit="10" stroke-width="11"/>
              <line id="Line_194" data-name="Line 194" y1="107.2" transform="translate(42.37 207.891)" fill="none" stroke="#00729c" stroke-miterlimit="10" stroke-width="11"/>
              <line id="Line_195" data-name="Line 195" y2="107.2" transform="translate(214.679 207.891)" fill="none" stroke="#00729c" stroke-miterlimit="10" stroke-width="11"/>
            </g>
            <g id="Group_83" data-name="Group 83" transform="translate(2577.73)">
              <path id="Rectangle_100" data-name="Rectangle 100" d="M13.249,0H240.376a13.249,13.249,0,0,1,13.249,13.249v160.14a0,0,0,0,1,0,0H0a0,0,0,0,1,0,0V13.249A13.249,13.249,0,0,1,13.249,0Z" transform="translate(0 141.702)" fill="none" stroke="#00729c" stroke-miterlimit="10" stroke-width="11"/>
              <path id="Path_496" data-name="Path 496" d="M536.78,325.814c-32.027,0-57.488-22.98-57.488-51.319v-21c0-28.338,25.736-51.319,57.488-51.319h0c31.745,0,57.487,22.98,57.487,51.319v21C594.267,302.834,568.8,325.814,536.78,325.814Z" transform="translate(-409.964 -202.173)" fill="none" stroke="#00729c" stroke-miterlimit="10" stroke-width="11"/>
              <line id="Line_196" data-name="Line 196" y1="107.2" transform="translate(42.37 207.891)" fill="none" stroke="#00729c" stroke-miterlimit="10" stroke-width="11"/>
              <line id="Line_197" data-name="Line 197" y2="107.2" transform="translate(214.679 207.891)" fill="none" stroke="#00729c" stroke-miterlimit="10" stroke-width="11"/>
            </g>
          </g>
        </g>
      </g>
      <g id="Group_87" data-name="Group 87" transform="translate(767.796 186.084)">
        <path id="Path_497" data-name="Path 497" d="M1070.793,979.965c-183.549,183.557-481.155,183.557-664.7,0s-183.557-481.146,0-664.7,481.155-183.557,664.7,0S1254.35,796.417,1070.793,979.965Z" transform="translate(-268.422 -177.595)" stroke="#000000" stroke-width="11"/>
      </g>
      <g id="Group_90" data-name="Group 90" transform="translate(1026.862 354.356)">
        <g id="Group_88" data-name="Group 88" transform="translate(38.295 143.868)">
          <path id="Rectangle_102" data-name="Rectangle 102" d="M18.044,0H339.151A18.044,18.044,0,0,1,357.2,18.044V367.719a0,0,0,0,1,0,0H0a0,0,0,0,1,0,0V18.044A18.044,18.044,0,0,1,18.044,0Z" transform="translate(0 218.692)" fill="none" stroke="#00729c" stroke-miterlimit="10" stroke-width="11"/>
          <path id="Path_498" data-name="Path 498" d="M396.371,411.253c-45.1,0-80.96-35.455-80.96-79.2V299.644c0-43.74,36.24-79.2,80.96-79.2h0c44.711,0,80.959,35.463,80.959,79.2V332.05C477.33,375.8,441.47,411.253,396.371,411.253Z" transform="translate(-217.772 -220.441)" fill="none" stroke="#00729c" stroke-miterlimit="10" stroke-width="11"/>
          <rect id="Rectangle_103" data-name="Rectangle 103" width="10.295" height="265.566" transform="translate(59.672 320.845)" fill="#00729c" stroke="#707070" stroke-width="11"/>
          <rect id="Rectangle_104" data-name="Rectangle 104" width="10.295" height="265.566" transform="translate(292.051 320.845)" fill="#00729c" stroke="#707070" stroke-width="11"/>
        </g>
        <g id="Group_89" data-name="Group 89">
          <line id="Line_198" data-name="Line 198" y2="53.76" transform="translate(217.87)" fill="none" stroke="#fff" stroke-linecap="round" stroke-linejoin="round" stroke-width="11"/>
          <line id="Line_199" data-name="Line 199" x2="26.88" y2="46.558" transform="translate(108.935 29.189)" fill="none" stroke="#fff" stroke-linecap="round" stroke-linejoin="round" stroke-width="11"/>
          <line id="Line_200" data-name="Line 200" x2="46.557" y2="26.88" transform="translate(29.189 108.935)" fill="none" stroke="#fff" stroke-linecap="round" stroke-linejoin="round" stroke-width="11"/>
          <line id="Line_201" data-name="Line 201" x2="46.558" y2="26.88" transform="translate(359.993 299.925)" fill="none" stroke="#fff" stroke-linecap="round" stroke-linejoin="round" stroke-width="11"/>
          <line id="Line_202" data-name="Line 202" x2="53.76" transform="translate(0 217.87)" fill="none" stroke="#fff" stroke-linecap="round" stroke-linejoin="round" stroke-width="11"/>
          <line id="Line_203" data-name="Line 203" x2="53.76" transform="translate(381.979 217.87)" fill="none" stroke="#fff" stroke-linecap="round" stroke-linejoin="round" stroke-width="11"/>
          <line id="Line_204" data-name="Line 204" y1="26.88" x2="46.557" transform="translate(29.189 299.925)" fill="none" stroke="#fff" stroke-linecap="round" stroke-linejoin="round" stroke-width="11"/>
          <line id="Line_205" data-name="Line 205" y1="26.88" x2="46.558" transform="translate(359.993 108.935)" fill="none" stroke="#fff" stroke-linecap="round" stroke-linejoin="round" stroke-width="11"/>
          <line id="Line_206" data-name="Line 206" y1="46.558" x2="26.88" transform="translate(299.924 29.189)" fill="none" stroke="#fff" stroke-linecap="round" stroke-linejoin="round" stroke-width="11"/>
        </g>
      </g>
      <g id="Group_92" data-name="Group 92" transform="translate(1436.324 745.57)">
        <line id="Line_207" data-name="Line 207" y1="128.251" x2="128.251" transform="translate(133.469 134.059)" fill="#00729c"/>
        <path id="Path_499" data-name="Path 499" d="M651.137,431.958,510.771,291.592,382.524,419.839,522.89,560.2a90.687,90.687,0,0,0,128.247,0h0A90.687,90.687,0,0,0,651.137,431.958Z" transform="translate(-209.22 -117.697)" fill="#00729c"/>
        <g id="Group_91" data-name="Group 91">
          <path id="Path_500" data-name="Path 500" d="M493.027,299.906h0l-115.22,115.22,34.522,34.523L540.581,321.4l-34.523-34.523Z" transform="translate(-244.338 -152.816)"/>
          <path id="Path_501" data-name="Path 501" d="M605.381,412.778,463.6,271h0a315.742,315.742,0,0,1-94.3,97.918L362,373.785,503.189,514.97Z" transform="translate(-362.004 -271.002)" fill="#00729c"/>
        </g>
      </g>
      <g id="Group_93" data-name="Group 93" transform="translate(670.52 84.734)">
        <path id="Path_502" data-name="Path 502" d="M1391.44,733.346c0-313.29-253.976-567.266-567.266-567.266S256.908,420.056,256.908,733.346s253.977,567.266,567.266,567.266S1391.44,1046.636,1391.44,733.346ZM824.174,1203.369c-259.584,0-470.023-210.439-470.023-470.023S564.59,263.331,824.174,263.331s470.015,210.431,470.015,470.015S1083.759,1203.369,824.174,1203.369Z" transform="translate(-256.908 -166.08)" fill="#00729c"/>
      </g>
    </g>
  </g>
</svg>
