<svg id="Layer_1" data-name="Layer 1" xmlns="http://www.w3.org/2000/svg" viewBox="0 0 499.5 337.62"><defs><style>.cls-1{fill:none;stroke:#07739d;stroke-miterlimit:10;}.cls-2{fill:#535353;}.cls-3{fill:#07739d;}.cls-11,.cls-12,.cls-14,.cls-4{font-size:14.31px;font-family:NunitoSans-Bold, Nunito Sans;font-weight:700;}.cls-4{fill:#e45354;}.cls-5{letter-spacing:-0.12em;}.cls-6{letter-spacing:0em;}.cls-7{letter-spacing:0em;}.cls-8{letter-spacing:-0.04em;}.cls-9{letter-spacing:-0.01em;}.cls-10{letter-spacing:0em;}.cls-11{fill:#29b574;}.cls-12{fill:#fab46d;}.cls-13{letter-spacing:-0.04em;}.cls-14{fill:#c2bfdf;}</style></defs><title>CTO</title><path class="cls-1" d="M563.71,370.82c-4-2-7.54-1.33-18.63-1.33-10.31,0-38.84,8.62-45.47,9.12a3.8,3.8,0,0,1-1.12,0c-3.32-.89-13-3.74-13-3.74a80.44,80.44,0,0,0-12.63-7.58c-2.4,1.33-13.39,2.7-13.39,2.7-9.35,1.65-24.19,1.65-24.19,1.65-27.48.55-42.93-.57-42.93-.57h0s-3.32,2-6.88,3.92a48.64,48.64,0,0,1-7.61,3.62c-3.33.89-35.49-9.09-46.59-9.09s-14.64-.67-18.63,1.33-12.2,17.52-11.54,22.18,29.06,23.74,34.17,28.17a35.06,35.06,0,0,0,13.62,6.76l44,14c-1.28.22-2.55.43-3.71.55-4.21.44-27.73,1.11-34.16,3.55s-14,12-9.32,16.42,16.19,2.66,22,1.55,33.94-2,37.49-3.11c2.33-.72,6-1.64,9.55-3.06a12.08,12.08,0,0,1,1,2.9s7.55-2.26,18.74-5.58l12.48,4,7.05-5.08h0a15.06,15.06,0,0,1,2.49,1.1c4.66,3.1,11.31,4.65,14.86,5.76s31.72,2,37.49,3.11,17.31,2.88,22-1.55-2.88-14-9.31-16.42-29.95-3.11-34.17-3.55c-2.05-.21-4.42-.69-6.62-1,20.52-6,39.47-11.57,45.56-13.17h0c6.69-2.51,10.53-3.95,15-7.1,5.51-3.91,33.49-23.51,34.16-28.17S567.71,372.81,563.71,370.82Z" transform="translate(-161.09 -128.17)"/><polygon class="cls-1" points="284.68 125.74 270.13 150.88 277.08 157.02 291.58 128.04 284.68 125.74"/><polygon class="cls-1" points="252.75 128.31 262.32 157.57 270.13 150.88 258.46 125.74 252.75 128.31"/><path class="cls-2" d="M417.31,391.78l-1.11-.65A10.26,10.26,0,0,1,417.31,391.78Z" transform="translate(-161.09 -128.17)"/><path class="cls-3" d="M344.85,387.31s4.66,4.78,17.45,7.54c13.53,2.92,44.52,21.49,44.52,21.49s-18.91-12.89-28.1-19.42C365.18,387.31,344.85,387.31,344.85,387.31Z" transform="translate(-161.09 -128.17)"/><path class="cls-3" d="M474.11,402.76c-9.66,5.82-39.77,26.52-39.77,26.52s53.89-28.29,75.89-34.43c12.6-3.51,17.45-7.54,17.45-7.54S494.37,390.56,474.11,402.76Z" transform="translate(-161.09 -128.17)"/><path class="cls-3" d="M377.83,378.58s30.36,8.36,38.37,12.55c-5.27-3.08-27.47-15.94-30.76-16.17A48.64,48.64,0,0,1,377.83,378.58Z" transform="translate(-161.09 -128.17)"/><path class="cls-3" d="M499.61,378.61a3.8,3.8,0,0,1-1.12,0c-3.32-.89-13-3.74-13-3.74-10.42,2-30.78,16.71-31.09,16.94,7-3.88,45.24-13.16,45.24-13.16Z" transform="translate(-161.09 -128.17)"/><path class="cls-1" d="M438.61,304.16a57.76,57.76,0,0,0-4.21-18,10.44,10.44,0,0,0,2.94-1.69l-6.12-5.41-6.3,5.41a10.63,10.63,0,0,0,3.7,2,159.82,159.82,0,0,0-1.88,17.26c-.11,7-9.42,47.92-9.42,47.92l4.43,9.7L432.07,354C434.18,346.75,439.28,315.36,438.61,304.16Z" transform="translate(-161.09 -128.17)"/><path class="cls-3" d="M380.4,177.55l-1.58,1.69c1.08,1,2.15,2.1,3.17,3.24l1.73-1.55C382.65,179.74,381.53,178.6,380.4,177.55Z" transform="translate(-161.09 -128.17)"/><path class="cls-3" d="M266.48,337.75a62.79,62.79,0,0,0,9,2.21l.38-2.29a59.82,59.82,0,0,1-8.64-2.12Z" transform="translate(-161.09 -128.17)"/><path class="cls-3" d="M284.68,338.47l0,2.31a55.58,55.58,0,0,0,9.23-.66l-.36-2.28A54.17,54.17,0,0,1,284.68,338.47Z" transform="translate(-161.09 -128.17)"/><path class="cls-3" d="M302.14,335.73l.74,2.19a53.25,53.25,0,0,0,8.48-3.73l-1.11-2A52.16,52.16,0,0,1,302.14,335.73Z" transform="translate(-161.09 -128.17)"/><path class="cls-3" d="M324.43,202.11l-2.28.35c.11.77.26,1.56.43,2.34.46,2.1,1,4.26,1.66,6.63l2.24-.62c-.65-2.33-1.18-4.45-1.63-6.51C324.68,203.57,324.55,202.83,324.43,202.11Z" transform="translate(-161.09 -128.17)"/><path class="cls-3" d="M250,329.58a63.14,63.14,0,0,0,8,4.68l1-2.07a62.54,62.54,0,0,1-7.68-4.51Z" transform="translate(-161.09 -128.17)"/><path class="cls-3" d="M338.41,172.52l-1.14-2a30.88,30.88,0,0,0-7.38,5.79l1.68,1.59A28.86,28.86,0,0,1,338.41,172.52Z" transform="translate(-161.09 -128.17)"/><path class="cls-3" d="M228.84,300.05a39.62,39.62,0,0,0,3,8.83l2.09-1a38,38,0,0,1-2.81-8.32Z" transform="translate(-161.09 -128.17)"/><path class="cls-3" d="M230.5,289.9a35.43,35.43,0,0,1,1.49-7.67l-2.21-.69a38.27,38.27,0,0,0-1.59,8.16c0,.35-.05.69-.07,1l2.31.13C230.45,290.54,230.47,290.22,230.5,289.9Z" transform="translate(-161.09 -128.17)"/><path class="cls-3" d="M238.47,315.46l-1.86,1.38a54.7,54.7,0,0,0,6.16,6.92l1.6-1.68A51.51,51.51,0,0,1,238.47,315.46Z" transform="translate(-161.09 -128.17)"/><path class="cls-3" d="M317.65,327.27l1.43,1.82a61.25,61.25,0,0,0,6.8-6.25l-1.69-1.59A58.52,58.52,0,0,1,317.65,327.27Z" transform="translate(-161.09 -128.17)"/><path class="cls-3" d="M346,167.11l.52,2.26a31.67,31.67,0,0,1,8.7-.76l.11-2.31A33.91,33.91,0,0,0,346,167.11Z" transform="translate(-161.09 -128.17)"/><path class="cls-3" d="M338.25,298.4l-.1.27,2.19.76.1-.27a58.9,58.9,0,0,0,2.26-8.66l-2.27-.41A57,57,0,0,1,338.25,298.4Z" transform="translate(-161.09 -128.17)"/><path class="cls-3" d="M341.14,272.32a74.92,74.92,0,0,1,.24,8.92l2.31.09a75.35,75.35,0,0,0-.24-9.2Z" transform="translate(-161.09 -128.17)"/><path class="cls-3" d="M363.82,170.21a37.24,37.24,0,0,1,8,3.68l1.2-2a39.36,39.36,0,0,0-8.46-3.91Z" transform="translate(-161.09 -128.17)"/><path class="cls-3" d="M342.21,263c-.52-2.86-1.17-5.78-2-8.94l-2.24.57c.8,3.11,1.43,6,1.94,8.79Z" transform="translate(-161.09 -128.17)"/><path class="cls-3" d="M333.25,309.09c-1.08,1.83-2.24,3.6-3.43,5.26l1.89,1.35c1.22-1.72,2.41-3.54,3.53-5.42.48-.79.93-1.59,1.36-2.39l-2-1.1C334.15,307.56,333.71,308.33,333.25,309.09Z" transform="translate(-161.09 -128.17)"/><path class="cls-3" d="M329.1,219.44l-2.2.72c.94,2.9,2,5.86,2.9,8.62L332,228C331.05,225.27,330,222.32,329.1,219.44Z" transform="translate(-161.09 -128.17)"/><path class="cls-3" d="M332.74,237.36c1.11,3.31,2,6,2.79,8.61l2.21-.68c-.8-2.59-1.69-5.34-2.81-8.67Z" transform="translate(-161.09 -128.17)"/><path class="cls-3" d="M323.41,187a31.28,31.28,0,0,0-1.42,6.1l2.3.3a28,28,0,0,1,1.31-5.64,28.8,28.8,0,0,1,1.1-2.7l-2.1-1C324.16,185,323.76,186,323.41,187Z" transform="translate(-161.09 -128.17)"/><path class="cls-3" d="M235.24,270.68c-.54.74-1.05,1.5-1.53,2.26l2,1.22c.33-.53.69-1.06,1.06-1.59l3.83,9.48c.82-6.66,4.11-15.21,7.38-21.42-6.53,2.57-15.38,4.92-22.09,5Z" transform="translate(-161.09 -128.17)"/><path class="cls-3" d="M603.78,314.23l.81,2.17c1.5-.56,3-1.18,4.36-1.85l-1-2.09C606.61,313.1,605.21,313.69,603.78,314.23Z" transform="translate(-161.09 -128.17)"/><path class="cls-3" d="M500.07,217.49l-1.94,1.27c1.15,1.77,2.42,3.54,3.76,5.27.56.73,1.14,1.44,1.73,2.13l1.76-1.5c-.56-.66-1.12-1.35-1.66-2C502.42,220.93,501.19,219.21,500.07,217.49Z" transform="translate(-161.09 -128.17)"/><path class="cls-3" d="M515.07,137.58a63.93,63.93,0,0,0-7.26,5.71l1.55,1.71a61.34,61.34,0,0,1,7-5.49Z" transform="translate(-161.09 -128.17)"/><path class="cls-3" d="M511.63,231l-1.51,1.75.23.2a59.07,59.07,0,0,0,7.22,5.27l1.22-2a57.13,57.13,0,0,1-6.94-5.07Z" transform="translate(-161.09 -128.17)"/><path class="cls-3" d="M531.81,129.82a54.39,54.39,0,0,0-8.7,3.2l1,2.1a51.88,51.88,0,0,1,8.31-3.07Z" transform="translate(-161.09 -128.17)"/><path class="cls-3" d="M490.28,202.11a60.67,60.67,0,0,0,3.34,8.61l2.09-1a59.77,59.77,0,0,1-3.21-8.29Z" transform="translate(-161.09 -128.17)"/><path class="cls-3" d="M494.12,166.66l-2.15-.87a56.8,56.8,0,0,0-2.76,8.84l2.26.5A54.56,54.56,0,0,1,494.12,166.66Z" transform="translate(-161.09 -128.17)"/><path class="cls-3" d="M501.44,150a62.82,62.82,0,0,0-5.34,7.54l2,1.19a61.12,61.12,0,0,1,5.13-7.26Z" transform="translate(-161.09 -128.17)"/><path class="cls-3" d="M490.29,183.91l-2.31-.1a54,54,0,0,0,.37,9.25l2.3-.29A52.56,52.56,0,0,1,490.29,183.91Z" transform="translate(-161.09 -128.17)"/><path class="cls-3" d="M525.75,242.47a75.32,75.32,0,0,0,8.66,3.13l.66-2.22a70.71,70.71,0,0,1-8.39-3Z" transform="translate(-161.09 -128.17)"/><path class="cls-3" d="M631.26,277a31,31,0,0,0-2.69-9l-2.09,1A28.7,28.7,0,0,1,629,277.3Z" transform="translate(-161.09 -128.17)"/><path class="cls-3" d="M621.58,261.82l1.69-1.59a29.83,29.83,0,0,0-7.45-5.73l-1.11,2a28.72,28.72,0,0,1,4.76,3.28A26.76,26.76,0,0,1,621.58,261.82Z" transform="translate(-161.09 -128.17)"/><path class="cls-3" d="M606.53,253.48l.51-2.26c-.76-.17-1.55-.32-2.34-.45-2.12-.33-4.33-.62-6.77-.87l-.24,2.3c2.4.25,4.57.53,6.65.86C605.08,253.18,605.82,253.32,606.53,253.48Z" transform="translate(-161.09 -128.17)"/><path class="cls-3" d="M626.47,294.38l2.11,1a34,34,0,0,0,2.65-9l-2.29-.34A31.81,31.81,0,0,1,626.47,294.38Z" transform="translate(-161.09 -128.17)"/><path class="cls-3" d="M615.5,307.88l1.4,1.85a39.36,39.36,0,0,0,6.73-6.46l-1.79-1.47A37.39,37.39,0,0,1,615.5,307.88Z" transform="translate(-161.09 -128.17)"/><path class="cls-3" d="M579.64,251.05c2.91.12,6,.27,9.05.45l.14-2.32c-3-.18-6.17-.32-9.09-.45Z" transform="translate(-161.09 -128.17)"/><path class="cls-3" d="M561.47,250.09c2.71.21,5.6.38,9.1.56l.11-2.32c-3.48-.17-6.35-.34-9-.55Z" transform="translate(-161.09 -128.17)"/><path class="cls-3" d="M567.16,136.35a38.09,38.09,0,0,0-7-4.46l-.93-.44-1,2.1.87.42a36.7,36.7,0,0,1,6.6,4.18Z" transform="translate(-161.09 -128.17)"/><path class="cls-3" d="M549.89,131l.39-2.29a39.92,39.92,0,0,0-9.31-.45l.15,2.31A37.48,37.48,0,0,1,549.89,131Z" transform="translate(-161.09 -128.17)"/><path class="cls-3" d="M543.33,247.78c2.86.56,5.82,1,9,1.42l.29-2.3c-3.18-.39-6.09-.85-8.89-1.4Z" transform="translate(-161.09 -128.17)"/><path class="cls-3" d="M583.39,138.5l-8.11,6.9c-.5-.77-1-1.52-1.55-2.24l-1.85,1.38c.37.51.74,1,1.09,1.56l-10.22.11c5.9,3.19,12.66,9.38,17.25,14.69C580,153.89,581,144.79,583.39,138.5Z" transform="translate(-161.09 -128.17)"/><path class="cls-1" d="M623,233.84c-1-.46-15.72,2.89-21.06,4.12,0,0,0-.09-.05-.13,5.45-1.69,21-6.53,21.7-7s-.06-2.78-.92-2.89c-1.24-.16-17.86,3.73-23.16,5l-.19-.32c3.9-1.91,14.59-7.17,15.95-7.87,1.67-.85,1.26-2-.43-2.66-1.53-.57-16.42,6-19.41,7.38-2.93.81-8.93,4.95-8.79,2.85.15-2.38,2.79-13,.53-14.32s-2.8,5.84-3.64,7.77c-.62,1.45-2.39,6.16-2.45,9.79a5.94,5.94,0,0,1-.63,2.32c-.52-1.22-.89-2-.89-2s-71.68,22.84-76.91,23.93c-2.68.55-23.34-.63-43.48-1.47-6.55-2.12-12.76-4.11-12.76-4.11h-.75a3.91,3.91,0,0,0,.29-.59c-.85-1.91-.52-8.58-.23-12.67,3.07-3.54,5.84-9.11,7.31-17.88.5.36.86-.47.86-.47.14-.5,4-11.19,3.17-13.59a1.26,1.26,0,0,0-2.07-.78c1.09-6.83,2.54-18,1.24-22.45-1.93-6.63-11.53-4.6-11.53-4.6-30.79-9.06-33.66,6.21-34.56,8.75-.53,1.49.51,10.52,1.46,17.71-.63-.26-1.34-.22-1.75.91-.86,2.38,2.74,13.14,2.9,13.65,0,0,.39.93.93.44,1.61,9.32,4.4,15.06,7.31,18.61a101.49,101.49,0,0,1-1.55,10.91s.45,1.56.64,2.2c-1.44.48-6.32,2.12-12.22,4.16-23.06.75-52.39,2.6-55.62,1.93-5.23-1.08-76.91-23.92-76.91-23.92s-.36.78-.88,2a5.81,5.81,0,0,1-.63-2.32c-.07-3.63-1.83-8.34-2.46-9.79-.84-1.94-1.38-9.13-3.64-7.78s.38,11.95.53,14.32c.14,2.1-5.86-2-8.79-2.84-3-1.34-17.88-7.95-19.4-7.38-1.7.63-2.11,1.81-.44,2.66,1.36.7,12.06,6,16,7.87l-.2.32c-5.29-1.25-21.92-5.14-23.16-5-.85.11-1.77,2.35-.91,2.9.7.46,16.24,5.3,21.69,7,0,0,0,.09,0,.13-5.34-1.24-20.06-4.58-21.06-4.12s-1.45,2.75.13,3.25c1.28.42,14.64,4.5,19.61,6,0,.1,0,.19,0,.28-4.27-.64-14.42-2.06-15.07-1.16-.5.7-1.37,2.59,2.82,3.12s13.88,2.92,13.88,2.92l0,0a2.52,2.52,0,0,0,.25.21c5.74,3.14,14,2.06,14.89,2.84a16.39,16.39,0,0,0,2.25,1.46,4.75,4.75,0,0,0,.44,1.68c2.38,4.41,65.64,30.9,75.8,31.82,4.61.41,13,0,20.85-.59-3.07,5.42-5.57,10.24-6.51,11.37-2.22,2.66-15.94,25.66-28.69,32.38-6.86,3.62-42.12,37.31-44.48,39.08a1,1,0,0,0-.25,1.16c-3.78-1.33-10.48-6.13-13.32-6s-8.47,2.23-9.76,3.73-9.21,8-8.49,9.59,2,2.27,1.69,2.85-12.33,5.38-13,7.77,6.6,1.13,7.39,1.65c0,0-2.33,2.12,1.78,2.63a25.82,25.82,0,0,0,7-.06s-1.34,3.07,4.13,2.24,17.65-5.18,19.27-6.92,9.19-6,10.26-7.58A1.76,1.76,0,0,0,295,379c1.21,1.15,2.1,1.95,2.1,1.95s40.11-26.47,47.06-30.17,12.72-10.72,14.64-13.68,24.4-27.88,24.4-27.88,8.43,18.49,10.8,28.1,2.18,14,1.18,17-1.88,6.08-2.81,16.71c-.22,2.51,56.77-.82,63.43-.48s16.91-2.7,16.91-2.7-2-16.93-2.1-21.52,1.77-17.74,4.14-22.77,4-18.78,4-18.78,20.41,22.33,23.51,25.14,8,12.12,12.35,16.56,60.86,28.25,60.86,28.25a.68.68,0,0,0,.72-.06c1.79,2.62,5.86,7.11,6.69,8.85,1,2.15,10.83,8.93,15.51,11.9s5.4-.39,5.4-.39a26,26,0,0,0,6.17,2.2c4,1,3-2,3-2,.91-.26,7.41,3.12,7.54.65s-9.88-10.66-10-11.31,1.3-.91,2.47-2.21-4.42-9.88-5.2-11.7-5.46-5.46-8.19-6.49-10.92,1.68-14.82,1.68h-2.54c.34-.63.54-1,.54-1s-15.38-7.25-24.41-14.79S525.57,327,525,326.38s-21.78-25.56-27.49-40.12a88.73,88.73,0,0,0,10.55,0c10.16-.92,73.43-27.4,75.8-31.81a4.6,4.6,0,0,0,.45-1.69,17.28,17.28,0,0,0,2.24-1.45c.9-.79,9.15.29,14.89-2.85a2.56,2.56,0,0,0,.26-.2v0s9.69-2.41,13.88-2.93,3.33-2.42,2.82-3.12c-.64-.9-10.8.52-15.07,1.16,0-.09,0-.18,0-.27,5-1.52,18.33-5.61,19.61-6C624.5,236.59,624.1,234.34,623,233.84ZM268.1,376.29c-2,.81-4.38,1.34-4.3.69s3.84-5.47,3.84-5.47c1.79-.93,7.28-.63,7.55.48S270.06,375.48,268.1,376.29Zm328.45-5c.59-1,5.92.39,7.35,1.82,0,0,2.14,5.72,2,6.37s-2.27-.59-3.9-1.95S596,372.22,596.55,371.25Z" transform="translate(-161.09 -128.17)"/><text class="cls-4" transform="translate(408.83 61.64)">MU<tspan class="cls-5" x="22.53" y="0">L</tspan><tspan class="cls-6" x="28.68" y="0">TIPLE </tspan><tspan x="-19.49" y="17.18">T</tspan><tspan class="cls-7" x="-10.72" y="17.18">E</tspan><tspan x="-2.32" y="17.18">CHNO</tspan><tspan class="cls-8" x="40.19" y="17.18">L</tspan><tspan x="47.59" y="17.18">OGI</tspan><tspan class="cls-9" x="73.25" y="17.18">E</tspan><tspan class="cls-10" x="81.54" y="17.18">S</tspan></text><text class="cls-11" transform="translate(439.76 225.97)">BI</text><text class="cls-12" transform="translate(21.46 67.47)">C<tspan class="cls-13" x="9.7" y="0">L</tspan><tspan x="17.1" y="0">OUD </tspan><tspan x="-21.46" y="17.18">ENGINEERING</tspan></text><text class="cls-14" transform="translate(44.38 242.87)">AI/ML</text><circle class="cls-3" cx="442.09" cy="35.42" r="4.08"/><circle class="cls-3" cx="45.26" cy="42.41" r="4.08"/><ellipse class="cls-3" cx="61.39" cy="219.76" rx="5.43" ry="2.53"/><circle class="cls-3" cx="447.33" cy="202.08" r="4.08"/></svg>