<svg xmlns="http://www.w3.org/2000/svg" width="3561" height="2295.03" viewBox="0 0 3561 2295.03">
  <g id="Group_28" data-name="Group 28" transform="translate(-263.113 -522.672)">
    <path id="Path_367" data-name="Path 367" d="M2211.61,737.408c-27.114-13.546-51.195-9.023-126.469-9.023-69.986,0-263.58,58.545-308.621,61.945a25.7,25.7,0,0,1-7.556-.216C1746.383,784.09,1680.5,764.7,1680.5,764.7c-30.966-22.277-59.451-39.083-85.722-51.442,4.393-19.278-6.552-44.362-6.552-44.362-269.16,32.348-533.312,11.02-533.312,11.02-11.538,21.3-6.53,59-6.53,59h0s-22.548,13.438-46.693,26.617c-20.152,11.021-41.4,21.846-51.68,24.577-22.58,6.013-240.892-61.728-316.177-61.728s-99.355-4.523-126.458,9.023-82.809,118.956-78.3,150.56c4.523,31.625,197.232,161.106,231.858,191.22,21.048,18.295,52.672,34.917,92.491,45.829l298.443,94.995c-8.678,1.478-17.27,2.882-25.16,3.713-28.6,3.011-188.2,7.534-231.868,24.091s-94.843,81.3-63.229,111.411,109.911,18.068,149.049,10.534,230.357-13.546,254.449-21.069c15.8-4.943,40.659-11.182,64.8-20.821,3.81,7.394,4.717,13.1,6.422,19.677,0,0,51.259-15.295,127.213-37.875l84.7,26.963,47.827-34.5.033-.032c8.526,3.206,14.334,5.732,16.881,7.427,31.625,21.09,76.8,31.625,100.876,39.159s215.3,13.547,254.449,21.069,117.434,19.58,149.049-10.534-19.569-94.854-63.229-111.411-203.254-21.08-231.868-24.091c-13.945-1.468-30.028-4.717-44.955-6.973,139.3-41.037,267.886-78.523,309.183-89.382h.032c45.387-17.065,71.5-26.855,101.514-48.182,37.411-26.574,227.345-159.594,231.857-191.22C2294.407,856.364,2238.7,750.965,2211.61,737.408Z" transform="translate(858.967 1432.105)" fill="none" stroke="#00729c" stroke-miterlimit="10" stroke-width="14"/>
    <g id="Group_24" data-name="Group 24" transform="translate(2053.433 1376.081)">
      <path id="Path_368" data-name="Path 368" d="M609.47,601.738,510.678,772.367l47.178,41.659,98.442-196.7Z" transform="translate(-392.786 -601.738)" fill="none" stroke="#00729c" stroke-miterlimit="10" stroke-width="9"/>
      <path id="Path_369" data-name="Path 369" d="M499.755,619.188l64.943,198.6,52.948-45.422L538.467,601.738Z" transform="translate(-499.755 -601.738)" fill="none" stroke="#00729c" stroke-miterlimit="10" stroke-width="9"/>
    </g>
    <path id="Path_370" data-name="Path 370" d="M527.174,671.257l19.992-1.619,5.705,59.05-21.833,3.018Z" transform="translate(1822.209 1439.322)" fill="#00729c"/>
    <path id="Path_371" data-name="Path 371" d="M502.311,670.4l-6.653,66.865h20.08l7.1-66.267Z" transform="translate(1513.545 1446.81)" fill="#00729c"/>
    <path id="Path_372" data-name="Path 372" d="M509.916,671.246l-2.958,65.873s65.5,2.666,89.209-3.929l-2.634-63.067Z" transform="translate(1624.219 1444.073)" fill="#00729c"/>
    <path id="Path_373" data-name="Path 373" d="M508.8,692.455c-.324-.194-3.022-1.77-7.567-4.436A71.047,71.047,0,0,1,508.8,692.455Z" transform="translate(1568.14 1619.329)" fill="#525252"/>
    <g id="Group_25" data-name="Group 25" transform="translate(1585.149 2196.81)">
      <path id="Path_374" data-name="Path 374" d="M456.37,685.617s31.647,32.467,118.438,51.194c91.843,19.828,302.124,145.843,302.124,145.843S748.585,795.172,686.22,750.875C594.377,685.617,456.37,685.617,456.37,685.617Z" transform="translate(-456.37 -600.995)" fill="#00729c"/>
      <path id="Path_375" data-name="Path 375" d="M782.535,790.51c-65.539,39.472-269.894,180-269.894,180s365.741-192.04,515.071-233.7c85.518-23.854,118.438-51.194,118.438-51.194S920.035,707.712,782.535,790.51Z" transform="translate(94.726 -600.995)" fill="#00729c"/>
      <path id="Path_376" data-name="Path 376" d="M477.107,702.43s206.06,56.753,260.4,85.13c-35.759-20.875-186.427-108.141-208.716-109.706C508.635,688.874,487.382,699.7,477.107,702.43Z" transform="translate(-253.28 -677.022)" fill="#00729c"/>
      <path id="Path_377" data-name="Path 377" d="M832.28,703.4a25.7,25.7,0,0,1-7.556-.216c-22.581-6.023-88.465-25.408-88.465-25.408C665.573,691.42,527.393,791.185,525.234,792.75c47.5-26.358,307.067-89.339,307.067-89.339Z" transform="translate(218.057 -677.776)" fill="#00729c"/>
    </g>
    <path id="Path_378" data-name="Path 378" d="M646.473,787.935c-3.217-54.152-19.461-100.154-28.571-122.227a70.894,70.894,0,0,0,19.936-11.473l-41.544-36.688-42.775,36.688a70.824,70.824,0,0,0,25.171,13.492c-4.728,30.978-12.24,84.828-12.758,117.2-.756,47.416-64,325.2-64,325.2l30.114,65.83,70.018-50.017C616.37,1077,651,863.965,646.473,787.935Z" transform="translate(1575.035 929.165)" fill="none" stroke="#00729c" stroke-miterlimit="10" stroke-width="9"/>
    <g id="Group_26" data-name="Group 26" transform="translate(777.54 781.153)">
      <path id="Path_379" data-name="Path 379" d="M488.448,553.722,477.73,565.229c7.35,6.843,14.593,14.226,21.522,21.954l11.711-10.5C503.7,568.607,496.133,560.879,488.448,553.722Z" transform="translate(560.431 -477.065)" fill="#00729c"/>
      <path id="Path_380" data-name="Path 380" d="M407.089,668.021a425.606,425.606,0,0,0,60.876,14.992l2.623-15.51a409.6,409.6,0,0,1-58.641-14.431Z" transform="translate(-131.399 495.919)" fill="#00729c"/>
      <path id="Path_381" data-name="Path 381" d="M418.683,658.806l-.162,15.715a383.377,383.377,0,0,0,62.646-4.479L478.75,654.51A366.358,366.358,0,0,1,418.683,658.806Z" transform="translate(-19.438 510.012)" fill="#00729c"/>
      <path id="Path_382" data-name="Path 382" d="M429.513,675.14l5.051,14.874a364.8,364.8,0,0,0,57.541-25.278l-7.545-13.794A349.344,349.344,0,0,1,429.513,675.14Z" transform="translate(88.213 475.059)" fill="#00729c"/>
      <path id="Path_383" data-name="Path 383" d="M457.636,569.164l-15.543,2.4c.81,5.246,1.813,10.6,2.979,15.888,3.119,14.227,6.811,28.927,11.268,44.966l15.154-4.21c-4.382-15.758-8.008-30.2-11.074-44.135C459.331,579.094,458.391,574.086,457.636,569.164Z" transform="translate(211.417 -325.832)" fill="#00729c"/>
      <path id="Path_384" data-name="Path 384" d="M396.7,661.052a431.517,431.517,0,0,0,54.054,31.766l6.962-14.086a418.716,418.716,0,0,1-52.079-30.611Z" transform="translate(-233.125 447.452)" fill="#00729c"/>
      <path id="Path_385" data-name="Path 385" d="M504.846,562.976l-7.739-13.687A212.1,212.1,0,0,0,446.96,588.6l11.463,10.761A196.042,196.042,0,0,1,504.846,562.976Z" transform="translate(259.082 -520.47)" fill="#00729c"/>
      <path id="Path_386" data-name="Path 386" d="M383.421,633.671a271.232,271.232,0,0,0,20.249,59.936l14.226-6.681a255.833,255.833,0,0,1-19.083-56.472Z" transform="translate(-363.194 274.417)" fill="#00729c"/>
      <path id="Path_387" data-name="Path 387" d="M399.128,675.812a246.026,246.026,0,0,1,10.092-52.025l-15-4.674a260.144,260.144,0,0,0-10.75,55.361c-.2,2.342-.367,4.685-.5,7.016l15.694.875Q398.858,679.093,399.128,675.812Z" transform="translate(-367.611 163.348)" fill="#00729c"/>
      <path id="Path_388" data-name="Path 388" d="M400.929,640.441l-12.618,9.38a369.106,369.106,0,0,0,41.8,46.963l10.826-11.4A352.429,352.429,0,0,1,400.929,640.441Z" transform="translate(-315.303 372.226)" fill="#00729c"/>
      <path id="Path_389" data-name="Path 389" d="M439.265,684.9l9.7,12.359a415.58,415.58,0,0,0,46.164-42.43l-11.474-10.751A400.971,400.971,0,0,1,439.265,684.9Z" transform="translate(183.72 407.895)" fill="#00729c"/>
      <path id="Path_390" data-name="Path 390" d="M457.1,552.438l3.529,15.316a214.511,214.511,0,0,1,58.987-5.138l.81-15.694A229.913,229.913,0,0,0,457.1,552.438Z" transform="translate(358.409 -546.62)" fill="#00729c"/>
      <path id="Path_391" data-name="Path 391" d="M452.8,680.914l-.637,1.813,14.83,5.2.658-1.889a399.193,399.193,0,0,0,15.391-58.727l-15.456-2.829A387.379,387.379,0,0,1,452.8,680.914Z" transform="translate(310.009 215.96)" fill="#00729c"/>
      <path id="Path_392" data-name="Path 392" d="M454.037,614.52a500.375,500.375,0,0,1,1.6,60.552l15.715.572a518.431,518.431,0,0,0-1.641-62.451Z" transform="translate(328.392 105.36)" fill="#00729c"/>
      <path id="Path_393" data-name="Path 393" d="M468.3,562.678a254.946,254.946,0,0,1,54.119,24.987l8.181-13.416a268.574,268.574,0,0,0-57.476-26.531Z" transform="translate(468.087 -535.866)" fill="#00729c"/>
      <path id="Path_394" data-name="Path 394" d="M480.714,662.557c-3.551-19.429-7.944-39.289-13.438-60.714l-15.219,3.907c5.4,21.069,9.7,40.562,13.179,59.634Z" transform="translate(309 -5.787)" fill="#00729c"/>
      <path id="Path_395" data-name="Path 395" d="M470.2,650.587c-7.383,12.391-15.219,24.4-23.282,35.716l12.791,9.131c8.322-11.657,16.4-24.037,23.994-36.8,3.2-5.353,6.293-10.8,9.2-16.2l-13.848-7.448C476.259,640.182,473.291,645.428,470.2,650.587Z" transform="translate(258.71 318.852)" fill="#00729c"/>
      <path id="Path_396" data-name="Path 396" d="M460.033,580.065l-14.949,4.857c6.389,19.666,13.243,39.753,19.7,58.523l14.863-5.106C473.223,619.635,466.4,599.623,460.033,580.065Z" transform="translate(240.709 -219.073)" fill="#00729c"/>
      <path id="Path_397" data-name="Path 397" d="M448.754,595.876c7.545,22.418,13.557,40.984,18.921,58.415l15.025-4.609c-5.4-17.572-11.452-36.267-19.051-58.815Z" transform="translate(276.652 -113.272)" fill="#00729c"/>
      <path id="Path_398" data-name="Path 398" d="M451.656,577.68A207.463,207.463,0,0,0,442,619.073l15.6,2a192.382,192.382,0,0,1,8.915-38.253,190.217,190.217,0,0,1,7.448-18.316L459.73,557.82A201.811,201.811,0,0,0,451.656,577.68Z" transform="translate(210.467 -436.931)" fill="#00729c"/>
      <path id="Path_399" data-name="Path 399" d="M445.229,674.21c-3.627,5.019-7.124,10.125-10.351,15.316l13.352,8.289c2.267-3.637,4.7-7.221,7.167-10.771l25.991,64.3c5.569-45.215,27.923-103.241,50.1-145.38-44.286,17.486-104.4,33.439-149.945,34.076Z" transform="translate(-381.547 34.553)" fill="#00729c"/>
    </g>
    <g id="Group_27" data-name="Group 27" transform="translate(2556.183 522.672)">
      <path id="Path_400" data-name="Path 400" d="M619.184,650.578l5.5,14.733c10.157-3.8,20.119-8.03,29.585-12.574l-6.8-14.183C638.429,642.9,628.909,646.94,619.184,650.578Z" transform="translate(167.132 612.216)" fill="#00729c"/>
      <path id="Path_401" data-name="Path 401" d="M565.932,578.839l-13.178,8.581c7.8,12,16.374,24.038,25.473,35.781,3.832,4.933,7.771,9.8,11.744,14.475l11.981-10.167c-3.81-4.5-7.61-9.186-11.29-13.945C581.821,602.175,573.5,590.486,565.932,578.839Z" transform="translate(-483.457 27.401)" fill="#00729c"/>
      <path id="Path_402" data-name="Path 402" d="M608.163,528.593a432.136,432.136,0,0,0-49.327,38.716l10.578,11.625a417.142,417.142,0,0,1,47.524-37.292Z" transform="translate(-423.892 -464.688)" fill="#00729c"/>
      <path id="Path_403" data-name="Path 403" d="M570.547,587.319l-10.254,11.916,1.511,1.3a400.992,400.992,0,0,0,49.036,35.781l8.29-13.363A385.813,385.813,0,0,1,572,588.571Z" transform="translate(-409.623 110.451)" fill="#00729c"/>
      <path id="Path_404" data-name="Path 404" d="M627.46,523.708a366.956,366.956,0,0,0-59,21.77l6.671,14.237a350.181,350.181,0,0,1,56.451-20.831Z" transform="translate(-329.619 -512.53)" fill="#00729c"/>
      <path id="Path_405" data-name="Path 405" d="M547.818,573.269a414.913,414.913,0,0,0,22.634,58.458l14.2-6.746a400.493,400.493,0,0,1-21.793-56.235Z" transform="translate(-531.798 -71.446)" fill="#00729c"/>
      <path id="Path_406" data-name="Path 406" d="M580.443,552.224l-14.582-5.893a382.485,382.485,0,0,0-18.716,59.958l15.349,3.422A364.582,364.582,0,0,1,580.443,552.224Z" transform="translate(-538.399 -290.969)" fill="#00729c"/>
      <path id="Path_407" data-name="Path 407" d="M587.668,536.385a427.088,427.088,0,0,0-36.191,51.2l13.481,8.1a410.33,410.33,0,0,1,34.853-49.306Z" transform="translate(-495.964 -388.376)" fill="#00729c"/>
      <path id="Path_408" data-name="Path 408" d="M562.418,558.381l-15.694-.723a364.818,364.818,0,0,0,2.515,62.786l15.6-1.975A349.86,349.86,0,0,1,562.418,558.381Z" transform="translate(-546.334 -180.036)" fill="#00729c"/>
      <path id="Path_409" data-name="Path 409" d="M570.121,607.617a518.295,518.295,0,0,0,58.739,21.3l4.48-15.079a500.582,500.582,0,0,1-56.947-20.627Z" transform="translate(-313.372 168.116)" fill="#00729c"/>
      <path id="Path_410" data-name="Path 410" d="M665.935,671.625a211.22,211.22,0,0,0-18.274-61.037l-14.205,6.746a196.071,196.071,0,0,1,16.925,56.5Z" transform="translate(306.916 338.339)" fill="#00729c"/>
      <path id="Path_411" data-name="Path 411" d="M672.736,651.8l11.419-10.815a204.469,204.469,0,0,0-50.546-38.879L626.054,615.9A190.969,190.969,0,0,1,658.4,638.181,185.824,185.824,0,0,1,672.736,651.8Z" transform="translate(234.415 255.289)" fill="#00729c"/>
      <path id="Path_412" data-name="Path 412" d="M675.379,623.524l3.443-15.338c-5.181-1.166-10.534-2.191-15.878-3.044-14.377-2.277-29.423-4.22-45.98-5.926l-1.609,15.64c16.266,1.684,31.021,3.584,45.128,5.818C665.5,621.473,670.511,622.433,675.379,623.524Z" transform="translate(129.632 226.965)" fill="#00729c"/>
      <path id="Path_413" data-name="Path 413" d="M633.449,678.709l14.323,6.487a230.26,230.26,0,0,0,17.993-60.952l-15.553-2.32A214.346,214.346,0,0,1,633.449,678.709Z" transform="translate(306.837 449.359)" fill="#00729c"/>
      <path id="Path_414" data-name="Path 414" d="M626.555,673.1l9.5,12.52a268.815,268.815,0,0,0,45.7-43.81l-12.164-9.952A255.5,255.5,0,0,1,626.555,673.1Z" transform="translate(239.311 546.6)" fill="#00729c"/>
      <path id="Path_415" data-name="Path 415" d="M604,614.2c19.763.842,40.886,1.8,61.426,3.022l.928-15.694c-20.648-1.23-41.846-2.191-61.674-3.044Z" transform="translate(18.475 219.787)" fill="#00729c"/>
      <path id="Path_416" data-name="Path 416" d="M592.583,613.559c18.328,1.381,37.94,2.58,61.707,3.745l.778-15.7c-23.628-1.155-43.11-2.342-61.3-3.713Z" transform="translate(-93.387 213.94)" fill="#00729c"/>
      <path id="Path_417" data-name="Path 417" d="M651.043,557.989a260.429,260.429,0,0,0-47.6-30.233q-3.158-1.555-6.347-3.023l-6.54,14.3q2.962,1.361,5.925,2.817a245.131,245.131,0,0,1,44.74,28.409Z" transform="translate(-113.239 -502.492)" fill="#00729c"/>
      <path id="Path_418" data-name="Path 418" d="M640.261,541.848l2.622-15.5a271.387,271.387,0,0,0-63.2-3.055l1.036,15.683A255.458,255.458,0,0,1,640.261,541.848Z" transform="translate(-219.686 -522.673)" fill="#00729c"/>
      <path id="Path_419" data-name="Path 419" d="M581.175,611.887c19.374,3.8,39.461,6.961,61.415,9.671l1.932-15.6c-21.577-2.666-41.318-5.786-60.337-9.509Z" transform="translate(-205.113 199.896)" fill="#00729c"/>
      <path id="Path_420" data-name="Path 420" d="M733.466,529.17l-55.08,46.8c-3.346-5.213-6.811-10.318-10.481-15.23l-12.6,9.412c2.558,3.432,5.008,6.994,7.414,10.6l-69.338.7c40.044,21.706,85.9,63.715,117.024,99.754C710.3,633.587,717.416,571.815,733.466,529.17Z" transform="translate(-85.513 -459.037)" fill="#00729c"/>
    </g>
    <path id="Path_421" data-name="Path 421" d="M3045.525,930.934c-6.746-3.14-106.673,19.558-142.928,27.945-.108-.292-.194-.6-.313-.9,36.979-11.474,142.476-44.329,147.236-47.428,5.774-3.745-.411-18.91-6.239-19.655-8.376-1.036-121.234,25.332-157.176,33.806-.432-.734-.874-1.425-1.306-2.137,26.466-13.007,99.031-48.69,108.292-53.407,11.334-5.807,8.549-13.784-2.968-18.09-10.362-3.875-111.433,41.015-131.693,50.093-19.9,5.473-60.585,33.568-59.677,19.321,1.014-16.136,18.91-88.011,3.615-97.186-15.316-9.164-18.986,39.623-24.7,52.77-4.263,9.822-16.223,41.8-16.665,66.434-.1,5.052-1.77,10.416-4.285,15.769-3.519-8.333-5.99-13.665-5.99-13.665S2264.209,1099.628,2228.72,1107c-18.166,3.756-158.429-4.242-295.086-9.994-44.491-14.366-86.608-27.88-86.608-27.88h-5.073a23.943,23.943,0,0,0,1.965-3.983c-5.807-12.974-3.573-58.2-1.543-85.982,20.81-24.048,39.58-61.847,49.6-121.385,3.357,2.439,5.85-3.173,5.85-3.173.939-3.39,26.973-75.933,21.458-92.21-3.119-9.185-9.272-8.052-14.043-5.332,7.383-46.327,17.227-122.087,8.43-152.352-13.071-44.987-78.221-31.182-78.221-31.182-209-61.512-228.468,42.106-234.577,59.343-3.594,10.124,3.476,71.421,9.909,120.219-4.275-1.791-9.089-1.522-11.873,6.2-5.828,16.158,18.576,89.176,19.666,92.6,0,0,2.623,6.347,6.293,2.969,10.934,63.261,29.9,102.247,49.661,126.318-2.526,34.658-10.556,74.087-10.556,74.087.033.033,3.1,10.546,4.371,14.885-9.8,3.292-42.894,14.453-82.927,28.279-156.518,5.084-355.617,17.637-377.5,13.1C1172.425,1104.151,685.9,949.143,685.9,949.143s-2.472,5.321-5.991,13.665c-2.515-5.364-4.188-10.728-4.285-15.78-.443-24.631-12.4-56.6-16.665-66.435-5.71-13.146-9.39-61.923-24.7-52.759s2.6,81.039,3.616,97.186c.907,14.237-39.763-13.848-59.678-19.32-20.249-9.078-121.331-53.968-131.692-50.093-11.517,4.3-14.3,12.283-2.969,18.079,9.251,4.717,81.826,40.4,108.292,53.407-.443.723-.874,1.414-1.317,2.148-35.943-8.473-148.79-34.841-157.166-33.806-5.828.735-12.013,15.9-6.239,19.656,4.76,3.1,110.246,35.953,147.236,47.416-.119.3-.2.6-.313.906-36.266-8.4-136.183-31.1-142.929-27.955-7.221,3.346-9.887,18.63.853,22.073,8.722,2.806,99.366,30.524,133.118,40.843-.076.636-.108,1.252-.151,1.878-28.992-4.35-97.909-13.989-102.3-7.869-3.4,4.749-9.272,17.615,19.158,21.155,28.42,3.518,94.207,19.871,94.207,19.871l.1-.269a19.4,19.4,0,0,0,1.716,1.37c38.965,21.328,94.962,13.978,101.071,19.321,2.9,2.547,9.315,6.465,15.251,9.9a31.7,31.7,0,0,0,3.022,11.42c16.1,29.93,445.474,209.687,514.456,215.9,31.237,2.806,88.346-.054,141.5-4-20.832,36.817-37.853,69.521-44.222,77.173-15.068,18.069-108.163,174.145-194.727,219.812-46.553,24.567-285.815,253.2-301.876,265.242-2.213,1.651-2.536,4.425-1.673,7.868-25.678-9.055-71.108-41.609-90.385-40.486-19.806,1.155-57.519,15.143-66.294,25.321s-62.473,54.282-57.552,65.086,13.632,15.413,11.463,19.352-83.683,36.483-87.892,52.727,44.761,7.653,50.125,11.2c0,0-15.813,14.366,12.1,17.863a174.324,174.324,0,0,0,47.4-.453s-9.034,20.853,28.074,15.208c37.206-5.666,119.766-35.122,130.775-46.92s62.366-40.5,69.662-51.453c1.241-1.868,1.317-4.889.691-8.527,8.257,7.868,14.3,13.233,14.3,13.233s272.2-179.648,319.372-204.744,86.327-72.771,99.377-92.836c13.039-20.087,165.606-189.211,165.606-189.211s57.217,125.475,73.278,190.712,14.8,95.1,8.02,115.437c-6.768,20.314-12.78,41.286-19.061,113.408-1.49,17.022,385.31-5.526,430.471-3.27s114.747-18.327,114.747-18.327-13.244-114.909-14.248-146.016c-1.014-31.129,12.046-120.445,28.1-154.575s27.1-127.473,27.1-127.473,138.515,151.553,159.594,170.625,54.2,82.312,83.812,112.427,413.028,191.705,413.028,191.705c1.285.928,2.958.647,4.857-.411,12.154,17.81,39.807,48.29,45.452,60.11,6.951,14.56,73.494,60.563,105.249,80.735,31.775,20.185,36.687-2.655,36.687-2.655s14.809,8.429,41.869,14.949c27.329,6.595,20.1-13.632,20.1-13.632,6.175-1.759,50.3,21.177,51.173,4.414s-67.039-72.338-67.924-76.752,8.819-6.175,16.751-15-29.984-67.039-35.284-79.4-37.054-37.054-55.587-44.113c-18.511-7.059-74.087,11.473-100.564,11.473h-17.227c2.278-4.284,3.637-6.961,3.637-6.961s-104.384-49.186-165.617-100.381-221.819-156.571-225.834-160.6c-3.983-3.973-147.808-173.442-186.578-272.237,28.474,1.177,54.119,1.392,71.6-.172,68.983-6.217,498.352-185.974,514.456-215.915a31.644,31.644,0,0,0,3.022-11.409c5.936-3.432,12.348-7.361,15.251-9.9,6.1-5.343,62.107,2.008,101.072-19.321a19.458,19.458,0,0,0,1.716-1.37l.1.269s65.788-16.352,94.207-19.881S3017.409,992.6,3014,987.849c-4.393-6.109-73.311,3.518-102.291,7.88-.054-.627-.075-1.242-.151-1.878,33.751-10.318,124.4-38.048,133.118-40.843C3055.413,949.554,3052.746,934.281,3045.525,930.934ZM636.587,1897.707c-13.308,5.505-29.714,9.121-29.229,4.652s26.056-37.108,26.056-37.108c12.175-6.326,49.467-4.263,51.259,3.238S649.885,1892.191,636.587,1897.707Zm2229.182-34.215c3.972-6.617,40.141,2.655,49.845,12.358,0,0,14.55,38.814,13.665,43.229s-15.435-3.983-26.465-13.244S2861.8,1870.108,2865.769,1863.492Z" transform="translate(427.684 308.958)" fill="none" stroke="#00729c" stroke-miterlimit="10" stroke-width="14"/>
    <text id="MULTIPLE_TECHNOLOGIES" data-name="MULTIPLE 
TECHNOLOGIES" transform="translate(3346.113 916.398)" fill="#03729b" font-size="130" font-family="Poppins-Regular, Poppins"><tspan x="-295.49" y="0">MULTIPLE </tspan><tspan x="-477.62" y="145">TECHNOLOGIES</tspan></text>
    <text id="BI_" data-name="BI
" transform="translate(3322.62 2052.185)" fill="#03729b" font-size="130" font-family="Poppins-Regular, Poppins"><tspan x="0" y="0">BI</tspan><tspan x="0" y="110"></tspan></text>
    <text id="CLOUD_ENGINEERING_" data-name="CLOUD 
ENGINEERING
" transform="translate(673.113 963.398)" fill="#03729b" font-size="130" font-family="Poppins-Regular, Poppins"><tspan x="-236.535" y="0">CLOUD </tspan><tspan x="-409.76" y="155">ENGINEERING</tspan><tspan x="0" y="310"></tspan></text>
    <text id="AI_ML" data-name="AI/ML" transform="translate(593.113 2200.398)" fill="#03729b" font-size="130" font-family="Poppins-Regular, Poppins"><tspan x="0" y="0">AI/ML</tspan></text>
    <circle id="Ellipse_169" data-name="Ellipse 169" cx="27.684" cy="27.684" r="27.684" transform="translate(3310.752 735.386)" fill="#fff" opacity="0.93"/>
    <circle id="Ellipse_170" data-name="Ellipse 170" cx="27.684" cy="27.684" r="27.684" transform="translate(617.459 782.845)" fill="#fff" opacity="0.93"/>
    <circle id="Ellipse_171" data-name="Ellipse 171" cx="27.684" cy="27.684" r="27.684" transform="translate(736.106 1997.001)" fill="#fff" opacity="0.93"/>
    <circle id="Ellipse_172" data-name="Ellipse 172" cx="27.684" cy="27.684" r="27.684" transform="translate(3346.345 1866.49)" fill="#fff" opacity="0.93"/>
  </g>
</svg>
