<svg xmlns="http://www.w3.org/2000/svg" xmlns:xlink="http://www.w3.org/1999/xlink" width="338.48" height="307.503" viewBox="0 0 338.48 307.503">
  <defs>
    <radialGradient id="radial-gradient" cx="0.5" cy="0.5" r="0.5" gradientUnits="objectBoundingBox">
      <stop offset="0" stop-color="#a1f4ff"/>
      <stop offset="1" stop-color="#00e3ff"/>
    </radialGradient>
    <radialGradient id="radial-gradient-2" cx="330.781" cy="293.475" r="159.801" gradientUnits="userSpaceOnUse">
      <stop offset="0" stop-color="#27aae1"/>
      <stop offset="0.13" stop-color="#25a5dd"/>
      <stop offset="0.28" stop-color="#2196d0"/>
      <stop offset="0.45" stop-color="#197cbb"/>
      <stop offset="0.63" stop-color="#0e599e"/>
      <stop offset="0.82" stop-color="#012d78"/>
      <stop offset="0.83" stop-color="#002a76"/>
      <stop offset="0.86" stop-color="#03357f"/>
      <stop offset="0.9" stop-color="#0c5297"/>
      <stop offset="0.96" stop-color="#1a80be"/>
      <stop offset="1" stop-color="#27aae1"/>
    </radialGradient>
    <radialGradient id="radial-gradient-3" cx="185.741" cy="144.668" r="194.295" gradientTransform="translate(-0.594 -8.827) scale(0.834 0.834)" gradientUnits="userSpaceOnUse">
      <stop offset="0" stop-color="#27aae1"/>
      <stop offset="0.2" stop-color="#2aabe1"/>
      <stop offset="0.35" stop-color="#33aee1"/>
      <stop offset="0.48" stop-color="#44b3e2"/>
      <stop offset="0.6" stop-color="#5abae3"/>
      <stop offset="0.72" stop-color="#78c4e4"/>
      <stop offset="0.83" stop-color="#9ccfe5"/>
      <stop offset="0.93" stop-color="#c6dde7"/>
      <stop offset="1" stop-color="#e6e7e8"/>
    </radialGradient>
    <radialGradient id="radial-gradient-4" cx="-2970.738" cy="-529.431" r="9.868" gradientTransform="matrix(-0.149, 0.989, -0.989, -0.149, -4781.329, 2035.693)" gradientUnits="userSpaceOnUse">
      <stop offset="0" stop-color="#fff" stop-opacity="0.871"/>
      <stop offset="1" stop-opacity="0"/>
    </radialGradient>
    <radialGradient id="radial-gradient-5" cx="719.303" cy="390.425" r="9.869" gradientTransform="translate(0.035 -0.004)" xlink:href="#radial-gradient-4"/>
    <radialGradient id="radial-gradient-6" cx="733.482" cy="137.95" r="9.868" gradientTransform="matrix(1, 0, 0, 1, 0, 0)" xlink:href="#radial-gradient-4"/>
    <radialGradient id="radial-gradient-7" cx="491.107" cy="167.47" r="8.326" gradientTransform="matrix(1, 0, 0, 1, 0, 0)" xlink:href="#radial-gradient-4"/>
    <radialGradient id="radial-gradient-8" cx="648.687" cy="295.823" r="9.868" gradientTransform="matrix(1, 0, 0, 1, 0, 0)" xlink:href="#radial-gradient-4"/>
    <radialGradient id="radial-gradient-9" cx="784.476" cy="108.281" r="9.869" gradientTransform="translate(0.013 -0.02)" xlink:href="#radial-gradient-4"/>
    <radialGradient id="radial-gradient-10" cx="589.433" cy="225.632" r="6.352" gradientTransform="matrix(1, 0, 0, 1, 0, 0)" xlink:href="#radial-gradient-4"/>
    <radialGradient id="radial-gradient-11" cx="647.167" cy="335.313" r="6.353" gradientTransform="translate(0.028 0)" xlink:href="#radial-gradient-4"/>
    <radialGradient id="radial-gradient-12" cx="802.014" cy="346.322" r="6.352" gradientTransform="translate(-0.002 0.001)" xlink:href="#radial-gradient-4"/>
    <radialGradient id="radial-gradient-13" cx="817.736" cy="191.741" r="9.868" gradientTransform="matrix(1, 0, 0, 1, 0, 0)" xlink:href="#radial-gradient-4"/>
    <linearGradient id="linear-gradient" x1="0.5" x2="0.5" y2="1" gradientUnits="objectBoundingBox">
      <stop offset="0" stop-color="#fff"/>
      <stop offset="1" stop-color="#fff"/>
    </linearGradient>
  </defs>
  <g id="Group_1126" data-name="Group 1126" transform="translate(-150 -416.497)">
    <g id="Group_83" data-name="Group 83" transform="translate(440.57 622.141) rotate(45)" opacity="0">
      <rect id="Rectangle_29" data-name="Rectangle 29" width="47.353" height="0.592" fill="#3bb3c2"/>
      <rect id="Rectangle_30" data-name="Rectangle 30" width="47.353" height="0.592" fill="url(#radial-gradient)"/>
    </g>
    <g id="globe_svg" data-name="globe svg" transform="translate(185.59 416.497)" opacity="0.27">
      <g id="Objects" transform="translate(0 0)">
        <g id="Globe">
          <g id="globe-2" data-name="globe">
            <path id="Path_94" data-name="Path 94" d="M464.892,313.244a138.1,138.1,0,1,1-138.1-138.1A138.1,138.1,0,0,1,464.892,313.244Z" transform="translate(-169.746 -156.276)" fill="url(#radial-gradient-2)"/>
            <path id="Path_95" data-name="Path 95" d="M459.286,358.967c-1.823.046-4.2.9-4.228,1.523s-2.549,1.751-3.379,2.091-2.438,2.9-2.8,3.745-2.4.595-3.163.935-2.314,1.595-2.327,2.353-.425.654-.935-.19l-1,1.046-1.176,1.307c-.654,2.131-2.928,4.81-3.706,5.039s-.9,3.921-.9,5.45a6.841,6.841,0,0,0,1.307,4.124l.157,1.2.261,2.379a4.283,4.283,0,0,0,1.392,3.8c.412.32,3.823-.614,5.13-.935a9.3,9.3,0,0,0,1.869-.751,137.893,137.893,0,0,0,14.241-33.049A3.644,3.644,0,0,0,459.286,358.967Zm-228.455,3.549c-.2.373,2.274,2.915,3.268,3.771s2.987,5.019,3.4,6.385a10.28,10.28,0,0,1,.033,4.117c-.131.529.464,1.68.569,2.157s-.856,4.575-.5,6.189-1.915,6.744-1.869,9.28,1.2,5.843,1.666,5.594.654,2.314-.15,2.614-1.673,2.327-1.242,2.431-.033,2.1.091,2.9.791,6.071.935,7.378,2.019,4.509,2.418,5.594.791,3.143.948,3.457a4.929,4.929,0,0,0,.359.653,11.393,11.393,0,0,1,1.961.9c.451.327,3.4.124,4.372-.078s.078-1.085-.353-1.562-.823-2.823-1.307-3.065-.712-3.209-.274-3.862,2.215-1.712,2.411-2.268.235-3.144-.235-3.5.144-3.509-.222-5.071,2.719-2.987,2.9-4.222,3.5-2.575,4.261-3.189,1.405-4.176,1.046-4.947,1.235-1.379,1.961-1.379a8.906,8.906,0,0,0,1.771-.5c.274,0,1.111-1.582,1.562-1.961s1.4-4.111,2.222-4.725,1.51-2.882,1.51-3.555,1.268-2.614,1.68-3.228,3.516-2.019,4.078-2.242,1.4-5.228,1.614-7.019,1.15-4.183,1.216-4.771,1.059-1.091,1.235-1.307a27.254,27.254,0,0,1,1.405-3,15.135,15.135,0,0,0,2.235-3.189,20.67,20.67,0,0,1,.588-2.771V351.34c-.549-1.5-2.215-3.385-2.614-2.967s-2.346-1.307-3.326-1.7a18.954,18.954,0,0,0-4.045-.654c-.621,0-2.758-1.751-3.719-2.059s-3.4-.765-3.849-1.052-1.046-3.921-3.019-5.1-5.411-3.967-5.8-4.993-4.156-3.15-5.339-3.79-2.928-.8-3.143-.562-1.693-1.961-2.431-2.614-3.026-1.131-3.13-.575-1.6.268-1.961-.209-1.516.19-2.065.373-2.431,3.045-3.268,3.738-1.9-.654-2.47-.889-2.738.431-3.333.856-1.961-3.045-1.634-4.64-1.431-4.758-2.784-4.843-1.765-3.411-1.5-4.634-2.431-1.993-3.1-2.078-2.366,1.64-2.653,2.47-6.411-1.131-5.679-4.8a16.985,16.985,0,0,1,4.333-7.921c.725-.451,4.653-.654,5.522-.176a1.438,1.438,0,0,0,1.81-.229,11.7,11.7,0,0,1,4.32.431c.967.392,2.327,4.1,3.313,4.575s1.359-2.392,1.523-3.085a7.185,7.185,0,0,0-.725-2.954c-.235-.5,1.595-4.993,3.1-5.751s3.072-3.268,2.954-3.712,1.2-.791,1.549-.98-.052-3.817.536-4.607a17.238,17.238,0,0,1,4.3-2.823c.889-.372,1.562-2.673,1.248-3.072s2.3-2.614,3.66-3.085,2.549.791,2.209.98c.274-.157,2.157-1.131,2.954-1.653.941-.621,0-2.327-.588-2.83s-.235-2.464.484-2.647,1.366-1.882,1.17-2.248,3.006.294,4.228-.608.346,2.163-.549,3.4a1.4,1.4,0,0,0,1.229,2.176c.575-.235,1.176.654,1.307,1s1.346-.359,2.15,0,1.307-1.111,1.353-1.771-1.928-2.065-2.242-2.869a47.947,47.947,0,0,1-.477-6.463c-.033-.967-1.307-2.516-1.751-2.235s-1.261-2.5-1.961-3.1a3.425,3.425,0,0,1-.8-2.366c0-.444-2.268-2.849-2.823-3.96s-1.307-.889-1.372-.379-1.653.575-2.314.516-1.2-2.614-1.2-3.555-2.961-1.124-3.451-1.9-2.412-.405-2.725-.935a3.13,3.13,0,0,0-2.353-.83c-.327.2-.183,7.084-.51,8.94s-1.9,3.49-2.477,3.444-.229,1.307.163,1.2-1.111,2.032-1.307,3.438-1.706-.02-1.921-1.327-1.634-3.006-1.9-2.568-1.229-.523-1.647-.255-3.059-1.536-4.124-2.117-1.666-3.843-2.274-4.13-.1-.654-.124-1.183,2.065-2.4,2.7-3.15a40.3,40.3,0,0,1,3.823-4.379,3.99,3.99,0,0,0,1.464-2.666c-.15-.32,3.882-1.568,4.98-1.961s2.039-3.425,2.183-4.3a3.662,3.662,0,0,0-1.189-2.758c-.5-.222,1.523-.294,2.2.052s2.764-.621,3.588-.183,2.483,1.418,3.686,2.183l-.255,2.242-.49,3.8c-3.183,1.307-4.1,3.594-2.993,3.549s6.2,2.2,7.64,3.235,1.889-1.49,2.314-2.333a6.212,6.212,0,0,0-.052-3.751c-.34-.484,1.66-.314,2.222.229s1.222-.556,1.66-.752.654-2.281.889-2.7-.954-.856-.993-1.372-2.327-1.516-3.065-1.876-.915-1.928-.549-2.2-.255-2.281-.654-2.947-2.758-1.2-3.549-1.2-1.614-1.85-2.078-2.124a12.319,12.319,0,0,0-4.274-.373c-.758.222-2.15-2.176-3.431-1.444s-2.614-.856-3.17-1.176-3.575,2.9-3.555,5.156,1.17,4.457,1.64,4.516-.111,2.111-.654,2.693-1.778-.614-1.307-1.131-1.307-2.876-1.915-3.836c-.438-.7-1.993-1.307-3.052-1.738-.654.654-1.222,1.353-1.817,2.039a5.071,5.071,0,0,1,.242,2.706c-.444,1.379-1.595,1.588-1.667.987-.033-.261-.614-.464-1.307-.549a137.706,137.706,0,0,0-31.108,72.32,8.254,8.254,0,0,1,1.621,2.313c.386,1.209,2.5,2.013,2.9,2.255s.529-2.32.242-2.993.516-1.065.5-.575,1.993,2.751,2.647,3.568,1.346,6.1,1.961,7.228,6.836,3.509,8.8,3.915a10.378,10.378,0,0,1,4.817,3.268c.392.654,2.98.954,3.542,1.2s1.9,2.032,2.451,2.392a3.039,3.039,0,0,1,.993,1.706c0,.275,3.438,1.575,4.274,2.5a1.857,1.857,0,0,0,2.47.281c.261-.373.935,1.83,1.307,2.614a4.729,4.729,0,0,1,.163,2.947c-.274.3-.758,3.758-1.346,4.444s-1.8,5.725-1.542,6.712a7.79,7.79,0,0,0,2.614,3.359.8.8,0,0,1-.15,1.451c-.549.072-.294,4.875,1,5.588s2.32,2.784,2.13,3.157Zm16.279-84.273h0c-.039.039-.046.039,0,0Zm-9.457-58.367c1.66-.274,4.411-.732,4.607-1.2a2.9,2.9,0,0,0-.157-1.915h.8c.654,0,1.68-3.444,2.34-4.254s4.444-1.961,5.352-2.529,2.876-2.451,3.627-2.673,1.869-1.993,1.7-2.359,2.562-2.006,3.607-2.444,1.575-1.653,1.183-1.706c-.248,0-6.026,2.993-11.319,5.993a138.93,138.93,0,0,0-17.031,13.672c1.653-.1,4.215-.4,5.294-.588ZM337.723,392.095c1.771-1.046,4.784-5.5,5.764-6.431s1.712-4.307,1.921-5.039a4.779,4.779,0,0,1,2.268-2.091c.562-.131,2.359-7.62,3.921-9.247s3.424-9.515,3.228-12.358,1.013-8.234,1.379-9.535a12.378,12.378,0,0,1,2.974-4.085,86.337,86.337,0,0,0,5.64-8.117c1.235-2.013,2.385-6.457,2.15-7.489s-2.882-1.765-3.379-1.255-2.987.935-3.784.935-2.614-4.268-3.758-5.15-2.15-5.764-2.8-6.692a44.147,44.147,0,0,0-3.052-3.8c-.575-.536-.654-3.13-.8-3.843s1.1.471,1.307,1.5,3.143,5.228,4.045,6.6,3.307,5.882,3.921,7.28,5.934.686,7.659-.124,3.875-2.2,3.96-2.679,2.83-1.751,3.588-2.359,1.444-3.81,1.961-4.32-.4-3.575-.974-4.483-3.333-1.634-3.882-1.307-1.751-2.046-2.176-2.928-2.536-1.961-2.771-2.568.582-1.568.915-1.771,4.222,2.516,5.346,3.875A28.577,28.577,0,0,1,374.9,308.9c.2.425,3.268.654,3.96.15s1.47-.372,1.738.275l.967-.17,3.372-.516a6.763,6.763,0,0,1,2.019,3.568,3.346,3.346,0,0,0,1.627,1.882c.654.15,1.137,2.359,1.307,2.908s2.117,3.843,2.5,5.228a32.262,32.262,0,0,0,2.431,4.823,11.894,11.894,0,0,1,.712,3.4,2.468,2.468,0,0,0,2,1.653c.771-.059,2.314-4.8,2.706-6.633s1.595-3.268,1.961-3.268.654-1.006.654-1.392,1.961-.34,2.13-.83.739-3.679,1.438-4.163a29.248,29.248,0,0,1,4.045-2.412c.856-.3,3.072,1.614,3.575,2.5a7.58,7.58,0,0,1,.745,3.529c-.189.366,1.17,2.333,2.359,2.3s1.542,1.5,1.575,2.046,1.608,2.137,1.915,2.843a6.333,6.333,0,0,1,0,3.072,10.608,10.608,0,0,0,.15,3.673c.222.712,3.862,4.385,5.228,5.5s2.006-2.268,1.307-3.326-3.065-3.516-3.621-4.241-.654-3.679-.444-4.5,2.072.451,2.849,1.046a5.825,5.825,0,0,1,1.817,2.372c.026.451,4.895-2.287,5.058-5.228s1.791-6.287,1.961-7.058-.484-1.856-.889-1.882.719-2.261,2.085-2.222,4.647-3.621,5.424-5.065a11.319,11.319,0,0,1,2.516-2.836,25.1,25.1,0,0,0,1.47-5.026c.183-1.418-.8-3.634-.921-4.366a14.994,14.994,0,0,0-1.6-2.954,6.249,6.249,0,0,1-.392-2.889c.19-.373,1.405-.765,1.529-1.091s1.542-1.836,1.444-2.5.876.856,1.516,1.4,1.34,4.078,2.144,4.464,4.019-3.738,3.621-6.4.935-6.078,1.712-6.385c.588-.229,2.111-2.379,3.143-3.921a138.752,138.752,0,0,0-34.075-53.707,2.039,2.039,0,0,1-.529,0l-1.183-.255c-1.961-.425-3.144-2.549-2.8-3.039a1.307,1.307,0,0,0,0-.928c-1.1-1-2.235-1.961-3.392-2.941h-2.5a10.593,10.593,0,0,1-4.228-1.353c-.457-.464-2.026.405-2.111,1.268s-2.817,1.255-3.059,1.915-1.667.7-1.961.327-2.784.882-4.032,1.072a21.175,21.175,0,0,0-4.137,1.438,6.621,6.621,0,0,0-2.1,2.072c-.209.542-1.817,1.438-2.327,1.647s-.418,2.536.248,2.869-1.235-.281-2.072-.719-1.771,1-2.026,1.49-1.039-.294-1.006-.987-2.072-1.261-2.346-.706-1.732-.183-2.333-.5-3.209,2.4-4.169,3.379-5.588,1.725-6.45,1.359-1.712,2.046-.974,2.209-1.882-.124-3.307,0a22.963,22.963,0,0,0-6.6,2.549,1.078,1.078,0,0,1-1.8-.732c0-.569-1.588-1.1-2.065-1.261s-1.4,3.124-2.215,3.751-1.823-2.555-3.771-3.085-4.993-2.4-5.882-2.614-2.614-2.046-3.085-2.575-2.974-.954-3.771-.954-3.385,1.477-4.065,2.052-1.745.471-2.085.653-3.268,3.065-4.392,3.954-3.111,4.745-3.738,5.666a2.66,2.66,0,0,1-1.961,1.111c-.379,0-.686,1.046-.686,1.418s-3.353,2.124-3.7,3.64.327,4.993.327,6.228,1.248,3.679,2.17,3.719.444,2.1.2,2.673.588,1.209.562,1.7-2.346,1.176-3.065,1.457a5.53,5.53,0,0,0-2.039,2.49c-.157.6-2.359.908-3.1,1.614a15.719,15.719,0,0,1,.654-1.614,2.692,2.692,0,0,0-.51-2.516c-.346-.288-.516-4.32-1.085-5.176a17.649,17.649,0,0,0-2.32-2.614c-.346-.274.242-1.34.444-1.791s-1.876-.7-2.444-.366-.876,4.313-1.111,5.4a3.561,3.561,0,0,0,1.372,2.843c.346.078.242,2.046-.484,2.1s-1.4,2.934-1.026,3.588-.516,1.961-.954,2.235,2.8.131,4.281.085,2.614.621,2.47.739-2.823.523-3.3,1.157-2.281,1.849-2.614,2.34.595,1.555,1.366,1.5,1.634,2.653,2.235,3.15.372,1.9.118,2.281-3.875-.255-5.228.085-3.1,3.268-3.222,4.32a27.1,27.1,0,0,0,.405,5.111c.17.856,3.039,1.405,3.614,1.83s3.333,0,3.921.274,2.4-2.777,2.777-4.189,3.268-4.019,3.921-4.986,3.764-.843,4.535-1.353.346,2.392.719,3.98,3.385,1.392,2.941-.1.3-2.137.425-1.595,3.019,1.719,3.575,2.555.392,2.614-.255,2.614-.654,1.961,0,2.17,1.588-2.229,2.327-2.581,1.307-1.889.974-2.006.621-1.477,1.039-1.026-1.555-2.961-2.784-4.2-.366-.693,1.961,1.222l1.464,2.157c.314.4.719,1.621.993,2.065l.373.654a15.15,15.15,0,0,1,.588,3.5,2.525,2.525,0,0,0,2.006,1.66c.758-.052,1.307.359,1.17.386s.5,1.5,1.255,1.542,1.078-1.908.32-1.961-.654-2.856-.738-4.065a2.486,2.486,0,0,1,.8-2.209c.229,0-.039,2.516,0,3.091a8.235,8.235,0,0,0,.654,2.536l.784.588,1.745,1.346c2.5-.738,5.882-.176,5.738.34s1.85.654,1.961-.2.216,0,.216.6-1.647,2.8-1.915,3.836-6.058.327-8.548.137-6.156.654-6.444,1.405-4.163-1.712-5.941-2.457-3.183-3.47-3.549-3.817.307-1.235.137-1.771-4.235-.654-5.411-.209-7.28,1.078-8.731,1.706-3.608-.039-4.281-.157-2.294,1.869-3.1,2.235-1.869,3.176-2.314,6.274l-1.091,2.157-.712,1.379c-2.019,1.529-4.241,6.64-4.9,7.666s-1.17,8.378-1.17,10.855,2.157,7.712,2.771,9.149,4.346,4.647,5.588,5.411,5.3.85,6.633.85a4.04,4.04,0,0,0,3.353-2.8l1.961.2.889.092c.046,1.085,2.921,1.961,3.627,2.34a6.11,6.11,0,0,0,3.157-.072c.542-.17,1.2,4.921.784,6.392s1.006,6.614,1.418,8.169,2.176,5.79,2.359,7.313-1.039,6.588-1.235,8.359,2.209,6.731,2.849,8.437a28.909,28.909,0,0,1,1.137,6.222c0,.85,2.614,5.986,3.235,8.091S335.952,393.134,337.723,392.095Zm114.061-62.837c.183.373,1.836-.941,2.836-1.1s1.627-2.836.843-3.019-1.778-2.268-2.333-2.523-1.66.889-1.614,1.7-1.817,1.137-2.17,1.817-.32,1.163.059,1.091S451.62,328.9,451.784,329.258Zm-2.039,14.528c.5-.183-.059-2.823-1.085-3.045s-3.921,3.483-3.366,5.614,1.15,1.993,1.444,1.542,2.006.288,2.51.457.5-.346,0-1.131.013-3.235.5-3.418Zm-5.66-2.575c.118-.941.294-3.921.464-4.483s-1.608-2.281-2.483-2.614-3.66,5.745-5.653,6.823-2.732,4.751-2.209,5.607,4.719,1.307,5.444,1.961,1.542-.1,1.961-.209.307-.392.137-.5,1.457-1.817,1.7-2.908.516-2.719.64-3.653ZM432.72,351.282c-1.575-.588-3.411.34-3.549.941s6.032,1.588,8.084,2.144,3.327.739,2.862.392-5.836-2.862-7.4-3.457Zm12.561-40.258c.5-.654-.693-3.921-1.307-3.189s-.157,2.614,0,3.268.81.641,1.307-.059Zm3.732,6.954c.359-.83-.444-1.758-1.784-2.039s-1.144,3.751-.556,4.268,1.967-1.366,2.34-2.209Zm6.96,25c1.6,1.124,5.176.608,5.287-1.562C459.718,340.368,455.836,340.524,455.973,342.982Zm-.83-49.407a2.254,2.254,0,0,0-.817,2.13h-.274c-.529,0-.595,2.111,0,2.47s1.9-1.647,2.614-2.124a3.938,3.938,0,0,1,2.333-.614,6.106,6.106,0,0,0,2.764-.83,2.314,2.314,0,0,0,.784-.941c-.314-1.542-.654-3.065-1.052-4.575-.653.5-1.418,1.026-1.764,1.307C458.96,291.046,455.986,292.98,455.143,293.575Zm-36.6,42.48h0c-.261-.2-.3-.222,0-.007Zm9.973,9.287a17.128,17.128,0,0,0-4.261-4.928l-.654-1.1-.732-1.209c-.654-1.307-2.614-2.353-2.817-2.745s-.8,1.15-1.47.706l2.13,1.51c1.863,1.307,5.451,10.345,6.261,10.979s2.111-1.908,1.536-3.222ZM399.952,330.78c-.5,1.026,2.647,3.189,2.889,2.693a6.049,6.049,0,0,0-.961-3.549c-.562-.556-1.431-.163-1.934.85Zm-41.826,48.139c.124,1.072,2.3,1.921,2.921,1.745s2.4-3.411,2.614-4.346a20.958,20.958,0,0,0,.451-3.418,3.176,3.176,0,0,1,.529-1.68,5.534,5.534,0,0,0,.882-2.438c.229-1.209-1.307-6.914-1.353-7.908s-1.163.516-1.451,1.523-3.124,3.072-3.758,3.921-1.307,3.758-1.072,4.261a6.222,6.222,0,0,1-.536,3.026c-.294.549.673,4.228.784,5.32Zm-101.99,39.323h1.9C258.371,416.177,256.025,416.53,256.136,418.242Zm50.694-214.077a6.524,6.524,0,0,1-3.215-.7,8.068,8.068,0,0,0-4.333-.34c-.882.373-.288-2.176.961-2.451s.183-2.039-1.137-2.039-4.575-.49-5.352-.314-2.268-.536-2.81-.614-4.464,1.17-6.313,1.078a44.365,44.365,0,0,0-7.4.379c-.98.274-1.712,2.189-1.568,2.869s-4.4.654-5.829.7-9.064,1.64-11.058,2.738-3.549,3.889-2.889,3.921-1.1,1.64-2.176,2.019-3.621.523-4.228,1.124.654,1.013.882,1.425.941-.353,1.627,0,2.889.562,3.477.784-1.882.706-3.052.791-.9,2.372.052,2.686,3.392.654,3.64.261,2.908.431,4.111.569,2.111,3.13,2.464,3.784a9.724,9.724,0,0,1,.353,3.588c-.1.66,2.117,1.863,2.516,1.444s.275,1.033-.6.954-.3,2.457.791,2.83.333,1.921-.288,2.4-.288,1.961-.935,2.5,2.281,5.575,2.255,8.176,1.608,4.705,2.222,4.705,2.751.523,3.039,1.078,1.307-.386,1.719-.81a21.941,21.941,0,0,0,1.921-2.771,68.735,68.735,0,0,0,2.32-6.862c.2-.562,2.614-.209,3.2-.5a27.357,27.357,0,0,0,2.614-1.921c.451-.373,3.921-1.849,4.9-2.536s2.529-3.634,3.268-4.268-.379-.444-1.307-1.052a.993.993,0,0,1-.242-1.634c.261-.288,3.072.464,4.039.837s2.817-.948,2.117-1.47-.34-.5,0-.274.7-1.712.333-2.072,2.843-2.712,2.274-4.934.876-4.49,1.738-4.516.608-2.5-.425-2.732-.059-.464.327-.817a5.219,5.219,0,0,0,.654-2.98c-.222-.418,1.582-.915,1.9-1.418a8.45,8.45,0,0,1,3.13-1.653c.738-.163,1.111-2.052.32-1.961Zm18.024,1.8c-.98-.333-2.987.758-2.732,1.379s-1.627-.791-2.941-.118-1.68,2.993-1.078,3.3,1.052,2.131,1.059,2.483,2.562.1,3.215-.431.549,1.863-.078,2.5.222,1.961.935,2.052,1.667,1.771,2.4,1.745,1.961-2.81,2.242-3.862,2.7-.216,3.817.124,1.51-3.856.307-4.49-2.693-.307-3.2-.784a4.091,4.091,0,0,0-1.9-1.013c-.555-.078-1.078-2.549-2.052-2.889Zm9.666,2.006c1.961.268,4.143-1.307,4.62-1.791s-5.4-1.647-7.646-1.719-4.058.235-4.019.654,5.091,2.581,7.045,2.856Zm-35.617,52.8c-.516-.216-.8,1.719-.654,2.451s1.915.654,2.686.536a1.5,1.5,0,0,0,1.307-1.385c-.039-.654-1.124-3.509-1.555-3.509S299.426,260.977,298.9,260.774Zm5.784-22.455c-.405-.712-3.464-.654-4.215-.654a7.987,7.987,0,0,1-3.47-1.307c-.438-.5-.765,1.882-1.457,2.2s.346.752.654.5,0,1.222-.333,1.725,2.039.863,2.307,1.621a1.961,1.961,0,0,0,2.157,1.118c.921-.157,2.771-1.111,3.418-1.176s1.346-3.32.941-4.026Zm64.307-17.547c1.052-1.052,5.379-2.483,5.882-3.575a1.35,1.35,0,0,0-.745-1.961,1.738,1.738,0,0,0-1.078.719c-.111.183-5.071,1.346-6.594,2.085a17.331,17.331,0,0,0-3.921,2.516c-.654.654-1.7,5.575-2.072,6.13s1.653,2.555,2.549,3.117a3.268,3.268,0,0,0,2.47.15c.346-.1-.464-3.549-.921-4.745S367.949,221.843,368.995,220.771Zm-5.313-12.829c1.634,1.621,2.536-.725,4.326-.49-.033-3.287-4.49-2.157-4.326.5Zm31.781.614c-.052.608,4.516,1.1,5.882.856s-.281-2.313-2.235-2.189-3.6.738-3.647,1.34ZM229.917,242.462c-.484.451-.059,2.693.856,2.758s2.372-3.385,3.5-2.693,1.882.967,1.693.6-3.379-1.765-3.771-2.026S230.413,242.031,229.917,242.462Zm11.692,75.921c0,.379,1.993.327,2.32-.288s.15-1.111-.386-1.111S241.608,318,241.608,318.383Zm-8.868-3.268c.954-.183.51,1.366.732,1.915s2.516,1,2.974,1.379,1.64-.706,2.555-.588-.3-3.163-1.843-3.072-2.738-1.392-3.1-1.575a25.044,25.044,0,0,1-2.66-1.647c-.5-.412-4.4-.758-5.731-.758a4.317,4.317,0,0,0-2.993,1.8c-.2.444,2.1.745,2.758.392s3.758.392,4.392,1.137a3.444,3.444,0,0,0,2.915,1.006Zm-4.176,3.268c0,.379,2.013.137,2.5.15s.477-.32-.039-.725S228.564,318,228.564,318.383Zm1.425-10.359c-.523-.209-.941.614-.941,1.007a.654.654,0,0,0,.654.706c.34,0,.81-1.5.288-1.712Zm4.222.32a1.993,1.993,0,0,0-1.307-.7c-.261,0-.451.654-.405,1.477S234.38,308.73,234.21,308.344Zm3.032,4.679c.817-.392.915-1.372.438-1.307s-1.379-1.4-1.908-1.608-.948.869-.948,1.346.294.8.654.7S236.426,313.4,237.243,313.024Zm224.815,31.611c-.418.216-2.444.451-2.712.052s-.654.823-1.1,1.026-.2,1.261.451.928c.451-.222,2.372.837,3.921,1.823.314-1.542.582-3.1.843-4.679-.588.3-1.163.706-1.431.85Z" transform="translate(-170.009 -164.094)" fill="url(#radial-gradient-3)"/>
            <path id="Path_97" data-name="Path 97" d="M389.277,179.506a46.475,46.475,0,0,0-7.058-2.183c-21.41-4.784-44.283,6.2-63.889,27.821-19.312,21.3-35.552,53.015-44.139,90.083a1.233,1.233,0,0,0-.033.15c-8.568,37.068-7.842,72.542.183,99.99,7.372,25.109,20.913,43.519,39.264,50.394-17.848-7.143-31.069-25.35-38.31-50.028-8.051-27.409-8.744-62.9-.183-99.99a1.245,1.245,0,0,1,.033-.15c8.587-37.075,24.834-68.784,44.146-90.083,19.606-21.625,42.447-32.6,63.876-27.827a46.916,46.916,0,0,1,6.11,1.823Z" transform="translate(-197.232 -156.649)" fill="#fff" opacity="0.6"/>
            <path id="Path_98" data-name="Path 98" d="M194.66,423.608a46.4,46.4,0,0,0,.823,7.32c4.183,21.475,23.325,37.957,50.89,47.231,27.161,9.149,62.6,11.319,99.879,4.372h.15c37.251-6.967,69.392-21.763,91.207-40.048C457.6,425.732,468.98,406,467.96,386.52c.6,19.148-10.751,38.486-30.4,54.942-21.815,18.3-53.942,33.082-91.207,40.048h-.15c-37.251,6.947-72.718,4.771-99.873-4.372-27.566-9.274-46.714-25.756-50.9-47.231a46.988,46.988,0,0,1-.778-6.3Z" transform="translate(-171.814 -229.512)" fill="#fff" opacity="0.6"/>
            <path id="Path_99" data-name="Path 99" d="M256.377,218.19a46.736,46.736,0,0,0-6.346,3.8c-17.861,12.77-24.919,37.108-21.9,66.131,2.98,28.6,15.763,61.85,37.643,92.978l.085.131c21.893,31.1,48.786,54.243,74.568,66.549,23.619,11.26,46.4,13.443,63.726,4.379-17.227,8.5-39.6,6.222-62.811-4.843-25.788-12.293-52.675-35.448-74.568-66.556l-.092-.124c-21.874-31.128-34.637-64.379-37.637-92.971-3.019-29.03,4.039-53.367,21.9-66.137A45.1,45.1,0,0,1,256.377,218.19Z" transform="translate(-183.177 -171.191)" fill="#fff" opacity="0.6"/>
            <g id="Group_231" data-name="Group 231" transform="translate(58.045 96.242)" opacity="0.5">
              <path id="Path_100" data-name="Path 100" d="M277.653,338.1a15.423,15.423,0,1,1,15.423-15.423A15.423,15.423,0,0,1,277.653,338.1Zm0-30.716a15.273,15.273,0,1,1,0,.013Z" transform="translate(-253.27 -298.29)" fill="#fff"/>
              <path id="Path_101" data-name="Path 101" d="M272.9,342.307a24.383,24.383,0,1,1,24.383-24.383A24.383,24.383,0,0,1,272.9,342.307Zm0-48.531a24.181,24.181,0,1,0,24.148,24.181A24.181,24.181,0,0,0,272.9,293.775Z" transform="translate(-248.52 -293.54)" fill="#fff"/>
              <path id="Path_102" data-name="Path 102" d="M281.787,334.433a7.627,7.627,0,1,1,7.627-7.627,7.627,7.627,0,0,1-7.627,7.627Zm0-15.129a7.5,7.5,0,1,0,7.5,7.5,7.5,7.5,0,0,0-7.5-7.5Z" transform="translate(-257.403 -302.424)" fill="#fff"/>
            </g>
            <g id="Group_232" data-name="Group 232" transform="translate(228.832 120.906)" opacity="0.5">
              <path id="Path_103" data-name="Path 103" d="M534.191,369.653a14.031,14.031,0,1,1,14.031-14.031,14.031,14.031,0,0,1-14.031,14.031Zm0-27.925a13.9,13.9,0,1,0,13.9,13.894A13.9,13.9,0,0,0,534.191,341.727Z" transform="translate(-513.422 -334.852)" fill="#fff"/>
              <path id="Path_104" data-name="Path 104" d="M530.619,372.818a20.769,20.769,0,1,1,20.769-20.769A20.769,20.769,0,0,1,530.619,372.818Zm0-41.336a20.567,20.567,0,1,0,20.567,20.567A20.567,20.567,0,0,0,530.619,331.483Z" transform="translate(-509.85 -331.28)" fill="#fff"/>
              <path id="Path_105" data-name="Path 105" d="M537.168,367.015a8.417,8.417,0,1,1,8.417-8.417,8.417,8.417,0,0,1-8.417,8.417Zm0-16.7a8.287,8.287,0,1,0,8.287,8.28A8.287,8.287,0,0,0,537.168,350.317Z" transform="translate(-516.398 -337.828)" fill="#fff"/>
            </g>
            <g id="Group_233" data-name="Group 233" transform="translate(219.141 222.753)" opacity="0.5">
              <path id="Path_106" data-name="Path 106" d="M505.751,508.569a10.724,10.724,0,1,1,10.718-10.722A10.725,10.725,0,0,1,505.751,508.569Zm0-21.344a10.626,10.626,0,1,0,10.62,10.622A10.626,10.626,0,0,0,505.751,487.225Z" transform="translate(-495.02 -487.12)" fill="#fff"/>
              <path id="Path_107" data-name="Path 107" d="M508.024,506.555a6.437,6.437,0,1,1,6.431-6.437A6.437,6.437,0,0,1,508.024,506.555Zm0-12.763a6.333,6.333,0,1,0,6.326,6.326,6.333,6.333,0,0,0-6.326-6.326Z" transform="translate(-497.293 -489.393)" fill="#fff"/>
            </g>
            <g id="Group_234" data-name="Group 234" transform="translate(111.85 242.071)" opacity="0.5">
              <path id="Path_108" data-name="Path 108" d="M345.881,546.742a15.031,15.031,0,1,1,15.031-15.031A15.031,15.031,0,0,1,345.881,546.742Zm0-29.906a14.881,14.881,0,1,0,14.881,14.881A14.881,14.881,0,0,0,345.881,516.837Z" transform="translate(-330.85 -516.68)" fill="#fff"/>
              <path id="Path_109" data-name="Path 109" d="M349.069,543.928a9.019,9.019,0,1,1,9.019-9.019A9.019,9.019,0,0,1,349.069,543.928Zm0-17.887a8.875,8.875,0,1,0,8.875,8.868,8.875,8.875,0,0,0-8.875-8.868Z" transform="translate(-334.038 -519.871)" fill="#fff"/>
            </g>
            <path id="Path_110" data-name="Path 110" d="M468.892,196.26c-10.522-30.115-26.723-47.786-45.616-49.76-13.881-1.451-27.579,4.026-40.728,18.711l1.6-.072c12.678-13.848,25.769-18.881,39.009-17.5,18.423,1.928,34.278,19.325,44.643,49.015,10.613,30.37,14.064,69.706,9.718,110.774s-15.953,78.822-32.677,106.336c-16.338,26.88-35.506,40.624-53.929,38.7-8.561-.9-16.639-5.228-23.873-12.633-.706-.1-1.307-.189-1.85-.274,7.686,8.247,16.338,13.071,25.6,14.044a33.89,33.89,0,0,0,3.549.183c17.776,0,35.944-13.848,51.485-39.428,16.815-27.664,28.481-65.595,32.84-106.833S479.558,226.787,468.892,196.26Z" transform="translate(-230.897 -146.275)" fill="#fff" opacity="0.6"/>
            <path id="Path_111" data-name="Path 111" d="M438.01,181.967c-14.378-14.378-40.035-15.861-72.28-4.215-.464.163-.921.346-1.385.516l1.961.582c31.69-11.4,56.857-9.992,70.823,3.987s15.4,39.212,3.921,70.993c-11.724,32.494-35.48,67.725-66.882,99.154s-66.608,55.138-99.128,66.876c-31.775,11.469-56.988,10.077-70.993-3.921-12.3-12.3-14.868-33.709-7.306-60.491-.163-.5-.477-1.451-.654-2.078-8.293,28.036-5.784,50.544,7.117,63.445,7.94,7.953,19.39,11.979,33.52,11.979,11.332,0,24.383-2.614,38.735-7.764,32.677-11.8,68.046-35.663,99.579-67.19l.039-.039c31.507-31.513,55.354-66.863,67.15-99.539C453.871,222,452.375,196.325,438.01,181.967Z" transform="translate(-170.646 -154.489)" fill="#fff" opacity="0.6"/>
            <path id="Path_112" data-name="Path 112" d="M418.466,353.387c-27.22-15.371-64.3-25.488-104.336-28.533h-.1c-40.009-3.013-78.13,1.457-107.356,12.574C177.817,348.4,161.2,364.5,159.792,382.737c-1.307,17.56,11.652,35.291,36.6,50.119l-1.052-1.961c-23.527-14.41-35.7-31.37-34.441-48.1,1.346-17.789,17.743-33.546,46.172-44.362,29.1-11.071,67.091-15.515,106.97-12.5h.091c39.865,3.019,76.7,13.11,103.787,28.409,26.494,14.966,40.342,33,39,50.792-.921,12.228-8.679,23.593-23.194,33.088-.4.621-.961,1.464-1.49,2.255a76.671,76.671,0,0,0,9.895-7.359c9.7-8.339,15.136-17.8,15.894-27.847C459.4,387.011,445.346,368.6,418.466,353.387Z" transform="translate(-159.702 -207.83)" fill="#fff" opacity="0.6"/>
          </g>
          <path id="Path_113" data-name="Path 113" d="M347.147,545.2a9.862,9.862,0,1,1,7.331-1.816A9.868,9.868,0,0,1,347.147,545.2Z" transform="translate(-221.736 -277.691)" fill="url(#radial-gradient-4)"/>
          <path id="Path_114" data-name="Path 114" d="M187.34,479.756a9.868,9.868,0,1,1,7.349-1.81,9.868,9.868,0,0,1-7.349,1.81Z" transform="translate(-166.376 -255.017)" fill="url(#radial-gradient-5)"/>
          <path id="Path_115" data-name="Path 115" d="M534.927,367.594a9.868,9.868,0,1,1,11.228-8.287A9.868,9.868,0,0,1,534.927,367.594Z" transform="translate(-286.796 -216.155)" fill="url(#radial-gradient-6)"/>
          <path id="Path_116" data-name="Path 116" d="M489.63,177.515a9.868,9.868,0,1,1,11.234-8.287,9.868,9.868,0,0,1-11.234,8.287Z" transform="translate(-271.104 -150.299)" fill="url(#radial-gradient-7)"/>
          <path id="Path_117" data-name="Path 117" d="M278.207,335.374a9.868,9.868,0,1,1,11.228-8.287A9.868,9.868,0,0,1,278.207,335.374Z" transform="translate(-197.85 -204.992)" fill="url(#radial-gradient-8)"/>
          <path id="Path_118" data-name="Path 118" d="M601.334,421.1a9.868,9.868,0,1,1,7.351-1.805A9.868,9.868,0,0,1,601.334,421.1Z" transform="translate(-309.815 -234.693)" fill="url(#radial-gradient-9)"/>
          <path id="Path_119" data-name="Path 119" d="M345.907,213.992a6.352,6.352,0,1,1,7.235-5.333A6.352,6.352,0,0,1,345.907,213.992Z" transform="translate(-222.346 -165.36)" fill="url(#radial-gradient-10)"/>
          <path id="Path_120" data-name="Path 120" d="M228.067,348.872a6.352,6.352,0,1,1,4.725-1.169A6.352,6.352,0,0,1,228.067,348.872Z" transform="translate(-181.517 -212.092)" fill="url(#radial-gradient-11)"/>
          <path id="Path_121" data-name="Path 121" d="M293.773,563.062A6.352,6.352,0,1,1,301,557.722,6.352,6.352,0,0,1,293.773,563.062Z" transform="translate(-204.28 -286.301)" fill="url(#radial-gradient-12)"/>
          <path id="Path_122" data-name="Path 122" d="M506.237,509.024a9.868,9.868,0,1,1,11.228-8.287,9.868,9.868,0,0,1-11.228,8.287Z" transform="translate(-276.855 -265.156)" fill="url(#radial-gradient-13)"/>
        </g>
      </g>
    </g>
    <ellipse id="Ellipse_51" data-name="Ellipse 51" cx="10" cy="10.5" rx="10" ry="10.5" transform="translate(358 552)" fill="none"/>
    <ellipse id="Ellipse_55" data-name="Ellipse 55" cx="7.942" cy="7.942" rx="7.942" ry="7.942" transform="translate(411.011 527.892)" fill="none"/>
    <ellipse id="Ellipse_53" data-name="Ellipse 53" cx="10.5" cy="10" rx="10.5" ry="10" transform="translate(201 510)" fill="none"/>
    <ellipse id="Ellipse_52" data-name="Ellipse 52" cx="7" cy="7.5" rx="7" ry="7.5" transform="translate(361 555)" fill="url(#radial-gradient)"/>
    <ellipse id="Ellipse_56" data-name="Ellipse 56" cx="5.673" cy="5.673" rx="5.673" ry="5.673" transform="translate(413.28 530.16)" fill="#fff"/>
    <ellipse id="Ellipse_54" data-name="Ellipse 54" cx="7.5" cy="7" rx="7.5" ry="7" transform="translate(204 513)" fill="url(#linear-gradient)"/>
    <text id="India" transform="translate(150 590)" fill="#fff" font-size="65" font-family="SegoeUI, Segoe UI"><tspan x="0" y="0">India</tspan></text>
  </g>
</svg>
