<svg xmlns="http://www.w3.org/2000/svg" width="571.307" height="571.307" viewBox="0 0 571.307 571.307">
  <g id="Group_334" data-name="Group 334" transform="translate(-15145.848 -5420.847)">
    <g id="Path_561" data-name="Path 561" transform="matrix(0.839, -0.545, 0.545, 0.839, 15145.847, 5645.783)" fill="none">
      <path d="M206.5,0C320.547,0,413,92.453,413,206.5S320.547,413,206.5,413,0,320.547,0,206.5,92.453,0,206.5,0Z" stroke="none"/>
      <path d="M 206.5 6 C 95.94393920898438 6 6 95.94393920898438 6 206.5 C 6 317.0560607910156 95.94393920898438 407 206.5 407 C 317.0560607910156 407 407 317.0560607910156 407 206.5 C 407 95.94393920898438 317.0560607910156 6 206.5 6 M 206.5 0 C 320.5467529296875 0 413 92.4532470703125 413 206.5 C 413 320.5467529296875 320.5467529296875 413 206.5 413 C 92.4532470703125 413 0 320.5467529296875 0 206.5 C 0 92.4532470703125 92.4532470703125 0 206.5 0 Z" stroke="none" fill="#0a9499"/>
    </g>
    <path id="Path_563" data-name="Path 563" d="M207.8,429.738a202.992,202.992,0,0,1-40.609-4.094,200.4,200.4,0,0,1-72.051-30.319,202.087,202.087,0,0,1-73-88.654,200.486,200.486,0,0,1-11.741-37.824,203.25,203.25,0,0,1,2.081-90.306,200.414,200.414,0,0,1,17.512-45.176l178.17,93.712L398.911,164.2A201.391,201.391,0,0,1,207.8,429.738Z" transform="matrix(0.839, -0.545, 0.545, 0.839, 15132.918, 5628.259)" fill="none" stroke="#0a9499" stroke-width="6"/>
    <path id="Path_564" data-name="Path 564" d="M196.678,407.764,206.5,206.5l190.948-64.523A201.3,201.3,0,0,1,408,206.5C408,317.786,317.786,408,206.5,408Q201.558,408,196.678,407.764Z" transform="matrix(0.839, -0.545, 0.545, 0.839, 15145.847, 5645.783)" fill="none" stroke="#0a9499" stroke-width="6"/>
    <path id="Path_562" data-name="Path 562" d="M2.926,0H6.384V-19.646L15.162,0h2.432l8.74-19.608V0h3.458V-26.3H26.106L16.378-4.56,6.65-26.3H2.926ZM54.188,0h3.648L48.3-26.334h-3.99L34.732,0H38.38l2.128-5.89H52.06ZM51.072-8.7H41.5l4.788-13.376Zm10.07-14.972H68.4V0h3.458V-23.674h7.22v-2.812H61.142ZM101.042,0H104.5V-26.486h-3.458v11.628H87.552V-26.486H84.094V0h3.458V-12.008h13.49Z" transform="translate(15316.982 5619.631)" fill="#0a9499"/>
    <path id="Path_565" data-name="Path 565" d="M1.292-23.674H8.55V0h3.458V-23.674h7.22v-2.812H1.292Zm37.2-2.85H24.244V0h14.25V-2.85H27.7v-9.12h9.652v-2.85H27.7v-8.854H38.494Zm4.712,13.262C43.206-5.32,49.02.228,56.43.228c5.738,0,10.3-2.85,12.274-7.942H64.562c-1.444,3.154-4.256,4.94-8.132,4.94-5.548,0-9.69-4.028-9.69-10.488,0-6.5,4.142-10.526,9.69-10.526,3.876,0,6.688,1.786,8.132,4.978H68.7c-1.976-5.13-6.536-8.018-12.274-8.018C49.02-26.828,43.206-21.2,43.206-13.262ZM91.542,0H95V-26.486H91.542v11.628H78.052V-26.486H74.594V0h3.458V-12.008h13.49Z" transform="translate(15324.056 5832.489)" fill="#0a9499"/>
    <path id="Path_566" data-name="Path 566" d="M11.172-26.486H2.926V0h8.246c8.7,0,14.06-4.978,14.06-13.186S19.874-26.486,11.172-26.486ZM6.384-2.85V-23.674h4.788c6.916,0,10.526,4.028,10.526,10.488S18.088-2.85,11.172-2.85ZM48.336,0h3.648L42.446-26.334h-3.99L28.88,0h3.648l2.128-5.89H46.208ZM45.22-8.7H35.644l4.788-13.376ZM55.29-23.674h7.258V0h3.458V-23.674h7.22v-2.812H55.29ZM96.026,0h3.648L90.136-26.334h-3.99L76.57,0h3.648l2.128-5.89H93.9ZM92.91-8.7H83.334l4.788-13.376Z" transform="translate(15491.901 5722.936)" fill="#0a9499"/>
  </g>
</svg>
