<svg xmlns="http://www.w3.org/2000/svg" xmlns:xlink="http://www.w3.org/1999/xlink" width="3039" height="1778.465" viewBox="0 0 3039 1778.465">
  <defs>
    <clipPath id="clip-path">
      <rect id="Rectangle_101" data-name="Rectangle 101" width="3039" height="1778.465" fill="none" stroke="#707070" stroke-width="18"/>
    </clipPath>
  </defs>
  <g id="Group_95" data-name="Group 95" transform="translate(-11061.004 -3435)">
    <g id="Group_94" data-name="Group 94" transform="translate(11061.004 3435)">
      <g id="Group_86" data-name="Group 86" transform="translate(0 0)">
        <g id="Group_85" data-name="Group 85" clip-path="url(#clip-path)">
          <g id="Group_64" data-name="Group 64" transform="translate(-219.425 146.045)">
            <g id="Group_55" data-name="Group 55">
              <path id="Rectangle_74" data-name="Rectangle 74" d="M13.249,0H298.287a13.249,13.249,0,0,1,13.249,13.249V238.581a0,0,0,0,1,0,0H0a0,0,0,0,1,0,0V13.249A13.249,13.249,0,0,1,13.249,0Z" transform="translate(0 194.979)" fill="none" stroke="#00729c" stroke-miterlimit="10" stroke-width="18"/>
              <path id="Path_470" data-name="Path 470" d="M198.749,312.6a70.406,70.406,0,0,1-70.614-70.614v-28.9a70.621,70.621,0,0,1,70.614-70.614h0a70.615,70.615,0,0,1,70.614,70.614v28.9A70.4,70.4,0,0,1,198.749,312.6Z" transform="translate(-42.984 -142.475)" fill="none" stroke="#00729c" stroke-miterlimit="10" stroke-width="18"/>
              <line id="Line_144" data-name="Line 144" y1="147.506" transform="translate(52.045 286.054)" fill="none" stroke="#00729c" stroke-miterlimit="10" stroke-width="18"/>
              <line id="Line_145" data-name="Line 145" y2="147.506" transform="translate(263.698 286.054)" fill="none" stroke="#00729c" stroke-miterlimit="10" stroke-width="18"/>
            </g>
            <g id="Group_56" data-name="Group 56" transform="translate(395.79)">
              <path id="Rectangle_75" data-name="Rectangle 75" d="M13.249,0H298.286a13.249,13.249,0,0,1,13.249,13.249V238.581a0,0,0,0,1,0,0H0a0,0,0,0,1,0,0V13.249A13.249,13.249,0,0,1,13.249,0Z" transform="translate(0 194.979)" fill="none" stroke="#00729c" stroke-miterlimit="10" stroke-width="18"/>
              <path id="Path_471" data-name="Path 471" d="M245.613,312.6A70.4,70.4,0,0,1,175,241.99v-28.9a70.615,70.615,0,0,1,70.614-70.614h0a70.621,70.621,0,0,1,70.614,70.614v28.9A70.405,70.405,0,0,1,245.613,312.6Z" transform="translate(-89.843 -142.475)" fill="none" stroke="#00729c" stroke-miterlimit="10" stroke-width="18"/>
              <line id="Line_146" data-name="Line 146" y1="147.506" transform="translate(52.044 286.054)" fill="none" stroke="#00729c" stroke-miterlimit="10" stroke-width="18"/>
              <line id="Line_147" data-name="Line 147" y2="147.506" transform="translate(263.697 286.054)" fill="none" stroke="#00729c" stroke-miterlimit="10" stroke-width="18"/>
            </g>
            <g id="Group_57" data-name="Group 57" transform="translate(791.579)">
              <path id="Rectangle_76" data-name="Rectangle 76" d="M13.249,0H298.287a13.249,13.249,0,0,1,13.249,13.249V238.581a0,0,0,0,1,0,0H0a0,0,0,0,1,0,0V13.249A13.249,13.249,0,0,1,13.249,0Z" transform="translate(0 194.979)" fill="none" stroke="#00729c" stroke-miterlimit="10" stroke-width="18"/>
              <path id="Path_472" data-name="Path 472" d="M292.476,312.6a70.4,70.4,0,0,1-70.614-70.614v-28.9a70.615,70.615,0,0,1,70.614-70.614h0a70.615,70.615,0,0,1,70.614,70.614v28.9A70.4,70.4,0,0,1,292.476,312.6Z" transform="translate(-136.708 -142.475)" fill="none" stroke="#00729c" stroke-miterlimit="10" stroke-width="18"/>
              <line id="Line_148" data-name="Line 148" y1="147.506" transform="translate(52.045 286.054)" fill="none" stroke="#00729c" stroke-miterlimit="10" stroke-width="18"/>
              <line id="Line_149" data-name="Line 149" y2="147.506" transform="translate(263.697 286.054)" fill="none" stroke="#00729c" stroke-miterlimit="10" stroke-width="18"/>
            </g>
            <g id="Group_58" data-name="Group 58" transform="translate(1187.368)">
              <path id="Rectangle_77" data-name="Rectangle 77" d="M13.249,0H298.287a13.249,13.249,0,0,1,13.249,13.249V238.581a0,0,0,0,1,0,0H0a0,0,0,0,1,0,0V13.249A13.249,13.249,0,0,1,13.249,0Z" transform="translate(0 194.979)" fill="none" stroke="#00729c" stroke-miterlimit="10" stroke-width="18"/>
              <path id="Path_473" data-name="Path 473" d="M339.339,312.6a70.405,70.405,0,0,1-70.614-70.614v-28.9a70.62,70.62,0,0,1,70.614-70.614h0a70.615,70.615,0,0,1,70.614,70.614v28.9A70.4,70.4,0,0,1,339.339,312.6Z" transform="translate(-183.574 -142.475)" fill="none" stroke="#00729c" stroke-miterlimit="10" stroke-width="18"/>
              <line id="Line_150" data-name="Line 150" y1="147.506" transform="translate(52.045 286.054)" fill="none" stroke="#00729c" stroke-miterlimit="10" stroke-width="18"/>
              <line id="Line_151" data-name="Line 151" y2="147.506" transform="translate(263.698 286.054)" fill="none" stroke="#00729c" stroke-miterlimit="10" stroke-width="18"/>
            </g>
            <g id="Group_59" data-name="Group 59" transform="translate(1583.157)">
              <path id="Rectangle_78" data-name="Rectangle 78" d="M13.249,0H298.286a13.249,13.249,0,0,1,13.249,13.249V238.581a0,0,0,0,1,0,0H0a0,0,0,0,1,0,0V13.249A13.249,13.249,0,0,1,13.249,0Z" transform="translate(0 194.979)" fill="none" stroke="#00729c" stroke-miterlimit="10" stroke-width="18"/>
              <path id="Path_474" data-name="Path 474" d="M386.2,312.6a70.4,70.4,0,0,1-70.614-70.614v-28.9A70.615,70.615,0,0,1,386.2,142.475h0a70.621,70.621,0,0,1,70.614,70.614v28.9A70.405,70.405,0,0,1,386.2,312.6Z" transform="translate(-230.433 -142.475)" fill="none" stroke="#00729c" stroke-miterlimit="10" stroke-width="18"/>
              <line id="Line_152" data-name="Line 152" y1="147.506" transform="translate(52.044 286.054)" fill="none" stroke="#00729c" stroke-miterlimit="10" stroke-width="18"/>
              <line id="Line_153" data-name="Line 153" y2="147.506" transform="translate(263.697 286.054)" fill="none" stroke="#00729c" stroke-miterlimit="10" stroke-width="18"/>
            </g>
            <g id="Group_60" data-name="Group 60" transform="translate(1978.946)">
              <path id="Rectangle_79" data-name="Rectangle 79" d="M13.249,0H298.287a13.249,13.249,0,0,1,13.249,13.249V238.581a0,0,0,0,1,0,0H0a0,0,0,0,1,0,0V13.249A13.249,13.249,0,0,1,13.249,0Z" transform="translate(0 194.979)" fill="none" stroke="#00729c" stroke-miterlimit="10" stroke-width="18"/>
              <path id="Path_475" data-name="Path 475" d="M433.065,312.6a70.4,70.4,0,0,1-70.614-70.614v-28.9a70.615,70.615,0,0,1,70.614-70.614h0a70.615,70.615,0,0,1,70.614,70.614v28.9A70.4,70.4,0,0,1,433.065,312.6Z" transform="translate(-277.298 -142.475)" fill="none" stroke="#00729c" stroke-miterlimit="10" stroke-width="18"/>
              <line id="Line_154" data-name="Line 154" y1="147.506" transform="translate(52.045 286.054)" fill="none" stroke="#00729c" stroke-miterlimit="10" stroke-width="18"/>
              <line id="Line_155" data-name="Line 155" y2="147.506" transform="translate(263.697 286.054)" fill="none" stroke="#00729c" stroke-miterlimit="10" stroke-width="18"/>
            </g>
            <g id="Group_61" data-name="Group 61" transform="translate(2374.735)">
              <path id="Rectangle_80" data-name="Rectangle 80" d="M13.249,0H298.287a13.249,13.249,0,0,1,13.249,13.249V238.581a0,0,0,0,1,0,0H0a0,0,0,0,1,0,0V13.249A13.249,13.249,0,0,1,13.249,0Z" transform="translate(0 194.979)" fill="none" stroke="#00729c" stroke-miterlimit="10" stroke-width="18"/>
              <path id="Path_476" data-name="Path 476" d="M479.929,312.6a70.405,70.405,0,0,1-70.614-70.614v-28.9a70.62,70.62,0,0,1,70.614-70.614h0a70.615,70.615,0,0,1,70.614,70.614v28.9A70.4,70.4,0,0,1,479.929,312.6Z" transform="translate(-324.164 -142.475)" fill="none" stroke="#00729c" stroke-miterlimit="10" stroke-width="18"/>
              <line id="Line_156" data-name="Line 156" y1="147.506" transform="translate(52.045 286.054)" fill="none" stroke="#00729c" stroke-miterlimit="10" stroke-width="18"/>
              <line id="Line_157" data-name="Line 157" y2="147.506" transform="translate(263.698 286.054)" fill="none" stroke="#00729c" stroke-miterlimit="10" stroke-width="18"/>
            </g>
            <g id="Group_62" data-name="Group 62" transform="translate(2770.525)">
              <path id="Rectangle_81" data-name="Rectangle 81" d="M13.249,0H298.286a13.249,13.249,0,0,1,13.249,13.249V238.581a0,0,0,0,1,0,0H0a0,0,0,0,1,0,0V13.249A13.249,13.249,0,0,1,13.249,0Z" transform="translate(0 194.979)" fill="none" stroke="#00729c" stroke-miterlimit="10" stroke-width="18"/>
              <path id="Path_477" data-name="Path 477" d="M526.793,312.6a70.4,70.4,0,0,1-70.614-70.614v-28.9a70.615,70.615,0,0,1,70.614-70.614h0a70.62,70.62,0,0,1,70.614,70.614v28.9A70.405,70.405,0,0,1,526.793,312.6Z" transform="translate(-371.022 -142.475)" fill="none" stroke="#00729c" stroke-miterlimit="10" stroke-width="18"/>
              <line id="Line_158" data-name="Line 158" y1="147.506" transform="translate(52.044 286.054)" fill="none" stroke="#00729c" stroke-miterlimit="10" stroke-width="18"/>
              <line id="Line_159" data-name="Line 159" y2="147.506" transform="translate(263.697 286.054)" fill="none" stroke="#00729c" stroke-miterlimit="10" stroke-width="18"/>
            </g>
            <g id="Group_63" data-name="Group 63" transform="translate(3166.314)">
              <path id="Rectangle_82" data-name="Rectangle 82" d="M13.249,0H298.287a13.249,13.249,0,0,1,13.249,13.249V238.581a0,0,0,0,1,0,0H0a0,0,0,0,1,0,0V13.249A13.249,13.249,0,0,1,13.249,0Z" transform="translate(0 194.979)" fill="none" stroke="#00729c" stroke-miterlimit="10" stroke-width="18"/>
              <path id="Path_478" data-name="Path 478" d="M573.656,312.6a70.4,70.4,0,0,1-70.614-70.614v-28.9a70.615,70.615,0,0,1,70.614-70.614h0a70.615,70.615,0,0,1,70.613,70.614v28.9A70.4,70.4,0,0,1,573.656,312.6Z" transform="translate(-417.888 -142.475)" fill="none" stroke="#00729c" stroke-miterlimit="10" stroke-width="18"/>
              <line id="Line_160" data-name="Line 160" y1="147.506" transform="translate(52.045 286.054)" fill="none" stroke="#00729c" stroke-miterlimit="10" stroke-width="18"/>
              <line id="Line_161" data-name="Line 161" y2="147.506" transform="translate(263.698 286.054)" fill="none" stroke="#00729c" stroke-miterlimit="10" stroke-width="18"/>
            </g>
          </g>
          <g id="Group_74" data-name="Group 74" transform="translate(-219.425 1154.417)">
            <g id="Group_65" data-name="Group 65">
              <path id="Rectangle_83" data-name="Rectangle 83" d="M13.249,0H298.287a13.249,13.249,0,0,1,13.249,13.249V238.581a0,0,0,0,1,0,0H0a0,0,0,0,1,0,0V13.249A13.249,13.249,0,0,1,13.249,0Z" transform="translate(0 194.98)" fill="none" stroke="#00729c" stroke-miterlimit="10" stroke-width="18"/>
              <path id="Path_479" data-name="Path 479" d="M198.749,432a70.406,70.406,0,0,1-70.614-70.614v-28.9a70.621,70.621,0,0,1,70.614-70.614h0a70.615,70.615,0,0,1,70.614,70.614v28.9A70.4,70.4,0,0,1,198.749,432Z" transform="translate(-42.984 -261.871)" fill="none" stroke="#00729c" stroke-miterlimit="10" stroke-width="18"/>
              <line id="Line_162" data-name="Line 162" y1="147.506" transform="translate(52.045 286.055)" fill="none" stroke="#00729c" stroke-miterlimit="10" stroke-width="18"/>
              <line id="Line_163" data-name="Line 163" y2="147.506" transform="translate(263.698 286.055)" fill="none" stroke="#00729c" stroke-miterlimit="10" stroke-width="18"/>
            </g>
            <g id="Group_66" data-name="Group 66" transform="translate(395.79)">
              <path id="Rectangle_84" data-name="Rectangle 84" d="M13.249,0H298.286a13.249,13.249,0,0,1,13.249,13.249V238.581a0,0,0,0,1,0,0H0a0,0,0,0,1,0,0V13.249A13.249,13.249,0,0,1,13.249,0Z" transform="translate(0 194.98)" fill="none" stroke="#00729c" stroke-miterlimit="10" stroke-width="18"/>
              <path id="Path_480" data-name="Path 480" d="M245.613,432A70.4,70.4,0,0,1,175,361.385v-28.9a70.615,70.615,0,0,1,70.614-70.614h0a70.62,70.62,0,0,1,70.614,70.614v28.9A70.406,70.406,0,0,1,245.613,432Z" transform="translate(-89.843 -261.871)" fill="none" stroke="#00729c" stroke-miterlimit="10" stroke-width="18"/>
              <line id="Line_164" data-name="Line 164" y1="147.506" transform="translate(52.044 286.055)" fill="none" stroke="#00729c" stroke-miterlimit="10" stroke-width="18"/>
              <line id="Line_165" data-name="Line 165" y2="147.506" transform="translate(263.697 286.055)" fill="none" stroke="#00729c" stroke-miterlimit="10" stroke-width="18"/>
            </g>
            <g id="Group_67" data-name="Group 67" transform="translate(791.579)">
              <path id="Rectangle_85" data-name="Rectangle 85" d="M13.249,0H298.287a13.249,13.249,0,0,1,13.249,13.249V238.581a0,0,0,0,1,0,0H0a0,0,0,0,1,0,0V13.249A13.249,13.249,0,0,1,13.249,0Z" transform="translate(0 194.98)" fill="none" stroke="#00729c" stroke-miterlimit="10" stroke-width="18"/>
              <path id="Path_481" data-name="Path 481" d="M292.476,432a70.4,70.4,0,0,1-70.614-70.614v-28.9a70.615,70.615,0,0,1,70.614-70.614h0a70.615,70.615,0,0,1,70.614,70.614v28.9A70.4,70.4,0,0,1,292.476,432Z" transform="translate(-136.708 -261.871)" fill="none" stroke="#00729c" stroke-miterlimit="10" stroke-width="18"/>
              <line id="Line_166" data-name="Line 166" y1="147.506" transform="translate(52.045 286.055)" fill="none" stroke="#00729c" stroke-miterlimit="10" stroke-width="18"/>
              <line id="Line_167" data-name="Line 167" y2="147.506" transform="translate(263.697 286.055)" fill="none" stroke="#00729c" stroke-miterlimit="10" stroke-width="18"/>
            </g>
            <g id="Group_68" data-name="Group 68" transform="translate(1187.368)">
              <path id="Rectangle_86" data-name="Rectangle 86" d="M13.249,0H298.287a13.249,13.249,0,0,1,13.249,13.249V238.581a0,0,0,0,1,0,0H0a0,0,0,0,1,0,0V13.249A13.249,13.249,0,0,1,13.249,0Z" transform="translate(0 194.98)" fill="none" stroke="#00729c" stroke-miterlimit="10" stroke-width="18"/>
              <path id="Path_482" data-name="Path 482" d="M339.339,432a70.405,70.405,0,0,1-70.614-70.614v-28.9a70.62,70.62,0,0,1,70.614-70.614h0a70.615,70.615,0,0,1,70.614,70.614v28.9A70.4,70.4,0,0,1,339.339,432Z" transform="translate(-183.574 -261.871)" fill="none" stroke="#00729c" stroke-miterlimit="10" stroke-width="18"/>
              <line id="Line_168" data-name="Line 168" y1="147.506" transform="translate(52.045 286.055)" fill="none" stroke="#00729c" stroke-miterlimit="10" stroke-width="18"/>
              <line id="Line_169" data-name="Line 169" y2="147.506" transform="translate(263.698 286.055)" fill="none" stroke="#00729c" stroke-miterlimit="10" stroke-width="18"/>
            </g>
            <g id="Group_69" data-name="Group 69" transform="translate(1583.157)">
              <path id="Rectangle_87" data-name="Rectangle 87" d="M13.249,0H298.286a13.249,13.249,0,0,1,13.249,13.249V238.581a0,0,0,0,1,0,0H0a0,0,0,0,1,0,0V13.249A13.249,13.249,0,0,1,13.249,0Z" transform="translate(0 194.98)" fill="none" stroke="#00729c" stroke-miterlimit="10" stroke-width="18"/>
              <path id="Path_483" data-name="Path 483" d="M386.2,432a70.4,70.4,0,0,1-70.614-70.614v-28.9A70.615,70.615,0,0,1,386.2,261.871h0a70.621,70.621,0,0,1,70.614,70.614v28.9A70.406,70.406,0,0,1,386.2,432Z" transform="translate(-230.433 -261.871)" fill="none" stroke="#00729c" stroke-miterlimit="10" stroke-width="18"/>
              <line id="Line_170" data-name="Line 170" y1="147.506" transform="translate(52.044 286.055)" fill="none" stroke="#00729c" stroke-miterlimit="10" stroke-width="18"/>
              <line id="Line_171" data-name="Line 171" y2="147.506" transform="translate(263.697 286.055)" fill="none" stroke="#00729c" stroke-miterlimit="10" stroke-width="18"/>
            </g>
            <g id="Group_70" data-name="Group 70" transform="translate(1978.946)">
              <path id="Rectangle_88" data-name="Rectangle 88" d="M13.249,0H298.287a13.249,13.249,0,0,1,13.249,13.249V238.581a0,0,0,0,1,0,0H0a0,0,0,0,1,0,0V13.249A13.249,13.249,0,0,1,13.249,0Z" transform="translate(0 194.98)" fill="none" stroke="#00729c" stroke-miterlimit="10" stroke-width="18"/>
              <path id="Path_484" data-name="Path 484" d="M433.065,432a70.4,70.4,0,0,1-70.614-70.614v-28.9a70.615,70.615,0,0,1,70.614-70.614h0a70.615,70.615,0,0,1,70.614,70.614v28.9A70.4,70.4,0,0,1,433.065,432Z" transform="translate(-277.298 -261.871)" fill="none" stroke="#00729c" stroke-miterlimit="10" stroke-width="18"/>
              <line id="Line_172" data-name="Line 172" y1="147.506" transform="translate(52.045 286.055)" fill="none" stroke="#00729c" stroke-miterlimit="10" stroke-width="18"/>
              <line id="Line_173" data-name="Line 173" y2="147.506" transform="translate(263.697 286.055)" fill="none" stroke="#00729c" stroke-miterlimit="10" stroke-width="18"/>
            </g>
            <g id="Group_71" data-name="Group 71" transform="translate(2374.735)">
              <path id="Rectangle_89" data-name="Rectangle 89" d="M13.249,0H298.287a13.249,13.249,0,0,1,13.249,13.249V238.581a0,0,0,0,1,0,0H0a0,0,0,0,1,0,0V13.249A13.249,13.249,0,0,1,13.249,0Z" transform="translate(0 194.98)" fill="none" stroke="#00729c" stroke-miterlimit="10" stroke-width="18"/>
              <path id="Path_485" data-name="Path 485" d="M479.929,432a70.406,70.406,0,0,1-70.614-70.614v-28.9a70.62,70.62,0,0,1,70.614-70.614h0a70.615,70.615,0,0,1,70.614,70.614v28.9A70.4,70.4,0,0,1,479.929,432Z" transform="translate(-324.164 -261.871)" fill="none" stroke="#00729c" stroke-miterlimit="10" stroke-width="18"/>
              <line id="Line_174" data-name="Line 174" y1="147.506" transform="translate(52.045 286.055)" fill="none" stroke="#00729c" stroke-miterlimit="10" stroke-width="18"/>
              <line id="Line_175" data-name="Line 175" y2="147.506" transform="translate(263.698 286.055)" fill="none" stroke="#00729c" stroke-miterlimit="10" stroke-width="18"/>
            </g>
            <g id="Group_72" data-name="Group 72" transform="translate(2770.525)">
              <path id="Rectangle_90" data-name="Rectangle 90" d="M13.249,0H298.286a13.249,13.249,0,0,1,13.249,13.249V238.581a0,0,0,0,1,0,0H0a0,0,0,0,1,0,0V13.249A13.249,13.249,0,0,1,13.249,0Z" transform="translate(0 194.98)" fill="none" stroke="#00729c" stroke-miterlimit="10" stroke-width="18"/>
              <path id="Path_486" data-name="Path 486" d="M526.793,432a70.4,70.4,0,0,1-70.614-70.614v-28.9a70.615,70.615,0,0,1,70.614-70.614h0a70.62,70.62,0,0,1,70.614,70.614v28.9A70.406,70.406,0,0,1,526.793,432Z" transform="translate(-371.022 -261.871)" fill="none" stroke="#00729c" stroke-miterlimit="10" stroke-width="18"/>
              <line id="Line_176" data-name="Line 176" y1="147.506" transform="translate(52.044 286.055)" fill="none" stroke="#00729c" stroke-miterlimit="10" stroke-width="18"/>
              <line id="Line_177" data-name="Line 177" y2="147.506" transform="translate(263.697 286.055)" fill="none" stroke="#00729c" stroke-miterlimit="10" stroke-width="18"/>
            </g>
            <g id="Group_73" data-name="Group 73" transform="translate(3166.314)">
              <path id="Rectangle_91" data-name="Rectangle 91" d="M13.249,0H298.287a13.249,13.249,0,0,1,13.249,13.249V238.581a0,0,0,0,1,0,0H0a0,0,0,0,1,0,0V13.249A13.249,13.249,0,0,1,13.249,0Z" transform="translate(0 194.98)" fill="none" stroke="#00729c" stroke-miterlimit="10" stroke-width="18"/>
              <path id="Path_487" data-name="Path 487" d="M573.656,432a70.4,70.4,0,0,1-70.614-70.614v-28.9a70.615,70.615,0,0,1,70.614-70.614h0a70.615,70.615,0,0,1,70.613,70.614v28.9A70.4,70.4,0,0,1,573.656,432Z" transform="translate(-417.888 -261.871)" fill="none" stroke="#00729c" stroke-miterlimit="10" stroke-width="18"/>
              <line id="Line_178" data-name="Line 178" y1="147.506" transform="translate(52.045 286.055)" fill="none" stroke="#00729c" stroke-miterlimit="10" stroke-width="18"/>
              <line id="Line_179" data-name="Line 179" y2="147.506" transform="translate(263.698 286.055)" fill="none" stroke="#00729c" stroke-miterlimit="10" stroke-width="18"/>
            </g>
          </g>
          <g id="Group_84" data-name="Group 84" transform="translate(-420.011 650.231)">
            <g id="Group_75" data-name="Group 75">
              <path id="Rectangle_92" data-name="Rectangle 92" d="M13.249,0H298.286a13.249,13.249,0,0,1,13.249,13.249V238.58a0,0,0,0,1,0,0H0a0,0,0,0,1,0,0V13.249A13.249,13.249,0,0,1,13.249,0Z" transform="translate(0 194.98)" fill="none" stroke="#00729c" stroke-miterlimit="10" stroke-width="18"/>
              <path id="Path_488" data-name="Path 488" d="M175,372.3a70.4,70.4,0,0,1-70.614-70.614v-28.9A70.615,70.615,0,0,1,175,202.173h0a70.615,70.615,0,0,1,70.614,70.614v28.9A70.405,70.405,0,0,1,175,372.3Z" transform="translate(-19.231 -202.173)" fill="none" stroke="#00729c" stroke-miterlimit="10" stroke-width="18"/>
              <line id="Line_180" data-name="Line 180" y1="147.505" transform="translate(52.044 286.055)" fill="none" stroke="#00729c" stroke-miterlimit="10" stroke-width="18"/>
              <line id="Line_181" data-name="Line 181" y2="147.505" transform="translate(263.697 286.055)" fill="none" stroke="#00729c" stroke-miterlimit="10" stroke-width="18"/>
            </g>
            <g id="Group_76" data-name="Group 76" transform="translate(395.789)">
              <path id="Rectangle_93" data-name="Rectangle 93" d="M13.249,0H298.286a13.249,13.249,0,0,1,13.249,13.249V238.58a0,0,0,0,1,0,0H0a0,0,0,0,1,0,0V13.249A13.249,13.249,0,0,1,13.249,0Z" transform="translate(0 194.98)" fill="none" stroke="#00729c" stroke-miterlimit="10" stroke-width="18"/>
              <path id="Path_489" data-name="Path 489" d="M221.862,372.3a70.405,70.405,0,0,1-70.614-70.614v-28.9a70.621,70.621,0,0,1,70.614-70.614h0a70.615,70.615,0,0,1,70.614,70.614v28.9A70.4,70.4,0,0,1,221.862,372.3Z" transform="translate(-66.096 -202.173)" fill="none" stroke="#00729c" stroke-miterlimit="10" stroke-width="18"/>
              <line id="Line_182" data-name="Line 182" y1="147.505" transform="translate(52.045 286.055)" fill="none" stroke="#00729c" stroke-miterlimit="10" stroke-width="18"/>
              <line id="Line_183" data-name="Line 183" y2="147.505" transform="translate(263.697 286.055)" fill="none" stroke="#00729c" stroke-miterlimit="10" stroke-width="18"/>
            </g>
            <g id="Group_77" data-name="Group 77" transform="translate(791.578)">
              <path id="Rectangle_94" data-name="Rectangle 94" d="M13.249,0H298.287a13.249,13.249,0,0,1,13.249,13.249V238.58a0,0,0,0,1,0,0H0a0,0,0,0,1,0,0V13.249A13.249,13.249,0,0,1,13.249,0Z" transform="translate(0 194.98)" fill="none" stroke="#00729c" stroke-miterlimit="10" stroke-width="18"/>
              <path id="Path_490" data-name="Path 490" d="M268.726,372.3a70.4,70.4,0,0,1-70.614-70.614v-28.9a70.615,70.615,0,0,1,70.614-70.614h0a70.621,70.621,0,0,1,70.614,70.614v28.9A70.405,70.405,0,0,1,268.726,372.3Z" transform="translate(-112.955 -202.173)" fill="none" stroke="#00729c" stroke-miterlimit="10" stroke-width="18"/>
              <line id="Line_184" data-name="Line 184" y1="147.505" transform="translate(52.045 286.055)" fill="none" stroke="#00729c" stroke-miterlimit="10" stroke-width="18"/>
              <line id="Line_185" data-name="Line 185" y2="147.505" transform="translate(263.698 286.055)" fill="none" stroke="#00729c" stroke-miterlimit="10" stroke-width="18"/>
            </g>
            <g id="Group_78" data-name="Group 78" transform="translate(1187.368)">
              <path id="Rectangle_95" data-name="Rectangle 95" d="M13.249,0H298.286a13.249,13.249,0,0,1,13.249,13.249V238.58a0,0,0,0,1,0,0H0a0,0,0,0,1,0,0V13.249A13.249,13.249,0,0,1,13.249,0Z" transform="translate(0 194.98)" fill="none" stroke="#00729c" stroke-miterlimit="10" stroke-width="18"/>
              <path id="Path_491" data-name="Path 491" d="M315.589,372.3a70.4,70.4,0,0,1-70.614-70.614v-28.9a70.615,70.615,0,0,1,70.614-70.614h0A70.615,70.615,0,0,1,386.2,272.787v28.9A70.4,70.4,0,0,1,315.589,372.3Z" transform="translate(-159.821 -202.173)" fill="none" stroke="#00729c" stroke-miterlimit="10" stroke-width="18"/>
              <line id="Line_186" data-name="Line 186" y1="147.505" transform="translate(52.044 286.055)" fill="none" stroke="#00729c" stroke-miterlimit="10" stroke-width="18"/>
              <line id="Line_187" data-name="Line 187" y2="147.505" transform="translate(263.697 286.055)" fill="none" stroke="#00729c" stroke-miterlimit="10" stroke-width="18"/>
            </g>
            <g id="Group_79" data-name="Group 79" transform="translate(1583.157)">
              <path id="Rectangle_96" data-name="Rectangle 96" d="M13.249,0H298.286a13.249,13.249,0,0,1,13.249,13.249V238.58a0,0,0,0,1,0,0H0a0,0,0,0,1,0,0V13.249A13.249,13.249,0,0,1,13.249,0Z" transform="translate(0 194.98)" fill="none" stroke="#00729c" stroke-miterlimit="10" stroke-width="18"/>
              <path id="Path_492" data-name="Path 492" d="M362.452,372.3a70.405,70.405,0,0,1-70.614-70.614v-28.9a70.621,70.621,0,0,1,70.614-70.614h0a70.615,70.615,0,0,1,70.614,70.614v28.9A70.4,70.4,0,0,1,362.452,372.3Z" transform="translate(-206.686 -202.173)" fill="none" stroke="#00729c" stroke-miterlimit="10" stroke-width="18"/>
              <line id="Line_188" data-name="Line 188" y1="147.505" transform="translate(52.045 286.055)" fill="none" stroke="#00729c" stroke-miterlimit="10" stroke-width="18"/>
              <line id="Line_189" data-name="Line 189" y2="147.505" transform="translate(263.697 286.055)" fill="none" stroke="#00729c" stroke-miterlimit="10" stroke-width="18"/>
            </g>
            <g id="Group_80" data-name="Group 80" transform="translate(1978.946)">
              <path id="Rectangle_97" data-name="Rectangle 97" d="M13.249,0H298.287a13.249,13.249,0,0,1,13.249,13.249V238.58a0,0,0,0,1,0,0H0a0,0,0,0,1,0,0V13.249A13.249,13.249,0,0,1,13.249,0Z" transform="translate(0 194.98)" fill="none" stroke="#00729c" stroke-miterlimit="10" stroke-width="18"/>
              <path id="Path_493" data-name="Path 493" d="M409.316,372.3A70.4,70.4,0,0,1,338.7,301.688v-28.9a70.615,70.615,0,0,1,70.614-70.614h0a70.621,70.621,0,0,1,70.614,70.614v28.9A70.405,70.405,0,0,1,409.316,372.3Z" transform="translate(-253.544 -202.173)" fill="none" stroke="#00729c" stroke-miterlimit="10" stroke-width="18"/>
              <line id="Line_190" data-name="Line 190" y1="147.505" transform="translate(52.045 286.055)" fill="none" stroke="#00729c" stroke-miterlimit="10" stroke-width="18"/>
              <line id="Line_191" data-name="Line 191" y2="147.505" transform="translate(263.698 286.055)" fill="none" stroke="#00729c" stroke-miterlimit="10" stroke-width="18"/>
            </g>
            <g id="Group_81" data-name="Group 81" transform="translate(2374.735)">
              <path id="Rectangle_98" data-name="Rectangle 98" d="M13.249,0H298.286a13.249,13.249,0,0,1,13.249,13.249V238.58a0,0,0,0,1,0,0H0a0,0,0,0,1,0,0V13.249A13.249,13.249,0,0,1,13.249,0Z" transform="translate(0 194.98)" fill="none" stroke="#00729c" stroke-miterlimit="10" stroke-width="18"/>
              <path id="Path_494" data-name="Path 494" d="M456.178,372.3a70.4,70.4,0,0,1-70.614-70.614v-28.9a70.615,70.615,0,0,1,70.614-70.614h0a70.615,70.615,0,0,1,70.614,70.614v28.9A70.4,70.4,0,0,1,456.178,372.3Z" transform="translate(-300.41 -202.173)" fill="none" stroke="#00729c" stroke-miterlimit="10" stroke-width="18"/>
              <line id="Line_192" data-name="Line 192" y1="147.505" transform="translate(52.044 286.055)" fill="none" stroke="#00729c" stroke-miterlimit="10" stroke-width="18"/>
              <line id="Line_193" data-name="Line 193" y2="147.505" transform="translate(263.697 286.055)" fill="none" stroke="#00729c" stroke-miterlimit="10" stroke-width="18"/>
            </g>
            <g id="Group_82" data-name="Group 82" transform="translate(2770.524)">
              <path id="Rectangle_99" data-name="Rectangle 99" d="M13.249,0H298.286a13.249,13.249,0,0,1,13.249,13.249V238.58a0,0,0,0,1,0,0H0a0,0,0,0,1,0,0V13.249A13.249,13.249,0,0,1,13.249,0Z" transform="translate(0 194.98)" fill="none" stroke="#00729c" stroke-miterlimit="10" stroke-width="18"/>
              <path id="Path_495" data-name="Path 495" d="M503.042,372.3a70.405,70.405,0,0,1-70.614-70.614v-28.9a70.621,70.621,0,0,1,70.614-70.614h0a70.615,70.615,0,0,1,70.614,70.614v28.9A70.4,70.4,0,0,1,503.042,372.3Z" transform="translate(-347.276 -202.173)" fill="none" stroke="#00729c" stroke-miterlimit="10" stroke-width="18"/>
              <line id="Line_194" data-name="Line 194" y1="147.505" transform="translate(52.045 286.055)" fill="none" stroke="#00729c" stroke-miterlimit="10" stroke-width="18"/>
              <line id="Line_195" data-name="Line 195" y2="147.505" transform="translate(263.697 286.055)" fill="none" stroke="#00729c" stroke-miterlimit="10" stroke-width="18"/>
            </g>
            <g id="Group_83" data-name="Group 83" transform="translate(3166.314)">
              <path id="Rectangle_100" data-name="Rectangle 100" d="M13.249,0H298.287a13.249,13.249,0,0,1,13.249,13.249V238.58a0,0,0,0,1,0,0H0a0,0,0,0,1,0,0V13.249A13.249,13.249,0,0,1,13.249,0Z" transform="translate(0 194.98)" fill="none" stroke="#00729c" stroke-miterlimit="10" stroke-width="18"/>
              <path id="Path_496" data-name="Path 496" d="M549.906,372.3a70.4,70.4,0,0,1-70.614-70.614v-28.9a70.616,70.616,0,0,1,70.614-70.614h0a70.621,70.621,0,0,1,70.614,70.614v28.9A70.406,70.406,0,0,1,549.906,372.3Z" transform="translate(-394.134 -202.173)" fill="none" stroke="#00729c" stroke-miterlimit="10" stroke-width="18"/>
              <line id="Line_196" data-name="Line 196" y1="147.505" transform="translate(52.045 286.055)" fill="none" stroke="#00729c" stroke-miterlimit="10" stroke-width="18"/>
              <line id="Line_197" data-name="Line 197" y2="147.505" transform="translate(263.698 286.055)" fill="none" stroke="#00729c" stroke-miterlimit="10" stroke-width="18"/>
            </g>
          </g>
        </g>
      </g>
      <g id="Group_87" data-name="Group 87" transform="translate(1050.539 442.651)">
        <path id="Path_497" data-name="Path 497" d="M1070.793,979.965c-183.549,183.557-481.155,183.557-664.7,0s-183.557-481.146,0-664.7,481.155-183.557,664.7,0S1254.35,796.417,1070.793,979.965Z" transform="translate(-268.422 -177.595)" stroke="#707070" stroke-width="18"/>
      </g>
      <g id="Group_90" data-name="Group 90" transform="translate(1311.452 696.647)">
        <g id="Group_88" data-name="Group 88" transform="translate(38.295 107.868)">
          <path id="Rectangle_102" data-name="Rectangle 102" d="M18.044,0H339.151A18.044,18.044,0,0,1,357.2,18.044V367.719a0,0,0,0,1,0,0H0a0,0,0,0,1,0,0V18.044A18.044,18.044,0,0,1,18.044,0Z" transform="translate(0 218.692)" fill="none" stroke="#00729c" stroke-miterlimit="10" stroke-width="18"/>
          <path id="Path_498" data-name="Path 498" d="M396.371,411.253c-45.1,0-80.96-35.455-80.96-79.2V299.644c0-43.74,36.24-79.2,80.96-79.2h0c44.711,0,80.959,35.463,80.959,79.2V332.05C477.33,375.8,441.47,411.253,396.371,411.253Z" transform="translate(-217.772 -220.441)" fill="none" stroke="#00729c" stroke-miterlimit="10" stroke-width="18"/>
          <rect id="Rectangle_103" data-name="Rectangle 103" width="10.295" height="265.566" transform="translate(59.672 320.845)" fill="#00729c" stroke="#707070" stroke-width="18"/>
          <rect id="Rectangle_104" data-name="Rectangle 104" width="10.295" height="265.566" transform="translate(292.051 320.845)" fill="#00729c" stroke="#707070" stroke-width="18"/>
        </g>
        <g id="Group_89" data-name="Group 89" transform="translate(0 -36)">
          <line id="Line_198" data-name="Line 198" y2="53.76" transform="translate(217.87)" fill="none" stroke="#fff" stroke-linecap="round" stroke-linejoin="round" stroke-width="18"/>
          <line id="Line_199" data-name="Line 199" x2="26.88" y2="46.558" transform="translate(108.935 29.189)" fill="none" stroke="#fff" stroke-linecap="round" stroke-linejoin="round" stroke-width="18"/>
          <line id="Line_200" data-name="Line 200" x2="46.557" y2="26.88" transform="translate(29.189 108.935)" fill="none" stroke="#fff" stroke-linecap="round" stroke-linejoin="round" stroke-width="18"/>
          <line id="Line_201" data-name="Line 201" x2="46.558" y2="26.88" transform="translate(359.993 299.925)" fill="none" stroke="#fff" stroke-linecap="round" stroke-linejoin="round" stroke-width="18"/>
          <line id="Line_202" data-name="Line 202" x2="53.76" transform="translate(0 217.87)" fill="none" stroke="#fff" stroke-linecap="round" stroke-linejoin="round" stroke-width="18"/>
          <line id="Line_203" data-name="Line 203" x2="53.76" transform="translate(381.979 217.87)" fill="none" stroke="#fff" stroke-linecap="round" stroke-linejoin="round" stroke-width="18"/>
          <line id="Line_204" data-name="Line 204" y1="26.88" x2="46.557" transform="translate(29.189 299.925)" fill="none" stroke="#fff" stroke-linecap="round" stroke-linejoin="round" stroke-width="18"/>
          <line id="Line_205" data-name="Line 205" y1="26.88" x2="46.558" transform="translate(359.993 108.935)" fill="none" stroke="#fff" stroke-linecap="round" stroke-linejoin="round" stroke-width="18"/>
          <line id="Line_206" data-name="Line 206" y1="46.558" x2="26.88" transform="translate(299.924 29.189)" fill="none" stroke="#fff" stroke-linecap="round" stroke-linejoin="round" stroke-width="18"/>
        </g>
      </g>
      <g id="Group_92" data-name="Group 92" transform="translate(1840.892 1231.534)">
        <line id="Line_207" data-name="Line 207" y1="128.251" x2="128.251" transform="translate(133.469 134.059)" fill="#00729c"/>
        <path id="Path_499" data-name="Path 499" d="M651.137,431.958,510.771,291.592,382.524,419.839,522.89,560.2a90.687,90.687,0,0,0,128.247,0h0A90.687,90.687,0,0,0,651.137,431.958Z" transform="translate(-209.22 -117.697)" fill="#00729c"/>
        <g id="Group_91" data-name="Group 91">
          <path id="Path_500" data-name="Path 500" d="M493.027,299.906h0l-115.22,115.22,34.522,34.523L540.581,321.4l-34.523-34.523Z" transform="translate(-244.338 -152.816)"/>
          <path id="Path_501" data-name="Path 501" d="M605.381,412.778,463.6,271h0a315.742,315.742,0,0,1-94.3,97.918L362,373.785,503.189,514.97Z" transform="translate(-362.004 -271.002)" fill="#00729c"/>
        </g>
      </g>
      <g id="Group_93" data-name="Group 93" transform="translate(953.292 345.404)">
        <path id="Path_502" data-name="Path 502" d="M1391.44,733.346c0-313.29-253.976-567.266-567.266-567.266S256.908,420.056,256.908,733.346s253.977,567.266,567.266,567.266S1391.44,1046.636,1391.44,733.346ZM824.174,1203.369c-259.584,0-470.023-210.439-470.023-470.023S564.59,263.331,824.174,263.331s470.015,210.431,470.015,470.015S1083.759,1203.369,824.174,1203.369Z" transform="translate(-256.908 -166.08)" fill="#00729c"/>
      </g>
    </g>
  </g>
</svg>
