<svg xmlns="http://www.w3.org/2000/svg" xmlns:xlink="http://www.w3.org/1999/xlink" width="2439.685" height="1245.553" viewBox="0 0 2439.685 1245.553">
  <defs>
    <clipPath id="clip-path">
      <rect id="Rectangle_101" data-name="Rectangle 101" width="2439.685" height="1245.553" fill="none" stroke="#707070" stroke-width="11"/>
    </clipPath>
  </defs>
  <g id="Group_95" data-name="Group 95" transform="translate(-11407.402 -3780)">
    <g id="Group_94" data-name="Group 94" transform="translate(11407.402 3780)">
      <g id="Group_86" data-name="Group 86" transform="translate(0 0)">
        <g id="Group_85" data-name="Group 85" clip-path="url(#clip-path)">
          <g id="Group_64" data-name="Group 64" transform="translate(-176.153 102.283)">
            <g id="Group_55" data-name="Group 55">
              <path id="Rectangle_74" data-name="Rectangle 74" d="M13.249,0h223.6A13.249,13.249,0,0,1,250.1,13.249V167.091a0,0,0,0,1,0,0H0a0,0,0,0,1,0,0V13.249A13.249,13.249,0,0,1,13.249,0Z" transform="translate(0 136.554)" fill="none" stroke="#00729c" stroke-miterlimit="10" stroke-width="11"/>
              <path id="Path_470" data-name="Path 470" d="M184.823,261.625c-31.575,0-56.688-22.145-56.688-49.455V191.929c0-27.309,25.385-49.454,56.688-49.454h0c31.31,0,56.688,22.145,56.688,49.454V212.17C241.511,239.479,216.4,261.625,184.823,261.625Z" transform="translate(-59.776 -142.475)" fill="none" stroke="#00729c" stroke-miterlimit="10" stroke-width="11"/>
              <line id="Line_144" data-name="Line 144" y1="103.306" transform="translate(41.781 200.339)" fill="none" stroke="#00729c" stroke-miterlimit="10" stroke-width="11"/>
              <line id="Line_145" data-name="Line 145" y2="103.306" transform="translate(211.694 200.339)" fill="none" stroke="#00729c" stroke-miterlimit="10" stroke-width="11"/>
            </g>
            <g id="Group_56" data-name="Group 56" transform="translate(317.737)">
              <path id="Rectangle_75" data-name="Rectangle 75" d="M13.249,0h223.6A13.249,13.249,0,0,1,250.1,13.249V167.091a0,0,0,0,1,0,0H0a0,0,0,0,1,0,0V13.249A13.249,13.249,0,0,1,13.249,0Z" transform="translate(0 136.554)" fill="none" stroke="#00729c" stroke-miterlimit="10" stroke-width="11"/>
              <path id="Path_471" data-name="Path 471" d="M231.687,261.625c-31.582,0-56.688-22.145-56.688-49.455V191.929c0-27.309,25.378-49.454,56.688-49.454h0c31.3,0,56.688,22.145,56.688,49.454V212.17C288.375,239.479,263.262,261.625,231.687,261.625Z" transform="translate(-106.636 -142.475)" fill="none" stroke="#00729c" stroke-miterlimit="10" stroke-width="11"/>
              <line id="Line_146" data-name="Line 146" y1="103.306" transform="translate(41.781 200.339)" fill="none" stroke="#00729c" stroke-miterlimit="10" stroke-width="11"/>
              <line id="Line_147" data-name="Line 147" y2="103.306" transform="translate(211.694 200.339)" fill="none" stroke="#00729c" stroke-miterlimit="10" stroke-width="11"/>
            </g>
            <g id="Group_57" data-name="Group 57" transform="translate(635.473)">
              <path id="Rectangle_76" data-name="Rectangle 76" d="M13.249,0h223.6A13.249,13.249,0,0,1,250.1,13.249V167.091a0,0,0,0,1,0,0H0a0,0,0,0,1,0,0V13.249A13.249,13.249,0,0,1,13.249,0Z" transform="translate(0 136.554)" fill="none" stroke="#00729c" stroke-miterlimit="10" stroke-width="11"/>
              <path id="Path_472" data-name="Path 472" d="M278.55,261.625c-31.581,0-56.688-22.145-56.688-49.455V191.929c0-27.309,25.378-49.454,56.688-49.454h0c31.31,0,56.688,22.145,56.688,49.454V212.17C335.238,239.479,310.132,261.625,278.55,261.625Z" transform="translate(-153.501 -142.475)" fill="none" stroke="#00729c" stroke-miterlimit="10" stroke-width="11"/>
              <line id="Line_148" data-name="Line 148" y1="103.306" transform="translate(41.781 200.339)" fill="none" stroke="#00729c" stroke-miterlimit="10" stroke-width="11"/>
              <line id="Line_149" data-name="Line 149" y2="103.306" transform="translate(211.694 200.339)" fill="none" stroke="#00729c" stroke-miterlimit="10" stroke-width="11"/>
            </g>
            <g id="Group_58" data-name="Group 58" transform="translate(953.209)">
              <path id="Rectangle_77" data-name="Rectangle 77" d="M13.249,0h223.6A13.249,13.249,0,0,1,250.1,13.249V167.091a0,0,0,0,1,0,0H0a0,0,0,0,1,0,0V13.249A13.249,13.249,0,0,1,13.249,0Z" transform="translate(0 136.554)" fill="none" stroke="#00729c" stroke-miterlimit="10" stroke-width="11"/>
              <path id="Path_473" data-name="Path 473" d="M325.413,261.625c-31.575,0-56.688-22.145-56.688-49.455V191.929c0-27.309,25.384-49.454,56.688-49.454h0c31.31,0,56.688,22.145,56.688,49.454V212.17C382.1,239.479,356.995,261.625,325.413,261.625Z" transform="translate(-200.366 -142.475)" fill="none" stroke="#00729c" stroke-miterlimit="10" stroke-width="11"/>
              <line id="Line_150" data-name="Line 150" y1="103.306" transform="translate(41.781 200.339)" fill="none" stroke="#00729c" stroke-miterlimit="10" stroke-width="11"/>
              <line id="Line_151" data-name="Line 151" y2="103.306" transform="translate(211.694 200.339)" fill="none" stroke="#00729c" stroke-miterlimit="10" stroke-width="11"/>
            </g>
            <g id="Group_59" data-name="Group 59" transform="translate(1270.946)">
              <path id="Rectangle_78" data-name="Rectangle 78" d="M13.249,0h223.6A13.249,13.249,0,0,1,250.1,13.249V167.091a0,0,0,0,1,0,0H0a0,0,0,0,1,0,0V13.249A13.249,13.249,0,0,1,13.249,0Z" transform="translate(0 136.554)" fill="none" stroke="#00729c" stroke-miterlimit="10" stroke-width="11"/>
              <path id="Path_474" data-name="Path 474" d="M372.277,261.625c-31.582,0-56.688-22.145-56.688-49.455V191.929c0-27.309,25.378-49.454,56.688-49.454h0c31.3,0,56.688,22.145,56.688,49.454V212.17C428.965,239.479,403.852,261.625,372.277,261.625Z" transform="translate(-247.226 -142.475)" fill="none" stroke="#00729c" stroke-miterlimit="10" stroke-width="11"/>
              <line id="Line_152" data-name="Line 152" y1="103.306" transform="translate(41.781 200.339)" fill="none" stroke="#00729c" stroke-miterlimit="10" stroke-width="11"/>
              <line id="Line_153" data-name="Line 153" y2="103.306" transform="translate(211.694 200.339)" fill="none" stroke="#00729c" stroke-miterlimit="10" stroke-width="11"/>
            </g>
            <g id="Group_60" data-name="Group 60" transform="translate(1588.682)">
              <path id="Rectangle_79" data-name="Rectangle 79" d="M13.249,0h223.6A13.249,13.249,0,0,1,250.1,13.249V167.091a0,0,0,0,1,0,0H0a0,0,0,0,1,0,0V13.249A13.249,13.249,0,0,1,13.249,0Z" transform="translate(0 136.554)" fill="none" stroke="#00729c" stroke-miterlimit="10" stroke-width="11"/>
              <path id="Path_475" data-name="Path 475" d="M419.14,261.625c-31.581,0-56.688-22.145-56.688-49.455V191.929c0-27.309,25.378-49.454,56.688-49.454h0c31.31,0,56.688,22.145,56.688,49.454V212.17C475.828,239.479,450.722,261.625,419.14,261.625Z" transform="translate(-294.091 -142.475)" fill="none" stroke="#00729c" stroke-miterlimit="10" stroke-width="11"/>
              <line id="Line_154" data-name="Line 154" y1="103.306" transform="translate(41.781 200.339)" fill="none" stroke="#00729c" stroke-miterlimit="10" stroke-width="11"/>
              <line id="Line_155" data-name="Line 155" y2="103.306" transform="translate(211.694 200.339)" fill="none" stroke="#00729c" stroke-miterlimit="10" stroke-width="11"/>
            </g>
            <g id="Group_61" data-name="Group 61" transform="translate(1906.418)">
              <path id="Rectangle_80" data-name="Rectangle 80" d="M13.249,0h223.6A13.249,13.249,0,0,1,250.1,13.249V167.091a0,0,0,0,1,0,0H0a0,0,0,0,1,0,0V13.249A13.249,13.249,0,0,1,13.249,0Z" transform="translate(0 136.554)" fill="none" stroke="#00729c" stroke-miterlimit="10" stroke-width="11"/>
              <path id="Path_476" data-name="Path 476" d="M466,261.625c-31.575,0-56.688-22.145-56.688-49.455V191.929c0-27.309,25.384-49.454,56.688-49.454h0c31.31,0,56.688,22.145,56.688,49.454V212.17C522.691,239.479,497.585,261.625,466,261.625Z" transform="translate(-340.956 -142.475)" fill="none" stroke="#00729c" stroke-miterlimit="10" stroke-width="11"/>
              <line id="Line_156" data-name="Line 156" y1="103.306" transform="translate(41.781 200.339)" fill="none" stroke="#00729c" stroke-miterlimit="10" stroke-width="11"/>
              <line id="Line_157" data-name="Line 157" y2="103.306" transform="translate(211.694 200.339)" fill="none" stroke="#00729c" stroke-miterlimit="10" stroke-width="11"/>
            </g>
            <g id="Group_62" data-name="Group 62" transform="translate(2224.155)">
              <path id="Rectangle_81" data-name="Rectangle 81" d="M13.249,0h223.6A13.249,13.249,0,0,1,250.1,13.249V167.091a0,0,0,0,1,0,0H0a0,0,0,0,1,0,0V13.249A13.249,13.249,0,0,1,13.249,0Z" transform="translate(0 136.554)" fill="none" stroke="#00729c" stroke-miterlimit="10" stroke-width="11"/>
              <path id="Path_477" data-name="Path 477" d="M512.867,261.625c-31.582,0-56.688-22.145-56.688-49.455V191.929c0-27.309,25.378-49.454,56.688-49.454h0c31.3,0,56.688,22.145,56.688,49.454V212.17C569.555,239.479,544.442,261.625,512.867,261.625Z" transform="translate(-387.816 -142.475)" fill="none" stroke="#00729c" stroke-miterlimit="10" stroke-width="11"/>
              <line id="Line_158" data-name="Line 158" y1="103.306" transform="translate(41.781 200.339)" fill="none" stroke="#00729c" stroke-miterlimit="10" stroke-width="11"/>
              <line id="Line_159" data-name="Line 159" y2="103.306" transform="translate(211.694 200.339)" fill="none" stroke="#00729c" stroke-miterlimit="10" stroke-width="11"/>
            </g>
            <g id="Group_63" data-name="Group 63" transform="translate(2541.891)">
              <path id="Rectangle_82" data-name="Rectangle 82" d="M13.249,0h223.6A13.249,13.249,0,0,1,250.1,13.249V167.091a0,0,0,0,1,0,0H0a0,0,0,0,1,0,0V13.249A13.249,13.249,0,0,1,13.249,0Z" transform="translate(0 136.554)" fill="none" stroke="#00729c" stroke-miterlimit="10" stroke-width="11"/>
              <path id="Path_478" data-name="Path 478" d="M559.73,261.625c-31.582,0-56.688-22.145-56.688-49.455V191.929c0-27.309,25.378-49.454,56.688-49.454h0c31.31,0,56.688,22.145,56.688,49.454V212.17C616.418,239.479,591.311,261.625,559.73,261.625Z" transform="translate(-434.681 -142.475)" fill="none" stroke="#00729c" stroke-miterlimit="10" stroke-width="11"/>
              <line id="Line_160" data-name="Line 160" y1="103.306" transform="translate(41.781 200.339)" fill="none" stroke="#00729c" stroke-miterlimit="10" stroke-width="11"/>
              <line id="Line_161" data-name="Line 161" y2="103.306" transform="translate(211.695 200.339)" fill="none" stroke="#00729c" stroke-miterlimit="10" stroke-width="11"/>
            </g>
          </g>
          <g id="Group_74" data-name="Group 74" transform="translate(-176.153 808.499)">
            <g id="Group_65" data-name="Group 65">
              <path id="Rectangle_83" data-name="Rectangle 83" d="M13.249,0h223.6A13.249,13.249,0,0,1,250.1,13.249V167.091a0,0,0,0,1,0,0H0a0,0,0,0,1,0,0V13.249A13.249,13.249,0,0,1,13.249,0Z" transform="translate(0 136.555)" fill="none" stroke="#00729c" stroke-miterlimit="10" stroke-width="11"/>
              <path id="Path_479" data-name="Path 479" d="M184.823,381.021c-31.575,0-56.688-22.146-56.688-49.455V311.326c0-27.309,25.385-49.454,56.688-49.454h0c31.31,0,56.688,22.145,56.688,49.454v20.241C241.511,358.875,216.4,381.021,184.823,381.021Z" transform="translate(-59.776 -261.871)" fill="none" stroke="#00729c" stroke-miterlimit="10" stroke-width="11"/>
              <line id="Line_162" data-name="Line 162" y1="103.306" transform="translate(41.781 200.34)" fill="none" stroke="#00729c" stroke-miterlimit="10" stroke-width="11"/>
              <line id="Line_163" data-name="Line 163" y2="103.306" transform="translate(211.694 200.34)" fill="none" stroke="#00729c" stroke-miterlimit="10" stroke-width="11"/>
            </g>
            <g id="Group_66" data-name="Group 66" transform="translate(317.737)">
              <path id="Rectangle_84" data-name="Rectangle 84" d="M13.249,0h223.6A13.249,13.249,0,0,1,250.1,13.249V167.091a0,0,0,0,1,0,0H0a0,0,0,0,1,0,0V13.249A13.249,13.249,0,0,1,13.249,0Z" transform="translate(0 136.555)" fill="none" stroke="#00729c" stroke-miterlimit="10" stroke-width="11"/>
              <path id="Path_480" data-name="Path 480" d="M231.687,381.021c-31.582,0-56.688-22.146-56.688-49.455V311.326c0-27.309,25.378-49.454,56.688-49.454h0c31.3,0,56.688,22.145,56.688,49.454v20.241C288.375,358.875,263.262,381.021,231.687,381.021Z" transform="translate(-106.636 -261.871)" fill="none" stroke="#00729c" stroke-miterlimit="10" stroke-width="11"/>
              <line id="Line_164" data-name="Line 164" y1="103.306" transform="translate(41.781 200.34)" fill="none" stroke="#00729c" stroke-miterlimit="10" stroke-width="11"/>
              <line id="Line_165" data-name="Line 165" y2="103.306" transform="translate(211.694 200.34)" fill="none" stroke="#00729c" stroke-miterlimit="10" stroke-width="11"/>
            </g>
            <g id="Group_67" data-name="Group 67" transform="translate(635.473)">
              <path id="Rectangle_85" data-name="Rectangle 85" d="M13.249,0h223.6A13.249,13.249,0,0,1,250.1,13.249V167.091a0,0,0,0,1,0,0H0a0,0,0,0,1,0,0V13.249A13.249,13.249,0,0,1,13.249,0Z" transform="translate(0 136.555)" fill="none" stroke="#00729c" stroke-miterlimit="10" stroke-width="11"/>
              <path id="Path_481" data-name="Path 481" d="M278.55,381.021c-31.581,0-56.688-22.146-56.688-49.455V311.326c0-27.309,25.378-49.454,56.688-49.454h0c31.31,0,56.688,22.145,56.688,49.454v20.241C335.238,358.875,310.132,381.021,278.55,381.021Z" transform="translate(-153.501 -261.871)" fill="none" stroke="#00729c" stroke-miterlimit="10" stroke-width="11"/>
              <line id="Line_166" data-name="Line 166" y1="103.306" transform="translate(41.781 200.34)" fill="none" stroke="#00729c" stroke-miterlimit="10" stroke-width="11"/>
              <line id="Line_167" data-name="Line 167" y2="103.306" transform="translate(211.694 200.34)" fill="none" stroke="#00729c" stroke-miterlimit="10" stroke-width="11"/>
            </g>
            <g id="Group_68" data-name="Group 68" transform="translate(953.209)">
              <path id="Rectangle_86" data-name="Rectangle 86" d="M13.249,0h223.6A13.249,13.249,0,0,1,250.1,13.249V167.091a0,0,0,0,1,0,0H0a0,0,0,0,1,0,0V13.249A13.249,13.249,0,0,1,13.249,0Z" transform="translate(0 136.555)" fill="none" stroke="#00729c" stroke-miterlimit="10" stroke-width="11"/>
              <path id="Path_482" data-name="Path 482" d="M325.413,381.021c-31.575,0-56.688-22.146-56.688-49.455V311.326c0-27.309,25.384-49.454,56.688-49.454h0c31.31,0,56.688,22.145,56.688,49.454v20.241C382.1,358.875,356.995,381.021,325.413,381.021Z" transform="translate(-200.366 -261.871)" fill="none" stroke="#00729c" stroke-miterlimit="10" stroke-width="11"/>
              <line id="Line_168" data-name="Line 168" y1="103.306" transform="translate(41.781 200.34)" fill="none" stroke="#00729c" stroke-miterlimit="10" stroke-width="11"/>
              <line id="Line_169" data-name="Line 169" y2="103.306" transform="translate(211.694 200.34)" fill="none" stroke="#00729c" stroke-miterlimit="10" stroke-width="11"/>
            </g>
            <g id="Group_69" data-name="Group 69" transform="translate(1270.946)">
              <path id="Rectangle_87" data-name="Rectangle 87" d="M13.249,0h223.6A13.249,13.249,0,0,1,250.1,13.249V167.091a0,0,0,0,1,0,0H0a0,0,0,0,1,0,0V13.249A13.249,13.249,0,0,1,13.249,0Z" transform="translate(0 136.555)" fill="none" stroke="#00729c" stroke-miterlimit="10" stroke-width="11"/>
              <path id="Path_483" data-name="Path 483" d="M372.277,381.021c-31.582,0-56.688-22.146-56.688-49.455V311.326c0-27.309,25.378-49.454,56.688-49.454h0c31.3,0,56.688,22.145,56.688,49.454v20.241C428.965,358.875,403.852,381.021,372.277,381.021Z" transform="translate(-247.226 -261.871)" fill="none" stroke="#00729c" stroke-miterlimit="10" stroke-width="11"/>
              <line id="Line_170" data-name="Line 170" y1="103.306" transform="translate(41.781 200.34)" fill="none" stroke="#00729c" stroke-miterlimit="10" stroke-width="11"/>
              <line id="Line_171" data-name="Line 171" y2="103.306" transform="translate(211.694 200.34)" fill="none" stroke="#00729c" stroke-miterlimit="10" stroke-width="11"/>
            </g>
            <g id="Group_70" data-name="Group 70" transform="translate(1588.682)">
              <path id="Rectangle_88" data-name="Rectangle 88" d="M13.249,0h223.6A13.249,13.249,0,0,1,250.1,13.249V167.091a0,0,0,0,1,0,0H0a0,0,0,0,1,0,0V13.249A13.249,13.249,0,0,1,13.249,0Z" transform="translate(0 136.555)" fill="none" stroke="#00729c" stroke-miterlimit="10" stroke-width="11"/>
              <path id="Path_484" data-name="Path 484" d="M419.14,381.021c-31.581,0-56.688-22.146-56.688-49.455V311.326c0-27.309,25.378-49.454,56.688-49.454h0c31.31,0,56.688,22.145,56.688,49.454v20.241C475.828,358.875,450.722,381.021,419.14,381.021Z" transform="translate(-294.091 -261.871)" fill="none" stroke="#00729c" stroke-miterlimit="10" stroke-width="11"/>
              <line id="Line_172" data-name="Line 172" y1="103.306" transform="translate(41.781 200.34)" fill="none" stroke="#00729c" stroke-miterlimit="10" stroke-width="11"/>
              <line id="Line_173" data-name="Line 173" y2="103.306" transform="translate(211.694 200.34)" fill="none" stroke="#00729c" stroke-miterlimit="10" stroke-width="11"/>
            </g>
            <g id="Group_71" data-name="Group 71" transform="translate(1906.418)">
              <path id="Rectangle_89" data-name="Rectangle 89" d="M13.249,0h223.6A13.249,13.249,0,0,1,250.1,13.249V167.091a0,0,0,0,1,0,0H0a0,0,0,0,1,0,0V13.249A13.249,13.249,0,0,1,13.249,0Z" transform="translate(0 136.555)" fill="none" stroke="#00729c" stroke-miterlimit="10" stroke-width="11"/>
              <path id="Path_485" data-name="Path 485" d="M466,381.021c-31.575,0-56.688-22.146-56.688-49.455V311.326c0-27.309,25.384-49.454,56.688-49.454h0c31.31,0,56.688,22.145,56.688,49.454v20.241C522.691,358.875,497.585,381.021,466,381.021Z" transform="translate(-340.956 -261.871)" fill="none" stroke="#00729c" stroke-miterlimit="10" stroke-width="11"/>
              <line id="Line_174" data-name="Line 174" y1="103.306" transform="translate(41.781 200.34)" fill="none" stroke="#00729c" stroke-miterlimit="10" stroke-width="11"/>
              <line id="Line_175" data-name="Line 175" y2="103.306" transform="translate(211.694 200.34)" fill="none" stroke="#00729c" stroke-miterlimit="10" stroke-width="11"/>
            </g>
            <g id="Group_72" data-name="Group 72" transform="translate(2224.155)">
              <path id="Rectangle_90" data-name="Rectangle 90" d="M13.249,0h223.6A13.249,13.249,0,0,1,250.1,13.249V167.091a0,0,0,0,1,0,0H0a0,0,0,0,1,0,0V13.249A13.249,13.249,0,0,1,13.249,0Z" transform="translate(0 136.555)" fill="none" stroke="#00729c" stroke-miterlimit="10" stroke-width="11"/>
              <path id="Path_486" data-name="Path 486" d="M512.867,381.021c-31.582,0-56.688-22.146-56.688-49.455V311.326c0-27.309,25.378-49.454,56.688-49.454h0c31.3,0,56.688,22.145,56.688,49.454v20.241C569.555,358.875,544.442,381.021,512.867,381.021Z" transform="translate(-387.816 -261.871)" fill="none" stroke="#00729c" stroke-miterlimit="10" stroke-width="11"/>
              <line id="Line_176" data-name="Line 176" y1="103.306" transform="translate(41.781 200.34)" fill="none" stroke="#00729c" stroke-miterlimit="10" stroke-width="11"/>
              <line id="Line_177" data-name="Line 177" y2="103.306" transform="translate(211.694 200.34)" fill="none" stroke="#00729c" stroke-miterlimit="10" stroke-width="11"/>
            </g>
            <g id="Group_73" data-name="Group 73" transform="translate(2541.891)">
              <path id="Rectangle_91" data-name="Rectangle 91" d="M13.249,0h223.6A13.249,13.249,0,0,1,250.1,13.249V167.091a0,0,0,0,1,0,0H0a0,0,0,0,1,0,0V13.249A13.249,13.249,0,0,1,13.249,0Z" transform="translate(0 136.555)" fill="none" stroke="#00729c" stroke-miterlimit="10" stroke-width="11"/>
              <path id="Path_487" data-name="Path 487" d="M559.73,381.021c-31.582,0-56.688-22.146-56.688-49.455V311.326c0-27.309,25.378-49.454,56.688-49.454h0c31.31,0,56.688,22.145,56.688,49.454v20.241C616.418,358.875,591.311,381.021,559.73,381.021Z" transform="translate(-434.681 -261.871)" fill="none" stroke="#00729c" stroke-miterlimit="10" stroke-width="11"/>
              <line id="Line_178" data-name="Line 178" y1="103.306" transform="translate(41.781 200.34)" fill="none" stroke="#00729c" stroke-miterlimit="10" stroke-width="11"/>
              <line id="Line_179" data-name="Line 179" y2="103.306" transform="translate(211.695 200.34)" fill="none" stroke="#00729c" stroke-miterlimit="10" stroke-width="11"/>
            </g>
          </g>
          <g id="Group_84" data-name="Group 84" transform="translate(-337.181 455.391)">
            <g id="Group_75" data-name="Group 75">
              <path id="Rectangle_92" data-name="Rectangle 92" d="M13.249,0h223.6A13.249,13.249,0,0,1,250.1,13.249V167.09a0,0,0,0,1,0,0H0a0,0,0,0,1,0,0V13.249A13.249,13.249,0,0,1,13.249,0Z" transform="translate(0 136.555)" fill="none" stroke="#00729c" stroke-miterlimit="10" stroke-width="11"/>
              <path id="Path_488" data-name="Path 488" d="M161.073,321.323c-31.582,0-56.688-22.145-56.688-49.455V251.627c0-27.309,25.378-49.454,56.688-49.454h0c31.31,0,56.688,22.145,56.688,49.454v20.241C217.761,299.177,192.648,321.323,161.073,321.323Z" transform="translate(-36.024 -202.173)" fill="none" stroke="#00729c" stroke-miterlimit="10" stroke-width="11"/>
              <line id="Line_180" data-name="Line 180" y1="103.306" transform="translate(41.781 200.339)" fill="none" stroke="#00729c" stroke-miterlimit="10" stroke-width="11"/>
              <line id="Line_181" data-name="Line 181" y2="103.306" transform="translate(211.694 200.339)" fill="none" stroke="#00729c" stroke-miterlimit="10" stroke-width="11"/>
            </g>
            <g id="Group_76" data-name="Group 76" transform="translate(317.736)">
              <path id="Rectangle_93" data-name="Rectangle 93" d="M13.249,0h223.6A13.249,13.249,0,0,1,250.1,13.249V167.09a0,0,0,0,1,0,0H0a0,0,0,0,1,0,0V13.249A13.249,13.249,0,0,1,13.249,0Z" transform="translate(0 136.555)" fill="none" stroke="#00729c" stroke-miterlimit="10" stroke-width="11"/>
              <path id="Path_489" data-name="Path 489" d="M207.936,321.323c-31.575,0-56.688-22.145-56.688-49.455V251.627c0-27.309,25.385-49.454,56.688-49.454h0c31.31,0,56.688,22.145,56.688,49.454v20.241C264.624,299.177,239.518,321.323,207.936,321.323Z" transform="translate(-82.889 -202.173)" fill="none" stroke="#00729c" stroke-miterlimit="10" stroke-width="11"/>
              <line id="Line_182" data-name="Line 182" y1="103.306" transform="translate(41.781 200.339)" fill="none" stroke="#00729c" stroke-miterlimit="10" stroke-width="11"/>
              <line id="Line_183" data-name="Line 183" y2="103.306" transform="translate(211.694 200.339)" fill="none" stroke="#00729c" stroke-miterlimit="10" stroke-width="11"/>
            </g>
            <g id="Group_77" data-name="Group 77" transform="translate(635.472)">
              <path id="Rectangle_94" data-name="Rectangle 94" d="M13.249,0h223.6A13.249,13.249,0,0,1,250.1,13.249V167.09a0,0,0,0,1,0,0H0a0,0,0,0,1,0,0V13.249A13.249,13.249,0,0,1,13.249,0Z" transform="translate(0 136.555)" fill="none" stroke="#00729c" stroke-miterlimit="10" stroke-width="11"/>
              <path id="Path_490" data-name="Path 490" d="M254.8,321.323c-31.582,0-56.688-22.145-56.688-49.455V251.627c0-27.309,25.378-49.454,56.688-49.454h0c31.3,0,56.688,22.145,56.688,49.454v20.241C311.488,299.177,286.375,321.323,254.8,321.323Z" transform="translate(-129.748 -202.173)" fill="none" stroke="#00729c" stroke-miterlimit="10" stroke-width="11"/>
              <line id="Line_184" data-name="Line 184" y1="103.306" transform="translate(41.781 200.339)" fill="none" stroke="#00729c" stroke-miterlimit="10" stroke-width="11"/>
              <line id="Line_185" data-name="Line 185" y2="103.306" transform="translate(211.694 200.339)" fill="none" stroke="#00729c" stroke-miterlimit="10" stroke-width="11"/>
            </g>
            <g id="Group_78" data-name="Group 78" transform="translate(953.209)">
              <path id="Rectangle_95" data-name="Rectangle 95" d="M13.249,0h223.6A13.249,13.249,0,0,1,250.1,13.249V167.09a0,0,0,0,1,0,0H0a0,0,0,0,1,0,0V13.249A13.249,13.249,0,0,1,13.249,0Z" transform="translate(0 136.555)" fill="none" stroke="#00729c" stroke-miterlimit="10" stroke-width="11"/>
              <path id="Path_491" data-name="Path 491" d="M301.663,321.323c-31.582,0-56.688-22.145-56.688-49.455V251.627c0-27.309,25.378-49.454,56.688-49.454h0c31.31,0,56.688,22.145,56.688,49.454v20.241C358.351,299.177,333.244,321.323,301.663,321.323Z" transform="translate(-176.614 -202.173)" fill="none" stroke="#00729c" stroke-miterlimit="10" stroke-width="11"/>
              <line id="Line_186" data-name="Line 186" y1="103.306" transform="translate(41.781 200.339)" fill="none" stroke="#00729c" stroke-miterlimit="10" stroke-width="11"/>
              <line id="Line_187" data-name="Line 187" y2="103.306" transform="translate(211.694 200.339)" fill="none" stroke="#00729c" stroke-miterlimit="10" stroke-width="11"/>
            </g>
            <g id="Group_79" data-name="Group 79" transform="translate(1270.945)">
              <path id="Rectangle_96" data-name="Rectangle 96" d="M13.249,0h223.6A13.249,13.249,0,0,1,250.1,13.249V167.09a0,0,0,0,1,0,0H0a0,0,0,0,1,0,0V13.249A13.249,13.249,0,0,1,13.249,0Z" transform="translate(0 136.555)" fill="none" stroke="#00729c" stroke-miterlimit="10" stroke-width="11"/>
              <path id="Path_492" data-name="Path 492" d="M348.526,321.323c-31.575,0-56.688-22.145-56.688-49.455V251.627c0-27.309,25.384-49.454,56.688-49.454h0c31.31,0,56.688,22.145,56.688,49.454v20.241C405.214,299.177,380.108,321.323,348.526,321.323Z" transform="translate(-223.479 -202.173)" fill="none" stroke="#00729c" stroke-miterlimit="10" stroke-width="11"/>
              <line id="Line_188" data-name="Line 188" y1="103.306" transform="translate(41.781 200.339)" fill="none" stroke="#00729c" stroke-miterlimit="10" stroke-width="11"/>
              <line id="Line_189" data-name="Line 189" y2="103.306" transform="translate(211.694 200.339)" fill="none" stroke="#00729c" stroke-miterlimit="10" stroke-width="11"/>
            </g>
            <g id="Group_80" data-name="Group 80" transform="translate(1588.682)">
              <path id="Rectangle_97" data-name="Rectangle 97" d="M13.249,0h223.6A13.249,13.249,0,0,1,250.1,13.249V167.09a0,0,0,0,1,0,0H0a0,0,0,0,1,0,0V13.249A13.249,13.249,0,0,1,13.249,0Z" transform="translate(0 136.555)" fill="none" stroke="#00729c" stroke-miterlimit="10" stroke-width="11"/>
              <path id="Path_493" data-name="Path 493" d="M395.39,321.323c-31.582,0-56.688-22.145-56.688-49.455V251.627c0-27.309,25.378-49.454,56.688-49.454h0c31.3,0,56.688,22.145,56.688,49.454v20.241C452.078,299.177,426.965,321.323,395.39,321.323Z" transform="translate(-270.338 -202.173)" fill="none" stroke="#00729c" stroke-miterlimit="10" stroke-width="11"/>
              <line id="Line_190" data-name="Line 190" y1="103.306" transform="translate(41.781 200.339)" fill="none" stroke="#00729c" stroke-miterlimit="10" stroke-width="11"/>
              <line id="Line_191" data-name="Line 191" y2="103.306" transform="translate(211.695 200.339)" fill="none" stroke="#00729c" stroke-miterlimit="10" stroke-width="11"/>
            </g>
            <g id="Group_81" data-name="Group 81" transform="translate(1906.418)">
              <path id="Rectangle_98" data-name="Rectangle 98" d="M13.249,0h223.6A13.249,13.249,0,0,1,250.1,13.249V167.09a0,0,0,0,1,0,0H0a0,0,0,0,1,0,0V13.249A13.249,13.249,0,0,1,13.249,0Z" transform="translate(0 136.555)" fill="none" stroke="#00729c" stroke-miterlimit="10" stroke-width="11"/>
              <path id="Path_494" data-name="Path 494" d="M442.253,321.323c-31.581,0-56.688-22.145-56.688-49.455V251.627c0-27.309,25.378-49.454,56.688-49.454h0c31.31,0,56.688,22.145,56.688,49.454v20.241C498.941,299.177,473.835,321.323,442.253,321.323Z" transform="translate(-317.204 -202.173)" fill="none" stroke="#00729c" stroke-miterlimit="10" stroke-width="11"/>
              <line id="Line_192" data-name="Line 192" y1="103.306" transform="translate(41.781 200.339)" fill="none" stroke="#00729c" stroke-miterlimit="10" stroke-width="11"/>
              <line id="Line_193" data-name="Line 193" y2="103.306" transform="translate(211.694 200.339)" fill="none" stroke="#00729c" stroke-miterlimit="10" stroke-width="11"/>
            </g>
            <g id="Group_82" data-name="Group 82" transform="translate(2224.154)">
              <path id="Rectangle_99" data-name="Rectangle 99" d="M13.249,0h223.6A13.249,13.249,0,0,1,250.1,13.249V167.09a0,0,0,0,1,0,0H0a0,0,0,0,1,0,0V13.249A13.249,13.249,0,0,1,13.249,0Z" transform="translate(0 136.555)" fill="none" stroke="#00729c" stroke-miterlimit="10" stroke-width="11"/>
              <path id="Path_495" data-name="Path 495" d="M489.116,321.323c-31.575,0-56.688-22.145-56.688-49.455V251.627c0-27.309,25.384-49.454,56.688-49.454h0c31.31,0,56.688,22.145,56.688,49.454v20.241C545.8,299.177,520.7,321.323,489.116,321.323Z" transform="translate(-364.069 -202.173)" fill="none" stroke="#00729c" stroke-miterlimit="10" stroke-width="11"/>
              <line id="Line_194" data-name="Line 194" y1="103.306" transform="translate(41.781 200.339)" fill="none" stroke="#00729c" stroke-miterlimit="10" stroke-width="11"/>
              <line id="Line_195" data-name="Line 195" y2="103.306" transform="translate(211.694 200.339)" fill="none" stroke="#00729c" stroke-miterlimit="10" stroke-width="11"/>
            </g>
            <g id="Group_83" data-name="Group 83" transform="translate(2541.891)">
              <path id="Rectangle_100" data-name="Rectangle 100" d="M13.249,0h223.6A13.249,13.249,0,0,1,250.1,13.249V167.09a0,0,0,0,1,0,0H0a0,0,0,0,1,0,0V13.249A13.249,13.249,0,0,1,13.249,0Z" transform="translate(0 136.555)" fill="none" stroke="#00729c" stroke-miterlimit="10" stroke-width="11"/>
              <path id="Path_496" data-name="Path 496" d="M535.98,321.323c-31.582,0-56.688-22.145-56.688-49.455V251.627c0-27.309,25.378-49.454,56.688-49.454h0c31.3,0,56.688,22.145,56.688,49.454v20.241C592.669,299.177,567.555,321.323,535.98,321.323Z" transform="translate(-410.928 -202.173)" fill="none" stroke="#00729c" stroke-miterlimit="10" stroke-width="11"/>
              <line id="Line_196" data-name="Line 196" y1="103.306" transform="translate(41.781 200.339)" fill="none" stroke="#00729c" stroke-miterlimit="10" stroke-width="11"/>
              <line id="Line_197" data-name="Line 197" y2="103.306" transform="translate(211.694 200.339)" fill="none" stroke="#00729c" stroke-miterlimit="10" stroke-width="11"/>
            </g>
          </g>
        </g>
      </g>
      <g id="Group_87" data-name="Group 87" transform="translate(750.579 186.084)">
        <path id="Path_497" data-name="Path 497" d="M1070.793,939.892c-183.549,174.389-481.155,174.389-664.7,0s-183.557-457.116,0-631.506,481.155-174.389,664.7,0S1254.35,765.511,1070.793,939.892Z" transform="translate(-268.422 -177.595)" stroke="#707070" stroke-width="11"/>
      </g>
      <g id="Group_90" data-name="Group 90" transform="translate(1009.533 324.765)">
        <g id="Group_88" data-name="Group 88" transform="translate(38.295 143.868)">
          <path id="Rectangle_102" data-name="Rectangle 102" d="M18.044,0H339.151A18.044,18.044,0,0,1,357.2,18.044V367.719a0,0,0,0,1,0,0H0a0,0,0,0,1,0,0V18.044A18.044,18.044,0,0,1,18.044,0Z" transform="translate(0 218.692)" fill="none" stroke="#00729c" stroke-miterlimit="10" stroke-width="11"/>
          <path id="Path_498" data-name="Path 498" d="M396.371,411.253c-45.1,0-80.96-35.455-80.96-79.2V299.644c0-43.74,36.24-79.2,80.96-79.2h0c44.711,0,80.959,35.463,80.959,79.2V332.05C477.33,375.8,441.47,411.253,396.371,411.253Z" transform="translate(-217.772 -220.441)" fill="none" stroke="#00729c" stroke-miterlimit="10" stroke-width="11"/>
          <rect id="Rectangle_103" data-name="Rectangle 103" width="10.295" height="265.566" transform="translate(59.672 320.845)" fill="#00729c" stroke="#707070" stroke-width="11"/>
          <rect id="Rectangle_104" data-name="Rectangle 104" width="10.295" height="265.566" transform="translate(292.051 320.845)" fill="#00729c" stroke="#707070" stroke-width="11"/>
        </g>
        <g id="Group_89" data-name="Group 89">
          <line id="Line_198" data-name="Line 198" y2="53.76" transform="translate(217.87)" fill="none" stroke="#fff" stroke-linecap="round" stroke-linejoin="round" stroke-width="11"/>
          <line id="Line_199" data-name="Line 199" x2="26.88" y2="46.558" transform="translate(108.935 29.189)" fill="none" stroke="#fff" stroke-linecap="round" stroke-linejoin="round" stroke-width="11"/>
          <line id="Line_200" data-name="Line 200" x2="46.557" y2="26.88" transform="translate(29.189 108.935)" fill="none" stroke="#fff" stroke-linecap="round" stroke-linejoin="round" stroke-width="11"/>
          <line id="Line_201" data-name="Line 201" x2="46.558" y2="26.88" transform="translate(359.993 299.925)" fill="none" stroke="#fff" stroke-linecap="round" stroke-linejoin="round" stroke-width="11"/>
          <line id="Line_202" data-name="Line 202" x2="53.76" transform="translate(0 217.87)" fill="none" stroke="#fff" stroke-linecap="round" stroke-linejoin="round" stroke-width="11"/>
          <line id="Line_203" data-name="Line 203" x2="53.76" transform="translate(381.979 217.87)" fill="none" stroke="#fff" stroke-linecap="round" stroke-linejoin="round" stroke-width="11"/>
          <line id="Line_204" data-name="Line 204" y1="26.88" x2="46.557" transform="translate(29.189 299.925)" fill="none" stroke="#fff" stroke-linecap="round" stroke-linejoin="round" stroke-width="11"/>
          <line id="Line_205" data-name="Line 205" y1="26.88" x2="46.558" transform="translate(359.993 108.935)" fill="none" stroke="#fff" stroke-linecap="round" stroke-linejoin="round" stroke-width="11"/>
          <line id="Line_206" data-name="Line 206" y1="46.558" x2="26.88" transform="translate(299.924 29.189)" fill="none" stroke="#fff" stroke-linecap="round" stroke-linejoin="round" stroke-width="11"/>
        </g>
      </g>
      <g id="Group_92" data-name="Group 92" transform="translate(1411.689 698.622)">
        <line id="Line_207" data-name="Line 207" y1="128.251" x2="128.251" transform="translate(133.469 134.059)" fill="#00729c" stroke="#707070" stroke-width="11"/>
        <path id="Path_499" data-name="Path 499" d="M651.137,431.958,510.771,291.592,382.524,419.839,522.89,560.2a90.687,90.687,0,0,0,128.247,0h0A90.687,90.687,0,0,0,651.137,431.958Z" transform="translate(-209.22 -117.697)" fill="#00729c" stroke="#707070" stroke-width="11"/>
        <g id="Group_91" data-name="Group 91">
          <path id="Path_500" data-name="Path 500" d="M493.027,299.906h0l-115.22,115.22,34.522,34.523L540.581,321.4l-34.523-34.523Z" transform="translate(-244.338 -152.816)" stroke="#707070" stroke-width="11"/>
          <path id="Path_501" data-name="Path 501" d="M605.381,412.778,463.6,271h0a315.742,315.742,0,0,1-94.3,97.918L362,373.785,503.189,514.97Z" transform="translate(-362.004 -271.002)" fill="#00729c" stroke="#707070" stroke-width="11"/>
        </g>
      </g>
      <g id="Group_93" data-name="Group 93" transform="translate(653.301 84.734)">
        <path id="Path_502" data-name="Path 502" d="M1391.44,709.872c0-300.325-253.976-543.792-567.266-543.792S256.908,409.546,256.908,709.872s253.977,543.792,567.266,543.792S1391.44,1010.2,1391.44,709.872ZM824.174,1160.445c-259.584,0-470.023-201.731-470.023-450.573S564.59,259.307,824.174,259.307s470.015,201.723,470.015,450.565S1083.759,1160.445,824.174,1160.445Z" transform="translate(-256.908 -166.08)" fill="#00729c" stroke="#707070" stroke-width="11"/>
      </g>
    </g>
  </g>
</svg>
