<svg id="Layer_1" data-name="Layer 1" xmlns="http://www.w3.org/2000/svg" viewBox="0 0 313.91 260.52"><defs><style>.cls-1,.cls-2{fill:none;stroke-miterlimit:10;}.cls-1{stroke:#13b6d0;stroke-width:0.5px;}.cls-2{stroke:#07739d;stroke-width:2px;}</style></defs><title>culture</title><path class="cls-1" d="M359,204.91c-.72-.73-5-5.44-6.83-7.55-1.38-1.65-2-2.14-2.93-2.33V183.69a6,6,0,0,0-.93-3.19.84.84,0,0,0,.41-.08.94.94,0,0,0,.44-1.26l-.75.36a1,1,0,0,0,.1-.35.94.94,0,0,0-.88-1l-.1,1.37a5.91,5.91,0,0,0-4.22-1.77H341a4.61,4.61,0,0,0-2.3-.63,4.65,4.65,0,0,0-2.23,8.74c0,.38-.07.77-.1,1.14a4,4,0,0,0,1.12,3.08v4.48h-.59c-1.65,0-2.54.67-4.32,2.78s-6.11,6.82-6.83,7.55-1.53,1.42-.52,2.54a83.22,83.22,0,0,0,6.2,5.58c1.48,1.25,2.28,1.92,3,1.95-.15.81-.28,1.71-.39,2.74-.69,6.36-1.69,18.05-1.69,18.05a8.68,8.68,0,0,0,1.33.5c0-.25,0-.48,0-.72,0,.23,0,.48,0,.72l0,.77c0,.21,0,.43,0,.66s0,.67,0,1c-.3,11.23-.13,21.76-.24,23.15a23.77,23.77,0,0,1-2,6.67,7.31,7.31,0,0,0-.27.77c-.34,1.31-2.85,1.6-2.85,1.6s2.16.21,3.71.2c-1.55,0-3.71-.2-3.71-.2s2.51-.29,2.85-1.6a7.31,7.31,0,0,1,.27-.77h0c-.15.42-1.59.59-2.61.77s-1.41,1.8-.5,1.8h5.32c.51,0,1.63-2,2.14-3.07a5.43,5.43,0,0,1,1-1.55v4.62h.84s.25-2.23.54-4.41,1.08-2.76-.31-5.22h0a5.69,5.69,0,0,1-.32-3.05c.25-2.23,1.78-11.42,2-13.56s-.05-4.61.23-7.57c0,0,0-.05,0-.08.8.05,1.66.08,2.61.08s1.77,0,2.55-.07v.07c.28,3,.06,5.42.23,7.57s1.7,11.33,2,13.56a5.9,5.9,0,0,1-.32,3.05h0c-1.4,2.46-.61,3-.32,5.22s.54,4.41.54,4.41h.85v-4.62a5.69,5.69,0,0,1,1,1.55c.5,1,1.63,3.07,2.13,3.07h5.33c.9,0,.51-1.62-.51-1.8s-2.46-.35-2.61-.77h0a7,7,0,0,1,.26.77c.35,1.31,2.86,1.6,2.86,1.6s-2.17.21-3.71.2c1.54,0,3.71-.2,3.71-.2s-2.51-.29-2.86-1.6a7,7,0,0,0-.26-.77h0a23.12,23.12,0,0,1-2-6.67c-.11-1.39.05-11.92-.25-23.15,0-.35,0-.67,0-1s0-.44,0-.66,0-.51,0-.77l0-.74,0,.74a7.83,7.83,0,0,0,1.39-.52s-1-11.69-1.68-18.05c-.09-.87-.21-1.65-.33-2.36,0-.08,0-.15,0-.23l0-.16c0-.17-.07-.35-.1-.51,0,.16.06.34.1.51.78.12,1.59-.56,3.23-1.94a81.27,81.27,0,0,0,6.2-5.58C360.55,206.33,359.74,205.63,359,204.91ZM334,212l-4.64-5.33,5.75-5.47a.36.36,0,0,1,0,.11,15.83,15.83,0,0,0,.08,5.07c0,.17.07.33.1.47a1.24,1.24,0,0,1,0,.16c0,.1.05.19.08.27l0,.1c0,.09.07.17.1.22a1,1,0,0,0,.09.13,2.81,2.81,0,0,0,.3.29l.2.14a4.84,4.84,0,0,0,.52.29l.17.07h0c-.17.3-.41.66-.68,1.14h0a2.22,2.22,0,0,0-.78.54C335,210.76,334,212,334,212Zm14.7-11.7v.07h0v-.07Zm3.82,68.26c-2.78-.09-3.79-4.16-4.23-5.32a3.69,3.69,0,0,0-1.63-1.8h0a3.69,3.69,0,0,1,1.63,1.8C348.76,264.42,349.77,268.49,352.55,268.58Zm-1.67-56.36s-1.11-1.46-1.49-2a3,3,0,0,0-1.22-.72l-.13-.16c-.08-.11-.16-.22-.24-.31l-.06-.08c-.06-.08-.13-.15-.19-.22l-.06-.06a2.44,2.44,0,0,0-.22-.23h0l.05,0c.18-.1.34-.19.47-.28a3.87,3.87,0,0,0,.59-.47c.52-.51.65-3,.44-6,0-.24,0-.48-.05-.72v-.16l0-.35,6.64,6.3Z" transform="translate(-264.56 -168.1)"/><path class="cls-1" d="M520.77,204.91c-.72-.73-5-5.44-6.83-7.55-1.39-1.65-2-2.14-2.93-2.33V183.69a5.91,5.91,0,0,0-.94-3.19.9.9,0,0,0,.42-.08.94.94,0,0,0,.44-1.26l-.75.36a1,1,0,0,0,.1-.35,1,1,0,0,0-.88-1l-.1,1.37a5.91,5.91,0,0,0-4.22-1.77h-2.36a4.57,4.57,0,0,0-2.29-.63,4.65,4.65,0,0,0-2.23,8.74c0,.38-.07.77-.1,1.14a4,4,0,0,0,1.12,3.08v4.48h-.59c-1.65,0-2.55.67-4.32,2.78s-6.11,6.82-6.83,7.55-1.53,1.42-.52,2.54a81.27,81.27,0,0,0,6.2,5.58c1.48,1.25,2.28,1.92,3,1.95-.15.81-.29,1.71-.4,2.74-.69,6.36-1.68,18.05-1.68,18.05a8.2,8.2,0,0,0,1.32.5l0-.72,0,.72c0,.26,0,.51,0,.77s0,.43,0,.66,0,.67,0,1c-.3,11.23-.14,21.76-.25,23.15a23.12,23.12,0,0,1-2,6.67,7,7,0,0,0-.26.77c-.35,1.31-2.86,1.6-2.86,1.6s2.17.21,3.71.2c-1.54,0-3.71-.2-3.71-.2s2.51-.29,2.86-1.6a7,7,0,0,1,.26-.77h0c-.15.42-1.6.59-2.61.77s-1.41,1.8-.51,1.8h5.33c.5,0,1.63-2,2.13-3.07a5.69,5.69,0,0,1,1-1.55v4.62h.85s.25-2.23.54-4.41,1.08-2.76-.32-5.22h0a5.9,5.9,0,0,1-.32-3.05c.26-2.23,1.79-11.42,2-13.56s-.05-4.61.23-7.57a.22.22,0,0,1,0-.08c.79.05,1.66.08,2.61.08s1.76,0,2.54-.07v.07c.28,3,.05,5.42.23,7.57s1.7,11.33,1.95,13.56a5.69,5.69,0,0,1-.32,3.05h0c-1.39,2.46-.6,3-.31,5.22s.54,4.41.54,4.41h.84v-4.62a5.43,5.43,0,0,1,1,1.55c.51,1,1.63,3.07,2.14,3.07H518c.91,0,.51-1.62-.5-1.8s-2.46-.35-2.61-.77h0a7.31,7.31,0,0,1,.27.77c.34,1.31,2.85,1.6,2.85,1.6s-2.16.21-3.71.2c1.55,0,3.71-.2,3.71-.2s-2.51-.29-2.85-1.6a7.31,7.31,0,0,0-.27-.77h0a23.77,23.77,0,0,1-2-6.67c-.11-1.39.06-11.92-.24-23.15,0-.35,0-.67,0-1s0-.44,0-.66l0-.77c0-.24,0-.5,0-.74,0,.25,0,.49,0,.74a7.78,7.78,0,0,0,1.4-.52s-1-11.69-1.68-18.05c-.1-.87-.21-1.65-.33-2.36,0-.08,0-.15-.05-.23l0-.16c0-.17-.06-.35-.09-.51,0,.16.06.34.09.51.79.12,1.59-.56,3.23-1.94a81.47,81.47,0,0,0,6.21-5.58C522.3,206.33,521.49,205.63,520.77,204.91Zm-25,7.11-4.64-5.33,5.76-5.47a.52.52,0,0,0,0,.11,15.83,15.83,0,0,0,.08,5.07,4.8,4.8,0,0,0,.1.47c0,.06,0,.11,0,.16s.05.19.08.27l0,.1c0,.09.07.17.09.22a1.13,1.13,0,0,0,.1.13,2.1,2.1,0,0,0,.3.29l.2.14a4,4,0,0,0,.52.29l.17.07h0c-.17.3-.41.66-.68,1.14h0a2.13,2.13,0,0,0-.78.54C496.73,210.76,495.77,212,495.77,212Zm14.71-11.7v.07h0v-.07Zm3.81,68.26c-2.78-.09-3.79-4.16-4.23-5.32a3.65,3.65,0,0,0-1.63-1.8h0a3.65,3.65,0,0,1,1.63,1.8C510.5,264.42,511.51,268.49,514.29,268.58Zm-1.67-56.36s-1.1-1.46-1.48-2a3.05,3.05,0,0,0-1.22-.72l-.13-.16c-.08-.11-.16-.22-.24-.31l-.06-.08-.19-.22-.06-.06-.22-.23h0l.05,0,.47-.28a4.46,4.46,0,0,0,.59-.47c.52-.51.65-3,.44-6,0-.24,0-.48-.05-.72v-.16l0-.35,6.63,6.3Z" transform="translate(-264.56 -168.1)"/><path class="cls-1" d="M304.8,203.06c-.28-.44-4.79-6.55-6.27-8.8s-2.59-3.74-3.24-4c-.37-.4-3.84-1.42-5.8-2h0c-.68-1.86-1.43-1.91-1.43-1.91l-.05-.77.85-.15a4,4,0,0,0,3.19-4.59l-.77-4.31a4.49,4.49,0,0,0-.5-1.37l0,0c2.34-1.7,1.57-4.46,1.17-4a6,6,0,0,1-2,1.26,5.57,5.57,0,0,0,.41-3.85c-.25-.63-1.13.12-3.15,1.28-2.52,1.46-5.24,2.44-6.61,3.17a1.71,1.71,0,0,0-.55.47l-.78-1.07a1,1,0,0,0-.21,1.35.8.8,0,0,0,.27.25l-.85.09a1,1,0,0,0,1.07.86.76.76,0,0,0,.16-.06,10.79,10.79,0,0,0,.25,1.42c.15.65.44,2.14.56,2.76l.06.31a1.3,1.3,0,0,0-.66.4c-1,1.06,0,2.81.85,3.19a1.74,1.74,0,0,0,.48.14,2.1,2.1,0,0,0,1.66,1.51l.05.59h0l.11,1.37h0l-.06-.69c-.74-.06-1.57,2.06-1.66,2.3-1.75.68-4.23,1.65-4.93,1.95h0l-.19.09,0,0c-1.2.63-2.82,3.07-4.86,6.48-1.45,2.43-5.56,8.19-6.09,9.29s-.7,2.29.35,3c.73.51,5.2,3,7.91,4.44h0l.43.24h0l1.65.9.28-.41a6.41,6.41,0,0,0,2.93,1.33c-3.38,19-4.32,51.59-4.32,51.59a9.22,9.22,0,0,1-4.88,1.38l-2.86.13s-.37.26.06.89a3.15,3.15,0,0,0,2.49.86h3.17a5,5,0,0,0,2.17-.49l.54-.25v.74h2.77v-3.26l8.43-39.84,5.75,39.84v3.26h2.77v-.74l.54.25a5,5,0,0,0,2.17.49h3.17a3.15,3.15,0,0,0,2.49-.86c.43-.63.06-.89.06-.89l-2.86-.13a9.22,9.22,0,0,1-4.88-1.38s.7-14.16.49-23.59c-.18-8-1-20.9-1.73-29.15h0c.59,0,1.42-.92,2.14-1.53l.23.25L298,212h0l.35-.34h0c2.13-2.05,5.68-5.49,6.46-6.3C305.81,204.25,305.07,203.5,304.8,203.06Zm-27.28,8.82-5.37-5.33,5.24-8,0,.1c0,.21.09.43.14.65l.06.3,0,.12c.14.72.29,1.45.43,2.14l.06.29c0,.24.09.47.14.7s0,.24.07.36.07.38.1.56.05.24.07.36l.09.49.06.31c0,.16,0,.31.08.45s0,.16,0,.23.06.35.08.5v0c.08.55.16,1.09.23,1.61.21,1.43.4,2.64.55,3.19l-1.08,1.44Zm17-1-.61-.2s0-.09,0-.13l.05-.17a.29.29,0,0,1,0-.09l0-.18,0-.14c0-.08,0-.16,0-.24l0-.18a2.51,2.51,0,0,0,.05-.31l0-.19c0-.17.06-.35.09-.55l0-.23c0-.13,0-.27.05-.41s0-.2.05-.3l0-.25h0c.3-2.33.64-5.51.8-8.17l4.19,4.71Z" transform="translate(-264.56 -168.1)"/><path class="cls-1" d="M415.1,203.06c-.28-.44-4.79-6.55-6.27-8.8s-2.58-3.74-3.24-4c-.36-.4-3.84-1.42-5.8-2h0c-.68-1.86-1.43-1.91-1.43-1.91l-.05-.77.85-.15a4,4,0,0,0,3.19-4.59l-.77-4.31a4.75,4.75,0,0,0-.49-1.37l0,0c2.33-1.7,1.56-4.46,1.17-4a6.07,6.07,0,0,1-2,1.26,5.57,5.57,0,0,0,.41-3.85c-.25-.63-1.13.12-3.15,1.28-2.52,1.46-5.23,2.44-6.61,3.17a1.71,1.71,0,0,0-.55.47l-.78-1.07a1,1,0,0,0-.21,1.35.91.91,0,0,0,.27.25l-.85.09a1,1,0,0,0,1.07.86,1.15,1.15,0,0,0,.17-.06,8.27,8.27,0,0,0,.25,1.42c.14.65.43,2.14.55,2.76l.06.31a1.34,1.34,0,0,0-.66.4c-1,1.06,0,2.81.85,3.19a1.92,1.92,0,0,0,.49.14,2.08,2.08,0,0,0,1.65,1.51l.05.59h0l.11,1.37h0l-.05-.69c-.75-.06-1.57,2.06-1.67,2.3-1.74.68-4.22,1.65-4.93,1.95h0l-.18.09,0,0c-1.2.63-2.82,3.07-4.86,6.48-1.44,2.43-5.56,8.19-6.09,9.29s-.7,2.29.36,3c.72.51,5.19,3,7.9,4.44h0l.43.24h0l1.66.9.28-.41a6.33,6.33,0,0,0,2.93,1.33c-3.39,19-4.33,51.59-4.33,51.59a9.22,9.22,0,0,1-4.88,1.38l-2.85.13s-.37.26.05.89a3.17,3.17,0,0,0,2.49.86h3.18a4.94,4.94,0,0,0,2.16-.49l.54-.25v.74h2.77v-3.26l8.43-39.84,5.76,39.84v3.26h2.76l0-.74.53.25a5,5,0,0,0,2.17.49h3.17a3.15,3.15,0,0,0,2.49-.86c.43-.63.06-.89.06-.89l-2.86-.13a9.22,9.22,0,0,1-4.88-1.38s.7-14.16.49-23.59c-.18-8-1-20.9-1.72-29.15h0c.59,0,1.42-.92,2.14-1.53l.23.25,1.27-1.22h0l.35-.34h0c2.13-2.05,5.69-5.49,6.46-6.3C416.11,204.25,415.37,203.5,415.1,203.06Zm-27.28,8.82-5.37-5.33,5.25-8,0,.1c0,.21.09.43.13.65l.06.3,0,.12c.15.72.29,1.45.43,2.14l.06.29c.05.24.09.47.14.7s.05.24.07.36.07.38.11.56,0,.24.06.36.07.33.1.49a2.87,2.87,0,0,0,0,.31c0,.16.06.31.08.45s0,.16,0,.23.06.35.08.5v0c.08.55.16,1.09.23,1.61.21,1.43.41,2.64.55,3.19l-1.08,1.44Zm17.05-1-.61-.2s0-.09,0-.13a1.22,1.22,0,0,0,.05-.17.29.29,0,0,1,0-.09c0-.05,0-.11,0-.18s0-.09,0-.14,0-.16.05-.24l0-.18c0-.09,0-.2.05-.31a.68.68,0,0,1,0-.19c0-.17.05-.35.08-.55l0-.23.06-.41c0-.1,0-.2,0-.3l0-.25h0c.31-2.33.65-5.51.8-8.17l4.2,4.71Z" transform="translate(-264.56 -168.1)"/><path class="cls-1" d="M577.7,203.06c-.27-.44-4.78-6.55-6.27-8.8s-2.58-3.74-3.24-4c-.36-.4-3.84-1.42-5.8-2h0c-.67-1.86-1.43-1.91-1.43-1.91l-.05-.77.85-.15a4,4,0,0,0,3.2-4.59l-.78-4.31a4.75,4.75,0,0,0-.49-1.37l0,0c2.34-1.7,1.57-4.46,1.17-4a6,6,0,0,1-2,1.26,5.57,5.57,0,0,0,.41-3.85c-.25-.63-1.13.12-3.15,1.28-2.51,1.46-5.23,2.44-6.6,3.17a1.52,1.52,0,0,0-.55.47l-.79-1.07a1,1,0,0,0-.21,1.35.91.91,0,0,0,.27.25l-.84.09a1,1,0,0,0,1.06.86,1.15,1.15,0,0,0,.17-.06,9.36,9.36,0,0,0,.25,1.42c.15.65.44,2.14.56,2.76l.05.31a1.34,1.34,0,0,0-.66.4c-1,1.06,0,2.81.86,3.19a1.74,1.74,0,0,0,.48.14,2.09,2.09,0,0,0,1.65,1.51l.05.59h0l.11,1.37h0l-.05-.69c-.75-.06-1.57,2.06-1.66,2.3-1.75.68-4.23,1.65-4.93,1.95h0l-.18.09,0,0c-1.2.63-2.81,3.07-4.85,6.48-1.45,2.43-5.56,8.19-6.09,9.29s-.71,2.29.35,3c.73.51,5.19,3,7.9,4.44h0l.44.24h0l1.65.9.28-.41a6.33,6.33,0,0,0,2.93,1.33c-3.39,19-4.32,51.59-4.32,51.59a9.26,9.26,0,0,1-4.89,1.38l-2.85.13s-.37.26,0,.89a3.18,3.18,0,0,0,2.5.86h3.17a4.88,4.88,0,0,0,2.16-.49l.54-.25,0,.74h2.76v-3.26l8.44-39.84L565,267.19v3.26h2.76l0-.74.53.25a5,5,0,0,0,2.17.49h3.17a3.15,3.15,0,0,0,2.49-.86c.43-.63.06-.89.06-.89l-2.86-.13a9.22,9.22,0,0,1-4.88-1.38s.7-14.16.5-23.59c-.18-8-1-20.9-1.73-29.15h0c.6,0,1.43-.92,2.14-1.53l.24.25L570.9,212h0l.35-.34h0c2.12-2.05,5.68-5.49,6.45-6.3A1.51,1.51,0,0,0,577.7,203.06Zm-27.27,8.82-5.38-5.33,5.25-8,0,.1c0,.21.09.43.13.65l.07.3,0,.12.44,2.14a2.93,2.93,0,0,0,0,.29c.05.24.1.47.14.7s.05.24.07.36.07.38.11.56,0,.24.07.36l.09.49.06.31c0,.16,0,.31.07.45a2.23,2.23,0,0,1,0,.23c0,.19.06.35.08.5v0c.07.55.15,1.09.23,1.61.21,1.43.4,2.64.55,3.19l-1.09,1.44Zm17-1-.61-.2s0-.09,0-.13a1.22,1.22,0,0,0,0-.17s0-.06,0-.09,0-.11,0-.18l0-.14a2,2,0,0,1,0-.24l0-.18c0-.09,0-.2.05-.31l0-.19c0-.17,0-.35.08-.55l0-.23.06-.41c0-.1,0-.2,0-.3l0-.25h0c.31-2.33.65-5.51.8-8.17l4.2,4.71Z" transform="translate(-264.56 -168.1)"/><path class="cls-1" d="M469.17,203.06c-.28-.44-4.78-6.55-6.27-8.8s-2.58-3.74-3.24-4c-.36-.4-3.84-1.42-5.8-2h0c-.67-1.86-1.43-1.91-1.43-1.91l-.05-.77.85-.15a4,4,0,0,0,3.19-4.59l-.77-4.31a4.75,4.75,0,0,0-.49-1.37l0,0c2.33-1.7,1.57-4.46,1.17-4a6.07,6.07,0,0,1-2.05,1.26,5.57,5.57,0,0,0,.41-3.85c-.25-.63-1.13.12-3.15,1.28-2.51,1.46-5.23,2.44-6.61,3.17a1.57,1.57,0,0,0-.54.47l-.79-1.07a1,1,0,0,0-.21,1.35.91.91,0,0,0,.27.25l-.84.09a1,1,0,0,0,1.06.86,1.15,1.15,0,0,0,.17-.06,9.36,9.36,0,0,0,.25,1.42c.15.65.43,2.14.56,2.76l.05.31a1.34,1.34,0,0,0-.66.4c-1,1.06,0,2.81.85,3.19a1.92,1.92,0,0,0,.49.14,2.09,2.09,0,0,0,1.65,1.51l.05.59h0l.11,1.37h0l-.05-.69c-.75-.06-1.57,2.06-1.67,2.3-1.74.68-4.22,1.65-4.92,1.95h0l-.18.09,0,0c-1.2.63-2.81,3.07-4.85,6.48-1.45,2.43-5.57,8.19-6.09,9.29s-.71,2.29.35,3c.73.51,5.19,3,7.9,4.44h0l.44.24h0l1.65.9.28-.41a6.33,6.33,0,0,0,2.93,1.33c-3.39,19-4.33,51.59-4.33,51.59a9.22,9.22,0,0,1-4.88,1.38l-2.85.13s-.37.26,0,.89a3.18,3.18,0,0,0,2.5.86h3.17A4.88,4.88,0,0,0,439,270l.54-.25,0,.74h2.76v-3.26l8.44-39.84,5.75,39.84v3.26h2.76l0-.74.53.25a5,5,0,0,0,2.17.49h3.17a3.15,3.15,0,0,0,2.49-.86c.43-.63.06-.89.06-.89l-2.86-.13a9.22,9.22,0,0,1-4.88-1.38s.7-14.16.49-23.59c-.17-8-1-20.9-1.72-29.15h0c.6,0,1.42-.92,2.14-1.53l.24.25,1.26-1.22h0l.36-.34h0c2.12-2.05,5.68-5.49,6.45-6.3C470.18,204.25,469.44,203.5,469.17,203.06Zm-27.27,8.82-5.38-5.33,5.25-8,0,.1c0,.21.09.43.13.65l.07.3,0,.12c.15.72.3,1.45.43,2.14l.06.29c.05.24.09.47.14.7s.05.24.07.36.07.38.11.56,0,.24.07.36l.09.49c0,.11,0,.21,0,.31s.06.31.08.45,0,.16,0,.23.06.35.08.5v0c.07.55.15,1.09.23,1.61.2,1.43.4,2.64.54,3.19l-1.08,1.44Zm17-1-.61-.2s0-.09,0-.13a1.22,1.22,0,0,0,.05-.17s0-.06,0-.09,0-.11,0-.18a.68.68,0,0,0,0-.14c0-.08,0-.16.05-.24l0-.18c0-.09,0-.2.05-.31l0-.19c0-.17,0-.35.08-.55l0-.23.06-.41c0-.1,0-.2,0-.3l0-.25h0c.31-2.33.65-5.51.8-8.17l4.2,4.71Z" transform="translate(-264.56 -168.1)"/><rect class="cls-2" x="10.82" y="103.08" width="23.72" height="156.44"/><rect class="cls-2" x="65.25" y="103.08" width="23.72" height="156.44"/><rect class="cls-2" x="119.69" y="103.08" width="23.72" height="156.44"/><rect class="cls-2" x="174.13" y="103.08" width="23.72" height="156.44"/><rect class="cls-2" x="283.52" y="103.08" width="23.72" height="156.44"/><rect class="cls-2" x="229.09" y="103.08" width="23.72" height="156.44"/></svg>