<svg id="Layer_1" data-name="Layer 1" xmlns="http://www.w3.org/2000/svg" viewBox="0 0 381.69 300.87"><defs><style>.cls-1{fill:#969696;opacity:0.52;}.cls-2{opacity:0.33;}.cls-3,.cls-4{fill:none;}.cls-3{stroke:#9b9a9a;stroke-miterlimit:10;}.cls-4{stroke:#6bcce0;stroke-linecap:round;stroke-linejoin:round;stroke-width:2px;}</style></defs><title>T shape2</title><ellipse class="cls-1" cx="281.95" cy="104.42" rx="2.68" ry="1.39"/><ellipse class="cls-1" cx="235.24" cy="72.54" rx="2.68" ry="1.39"/><ellipse class="cls-1" cx="182.68" cy="95.44" rx="2.68" ry="1.39"/><ellipse class="cls-1" cx="124.15" cy="66.03" rx="2.68" ry="1.39"/><ellipse class="cls-1" cx="74.4" cy="54.49" rx="2.68" ry="1.39"/><ellipse class="cls-1" cx="38.68" cy="114.4" rx="2.68" ry="1.39"/><ellipse class="cls-1" cx="16.69" cy="218.55" rx="2.68" ry="1.39"/><ellipse class="cls-1" cx="50.5" cy="143.55" rx="2.68" ry="1.39"/><ellipse class="cls-1" cx="87.05" cy="269.94" rx="2.68" ry="1.39"/><ellipse class="cls-1" cx="2.68" cy="243.83" rx="2.68" ry="1.39"/><ellipse class="cls-1" cx="97.76" cy="182.28" rx="2.68" ry="1.39"/><ellipse class="cls-1" cx="76.33" cy="171.56" rx="2.68" ry="1.39"/><ellipse class="cls-1" cx="330.05" cy="64.85" rx="2.68" ry="1.39"/><ellipse class="cls-1" cx="325.1" cy="163.33" rx="2.68" ry="1.39"/><ellipse class="cls-1" cx="315.76" cy="186.66" rx="2.68" ry="1.39"/><ellipse class="cls-1" cx="326.95" cy="205.64" rx="2.68" ry="1.39"/><ellipse class="cls-1" cx="292.67" cy="205.93" rx="2.68" ry="1.39"/><ellipse class="cls-1" cx="250.01" cy="256.11" rx="2.68" ry="1.39"/><ellipse class="cls-1" cx="219.96" cy="252.08" rx="2.68" ry="1.39"/><ellipse class="cls-1" cx="216.39" cy="271.04" rx="2.68" ry="1.39"/><ellipse class="cls-1" cx="164.54" cy="224.82" rx="2.68" ry="1.39"/><ellipse class="cls-1" cx="118.61" cy="275.98" rx="2.68" ry="1.39"/><ellipse class="cls-1" cx="61.76" cy="259.75" rx="2.68" ry="1.39"/><ellipse class="cls-1" cx="282.44" cy="165.53" rx="2.68" ry="1.39"/><ellipse class="cls-1" cx="235.72" cy="98.73" rx="2.68" ry="1.39"/><ellipse class="cls-1" cx="233.22" cy="90.5" rx="2.68" ry="1.39"/><ellipse class="cls-1" cx="265.28" cy="114.13" rx="2.68" ry="1.39"/><g class="cls-2"><polygon class="cls-3" points="202.16 136.06 267.84 173.99 202.16 211.91 136.47 173.99 202.16 136.06"/><polyline class="cls-3" points="279.27 104.42 263.51 104.09 205.71 137.47"/><path class="cls-3" d="M493,317.86l-49.06,28Z" transform="translate(-228.87 -203.01)"/><polyline class="cls-3" points="233.59 73.58 213.39 85.24 213.39 95.36 188.58 109.68 188.58 115.65"/><polyline class="cls-3" points="231.5 90.67 185.1 117.66 185.1 129.37 198.87 137.32"/><polyline class="cls-3" points="196.56 110.96 214.15 111.38 235.03 99.28"/><polyline class="cls-3" points="225.28 148.77 293.16 109.57 293.16 102.57 304.64 95.3 305.2 79.5 327.98 65.71"/><polyline class="cls-3" points="251.62 163.97 305.55 133.49 381.69 133.48"/><polyline class="cls-3" points="270.07 153.15 307.55 153.3 323.33 161.76"/><polyline class="cls-3" points="260.04 159.76 272.07 159.2 282.44 165.53"/><polyline class="cls-3" points="235.28 154.54 331.35 99.83 341.52 79.22 355.53 70.7"/><polyline class="cls-3" points="243.93 159.53 312.94 120.44 361.17 120.34 380.82 109.45"/><polyline class="cls-3" points="263.7 177.02 290.95 193.54 302.31 193.74 314.4 187.4"/><polyline class="cls-3" points="271.47 182.15 270.91 193.59 292.05 205.63"/><polyline class="cls-3" points="235.84 193.11 250.63 201.65 325.56 244.91 361.86 244.66 368.73 249.6"/><polyline class="cls-3" points="249.48 200.98 264.78 200.98 290.75 215.98 310.6 215.41 326.95 205.63"/><polyline class="cls-3" points="188.18 142.43 160.93 126.51 161.49 107.59 181.31 95.16"/><polyline class="cls-3" points="179.1 148.73 142.07 127.35 141.51 76.76 123.72 66.48"/><polyline class="cls-3" points="170.45 153.72 120.48 124.87 121.04 81.11 76.67 55.49"/><polyline class="cls-3" points="158.25 160.77 121.31 140.09 84.17 140.65 40.05 114.67"/><polyline class="cls-3" points="213.75 205.87 223.96 211.89 266.71 237.09 267.23 261.97 204.57 300.44"/><path class="cls-3" d="M452.13,430.54" transform="translate(-228.87 -203.01)"/><polyline class="cls-3" points="223.96 211.89 223.73 225.65 250.28 240.97 249.72 254.51"/><polyline class="cls-3" points="195.46 208.69 194.9 238.2 219.96 252.08"/><polyline class="cls-3" points="194.9 226.29 177.49 236.35 177.49 247.64 216.66 270.4"/><polyline class="cls-3" points="185.37 202.87 176.75 207.84 176.75 217.76 164.54 224.82"/><polyline class="cls-3" points="177.13 198.11 131.96 224.83 131.96 268.27 118.61 275.98"/><polyline class="cls-3" points="168.47 193.11 81.74 243.51 82.3 249.18 62.59 259.77"/><polyline class="cls-3" points="189 204.54 104.55 254.5 105.11 260.17 85.4 270.76"/><polyline class="cls-3" points="159.53 187.95 127.9 206.85 38.41 206.46 16.7 218.55"/><polyline class="cls-3" points="151.9 182.28 144.02 187.27 124.03 199.92 112.64 199.96 89.66 186.69 59.02 185.57"/><polyline class="cls-3" points="146.41 179.8 123.92 192.8 116.48 192.8 99.13 183.43"/><polyline class="cls-3" points="142.94 169.61 120.85 156.17 100.59 157.22 77.47 170.58"/><polyline class="cls-3" points="121.43 157.19 112.92 152.27 64.05 152.27 50.47 144.43"/><polyline class="cls-3" points="124.16 218.69 46.14 218.69 2.68 243.83"/></g><polygon class="cls-4" points="127.42 60.65 151.25 75.55 151.59 99.69 127.72 86.18 127.42 60.65"/><polygon class="cls-4" points="256.92 14.48 151.35 74.96 151.59 99.69 256.8 38.92 256.92 14.48"/><polygon class="cls-4" points="234.22 1 256.8 14.7 150.96 75.35 127.81 60.52 234.22 1"/><polygon class="cls-4" points="174.79 34.99 197.43 48.47 220.57 35.28 197.25 21.59 174.79 34.99"/><polygon class="cls-4" points="174.97 174.78 174.79 34.99 197.07 48.45 197.49 188.12 174.97 174.78"/><polygon class="cls-4" points="220.47 35.28 220.91 60.53 221.03 175.08 197.49 188.12 196.74 49.06 220.47 35.28"/><line class="cls-4" x1="174.97" y1="60.89" x2="197.07" y2="75.2"/><polyline class="cls-4" points="151.25 48.08 174.78 61.37 174.98 86.28"/><polyline class="cls-4" points="174.97 174.78 197.23 162.09 221.03 175.08"/></svg>