<svg xmlns="http://www.w3.org/2000/svg" width="2244" height="1948.285" viewBox="0 0 2244 1948.285">
  <g id="Group_30" data-name="Group 30" transform="translate(1484 1257.004)">
    <g id="Group_6" data-name="Group 6" transform="translate(-1484 -767.58)">
      <ellipse id="Ellipse_131" data-name="Ellipse 131" cx="15.752" cy="8.182" rx="15.752" ry="8.182" transform="translate(1641.887 293.538)" fill="#949494" opacity="0.52"/>
      <ellipse id="Ellipse_132" data-name="Ellipse 132" cx="15.752" cy="8.182" rx="15.752" ry="8.182" transform="translate(1367.229 106.124)" fill="#949494" opacity="0.52"/>
      <ellipse id="Ellipse_133" data-name="Ellipse 133" cx="15.752" cy="8.182" rx="15.752" ry="8.182" transform="translate(1058.24 240.729)" fill="#949494" opacity="0.52"/>
      <ellipse id="Ellipse_134" data-name="Ellipse 134" cx="15.752" cy="8.182" rx="15.752" ry="8.182" transform="translate(714.11 67.857)" fill="#949494" opacity="0.52"/>
      <ellipse id="Ellipse_135" data-name="Ellipse 135" cx="15.752" cy="8.182" rx="15.752" ry="8.182" transform="translate(421.68)" fill="#949494" opacity="0.52"/>
      <ellipse id="Ellipse_136" data-name="Ellipse 136" cx="15.752" cy="8.182" rx="15.752" ry="8.182" transform="translate(211.648 352.208)" fill="#949494" opacity="0.52"/>
      <ellipse id="Ellipse_137" data-name="Ellipse 137" cx="15.752" cy="8.182" rx="15.752" ry="8.182" transform="translate(82.397 964.533)" fill="#949494" opacity="0.52"/>
      <ellipse id="Ellipse_138" data-name="Ellipse 138" cx="15.752" cy="8.182" rx="15.752" ry="8.182" transform="translate(281.12 523.569)" fill="#949494" opacity="0.52"/>
      <ellipse id="Ellipse_139" data-name="Ellipse 139" cx="15.752" cy="8.182" rx="15.752" ry="8.182" transform="translate(495.999 1266.656)" fill="#949494" opacity="0.52"/>
      <ellipse id="Ellipse_140" data-name="Ellipse 140" cx="15.752" cy="8.182" rx="15.752" ry="8.182" transform="translate(0 1113.171)" fill="#949494" opacity="0.52"/>
      <ellipse id="Ellipse_141" data-name="Ellipse 141" cx="15.752" cy="8.182" rx="15.752" ry="8.182" transform="translate(559.009 751.269)" fill="#949494" opacity="0.52"/>
      <ellipse id="Ellipse_142" data-name="Ellipse 142" cx="15.752" cy="8.182" rx="15.752" ry="8.182" transform="translate(432.99 688.26)" fill="#949494" opacity="0.52"/>
      <ellipse id="Ellipse_143" data-name="Ellipse 143" cx="15.752" cy="8.182" rx="15.752" ry="8.182" transform="translate(1924.623 60.886)" fill="#949494" opacity="0.52"/>
      <ellipse id="Ellipse_144" data-name="Ellipse 144" cx="15.752" cy="8.182" rx="15.752" ry="8.182" transform="translate(1895.542 639.895)" fill="#949494" opacity="0.52"/>
      <ellipse id="Ellipse_145" data-name="Ellipse 145" cx="15.752" cy="8.182" rx="15.752" ry="8.182" transform="translate(1840.61 777.016)" fill="#949494" opacity="0.52"/>
      <ellipse id="Ellipse_146" data-name="Ellipse 146" cx="15.752" cy="8.182" rx="15.752" ry="8.182" transform="translate(1906.447 888.598)" fill="#949494" opacity="0.52"/>
      <ellipse id="Ellipse_147" data-name="Ellipse 147" cx="15.752" cy="8.182" rx="15.752" ry="8.182" transform="translate(1704.897 890.318)" fill="#949494" opacity="0.52"/>
      <ellipse id="Ellipse_148" data-name="Ellipse 148" cx="15.752" cy="8.182" rx="15.752" ry="8.182" transform="translate(1454.07 1185.336)" fill="#949494" opacity="0.52"/>
      <ellipse id="Ellipse_149" data-name="Ellipse 149" cx="15.752" cy="8.182" rx="15.752" ry="8.182" transform="translate(1277.427 1161.64)" fill="#949494" opacity="0.52"/>
      <ellipse id="Ellipse_150" data-name="Ellipse 150" cx="15.752" cy="8.182" rx="15.752" ry="8.182" transform="translate(1256.424 1273.119)" fill="#949494" opacity="0.52"/>
      <ellipse id="Ellipse_151" data-name="Ellipse 151" cx="15.752" cy="8.182" rx="15.752" ry="8.182" transform="translate(951.589 1001.367)" fill="#949494" opacity="0.52"/>
      <ellipse id="Ellipse_152" data-name="Ellipse 152" cx="15.752" cy="8.182" rx="15.752" ry="8.182" transform="translate(681.548 1302.167)" fill="#949494" opacity="0.52"/>
      <ellipse id="Ellipse_153" data-name="Ellipse 153" cx="15.752" cy="8.182" rx="15.752" ry="8.182" transform="translate(347.361 1206.774)" fill="#949494" opacity="0.52"/>
      <ellipse id="Ellipse_154" data-name="Ellipse 154" cx="15.752" cy="8.182" rx="15.752" ry="8.182" transform="translate(1644.715 652.82)" fill="#949494" opacity="0.52"/>
      <ellipse id="Ellipse_155" data-name="Ellipse 155" cx="15.752" cy="8.182" rx="15.752" ry="8.182" transform="translate(1370.057 260.117)" fill="#949494" opacity="0.52"/>
      <ellipse id="Ellipse_156" data-name="Ellipse 156" cx="15.752" cy="8.182" rx="15.752" ry="8.182" transform="translate(1355.382 211.679)" fill="#949494" opacity="0.52"/>
      <ellipse id="Ellipse_157" data-name="Ellipse 157" cx="15.752" cy="8.182" rx="15.752" ry="8.182" transform="translate(1543.872 350.623)" fill="#949494" opacity="0.52"/>
    </g>
    <g id="Group_7" data-name="Group 7" transform="translate(-1468.248 -753.516)" opacity="0.33">
      <path id="Path_62" data-name="Path 62" d="M663.083,197.828l386.161,222.947L663.071,643.733,276.913,420.781Z" transform="translate(509.673 275.874)" fill="none" stroke="#989899" stroke-miterlimit="10" stroke-width="11"/>
      <path id="Path_63" data-name="Path 63" d="M778.671,167.787l-92.656-1.933L346.145,362.072" transform="translate(847.464 119.869)" fill="none" stroke="#989899" stroke-miterlimit="10" stroke-width="11"/>
      <path id="Path_64" data-name="Path 64" d="M643.918,176.62,355.495,341.276Z" transform="translate(893.085 172.398)" fill="none" stroke="#989899" stroke-miterlimit="10" stroke-width="11"/>
      <path id="Path_65" data-name="Path 65" d="M593.692,135.338l-118.784,68.58v59.469l-145.892,84.23v35.1" transform="translate(763.889 -29.02)" fill="none" stroke="#989899" stroke-miterlimit="10" stroke-width="11"/>
      <path id="Path_66" data-name="Path 66" d="M598.357,152.437,325.542,311.089l0,68.844,80.938,46.73" transform="translate(746.927 54.406)" fill="none" stroke="#989899" stroke-miterlimit="10" stroke-width="11"/>
      <path id="Path_67" data-name="Path 67" d="M337,229.712l103.4,2.423,122.788-71.088" transform="translate(802.832 96.419)" fill="none" stroke="#989899" stroke-miterlimit="10" stroke-width="11"/>
      <path id="Path_68" data-name="Path 68" d="M365.719,615.793,764.806,385.375V344.183l67.457-42.751,3.3-92.84,133.916-81.122" transform="translate(942.971 -67.413)" fill="none" stroke="#989899" stroke-miterlimit="10" stroke-width="11"/>
      <path id="Path_69" data-name="Path 69" d="M392.058,374.494,709.11,195.254l447.655-.006" transform="translate(1071.482 263.285)" fill="none" stroke="#989899" stroke-miterlimit="10" stroke-width="11"/>
      <path id="Path_70" data-name="Path 70" d="M410.509,214.91l220.356.877,92.748,49.741" transform="translate(1161.502 359.22)" fill="none" stroke="#989899" stroke-miterlimit="10" stroke-width="11"/>
      <path id="Path_71" data-name="Path 71" d="M400.478,224.258l70.746-3.3,60.927,37.224" transform="translate(1112.564 388.751)" fill="none" stroke="#989899" stroke-miterlimit="10" stroke-width="11"/>
      <path id="Path_72" data-name="Path 72" d="M375.719,625.347,940.537,303.725l59.779-121.172,82.4-50.085" transform="translate(991.76 -43.027)" fill="none" stroke="#989899" stroke-miterlimit="10" stroke-width="11"/>
      <path id="Path_73" data-name="Path 73" d="M384.373,465.662l405.7-229.821,283.527-.6,115.535-64.022" transform="translate(1033.982 146.029)" fill="none" stroke="#989899" stroke-miterlimit="10" stroke-width="11"/>
      <path id="Path_74" data-name="Path 74" d="M404.144,238.786l160.207,97.132,66.762,1.127,71.081-37.227" transform="translate(1130.449 475.711)" fill="none" stroke="#989899" stroke-miterlimit="10" stroke-width="11"/>
      <path id="Path_75" data-name="Path 75" d="M414.645,243.916l-3.3,67.269,124.327,70.788" transform="translate(1165.589 500.743)" fill="none" stroke="#989899" stroke-miterlimit="10" stroke-width="11"/>
      <path id="Path_76" data-name="Path 76" d="M376.279,254.874,463.266,305.1,903.785,559.429l213.353-1.5,40.391,29.081" transform="translate(994.495 554.206)" fill="none" stroke="#989899" stroke-miterlimit="10" stroke-width="11"/>
      <path id="Path_77" data-name="Path 77" d="M389.917,262.747h89.969l152.676,88.146,116.718-3.3,96.136-57.5" transform="translate(1061.032 592.621)" fill="none" stroke="#989899" stroke-miterlimit="10" stroke-width="11"/>
      <path id="Path_78" data-name="Path 78" d="M461.553,434.814l-160.184-93.6,3.3-111.219,116.495-73.066" transform="translate(628.999 76.306)" fill="none" stroke="#989899" stroke-miterlimit="10" stroke-width="11"/>
      <path id="Path_79" data-name="Path 79" d="M589.769,611.771,372.083,486.088l-3.289-297.423L264.155,128.249" transform="translate(447.426 -63.61)" fill="none" stroke="#989899" stroke-miterlimit="10" stroke-width="11"/>
      <path id="Path_80" data-name="Path 80" d="M768.465,694.782,474.681,525.16l3.3-257.292L217.1,117.254" transform="translate(217.865 -117.254)" fill="none" stroke="#989899" stroke-miterlimit="10" stroke-width="11"/>
      <path id="Path_81" data-name="Path 81" d="M875.358,447.442,658.192,325.868l-218.31,3.3L180.493,176.437" transform="translate(39.233 171.505)" fill="none" stroke="#989899" stroke-miterlimit="10" stroke-width="11"/>
      <path id="Path_82" data-name="Path 82" d="M398.941,267.63l60.071,35.417L710.317,451.214l3.06,146.263L345.012,823.666" transform="translate(841.939 616.444)" fill="none" stroke="#989899" stroke-miterlimit="10" stroke-width="11"/>
      <path id="Path_83" data-name="Path 83" d="M363.7,289.292" transform="translate(933.113 722.137)" fill="none" stroke="#989899" stroke-miterlimit="10" stroke-width="11"/>
      <path id="Path_84" data-name="Path 84" d="M365.528,273.654l-1.356,80.873,156.069,90.1-3.3,79.568" transform="translate(935.423 645.837)" fill="none" stroke="#989899" stroke-miterlimit="10" stroke-width="11"/>
      <path id="Path_85" data-name="Path 85" d="M338.642,270.456l-3.3,173.5,147.333,81.572" transform="translate(794.753 630.235)" fill="none" stroke="#989899" stroke-miterlimit="10" stroke-width="11"/>
      <path id="Path_86" data-name="Path 86" d="M420.3,288.058l-102.376,59.1v66.416L548.247,547.351" transform="translate(709.793 716.117)" fill="none" stroke="#989899" stroke-miterlimit="10" stroke-width="11"/>
      <path id="Path_87" data-name="Path 87" d="M427.47,264.631l-50.677,29.258,0,58.323-71.812,41.459" transform="translate(646.61 601.814)" fill="none" stroke="#989899" stroke-miterlimit="10" stroke-width="11"/>
      <path id="Path_88" data-name="Path 88" d="M603.091,259.87,337.536,417,337.53,672.39,259.046,717.7" transform="translate(422.502 578.582)" fill="none" stroke="#989899" stroke-miterlimit="10" stroke-width="11"/>
      <path id="Path_89" data-name="Path 89" d="M825.539,254.874,315.633,551.183l3.3,33.334-115.9,62.272" transform="translate(149.18 554.207)" fill="none" stroke="#989899" stroke-miterlimit="10" stroke-width="11"/>
      <path id="Path_90" data-name="Path 90" d="M834.93,266.3,338.442,560.061l3.3,33.334-115.9,62.272" transform="translate(260.469 609.954)" fill="none" stroke="#989899" stroke-miterlimit="10" stroke-width="11"/>
      <path id="Path_91" data-name="Path 91" d="M996.88,249.71,810.949,360.87,284.77,358.549,157.135,429.637" transform="translate(-74.737 529.015)" fill="none" stroke="#989899" stroke-miterlimit="10" stroke-width="11"/>
      <path id="Path_92" data-name="Path 92" d="M745.539,244.04l-46.356,29.353-117.5,74.4-66.964.218-135.113-78-180.157-6.579" transform="translate(131.75 501.348)" fill="none" stroke="#989899" stroke-miterlimit="10" stroke-width="11"/>
      <path id="Path_93" data-name="Path 93" d="M517.526,241.567l-132.219,76.42h-43.7L239.565,262.88" transform="translate(327.451 489.28)" fill="none" stroke="#989899" stroke-miterlimit="10" stroke-width="11"/>
      <path id="Path_94" data-name="Path 94" d="M602.818,296.928,472.934,217.933l-119.078,6.208L217.909,302.633" transform="translate(221.789 373.969)" fill="none" stroke="#989899" stroke-miterlimit="10" stroke-width="11"/>
      <path id="Path_95" data-name="Path 95" d="M608.124,281.2,558.057,252.3h-287.3l-79.852-46.1" transform="translate(90.04 316.689)" fill="none" stroke="#989899" stroke-miterlimit="10" stroke-width="11"/>
      <path id="Path_96" data-name="Path 96" d="M857.33,280.458H398.616l-255.5,147.8" transform="translate(-143.119 679.034)" fill="none" stroke="#989899" stroke-miterlimit="10" stroke-width="11"/>
    </g>
    <g id="Group_9" data-name="Group 9" transform="translate(-734.853 -1073.872)">
      <path id="Path_97" data-name="Path 97" d="M267.865,122.415,407.947,210l2,141.936L269.6,272.518Z" transform="translate(-267.865 228.283)" fill="none" stroke="#03729b" stroke-linecap="round" stroke-linejoin="round" stroke-width="12"/>
      <path id="Path_98" data-name="Path 98" d="M912.448,76.24,291.791,431.822l1.419,145.409L911.738,219.963Z" transform="translate(-151.13 2.99)" fill="none" stroke="#03729b" stroke-linecap="round" stroke-linejoin="round" stroke-width="12"/>
      <path id="Path_99" data-name="Path 99" d="M893.875,62.764,1026.6,143.32,404.334,499.891,268.25,412.672Z" transform="translate(-265.989 -62.764)" fill="none" stroke="#03729b" stroke-linecap="round" stroke-linejoin="round" stroke-width="12"/>
      <g id="Group_8" data-name="Group 8" transform="translate(278.482 121.076)">
        <path id="Path_100" data-name="Path 100" d="M315.233,162.139l133.08,79.244,136.03-77.566-137.1-80.46Z" transform="translate(-315.233 -83.358)" fill="none" stroke="#03729b" stroke-linecap="round" stroke-linejoin="round" stroke-width="12"/>
        <path id="Path_101" data-name="Path 101" d="M316.3,918.577,315.233,96.758l130.948,79.136L448.665,997Z" transform="translate(-315.233 -17.976)" fill="none" stroke="#03729b" stroke-linecap="round" stroke-linejoin="round" stroke-width="12"/>
        <path id="Path_102" data-name="Path 102" d="M476.683,97.044l2.592,148.433.71,673.482-138.4,76.652-4.4-817.528Z" transform="translate(-208.152 -16.583)" fill="none" stroke="#03729b" stroke-linecap="round" stroke-linejoin="round" stroke-width="12"/>
        <line id="Line_143" data-name="Line 143" x2="129.883" y2="84.105" transform="translate(1.065 231.022)" fill="none" stroke="#03729b" stroke-linecap="round" stroke-linejoin="round" stroke-width="12"/>
      </g>
      <path id="Path_103" data-name="Path 103" d="M291.692,109.843l138.345,78.145,1.158,146.449" transform="translate(-151.611 166.943)" fill="none" stroke="#03729b" stroke-linecap="round" stroke-linejoin="round" stroke-width="12"/>
      <path id="Path_104" data-name="Path 104" d="M315.414,298.441l130.858-74.582,139.91,76.357" transform="translate(-35.868 723.235)" fill="none" stroke="#03729b" stroke-linecap="round" stroke-linejoin="round" stroke-width="12"/>
    </g>
    <g id="Group_104" data-name="Group 104">
      <g id="Group_11" data-name="Group 11" transform="translate(-850.078 -1257.004)">
        <g id="Group_10" data-name="Group 10">
          <path id="Path_105" data-name="Path 105" d="M263.493,108.061l-15.227,8.9.112-4.415,35.657-20.918-.106,4.492-15.28,8.925-.982,40.448-5.156,2.9Z" transform="translate(-248.266 261.206)" fill="#13b6d1"/>
          <path id="Path_106" data-name="Path 106" d="M256.3,104.482,284,88.256l-.1,4.439-22.676,13.228-.376,15.821,21.429-12.328-.106,4.439-21.429,12.281-.394,16.52,22.67-12.8-.1,4.439-27.708,15.586Z" transform="translate(-214.381 244.749)" fill="#13b6d1"/>
          <path id="Path_107" data-name="Path 107" d="M270.163,139.415a8.1,8.1,0,0,1-6.861-4.227q-2.328-3.942-2.158-11.217a41.719,41.719,0,0,1,2.751-14,42.654,42.654,0,0,1,7.243-12.287A41.438,41.438,0,0,1,282.015,88.5a26.758,26.758,0,0,1,8.29-3.369,10.305,10.305,0,0,1,6.485.588l-2.028,5.321a12.554,12.554,0,0,0-6.114-.517,20.337,20.337,0,0,0-6.679,2.64,29.985,29.985,0,0,0-11.264,11.47,34.482,34.482,0,0,0-4.274,16.315q-.211,9.127,3.616,11.852,3.827,2.743,11.029-1.317a32.517,32.517,0,0,0,6.737-5.044,51.707,51.707,0,0,0,6.308-7.631l1.828,3.11a42.689,42.689,0,0,1-6.685,8.125,41.93,41.93,0,0,1-8.36,6.167Q274.7,139.7,270.163,139.415Z" transform="translate(-185.486 228.247)" fill="#13b6d1"/>
          <path id="Path_108" data-name="Path 108" d="M305.833,79.659l-1.088,48.021-5.027,2.816.5-21.941L274,123.523l-.5,21.665-5.033,2.822,1.088-47.186,5.032-2.94-.482,20.941L300.324,103.8l.482-21.206Z" transform="translate(-149.684 202.803)" fill="#13b6d1"/>
          <path id="Path_109" data-name="Path 109" d="M312.66,75.112l-1.088,49.073-3.91,2.187-25.527-24.14-.876,38.9-4.78,2.681,1.088-48.273,3.909-2.275L307,117.277l.876-39.384Z" transform="translate(-110.607 180.617)" fill="#13b6d1"/>
          <path id="Path_110" data-name="Path 110" d="M285.376,76.5l5.1-2.963-1.088,49.443-5.1,2.846Z" transform="translate(-72.511 172.938)" fill="#13b6d1"/>
          <path id="Path_111" data-name="Path 111" d="M295.834,127.543a8.515,8.515,0,0,1-6.855-4.862q-2.328-4.365-2.158-12.176a46.409,46.409,0,0,1,2.751-14.939A43.926,43.926,0,0,1,296.816,82.7a39.477,39.477,0,0,1,10.876-9.36,24.516,24.516,0,0,1,8.29-3.228,9.814,9.814,0,0,1,6.479.947l-2.022,5.62a11.89,11.89,0,0,0-6.114-.847,18.491,18.491,0,0,0-6.679,2.522,29.142,29.142,0,0,0-11.27,11.794A38.127,38.127,0,0,0,292.1,107.5q-.212,9.815,3.616,12.922,3.827,3.131,11.035-.9a31.2,31.2,0,0,0,6.737-5.109A51.824,51.824,0,0,0,319.8,106.5l1.828,3.428a42.534,42.534,0,0,1-6.69,8.431,39.745,39.745,0,0,1-8.354,6.244Q300.364,128.054,295.834,127.543Z" transform="translate(-60.211 155.425)" fill="#13b6d1"/>
          <path id="Path_112" data-name="Path 112" d="M326.436,99.274l-22.858,12.858-5.121,15.727-5.221,2.91,20.342-61.7,4.409-2.557,18.172,40.366L331,109.739Zm-1.693-3.933-9.071-20.695-10.183,31.571Z" transform="translate(-28.848 138.647)" fill="#13b6d1"/>
          <path id="Path_113" data-name="Path 113" d="M302.736,66.419l5.091-2.951-.976,46.651,21.923-12.234-.106,5.191-27.02,15.009Z" transform="translate(12.191 123.805)" fill="#13b6d1"/>
          <path id="Path_114" data-name="Path 114" d="M341.257,82.732q2.019,2.169,1.917,7.184a23.92,23.92,0,0,1-4.01,12.928,30.125,30.125,0,0,1-10.823,9.706L310.08,122.674l1.088-52.812L328.74,59.715q6.782-3.907,10.424-2.416,3.66,1.5,3.522,8.19a21.323,21.323,0,0,1-1.981,8.484,26.35,26.35,0,0,1-5.221,7.525Q339.249,80.571,341.257,82.732Zm-25.545,7.731,11.805-6.69a21.48,21.48,0,0,0,7.472-6.632,15.538,15.538,0,0,0,2.658-8.478q.185-9.1-9.754-3.386l-11.8,6.785Zm19.895,10.688a15.526,15.526,0,0,0,2.6-8.607q.2-9.85-9.859-4.174l-12.734,7.2-.394,19.213,12.728-7.084A21.855,21.855,0,0,0,335.607,101.151Z" transform="translate(53.331 91.696)" fill="#13b6d1"/>
          <path id="Path_115" data-name="Path 115" d="M351.676,100.687l-5.591,3.092L338.977,90.51c-.87-1.593-1.911-2.44-3.11-2.552s-2.869.435-4.98,1.623l-8.2,4.621-.459,22.77-5.033,2.781,1.088-53.764L336.3,55.606q7.143-4.118,10.823-2.34t3.528,9.448a25.875,25.875,0,0,1-3.092,11.876,28.824,28.824,0,0,1-8.331,9.542,3.941,3.941,0,0,1,2.91.417,6.61,6.61,0,0,1,2.252,2.622ZM335.338,81.915A21.153,21.153,0,0,0,343,74.989a17.789,17.789,0,0,0,2.675-9.371c.071-3.5-.711-5.626-2.328-6.373s-4.157-.135-7.6,1.84l-12.54,7.2L322.792,89Z" transform="translate(88.075 71.418)" fill="#13b6d1"/>
          <path id="Path_116" data-name="Path 116" d="M325.537,64.033l27.7-15.932-.106,5.344-22.67,12.987L330.081,85.5l21.429-12.1-.106,5.332L329.981,90.8l-.4,19.918L352.257,98.15l-.106,5.338-27.7,15.3Z" transform="translate(123.439 48.828)" fill="#13b6d1"/>
          <path id="Path_117" data-name="Path 117" d="M362.92,81.948,340.062,94.676l-5.121,16.967-5.221,2.875L350.063,48l4.409-2.534,18.172,45.4-5.156,2.84Zm-1.693-4.415-9.072-23.275L341.973,88.3Z" transform="translate(149.162 35.981)" fill="#13b6d1"/>
          <path id="Path_118" data-name="Path 118" d="M339.219,52.908l14.721-8.437q10.5-6.014,16.1-1.864,5.609,4.18,5.344,17.955A51.877,51.877,0,0,1,369.243,85a40.967,40.967,0,0,1-16.385,16.4l-14.727,8.1Zm13.434,43.017q17.02-9.392,17.455-32.4Q370.548,40.6,353.522,50.3L344.2,55.619l-.87,45.457Z" transform="translate(190.195 13.755)" fill="#13b6d1"/>
          <path id="Path_119" data-name="Path 119" d="M360.07,53.153,344.849,61.83l.106-5.709,35.657-20.389-.106,5.785-15.28,8.7-.982,52.195-5.15,2.828Z" transform="translate(222.973 -11.517)" fill="#13b6d1"/>
          <path id="Path_120" data-name="Path 120" d="M389.155,31.614l-1.088,59.273-5.027,2.751.5-27.1L357.325,81.175l-.5,26.826-5.032,2.757,1.088-58.444,5.033-2.875-.482,25.921,26.215-14.692.482-26.191Z" transform="translate(256.853 -31.614)" fill="#13b6d1"/>
        </g>
      </g>
    </g>
    <text id="IN_DEPTH_PROBLEM_SOLVING" data-name="IN DEPTH PROBLEM SOLVING" transform="translate(587.178 -33.389) rotate(-90)" fill="#13b6d1" font-size="70" font-family="Poppins-Regular, Poppins"><tspan x="0" y="0">IN DEPTH PROBLEM SOLVING</tspan></text>
  </g>
</svg>
