<svg xmlns="http://www.w3.org/2000/svg" width="52.791" height="72" viewBox="0 0 52.791 72">
  <g id="Group_701" data-name="Group 701" transform="translate(-10 -1.995)" opacity="0.45">
    <path id="Path_802" data-name="Path 802" d="M30.207,30.652h3.6v-2.4h-2l2-6.875-2.4-.648-2.4,8.4a1.2,1.2,0,0,0,1.2,1.524Z" transform="translate(3.789 3.743)" fill="#fff"/>
    <path id="Path_803" data-name="Path 803" d="M30,31.342v2.4h1.4a9.514,9.514,0,0,0,6.647-2.748l-1.7-1.7A7,7,0,0,1,31.4,31.342Z" transform="translate(3.996 5.454)" fill="#fff"/>
    <circle id="Ellipse_40" data-name="Ellipse 40" cx="2.4" cy="2.4" r="2.4" transform="translate(26.797 23.597)" fill="#fff"/>
    <circle id="Ellipse_41" data-name="Ellipse 41" cx="2.4" cy="2.4" r="2.4" transform="translate(41.195 23.597)" fill="#fff"/>
    <path id="Path_804" data-name="Path 804" d="M53.421,50.089l-8.627-1.2V44.63a13.33,13.33,0,0,0,3.347-3.947,21.032,21.032,0,0,0,2.652-8.843,4.8,4.8,0,0,0,.42-9.154l1.02-6.167A6.275,6.275,0,0,0,46.822,9.2,6.455,6.455,0,0,0,41,5.6H27.445L25.393,2.541a1.189,1.189,0,0,0-1.848-.192l-1.2,1.2A9.694,9.694,0,0,0,22,16.855v5.711a4.8,4.8,0,0,0,0,9.274,21.033,21.033,0,0,0,2.6,8.843A13.33,13.33,0,0,0,28,44.63v4.307l-8.627,1.2A10.8,10.8,0,0,0,10,60.791v13.2h2.4v-13.2a8.4,8.4,0,0,1,7.283-8.315l6.287-.84L28,59.88a1.2,1.2,0,0,0,.732.828,1.1,1.1,0,0,0,.468.084,1.2,1.2,0,0,0,.66-.2l2.3-1.524.636,1.872L31.6,73.881h2.466l1.026-11.89H37.7l1.106,11.89h2.385L40,60.935l.624-1.872,2.3,1.524a1.2,1.2,0,0,0,.672.2,1.1,1.1,0,0,0,.432-.084,1.2,1.2,0,0,0,.732-.828l2.064-8.243,6.287.84a8.4,8.4,0,0,1,7.283,8.315v13.2h2.4v-13.2a10.8,10.8,0,0,0-9.369-10.7ZM51.993,27.2a2.4,2.4,0,0,1-1.2,2.064V25.133A2.4,2.4,0,0,1,51.993,27.2ZM24.05,5.252l.156-.168,1.6,2.4A1.2,1.2,0,0,0,26.8,8H41a4.043,4.043,0,0,1,3.851,2.784,1.2,1.2,0,0,0,1.14.816,3.875,3.875,0,0,1,3.827,4.523l-.756,4.523L45.79,15.739a1.2,1.2,0,0,0-1-.54H23.762a7.259,7.259,0,0,1,.288-9.946ZM20.8,27.2A2.4,2.4,0,0,1,22,25.133v4.127A2.4,2.4,0,0,1,20.8,27.2Zm6,12.322a18.8,18.8,0,0,1-2.4-9.083V17.6H44.146l4.247,6.359v6.479a18.8,18.8,0,0,1-2.4,9.083,11.038,11.038,0,0,1-19.293,0Zm9.6,8.075a13.33,13.33,0,0,0,6-1.452v3.851l-6,3.431-6-3.431V46.154A13.33,13.33,0,0,0,36.4,47.594Zm-7.955,4.031,5.675,3.251-4.163,2.772Zm9.49,7.967H34.86l-.636-1.908L36.4,56.232l2.172,1.452Zm4.907-1.944-4.163-2.772,5.675-3.251Z" transform="translate(0 0)" fill="#fff"/>
    <rect id="Rectangle_109" data-name="Rectangle 109" width="2.4" height="9.598" transform="translate(19.598 64.391)" fill="#fff"/>
    <rect id="Rectangle_168" data-name="Rectangle 168" width="2.4" height="49.976" transform="translate(62.37 71.595) rotate(90)" fill="#fff"/>
    <rect id="Rectangle_110" data-name="Rectangle 110" width="2.4" height="9.598" transform="translate(50.793 64.391)" fill="#fff"/>
  </g>
</svg>
