<svg xmlns="http://www.w3.org/2000/svg" width="51.906" height="72" viewBox="0 0 51.906 72">
  <g id="woman" transform="translate(-71.445 0)" opacity="0.45">
    <g id="Group_1017" data-name="Group 1017" transform="translate(71.445 0.001)">
      <path id="Path_2637" data-name="Path 2637" d="M120.206,51.583a7.117,7.117,0,0,0-5.423-5.569h0c-.048-.014.409.1-10.876-2.7v-.383h8.307a3.109,3.109,0,0,0,3.105-3.105V23.985a3.881,3.881,0,0,0,0-1.792l-.005-11.158a1.055,1.055,0,0,0-2.11,0l.005,8.4a5.477,5.477,0,0,0-1.878-.689,2.751,2.751,0,0,0-2.318-2.12,3.438,3.438,0,0,1-2.718-2.091,1.808,1.808,0,0,0-3.083-.282,19.3,19.3,0,0,1-15.558,8c-.662,0-1.111-.031-1.268-.038A2.79,2.79,0,0,0,83.435,25v2.424a14.308,14.308,0,0,0,4.409,10.3,14.126,14.126,0,0,0,3.047,2.217v.877H82.622a1,1,0,0,1-1-1v-23.7A14.009,14.009,0,0,1,95.459,2.11h.073a17.976,17.976,0,0,1,7.976,1.962c1.352.746,2.187.153,3.523.153,3.259,0,5.871,3.351,6.184,6.365,0,.044.007.221.007.9a1.075,1.075,0,0,0,1.056,1.054,1.055,1.055,0,0,0,1.054-1.056c0-.187,0-.922-.016-1.092-.424-4.2-4-8.279-8.284-8.279-1.672,0-1.933.424-2.5.109A20.244,20.244,0,0,0,95.544,0,16.114,16.114,0,0,0,79.516,16.126v23.7a3.109,3.109,0,0,0,3.106,3.105h8.27v.383L80.058,46l-.043.012-.791.233-.07.023a7,7,0,0,0-4.561,5.313c-3.21,16.127-3.075,15.439-3.083,15.494C71.122,69.813,72.492,72,75.785,72H87.192a1.055,1.055,0,0,0,0-2.11H83.223V59.942a1.055,1.055,0,1,0-2.11,0v9.949H75.785c-1.4,0-2.215-.451-2.228-1.923-.006-.718-.034-.018,3.1-15.972a4.943,4.943,0,0,1,3.2-3.737l.732-.216L86.811,46.5c6.921,8.153,6.511,7.721,6.911,8.111a5.111,5.111,0,0,0,7.775-.453l6.514-7.652,6.2,1.536A5.113,5.113,0,0,1,118.137,52c3.111,15.816,3.11,15.251,3.1,15.972-.011,1.442-.791,1.924-2.228,1.924h-5.29V59.942a1.055,1.055,0,0,0-2.11,0v9.949h-26.7a1.055,1.055,0,0,0,0,2.11h34.1c2.606,0,4.314-1.434,4.338-4.017C123.36,66.778,123.288,67.354,120.206,51.583Zm-8.8-30.658a2.647,2.647,0,0,1,1.809,1.559v1.209a2.646,2.646,0,0,1-1.809,1.559Zm0,6.686v-.195a5.465,5.465,0,0,0,1.809-.677V39.829a1,1,0,0,1-1,1h-8.308v-.815A13.964,13.964,0,0,0,111.4,27.611ZM89.3,36.2a12.189,12.189,0,0,1-3.756-8.777c.063-2.3-.152-2.575.214-2.92a.666.666,0,0,1,.5-.182,21.188,21.188,0,0,0,18.364-8.437,5.412,5.412,0,0,0,4.116,2.832.634.634,0,0,1,.552.625v8.266A11.848,11.848,0,0,1,89.3,36.2ZM99.89,52.792a3.052,3.052,0,0,1-4.993-.009l-2.2-2.6h9.413Zm4.015-4.716h-13L89.1,45.936l3.1-.77a1.066,1.066,0,0,0,.8-1.034V40.868a13.972,13.972,0,0,0,8.8.03c.02,3.371-.045,3.294.059,3.592a1.055,1.055,0,0,0,.742.676l3.125.774Z" transform="translate(-71.445 -0.001)" fill="#fff"/>
    </g>
  </g>
</svg>
